<svg viewBox="0 0 225 225" version="1.1" xmlns="http://www.w3.org/2000/svg" desc="Created with imagetracer.js version 1.2.6" ><path fill="rgb(247,250,250)" stroke="rgb(247,250,250)" stroke-width="0" opacity="1" d="M 108.5 46 L 116.5 46 Q 117.8 48.2 122.5 47 L 124 48.5 L 123 49.5 L 123 60.5 L 126.5 66 L 133.5 69 L 138.5 69 L 143 65.5 L 145 55.5 L 144 51 L 152.5 52 L 165 57 L 164 72.5 L 158 79.5 Q 163.8 85.2 166 94.5 L 168 104.5 L 168 111.5 L 169 112.5 L 169 130.5 L 168 131.5 L 168 141.5 L 164 155.5 Q 159.7 165.2 151.5 171 L 144.5 175 L 133.5 178 Q 128 176.5 126.5 179 L 98.5 179 L 80.5 175 Q 70.8 170.7 65 162.5 Q 59.3 153.7 57 141.5 L 56 113.5 L 57 112.5 L 57 104.5 L 59 94.5 Q 61.2 85.2 67 79.5 L 61 72.5 L 60 57 L 69.5 53 L 81 51 L 80 56.5 Q 82.5 58 81 63.5 L 84.5 68 L 91.5 69 L 101 63.5 Q 103.4 58.4 102 49.5 Q 99.8 48.2 102.5 47 Q 107.2 48.2 108.5 46 Z M 102 80 L 101 81 L 92 81 L 84 84 L 78 91 L 74 108 L 74 136 L 77 151 L 80 156 L 88 161 L 99 162 L 100 163 L 125 163 L 126 162 L 134 162 L 142 159 L 147 153 L 151 134 L 151 109 L 150 108 L 149 97 L 146 89 Q 142 82 134 81 L 102 80 Z " /><path fill="rgb(247,250,250)" stroke="rgb(247,250,250)" stroke-width="0" opacity="1" d="M 86 90 L 102 90 L 102 112 L 123 112 L 123 90 L 139 90 L 139 151.5 L 138.5 152 L 123 152 L 123 127.5 L 121.5 127 L 120.5 126 L 104.5 126 L 102 127 L 102 152 L 86 152 L 86 90 Z " /><path fill="rgb(26,62,103)" stroke="rgb(26,62,103)" stroke-width="0" opacity="1" d="M 103.5 40 L 107 41.5 L 99.5 44 L 99.5 43 L 101 42.5 L 97 41.5 L 100.5 41 L 103.5 42 L 103.5 40 Z " /><path fill="rgb(26,62,103)" stroke="rgb(26,62,103)" stroke-width="0" opacity="1" d="M 120.5 41 L 123 42.5 L 121.5 43 L 120.5 41 Z " /><path fill="rgb(26,62,103)" stroke="rgb(26,62,103)" stroke-width="0" opacity="1" d="M 125.5 41 L 128 42.5 L 124.5 44 L 124.5 43 L 127 42.5 L 125.5 41 Z " /><path fill="rgb(26,62,103)" stroke="rgb(26,62,103)" stroke-width="0" opacity="1" d="M 109.5 42 L 112 42.5 L 109.5 43 L 109.5 42 Z " /><path fill="rgb(26,62,103)" stroke="rgb(26,62,103)" stroke-width="0" opacity="1" d="M 96.5 43 L 97 45.5 L 96 45.5 L 96.5 43 Z " /><path fill="rgb(26,62,103)" stroke="rgb(26,62,103)" stroke-width="0" opacity="1" d="M 103.5 44 L 104 46 L 108 46.5 L 104.5 47 L 103.5 44 Z " /><path fill="rgb(26,62,103)" stroke="rgb(26,62,103)" stroke-width="0" opacity="1" d="M 99.5 45 L 97.5 48 L 99.5 45 Z " /><path fill="rgb(26,62,103)" stroke="rgb(26,62,103)" stroke-width="0" opacity="1" d="M 117.5 46 L 122 46.5 L 117.5 47 L 117.5 46 Z " /><path fill="rgb(26,62,103)" stroke="rgb(26,62,103)" stroke-width="0" opacity="1" d="M 127.5 47 L 127 48.5 L 126.5 52 L 126 48.5 L 127.5 47 Z " /><path fill="rgb(26,62,103)" stroke="rgb(26,62,103)" stroke-width="0" opacity="1" d="M 85.5 48 L 88 49.5 L 86.5 50 L 85.5 48 Z " /><path fill="rgb(26,62,103)" stroke="rgb(26,62,103)" stroke-width="0" opacity="1" d="M 140.5 48 Q 143.5 47.5 142 54.5 L 141 54.5 L 140.5 48 Z " /><path fill="rgb(26,62,103)" stroke="rgb(26,62,103)" stroke-width="0" opacity="1" d="M 154.5 48 L 157.5 49 L 159 48.5 Q 159.8 51.1 156.5 50 L 153.5 51 L 153.5 50 L 156 49.5 L 154.5 48 Z " /><path fill="rgb(26,62,103)" stroke="rgb(26,62,103)" stroke-width="0" opacity="1" d="M 101.5 49 L 102 60.5 L 100 60.5 L 99.5 62 L 96 60.5 L 101 58.5 L 101.5 49 Z " /><path fill="rgb(26,62,103)" stroke="rgb(26,62,103)" stroke-width="0" opacity="1" d="M 123.5 49 L 124 60.5 L 123 60.5 L 123.5 49 Z " /><path fill="rgb(26,62,103)" stroke="rgb(26,62,103)" stroke-width="0" opacity="1" d="M 69.5 50 L 68.5 52 L 65 51.5 L 69.5 50 Z " /><path fill="rgb(26,62,103)" stroke="rgb(26,62,103)" stroke-width="0" opacity="1" d="M 77.5 50 L 81 50.5 L 77.5 51 L 77.5 50 Z " /><path fill="rgb(26,62,103)" stroke="rgb(26,62,103)" stroke-width="0" opacity="1" d="M 144.5 50 L 148 50.5 L 144.5 51 L 144.5 50 Z " /><path fill="rgb(26,62,103)" stroke="rgb(26,62,103)" stroke-width="0" opacity="1" d="M 160.5 52 L 162 52.5 L 158.5 55 L 160.5 52 Z " /><path fill="rgb(26,62,103)" stroke="rgb(26,62,103)" stroke-width="0" opacity="1" d="M 165.5 52 L 168 53.5 L 166.5 53 L 165.5 52 Z " /><path fill="rgb(26,62,103)" stroke="rgb(26,62,103)" stroke-width="0" opacity="1" d="M 65.5 53 L 66.5 55 L 65.5 53 Z " /><path fill="rgb(26,62,103)" stroke="rgb(26,62,103)" stroke-width="0" opacity="1" d="M 163.5 54 L 166.5 56 L 168 55.5 Q 166.8 58.3 165.5 56 L 162.5 57 L 160 55.5 L 161.5 55 L 163.5 56 L 163.5 54 Z " /><path fill="rgb(26,62,103)" stroke="rgb(26,62,103)" stroke-width="0" opacity="1" d="M 84.5 55 L 87 55.5 Q 84.9 58.8 84.5 55 Z " /><path fill="rgb(26,62,103)" stroke="rgb(26,62,103)" stroke-width="0" opacity="1" d="M 98.5 55 L 100 57.5 L 98 57.5 L 97.5 59 L 97 57.5 L 98.5 55 Z " /><path fill="rgb(26,62,103)" stroke="rgb(26,62,103)" stroke-width="0" opacity="1" d="M 127.5 55 L 126.5 57 L 127.5 55 Z " /><path fill="rgb(26,62,103)" stroke="rgb(26,62,103)" stroke-width="0" opacity="1" d="M 82.5 56 L 84.5 59 Q 82.3 59.8 83 57.5 L 82.5 56 Z " /><path fill="rgb(26,62,103)" stroke="rgb(26,62,103)" stroke-width="0" opacity="1" d="M 137.5 56 L 138.5 58 Q 135.7 58.7 137.5 56 Z " /><path fill="rgb(26,62,103)" stroke="rgb(26,62,103)" stroke-width="0" opacity="1" d="M 141.5 56 L 142 61.5 L 140.5 64 L 143.5 63 L 143.5 64 L 142 64.5 L 142.5 66 L 138.5 64 L 140.5 68 L 136 64.5 L 137 66.5 L 135.5 66 L 134 65.5 L 136.5 63 L 138.5 63 L 141 61.5 L 140 58.5 L 141.5 56 Z " /><path fill="rgb(26,62,103)" stroke="rgb(26,62,103)" stroke-width="0" opacity="1" d="M 86.5 58 L 87 59.5 L 84.5 63 L 84 61.5 L 86.5 58 Z " /><path fill="rgb(26,62,103)" stroke="rgb(26,62,103)" stroke-width="0" opacity="1" d="M 167.5 58 L 166 60.5 L 165.5 66 L 165 59 L 167.5 58 Z " /><path fill="rgb(26,62,103)" stroke="rgb(26,62,103)" stroke-width="0" opacity="1" d="M 57.5 59 L 60 60.5 L 59.5 66 L 59 60 Q 56.3 58.9 57 61.5 L 56 61.5 L 57.5 59 Z " /><path fill="rgb(26,62,103)" stroke="rgb(26,62,103)" stroke-width="0" opacity="1" d="M 126.5 59 L 127 61 L 125 60.5 L 126.5 59 Z " /><path fill="rgb(26,62,103)" stroke="rgb(26,62,103)" stroke-width="0" opacity="1" d="M 124.5 62 L 127 65.5 L 124 63.5 L 124.5 62 Z " /><path fill="rgb(26,62,103)" stroke="rgb(26,62,103)" stroke-width="0" opacity="1" d="M 56.5 63 L 58 65.5 L 56 66.5 L 56.5 63 Z " /><path fill="rgb(26,62,103)" stroke="rgb(26,62,103)" stroke-width="0" opacity="1" d="M 81.5 63 L 88 66.5 L 86.5 67 L 83.5 65 L 82 65.5 L 82.5 64 L 81.5 63 Z " /><path fill="rgb(26,62,103)" stroke="rgb(26,62,103)" stroke-width="0" opacity="1" d="M 86.5 63 L 87.5 65 L 86.5 63 Z " /><path fill="rgb(26,62,103)" stroke="rgb(26,62,103)" stroke-width="0" opacity="1" d="M 100.5 63 L 98.5 66 L 97.5 64 Q 99 66.5 100.5 63 Z " /><path fill="rgb(26,62,103)" stroke="rgb(26,62,103)" stroke-width="0" opacity="1" d="M 89.5 65 L 92.5 66 L 94.5 65 L 94.5 66 L 91.5 67 L 89.5 65 Z " /><path fill="rgb(26,62,103)" stroke="rgb(26,62,103)" stroke-width="0" opacity="1" d="M 86.5 68 L 92 68.5 L 86.5 69 L 86.5 68 Z " /><path fill="rgb(26,62,103)" stroke="rgb(26,62,103)" stroke-width="0" opacity="1" d="M 133.5 68 L 139 68.5 L 133.5 69 L 133.5 68 Z " /><path fill="rgb(26,62,103)" stroke="rgb(26,62,103)" stroke-width="0" opacity="1" d="M 56.5 72 L 58.5 72 L 63 74.5 L 67 79.5 L 62 75.5 L 61.5 74 L 59 74.5 L 60 76.5 L 58 75.5 L 56.5 72 Z " /><path fill="rgb(26,62,103)" stroke="rgb(26,62,103)" stroke-width="0" opacity="1" d="M 165.5 72 L 166 75 Q 160.9 75.5 158.5 80 L 162 75.5 L 163.5 73 L 165.5 72 Z " /><path fill="rgb(26,62,103)" stroke="rgb(26,62,103)" stroke-width="0" opacity="1" d="M 57.5 77 Q 60.5 77.5 60 81.5 L 59 81.5 L 58.5 80 L 57 80.5 L 58 78.5 L 56 78.5 L 57.5 77 Z " /><path fill="rgb(26,62,103)" stroke="rgb(26,62,103)" stroke-width="0" opacity="1" d="M 166.5 78 L 165.5 80 L 166.5 78 Z " /><path fill="rgb(26,62,103)" stroke="rgb(26,62,103)" stroke-width="0" opacity="1" d="M 63.5 79 L 64 80.5 L 62 81.5 L 63.5 79 Z " /><path fill="rgb(26,62,103)" stroke="rgb(26,62,103)" stroke-width="0" opacity="1" d="M 101.5 80 L 124 80.5 L 101.5 81 L 101.5 80 Z " /><path fill="rgb(26,62,103)" stroke="rgb(26,62,103)" stroke-width="0" opacity="1" d="M 162.5 80 L 163 82.5 L 161.5 84 Q 158 82 162.5 80 Z " /><path fill="rgb(26,62,103)" stroke="rgb(26,62,103)" stroke-width="0" opacity="1" d="M 165.5 81 L 165 82.5 L 167 86.5 L 165 87.5 L 165.5 86 L 163.5 85 L 162 85.5 L 165.5 81 Z " /><path fill="rgb(26,62,103)" stroke="rgb(26,62,103)" stroke-width="0" opacity="1" d="M 64.5 82 L 63.5 84 L 64.5 82 Z " /><path fill="rgb(26,62,103)" stroke="rgb(26,62,103)" stroke-width="0" opacity="1" d="M 87 82 L 89 82.5 L 87 83.5 L 87 82 Z " /><path fill="rgb(26,62,103)" stroke="rgb(26,62,103)" stroke-width="0" opacity="1" d="M 96.5 83 L 101 83.5 L 95.5 85 L 96.5 83 Z " /><path fill="rgb(26,62,103)" stroke="rgb(26,62,103)" stroke-width="0" opacity="1" d="M 139.5 83 L 139.5 85 L 141.5 84 L 147 91.5 L 145 92.5 L 146 90.5 L 144.5 88 L 142.5 91 L 142.5 89 L 140.5 90 L 139.5 88 L 141 88.5 L 141.5 87 L 143.5 88 L 141.5 85 L 139.5 86 Q 136.5 84.5 139.5 83 Z " /><path fill="rgb(26,62,103)" stroke="rgb(26,62,103)" stroke-width="0" opacity="1" d="M 83.5 84 L 84 86.5 L 82.5 90 L 82 88.5 L 83 86.5 Q 80.8 85.2 83.5 84 Z " /><path fill="rgb(26,62,103)" stroke="rgb(26,62,103)" stroke-width="0" opacity="1" d="M 90.5 84 L 89.5 86 L 88 85.5 L 90.5 84 Z " /><path fill="rgb(26,62,103)" stroke="rgb(26,62,103)" stroke-width="0" opacity="1" d="M 86.5 85 L 85.5 87 L 86.5 85 Z " /><path fill="rgb(26,62,103)" stroke="rgb(26,62,103)" stroke-width="0" opacity="1" d="M 128.5 85 L 131 86.5 Q 131.8 88.8 129.5 88 L 129.5 86 L 128.5 85 Z " /><path fill="rgb(26,62,103)" stroke="rgb(26,62,103)" stroke-width="0" opacity="1" d="M 91.5 86 L 90.5 88 L 87.5 89 L 88.5 87 L 91.5 86 Z " /><path fill="rgb(26,62,103)" stroke="rgb(26,62,103)" stroke-width="0" opacity="1" d="M 132.5 86 L 135 86.5 L 132.5 87 L 132.5 86 Z " /><path fill="rgb(26,62,103)" stroke="rgb(26,62,103)" stroke-width="0" opacity="1" d="M 80.5 87 L 80 88.5 L 79 92 L 81 92.5 L 79.5 93 L 78 90.5 L 80.5 87 Z " /><path fill="rgb(26,62,103)" stroke="rgb(26,62,103)" stroke-width="0" opacity="1" d="M 136.5 87 L 137.5 89 L 136.5 87 Z " /><path fill="rgb(26,62,103)" stroke="rgb(26,62,103)" stroke-width="0" opacity="1" d="M 57 88 L 59 88.5 L 57.5 91 L 57 88 Z " /><path fill="rgb(26,62,103)" stroke="rgb(26,62,103)" stroke-width="0" opacity="1" d="M 85.5 88 L 84.5 90 L 85.5 88 Z " /><path fill="rgb(26,62,103)" stroke="rgb(26,62,103)" stroke-width="0" opacity="1" d="M 121.5 88 L 122 89.5 L 120 90.5 L 121.5 88 Z " /><path fill="rgb(26,62,103)" stroke="rgb(26,62,103)" stroke-width="0" opacity="1" d="M 166.5 91 L 167 92.5 L 165 93.5 L 166.5 91 Z " /><path fill="rgb(26,62,103)" stroke="rgb(26,62,103)" stroke-width="0" opacity="1" d="M 84.5 92 L 83.5 94 Q 81.3 93.3 82 95.5 L 83 96.5 L 83 142.5 L 82 142.5 L 82 96.5 L 80.5 95 Q 78.8 97.8 77 93.5 L 79.5 95 L 80.5 94 L 84.5 92 Z " /><path fill="rgb(26,62,103)" stroke="rgb(26,62,103)" stroke-width="0" opacity="1" d="M 140.5 92 L 141.5 94 L 140.5 92 Z " /><path fill="rgb(26,62,103)" stroke="rgb(26,62,103)" stroke-width="0" opacity="1" d="M 147.5 93 L 146.5 95 L 147.5 93 Z " /><path fill="rgb(26,62,103)" stroke="rgb(26,62,103)" stroke-width="0" opacity="1" d="M 144.5 96 L 146 98.5 L 144.5 101 L 144 99.5 L 145 97.5 L 144.5 96 Z " /><path fill="rgb(26,62,103)" stroke="rgb(26,62,103)" stroke-width="0" opacity="1" d="M 78.5 99 L 80 102.5 Q 77.5 107.5 75 102.5 L 75.5 100 L 77.5 104 L 79 101.5 L 78.5 99 Z " /><path fill="rgb(26,62,103)" stroke="rgb(26,62,103)" stroke-width="0" opacity="1" d="M 149.5 100 L 150 102.5 L 149 102.5 L 149.5 100 Z " /><path fill="rgb(26,62,103)" stroke="rgb(26,62,103)" stroke-width="0" opacity="1" d="M 57.5 101 L 58 103.5 L 57 103.5 L 57.5 101 Z " /><path fill="rgb(26,62,103)" stroke="rgb(26,62,103)" stroke-width="0" opacity="1" d="M 146.5 101 L 147 106.5 L 145.5 111 L 145 107.5 L 146.5 101 Z " /><path fill="rgb(26,62,103)" stroke="rgb(26,62,103)" stroke-width="0" opacity="1" d="M 173.5 104 L 174 106.5 L 173 106.5 L 173.5 104 Z " /><path fill="rgb(26,62,103)" stroke="rgb(26,62,103)" stroke-width="0" opacity="1" d="M 175.5 104 L 176 106.5 L 175 106.5 L 175.5 104 Z " /><path fill="rgb(26,62,103)" stroke="rgb(26,62,103)" stroke-width="0" opacity="1" d="M 56.5 107 L 57 112.5 L 56 112.5 L 56.5 107 Z " /><path fill="rgb(26,62,103)" stroke="rgb(26,62,103)" stroke-width="0" opacity="1" d="M 74.5 107 L 75 135.5 L 74 135.5 L 74.5 107 Z " /><path fill="rgb(26,62,103)" stroke="rgb(26,62,103)" stroke-width="0" opacity="1" d="M 168.5 107 L 169 111.5 L 168 111.5 L 168.5 107 Z " /><path fill="rgb(26,62,103)" stroke="rgb(26,62,103)" stroke-width="0" opacity="1" d="M 150.5 108 L 151 133.5 L 150 133.5 L 150.5 108 Z " /><path fill="rgb(26,62,103)" stroke="rgb(26,62,103)" stroke-width="0" opacity="1" d="M 148.5 109 L 149 111.5 L 148 111.5 L 148.5 109 Z " /><path fill="rgb(26,62,103)" stroke="rgb(26,62,103)" stroke-width="0" opacity="1" d="M 77.5 111 L 78.5 113 L 77.5 111 Z " /><path fill="rgb(26,62,103)" stroke="rgb(26,62,103)" stroke-width="0" opacity="1" d="M 172.5 112 L 173 114.5 L 172 114.5 L 172.5 112 Z " /><path fill="rgb(26,62,103)" stroke="rgb(26,62,103)" stroke-width="0" opacity="1" d="M 144.5 113 L 145 115.5 L 144 115.5 L 144.5 113 Z " /><path fill="rgb(26,62,103)" stroke="rgb(26,62,103)" stroke-width="0" opacity="1" d="M 147.5 115 L 148 122.5 L 147 122.5 L 147.5 115 Z " /><path fill="rgb(26,62,103)" stroke="rgb(26,62,103)" stroke-width="0" opacity="1" d="M 170.5 118 L 171.5 120 Q 168.7 120.7 170.5 118 Z " /><path fill="rgb(26,62,103)" stroke="rgb(26,62,103)" stroke-width="0" opacity="1" d="M 174.5 118 L 175 127.5 L 174 127.5 Q 175.7 121.3 173 119.5 L 174.5 118 Z " /><path fill="rgb(26,62,103)" stroke="rgb(26,62,103)" stroke-width="0" opacity="1" d="M 144.5 123 L 145 125.5 L 144 125.5 L 144.5 123 Z " /><path fill="rgb(26,62,103)" stroke="rgb(26,62,103)" stroke-width="0" opacity="1" d="M 78.5 126 L 79 129.5 L 78 129.5 L 78.5 126 Z " /><path fill="rgb(26,62,103)" stroke="rgb(26,62,103)" stroke-width="0" opacity="1" d="M 173 130 Q 176 128.8 175 132.5 L 173.5 136 L 173 130 Z " /><path fill="rgb(26,62,103)" stroke="rgb(26,62,103)" stroke-width="0" opacity="1" d="M 56.5 131 L 57 137.5 L 56 137.5 L 56.5 131 Z " /><path fill="rgb(26,62,103)" stroke="rgb(26,62,103)" stroke-width="0" opacity="1" d="M 168.5 131 L 169 137.5 L 168 137.5 L 168.5 131 Z " /><path fill="rgb(26,62,103)" stroke="rgb(26,62,103)" stroke-width="0" opacity="1" d="M 78.5 134 L 79 135.5 L 75.5 142 L 75 139.5 L 78.5 134 Z " /><path fill="rgb(26,62,103)" stroke="rgb(26,62,103)" stroke-width="0" opacity="1" d="M 145.5 139 L 147 142.5 L 146 145.5 L 145.5 148 L 145 145.5 L 146 142.5 L 145.5 139 Z " /><path fill="rgb(26,62,103)" stroke="rgb(26,62,103)" stroke-width="0" opacity="1" d="M 149.5 139 L 150 141.5 L 149 141.5 L 149.5 139 Z " /><path fill="rgb(26,62,103)" stroke="rgb(26,62,103)" stroke-width="0" opacity="1" d="M 79.5 142 L 80 143.5 L 78.5 146 L 78 144.5 L 79.5 142 Z " /><path fill="rgb(26,62,103)" stroke="rgb(26,62,103)" stroke-width="0" opacity="1" d="M 80.5 147 L 81 149.5 L 80 149.5 L 80.5 147 Z " /><path fill="rgb(26,62,103)" stroke="rgb(26,62,103)" stroke-width="0" opacity="1" d="M 165.5 150 L 168 153.5 L 165 151.5 L 165.5 150 Z " /><path fill="rgb(26,62,103)" stroke="rgb(26,62,103)" stroke-width="0" opacity="1" d="M 82.5 152 L 83.5 154 L 82.5 152 Z " /><path fill="rgb(26,62,103)" stroke="rgb(26,62,103)" stroke-width="0" opacity="1" d="M 146.5 152 L 145.5 154 L 146.5 152 Z " /><path fill="rgb(26,62,103)" stroke="rgb(26,62,103)" stroke-width="0" opacity="1" d="M 58.5 153 L 59 154.5 L 57.5 157 L 57 155.5 L 58.5 153 Z " /><path fill="rgb(26,62,103)" stroke="rgb(26,62,103)" stroke-width="0" opacity="1" d="M 140.5 153 L 141.5 155 Q 138.7 155.7 140.5 153 Z " /><path fill="rgb(26,62,103)" stroke="rgb(26,62,103)" stroke-width="0" opacity="1" d="M 81.5 154 L 84 155 L 84.5 157 L 86 156.5 L 83 158.5 Q 85.8 156.8 81.5 155 L 80 155.5 L 81.5 154 Z " /><path fill="rgb(26,62,103)" stroke="rgb(26,62,103)" stroke-width="0" opacity="1" d="M 88.5 154 L 91 154.5 L 88.5 155 L 88.5 154 Z " /><path fill="rgb(26,62,103)" stroke="rgb(26,62,103)" stroke-width="0" opacity="1" d="M 133.5 154 L 136.5 155 L 138.5 154 L 138.5 155 L 136.5 156 L 133.5 155 L 133.5 154 Z " /><path fill="rgb(26,62,103)" stroke="rgb(26,62,103)" stroke-width="0" opacity="1" d="M 61.5 155 L 63 157.5 L 61 156.5 L 61.5 155 Z " /><path fill="rgb(26,62,103)" stroke="rgb(26,62,103)" stroke-width="0" opacity="1" d="M 138.5 156 L 141.5 158 L 143 157.5 Q 141.3 160.8 139.5 157 L 138 157.5 L 139.5 160 Q 135 158 138.5 156 Z " /><path fill="rgb(26,62,103)" stroke="rgb(26,62,103)" stroke-width="0" opacity="1" d="M 164.5 156 L 166.5 160 L 167.5 158 L 168 159.5 Q 166.5 162.5 165 159.5 L 164.5 156 Z " /><path fill="rgb(26,62,103)" stroke="rgb(26,62,103)" stroke-width="0" opacity="1" d="M 164.5 161 L 166 163.5 L 164 162.5 L 164.5 161 Z " /><path fill="rgb(26,62,103)" stroke="rgb(26,62,103)" stroke-width="0" opacity="1" d="M 99.5 162 L 104 162.5 L 99.5 163 L 99.5 162 Z " /><path fill="rgb(26,62,103)" stroke="rgb(26,62,103)" stroke-width="0" opacity="1" d="M 120.5 162 L 125 162.5 L 120.5 163 L 120.5 162 Z " /><path fill="rgb(26,62,103)" stroke="rgb(26,62,103)" stroke-width="0" opacity="1" d="M 65.5 163 L 65 164.5 L 67 167.5 L 64 167.5 L 64 165.5 L 65.5 163 Z " /><path fill="rgb(26,62,103)" stroke="rgb(26,62,103)" stroke-width="0" opacity="1" d="M 161.5 163 L 162 164.5 L 160 165.5 L 161.5 163 Z " /><path fill="rgb(26,62,103)" stroke="rgb(26,62,103)" stroke-width="0" opacity="1" d="M 67.5 165 L 71.5 170 L 69 168.5 L 68.5 171 L 68 168.5 L 69 167.5 L 67.5 165 Z " /><path fill="rgb(26,62,103)" stroke="rgb(26,62,103)" stroke-width="0" opacity="1" d="M 157.5 165 L 158 167.5 L 158.5 169 L 160 168.5 L 159 170.5 L 159.5 172 L 156.5 167 Q 153.8 168.3 156 169.5 Q 156.8 171.8 154.5 171 L 153 169.5 L 157.5 165 Z " /><path fill="rgb(26,62,103)" stroke="rgb(26,62,103)" stroke-width="0" opacity="1" d="M 65.5 171 L 68 172.5 Q 68.8 174.8 66.5 174 L 64 172.5 L 65.5 171 Z " /><path fill="rgb(26,62,103)" stroke="rgb(26,62,103)" stroke-width="0" opacity="1" d="M 74.5 171 L 76 174 L 73 172.5 L 74.5 171 Z " /><path fill="rgb(26,62,103)" stroke="rgb(26,62,103)" stroke-width="0" opacity="1" d="M 150.5 171 L 151.5 174 L 153 174.5 L 150.5 176 Q 152.1 174.3 149 172.5 L 150.5 171 Z " /><path fill="rgb(26,62,103)" stroke="rgb(26,62,103)" stroke-width="0" opacity="1" d="M 156.5 172 L 158 172.5 L 156 173.5 L 158.5 175 L 160 174.5 L 157.5 176 L 154 173.5 L 156.5 172 Z " /><path fill="rgb(26,62,103)" stroke="rgb(26,62,103)" stroke-width="0" opacity="1" d="M 70.5 173 L 73 174.5 L 71.5 175 L 70.5 173 Z " /><path fill="rgb(26,62,103)" stroke="rgb(26,62,103)" stroke-width="0" opacity="1" d="M 147.5 173 L 148.5 175 L 147.5 173 Z " /><path fill="rgb(26,62,103)" stroke="rgb(26,62,103)" stroke-width="0" opacity="1" d="M 88.5 177 L 90 177.5 L 88 178 L 87.5 180 L 87 178.5 L 88.5 177 Z " /><path fill="rgb(26,62,103)" stroke="rgb(26,62,103)" stroke-width="0" opacity="1" d="M 134.5 177 L 137 177 Q 135.9 179.7 138.5 179 L 138.5 180 Q 133.8 179.2 134.5 177 Z " /><path fill="rgb(26,62,103)" stroke="rgb(26,62,103)" stroke-width="0" opacity="1" d="M 80.5 178 L 81 180 L 84 180.5 L 80 181 L 80.5 178 Z " /><path fill="rgb(26,62,103)" stroke="rgb(26,62,103)" stroke-width="0" opacity="1" d="M 93.5 178 L 98 178.5 L 93.5 179 L 93.5 178 Z " /><path fill="rgb(26,62,103)" stroke="rgb(26,62,103)" stroke-width="0" opacity="1" d="M 127.5 178 L 132 178.5 L 127.5 179 L 127.5 178 Z " /><path fill="rgb(26,62,103)" stroke="rgb(26,62,103)" stroke-width="0" opacity="1" d="M 140 178 L 142 178.5 L 141.5 181 Q 138.5 181.7 140 178 Z " /><path fill="rgb(26,62,103)" stroke="rgb(26,62,103)" stroke-width="0" opacity="1" d="M 93.5 180 L 96 180 Q 94.8 183 98.5 182 L 98.5 183 Q 92.8 182.5 93.5 180 Z " /><path fill="rgb(26,62,103)" stroke="rgb(26,62,103)" stroke-width="0" opacity="1" d="M 133.5 180 L 140 182 L 139.5 184 L 136.5 182 L 136.5 184 L 133 182.5 L 136 181.5 Q 132.7 181.6 133.5 180 Z " /><path fill="rgb(26,62,103)" stroke="rgb(26,62,103)" stroke-width="0" opacity="1" d="M 85.5 181 L 90 181.5 L 85.5 182 L 85.5 181 Z " /><path fill="rgb(26,62,103)" stroke="rgb(26,62,103)" stroke-width="0" opacity="1" d="M 80.5 182 L 83 182.5 L 80.5 183 L 80.5 182 Z " /><path fill="rgb(26,62,103)" stroke="rgb(26,62,103)" stroke-width="0" opacity="1" d="M 142 182 L 144 182.5 L 142 183.5 L 142 182 Z " /><path fill="rgb(17,43,75)" stroke="rgb(17,43,75)" stroke-width="0" opacity="1" d="M 96.5 42 L 100 42.5 L 96.5 43 L 96.5 42 Z " /><path fill="rgb(17,43,75)" stroke="rgb(17,43,75)" stroke-width="0" opacity="1" d="M 109.5 44 Q 116.5 42.9 120 45.5 L 104.5 46 L 100 47.5 L 101 48.5 L 101 58.5 L 101 60.5 L 96.5 67 L 85.5 68 L 83 67 L 82 64.5 L 83.5 65 L 88.5 67 L 90.5 67 L 99 63.5 L 98.5 62 Q 100.8 62.8 100 60.5 L 98.5 58 L 100 58.5 L 99 55.5 Q 101.5 54 100 48.5 Q 97.3 46.8 101.5 45 L 103.5 46 L 109.5 44 Z " /><path fill="rgb(17,43,75)" stroke="rgb(17,43,75)" stroke-width="0" opacity="1" d="M 121.5 45 L 126.5 47 L 128 46.5 L 125 48.5 Q 127.7 50.2 126 56.5 L 125 58.5 L 126 61.5 L 126 64 L 129 64 Q 127.9 66.7 130.5 66 Q 132 68.5 137.5 67 Q 138.8 64.8 140 67.5 L 131.5 68 L 125 63.5 L 124 61.5 L 124 48.5 L 124.5 47 Q 120.7 47.5 121.5 45 Z " /><path fill="rgb(17,43,75)" stroke="rgb(17,43,75)" stroke-width="0" opacity="1" d="M 143 48 Q 145.7 46.9 145 49.5 L 144 50.5 L 144 63 L 142 63.5 L 142 65.5 L 141.5 67 L 139.5 64 L 141.5 65 L 142 62.5 L 143 59.5 L 143 57.5 L 143 48 Z " /><path fill="rgb(17,43,75)" stroke="rgb(17,43,75)" stroke-width="0" opacity="1" d="M 77.5 49 L 80 49.5 L 62.5 56 L 65.5 52 L 67.5 53 L 77.5 49 Z " /><path fill="rgb(17,43,75)" stroke="rgb(17,43,75)" stroke-width="0" opacity="1" d="M 81.5 49 L 83 52.5 Q 80.2 54.3 82 60.5 L 83 63 L 81 62.5 L 81.5 49 Z " /><path fill="rgb(17,43,75)" stroke="rgb(17,43,75)" stroke-width="0" opacity="1" d="M 146.5 49 Q 151.3 47.7 150 51 Q 145.8 51.1 146.5 49 Z " /><path fill="rgb(17,43,75)" stroke="rgb(17,43,75)" stroke-width="0" opacity="1" d="M 151.5 50 L 159.5 54 L 163.5 52 L 163.5 53 L 162 53.5 L 167 57.5 Q 167.7 60.1 165 59 L 163.5 56 L 151 52 L 151.5 50 Z " /><path fill="rgb(17,43,75)" stroke="rgb(17,43,75)" stroke-width="0" opacity="1" d="M 59.5 56 L 61 56.5 Q 58.2 59.2 59 65.5 L 60 69.5 L 59 69.5 L 57 61.5 Q 60.5 60 58 58.5 L 59.5 56 Z " /><path fill="rgb(17,43,75)" stroke="rgb(17,43,75)" stroke-width="0" opacity="1" d="M 167.5 60 L 167 61.5 L 168 63.5 L 166 64 L 167.5 60 Z " /><path fill="rgb(17,43,75)" stroke="rgb(17,43,75)" stroke-width="0" opacity="1" d="M 86.5 61 L 88 63.5 L 86 62.5 L 86.5 61 Z " /><path fill="rgb(17,43,75)" stroke="rgb(17,43,75)" stroke-width="0" opacity="1" d="M 165.5 66 L 167 71.5 L 165 71.5 L 164.5 73 L 164 71.5 L 165.5 66 Z " /><path fill="rgb(17,43,75)" stroke="rgb(17,43,75)" stroke-width="0" opacity="1" d="M 58.5 71 L 58.5 74 Q 55.5 72.5 58.5 71 Z " /><path fill="rgb(17,43,75)" stroke="rgb(17,43,75)" stroke-width="0" opacity="1" d="M 61.5 74 L 61.5 76 L 66 79.5 L 61.5 87 L 60.5 85 Q 62.8 85.8 62 83.5 L 63 81.5 L 62.5 80 L 64 80.5 L 60.5 76 L 59 75.5 L 61.5 74 Z " /><path fill="rgb(17,43,75)" stroke="rgb(17,43,75)" stroke-width="0" opacity="1" d="M 163.5 74 Q 166.5 75.5 163.5 77 L 162 77.5 Q 164.5 79 161 80.5 L 160.5 82 L 159 79.5 L 164 75.5 L 163.5 74 Z " /><path fill="rgb(17,43,75)" stroke="rgb(17,43,75)" stroke-width="0" opacity="1" d="M 93.5 81 L 132 81.5 L 127.5 83 L 124.5 82 L 93.5 82 L 89.5 83 L 89.5 82 L 93.5 81 Z " /><path fill="rgb(17,43,75)" stroke="rgb(17,43,75)" stroke-width="0" opacity="1" d="M 162.5 81 L 163.5 83 L 162.5 81 Z " /><path fill="rgb(17,43,75)" stroke="rgb(17,43,75)" stroke-width="0" opacity="1" d="M 133 82 Q 138.8 82 142 85.5 L 141.5 87 L 141 85 L 137.5 86 L 137.5 85 L 139 84.5 L 135.5 83 L 133 84 L 133 82 Z " /><path fill="rgb(17,43,75)" stroke="rgb(17,43,75)" stroke-width="0" opacity="1" d="M 165.5 82 L 167 84.5 L 165 83.5 L 165.5 82 Z " /><path fill="rgb(17,43,75)" stroke="rgb(17,43,75)" stroke-width="0" opacity="1" d="M 59.5 83 L 58.5 85 L 57 84.5 L 59.5 83 Z " /><path fill="rgb(17,43,75)" stroke="rgb(17,43,75)" stroke-width="0" opacity="1" d="M 84.5 84 L 84.5 87 Q 81.5 85.5 84.5 84 Z " /><path fill="rgb(17,43,75)" stroke="rgb(17,43,75)" stroke-width="0" opacity="1" d="M 162.5 84 L 164.5 87 Q 165.8 84.7 167 87.5 L 165 87.5 L 164.5 89 L 162.5 84 Z " /><path fill="rgb(17,43,75)" stroke="rgb(17,43,75)" stroke-width="0" opacity="1" d="M 81.5 86 L 82 89 L 80 88.5 L 81.5 86 Z " /><path fill="rgb(17,43,75)" stroke="rgb(17,43,75)" stroke-width="0" opacity="1" d="M 58.5 87 L 61 88.5 L 59 89.5 L 60 92.5 L 56 107.5 L 55.5 136 L 54 128.5 L 55 127.5 L 55 106.5 L 57 99.5 L 56 97 Q 59.3 98.3 58 93.5 L 58 91.5 L 59 88.5 L 58.5 87 Z " /><path fill="rgb(17,43,75)" stroke="rgb(17,43,75)" stroke-width="0" opacity="1" d="M 135.5 87 L 140.5 90 L 142.5 89 L 142.5 90 L 141 90.5 L 144 91.5 L 140 94.5 L 139.5 152 L 139 90 L 122 89.5 L 127.5 88 L 130.5 89 L 135.5 87 Z " /><path fill="rgb(17,43,75)" stroke="rgb(17,43,75)" stroke-width="0" opacity="1" d="M 143.5 87 Q 151.3 96.3 150 114.5 L 148 113.5 Q 150.3 110.3 149 103.5 L 147 103.5 L 148 98.5 L 146.5 94 L 145.5 97 L 145 94.5 L 146 92.5 L 143.5 87 Z " /><path fill="rgb(17,43,75)" stroke="rgb(17,43,75)" stroke-width="0" opacity="1" d="M 84.5 88 L 87.5 89 L 95.5 89 L 96.5 88 L 98.5 89 L 100.5 89 L 103 89.5 L 87.5 90 L 86 89.5 L 86.5 153 L 87.5 152 L 102 152 L 102 127.5 L 105.5 127 L 106.5 126 L 119.5 126 L 123 127 L 122.5 152 L 122 128 Q 116.4 126.1 106.5 127 L 103 128 L 103 151.5 L 101.5 153 L 96.5 154 L 95.5 153 L 87.5 153 L 85.5 154 L 84 150.5 L 84 96.5 L 83 94.5 L 84 94.5 L 84.5 96 L 85 89.5 L 84.5 88 Z " /><path fill="rgb(17,43,75)" stroke="rgb(17,43,75)" stroke-width="0" opacity="1" d="M 79 90 L 81 90.5 Q 77.5 92 80 93.5 L 78.5 96 Q 76.3 96.8 77 94.5 L 79 90 Z " /><path fill="rgb(17,43,75)" stroke="rgb(17,43,75)" stroke-width="0" opacity="1" d="M 83.5 90 L 84 91.5 L 82 92.5 L 83.5 90 Z " /><path fill="rgb(17,43,75)" stroke="rgb(17,43,75)" stroke-width="0" opacity="1" d="M 165.5 90 L 168 96.5 L 168 101.5 L 167 101.5 L 165.5 90 Z " /><path fill="rgb(17,43,75)" stroke="rgb(17,43,75)" stroke-width="0" opacity="1" d="M 102.5 91 L 104 94.5 L 103 95.5 L 103 103.5 L 104 106.5 L 103 108.5 L 104 111 L 120.5 111 L 121 109.5 L 120.5 108 L 122 108.5 Q 123.5 104.1 120.5 105 L 120.5 104 L 122 103.5 L 122 96.5 L 120 93.5 L 122 92.5 L 121.5 91 L 123 91.5 L 123 111 L 120.5 112 L 103 112 L 102 109.5 L 102.5 91 Z " /><path fill="rgb(17,43,75)" stroke="rgb(17,43,75)" stroke-width="0" opacity="1" d="M 76.5 97 L 78 103.5 L 76 103.5 L 75.5 112 L 75 103.5 L 76.5 97 Z " /><path fill="rgb(17,43,75)" stroke="rgb(17,43,75)" stroke-width="0" opacity="1" d="M 168.5 104 L 169 106.5 L 168 106.5 L 168.5 104 Z " /><path fill="rgb(17,43,75)" stroke="rgb(17,43,75)" stroke-width="0" opacity="1" d="M 169.5 108 L 170 134.5 L 171 137.5 L 170 137.5 L 169 135.5 L 169.5 108 Z " /><path fill="rgb(17,43,75)" stroke="rgb(17,43,75)" stroke-width="0" opacity="1" d="M 75.5 114 L 76 126.5 L 78 128.5 L 76 128.5 L 77 132.5 L 75.5 139 L 75 128.5 L 75 126.5 L 75.5 114 Z " /><path fill="rgb(17,43,75)" stroke="rgb(17,43,75)" stroke-width="0" opacity="1" d="M 149.5 117 L 150 122.5 L 149 122.5 L 148 119.5 L 149.5 117 Z " /><path fill="rgb(17,43,75)" stroke="rgb(17,43,75)" stroke-width="0" opacity="1" d="M 149.5 127 L 150 138.5 L 147.5 149 L 146 143.5 L 147 141.5 L 146 139.5 L 147 139.5 L 147.5 141 L 149 138.5 Q 146.8 137.2 148 132.5 L 149.5 127 Z " /><path fill="rgb(17,43,75)" stroke="rgb(17,43,75)" stroke-width="0" opacity="1" d="M 77.5 134 L 79 136.5 L 77 135.5 L 77.5 134 Z " /><path fill="rgb(17,43,75)" stroke="rgb(17,43,75)" stroke-width="0" opacity="1" d="M 56.5 138 L 57 142.5 L 56 142.5 L 56.5 138 Z " /><path fill="rgb(17,43,75)" stroke="rgb(17,43,75)" stroke-width="0" opacity="1" d="M 168.5 138 L 170 143.5 L 168 142.5 L 168.5 138 Z " /><path fill="rgb(17,43,75)" stroke="rgb(17,43,75)" stroke-width="0" opacity="1" d="M 76.5 140 L 79 150.5 L 78 150.5 Q 74.9 146.6 76.5 140 Z " /><path fill="rgb(17,43,75)" stroke="rgb(17,43,75)" stroke-width="0" opacity="1" d="M 57.5 144 L 59 150.5 L 58.5 152 Q 60.8 151.3 60 153.5 L 61 155.5 L 59 154.5 L 58.5 153 L 57.5 155 L 57 153.5 L 58 150.5 Q 58.8 148.3 56.5 149 L 57 147.5 L 57.5 144 Z " /><path fill="rgb(17,43,75)" stroke="rgb(17,43,75)" stroke-width="0" opacity="1" d="M 167.5 144 L 168 148.5 L 166.5 151 L 166 148.5 L 167.5 144 Z " /><path fill="rgb(17,43,75)" stroke="rgb(17,43,75)" stroke-width="0" opacity="1" d="M 145 150 Q 147.7 148.9 147 151.5 L 144 157 L 137 160 L 136 157.5 L 139.5 158 L 141 157.5 L 140.5 156 L 144 155 L 145 150 Z " /><path fill="rgb(17,43,75)" stroke="rgb(17,43,75)" stroke-width="0" opacity="1" d="M 79.5 152 Q 82.1 151.2 81 154.5 L 83 154.5 L 82 157 L 84.5 156 L 86 159 L 93.5 161 L 119.5 162 L 130.5 160 L 132.5 161 L 135.5 160 L 135.5 161 Q 130 163.5 120.5 162 L 119.5 163 L 104.5 163 L 103.5 162 L 88.5 161 L 81 156.5 L 79.5 152 Z " /><path fill="rgb(17,43,75)" stroke="rgb(17,43,75)" stroke-width="0" opacity="1" d="M 124.5 152 L 136.5 152 L 137 154.5 L 136 154.5 L 135.5 153 L 128.5 153 L 125.5 154 L 124.5 152 Z " /><path fill="rgb(17,43,75)" stroke="rgb(17,43,75)" stroke-width="0" opacity="1" d="M 165.5 152 L 166.5 154 Q 164.3 153.3 165 155.5 L 164 155.5 L 165.5 152 Z " /><path fill="rgb(17,43,75)" stroke="rgb(17,43,75)" stroke-width="0" opacity="1" d="M 58.5 156 L 63 158.5 L 64 160.5 L 62.5 160 L 58.5 156 Z " /><path fill="rgb(17,43,75)" stroke="rgb(17,43,75)" stroke-width="0" opacity="1" d="M 163.5 157 L 164.5 159 L 163 158.5 L 160.5 164 L 159 164 L 159 167 Q 156.3 165.9 157 168.5 L 159 168.5 L 158 171 L 154.5 173 L 156.5 169 L 152 172.5 L 152.5 174 L 150.5 173 L 150.5 175 L 148.5 174 L 138.5 179 L 137.5 177 Q 151.3 174.8 158 165.5 L 163.5 157 Z " /><path fill="rgb(17,43,75)" stroke="rgb(17,43,75)" stroke-width="0" opacity="1" d="M 64.5 162 L 65 164 Q 67.7 162.9 67 165.5 L 75 172.5 L 74.5 175 L 73.5 172 L 71.5 173 L 71.5 171 L 69 169.5 L 66.5 166 Q 64.3 166.8 65 164.5 L 64.5 162 Z " /><path fill="rgb(17,43,75)" stroke="rgb(17,43,75)" stroke-width="0" opacity="1" d="M 164.5 164 L 165.5 166 Q 162.7 166.7 164.5 164 Z " /><path fill="rgb(17,43,75)" stroke="rgb(17,43,75)" stroke-width="0" opacity="1" d="M 65.5 167 L 64.5 169 L 65.5 167 Z " /><path fill="rgb(17,43,75)" stroke="rgb(17,43,75)" stroke-width="0" opacity="1" d="M 76.5 173 L 84.5 177 L 93.5 179 L 131.5 179 L 135.5 178 L 137 180.5 L 136 180.5 Q 136.8 178.3 134.5 179 L 133.5 180 L 93.5 180 L 83.5 178 L 77.5 175 L 76 175.5 L 76.5 173 Z " /><path fill="rgb(20,54,98)" stroke="rgb(20,54,98)" stroke-width="0" opacity="1" d="M 0 0 L 225 0 L 225 225 L 0 225 L 0 0 Z M 104 40 Q 104 43 102 42 L 102 43 L 107 42 L 104 40 Z M 98 41 L 96 43 L 97 47 L 97 43 L 101 44 L 101 42 L 98 41 Z M 110 42 L 110 43 L 112 43 L 110 42 Z M 125 42 L 124 44 L 127 44 L 125 42 Z M 104 44 L 102 45 Q 97 47 100 49 L 100 55 L 98 55 L 98 57 L 100 56 L 100 59 L 96 61 Q 97 63 99 61 L 99 64 L 91 67 L 91 66 L 89 65 L 89 67 L 88 64 L 88 62 L 87 61 L 84 58 L 86 57 L 85 55 L 82 56 L 83 53 L 82 48 L 81 50 L 78 49 L 76 49 Q 73 48 74 51 L 71 51 L 69 51 Q 66 52 67 49 Q 64 48 65 53 Q 63 57 57 57 L 58 59 L 58 61 L 56 61 L 58 64 L 57 63 L 56 67 L 58 67 L 58 70 Q 61 69 60 72 L 59 71 L 57 72 L 58 75 L 56 76 L 59 76 Q 60 78 62 75 Q 60 77 63 79 L 62 82 L 62 84 Q 63 86 61 85 L 61 87 L 59 87 L 57 91 Q 60 92 58 94 Q 59 98 56 97 L 57 100 L 55 107 L 55 128 L 54 129 L 57 146 L 57 149 Q 59 148 58 151 Q 61 152 57 154 Q 55 158 59 157 L 59 155 L 61 157 L 60 157 L 59 160 L 63 160 L 65 167 L 64 170 L 67 170 L 65 169 L 67 168 L 67 166 Q 69 167 68 171 L 71 172 L 70 174 L 73 175 L 72 174 L 73 172 L 73 174 Q 74 176 76 174 L 81 177 Q 84 176 83 179 L 86 178 Q 88 177 87 180 L 89 179 L 91 180 L 93 179 L 91 183 L 93 183 Q 94 180 96 182 L 97 180 L 128 180 L 130 180 Q 135 179 133 183 L 136 183 L 135 182 L 135 181 L 138 182 L 137 181 L 139 180 L 140 180 Q 139 182 142 181 L 141 178 L 150 175 L 152 175 L 153 175 L 153 171 L 156 172 L 159 171 L 160 168 L 158 168 L 160 164 L 160 166 L 162 165 L 164 168 L 164 166 L 166 166 L 162 164 L 163 159 L 163 157 L 165 157 Q 164 153 168 154 L 166 152 L 168 151 L 167 150 Q 169 148 168 144 L 170 144 L 172 144 L 169 142 L 170 136 L 170 138 L 171 138 L 170 135 L 171 133 L 170 131 L 170 120 L 174 120 L 175 128 L 175 119 L 174 119 L 170 118 L 171 113 L 168 104 L 167 92 L 165 90 L 167 87 L 167 85 L 166 82 L 165 82 Q 162 83 163 81 L 162 81 L 161 79 L 167 75 L 168 76 L 165 72 L 167 69 L 166 64 L 168 64 L 167 62 Q 165 60 168 59 L 167 57 L 167 54 L 165 55 L 162 54 L 164 53 L 164 52 L 160 53 L 155 52 L 161 50 L 159 48 L 156 50 L 154 49 L 153 51 L 152 49 L 151 49 L 148 48 L 145 50 Q 146 47 143 48 L 143 58 L 142 56 L 140 59 L 141 62 Q 143 63 141 64 L 139 63 L 141 67 L 139 65 L 138 67 L 136 67 L 131 66 Q 128 67 129 64 L 126 64 L 126 61 L 128 61 L 125 59 Q 124 56 127 57 L 126 56 L 128 48 Q 129 44 127 45 L 127 47 L 123 45 L 121 46 L 117 44 Q 110 42 109 45 L 104 44 Z M 71 48 L 71 50 L 73 49 L 71 48 Z M 88 48 L 86 50 L 88 50 L 88 48 Z M 141 48 L 141 55 L 142 55 Q 143 47 141 48 Z M 85 51 L 85 53 L 87 52 L 85 51 Z M 138 56 Q 136 59 139 58 L 138 56 Z M 98 57 Q 96 60 99 59 L 98 57 Z M 136 64 L 134 66 L 136 66 L 136 64 Z M 58 78 L 59 82 L 60 82 Q 61 77 58 78 Z M 165 78 L 165 80 L 167 79 L 165 78 Z M 57 83 L 56 85 L 59 85 L 57 83 Z M 174 104 L 173 107 L 174 107 L 174 104 Z M 176 104 L 175 107 L 176 107 L 176 104 Z M 173 112 L 172 115 L 173 115 L 173 112 Z M 173 130 L 174 136 L 175 133 Q 176 129 173 130 Z M 57 150 Q 55 153 58 152 L 57 150 Z M 166 157 L 164 159 L 166 160 L 166 157 Z M 165 161 L 164 163 L 166 164 L 165 161 Z M 66 171 L 64 173 L 67 174 Q 69 175 68 173 L 66 171 Z M 155 172 L 155 176 L 155 175 Q 157 173 155 172 Z M 70 174 L 68 176 L 70 176 L 70 174 Z M 81 178 L 80 181 L 84 181 L 81 180 L 81 178 Z M 86 181 L 86 182 L 90 182 L 86 181 Z M 81 182 L 81 183 L 83 183 L 81 182 Z M 97 182 L 97 183 L 99 183 L 97 182 Z M 139 182 L 140 184 Q 141 181 139 182 Z M 142 182 L 142 184 L 144 183 L 142 182 Z " /><path fill="rgb(20,54,98)" stroke="rgb(20,54,98)" stroke-width="0" opacity="1" d="M 82.5 57 L 84.5 63 L 86 62.5 L 87 65.5 L 84.5 64 Q 81.5 64.9 83 60.5 L 82.5 57 Z " /><path fill="rgb(20,54,98)" stroke="rgb(20,54,98)" stroke-width="0" opacity="1" d="M 93.5 82 L 95.5 82 Q 102.3 80.7 105.5 83 L 106.5 82 L 124.5 82 L 127 82.5 L 127.5 84 L 128 82 L 133 82 Q 131.9 84.7 134.5 84 L 136.5 84 L 138 84.5 L 136 85.5 L 141 86 L 140.5 89 L 136.5 87 L 135 87.5 L 135.5 89 L 131.5 88 L 128.5 89 L 125.5 88 L 122.5 89 Q 121.3 86.8 120 89.5 L 120.5 91 L 122.5 90 L 122.5 91 L 120 92.5 L 122 96.5 L 122 104 L 120 104.5 L 122 105 L 121 111 L 104.5 111 Q 103.5 111 104 106.5 L 103 103.5 L 103 95.5 L 104 94.5 L 102 90.5 L 104 89.5 L 99.5 88 L 97.5 88 L 88.5 89 L 84 88 L 85 91.5 L 85 93.5 L 84.5 95 L 82.5 92 L 82 93.5 L 84 96.5 L 84 150.5 L 85 151.5 Q 82.8 152.8 85.5 154 Q 88.7 151.7 95.5 153 L 99.5 154 L 103 151.5 L 104 147.5 L 103 146.5 L 103 128 Q 107.8 125.9 117.5 127 L 122 128 L 122 151.5 L 123.5 152 L 127.5 154 Q 129.3 151.3 135.5 153 L 135.5 154 L 133 154.5 L 136.5 156 L 138 155.5 Q 138.8 157.8 136.5 157 L 137 158.5 Q 137.9 161.5 133.5 160 L 131.5 160 L 121.5 161 L 120 160.5 L 119.5 162 L 104.5 162 L 103.5 161 L 93.5 161 L 86 159 Q 87.5 155.3 84.5 156 L 81 154 Q 82.3 151 78.5 152 L 79 150.5 L 78 146.5 L 79 144.5 L 76 139.5 Q 79.7 138.3 79 134 Q 76 132.8 77 136.5 L 76 136.5 L 77 131.5 L 76 129 L 78.5 130 L 79 126.5 L 78 126.5 L 77.5 128 L 75 127.5 L 77 122.5 L 75 112.5 L 76.5 104 Q 77.8 106.3 79 103.5 L 77 103 Q 75.5 97.6 78.5 96 L 80.5 95 L 82 95.5 Q 82.8 93.3 80.5 94 L 80.5 89 L 82.5 90 L 83 88.5 L 82 86.5 L 83 86.5 L 83.5 88 L 87 87 L 86.5 85 L 84.5 86 L 85.5 84 L 93.5 82 Z M 95 83 L 96 85 L 101 84 L 95 83 Z M 89 84 Q 87 87 90 86 L 89 84 Z M 134 85 L 132 87 L 135 87 L 134 85 Z M 131 86 L 129 88 L 131 88 L 131 86 Z M 89 87 L 89 88 L 91 88 L 89 87 Z M 83 96 L 82 143 L 83 143 L 83 96 Z M 78 99 L 78 101 L 80 100 L 78 99 Z M 81 147 L 80 150 L 81 150 L 81 147 Z M 89 154 L 89 155 L 91 155 L 89 154 Z " /><path fill="rgb(20,54,98)" stroke="rgb(20,54,98)" stroke-width="0" opacity="1" d="M 162.5 83 L 165 84.5 L 163.5 84 L 162.5 83 Z " /><path fill="rgb(20,54,98)" stroke="rgb(20,54,98)" stroke-width="0" opacity="1" d="M 141.5 90 L 143.5 90 Q 146.1 89.2 145 92.5 L 145 94.5 L 144 96.5 L 144 98.5 L 144.5 101 L 146.5 95 L 147.5 98 L 149 97.5 L 148 102.5 Q 150.3 103.8 149 108.5 L 148 113.5 L 150 116.5 L 148.5 119 L 147.5 115 L 147 122.5 L 148 122.5 L 148.5 120 L 150 126.5 L 148 136 L 146 136.5 L 149 138.5 L 145 139 L 146 142.5 Q 143.5 144 147 145.5 Q 148.9 150.9 145.5 150 L 144.5 153 L 142 153.5 L 144 154.5 L 139 156 L 139 154 Q 136.3 155.1 137 152.5 L 140 151.5 L 141 144.5 L 140 143.5 L 140 94 L 144 93 L 143.5 91 L 140 91.5 L 141.5 90 Z M 147 101 L 146 103 L 144 104 L 146 104 L 147 107 L 148 104 L 147 101 Z M 146 107 L 145 111 L 146 111 L 146 107 Z M 145 113 L 144 116 L 145 116 L 145 113 Z M 145 123 L 144 126 L 145 126 L 145 123 Z M 146 145 L 145 148 L 146 148 L 146 145 Z M 141 153 Q 139 156 142 155 L 141 153 Z " /></svg>