<svg viewBox="0 0 800 164" version="1.1" xmlns="http://www.w3.org/2000/svg" desc="Created with imagetracer.js version 1.2.6" ><path fill="rgb(38,26,66)" stroke="rgb(38,26,66)" stroke-width="0" opacity="1" d="M 368.5 43 L 377.5 44 L 386.5 50 L 390.5 50 L 392.5 45 L 393 67.5 L 392 67.5 Q 390.7 53.8 381.5 48 Q 376.7 43.8 366.5 45 Q 359.6 46.6 357 52.5 L 352 66.5 L 351 88.5 L 354 105.5 Q 356.9 113.6 363.5 118 Q 368.2 120.2 376.5 119 L 383 116 L 386 109.5 L 386 97 L 377.5 97 L 377 95 L 402.5 95 L 403 97 L 396 97 L 396 109.5 Q 387.7 121.2 367.5 121 L 357.5 118 L 348 109.5 L 342 96.5 L 341 83.5 L 340 82.5 L 341 81.5 L 342 68.5 L 344 63.5 Q 347.6 54.6 354.5 49 L 363.5 44 L 368.5 43 Z " /><path fill="rgb(38,26,66)" stroke="rgb(38,26,66)" stroke-width="0" opacity="1" d="M 502.5 43 L 511.5 44 L 524 52.5 Q 536 64 534 89.5 Q 531.3 105.3 521.5 114 Q 515.6 121.1 502.5 121 L 492.5 118 L 483 109.5 Q 477.3 102.7 475 92.5 L 474 79.5 Q 476.7 77.8 475 71.5 L 479 60.5 L 489.5 48 L 494.5 45 L 502.5 43 Z M 500 45 L 495 48 L 489 56 L 485 73 L 486 99 Q 487 108 492 114 L 500 119 Q 509 121 513 117 L 520 108 L 524 88 L 523 68 L 518 53 L 509 45 L 500 45 Z " /><path fill="rgb(38,26,66)" stroke="rgb(38,26,66)" stroke-width="0" opacity="1" d="M 26.5 45 L 54 45.5 L 45 46 L 45 117.5 L 45.5 118 L 59.5 118 L 60.5 117 L 72.5 116 L 78 111.5 L 80 106.5 L 81.5 95 L 82 119 L 26 118.5 L 35 118 L 35 46.5 L 34.5 46 L 26.5 46 L 26.5 45 Z " /><path fill="rgb(38,26,66)" stroke="rgb(38,26,66)" stroke-width="0" opacity="1" d="M 89.5 45 L 138.5 45 Q 139.5 45 139 49.5 L 140 52.5 L 139.5 63 Q 138.9 52.1 131.5 48 L 122.5 46 L 107.5 46 L 106 47.5 L 106 79.5 L 107.5 81 L 115.5 81 L 119.5 80 L 123 76.5 L 125.5 67 L 126 94.5 L 125 94.5 Q 125.3 86.3 120.5 83 Q 115.8 80.8 107.5 82 L 106 83.5 L 106 116.5 L 107.5 118 L 122.5 118 L 123.5 117 L 131.5 117 L 139 112.5 L 142 106.5 Q 140.5 101 143 99.5 L 142.5 98 L 144 98.5 L 144 119 L 89 118.5 L 95.5 118 L 97 116.5 L 97 47.5 L 95.5 46 L 89.5 46 L 89.5 45 Z " /><path fill="rgb(38,26,66)" stroke="rgb(38,26,66)" stroke-width="0" opacity="1" d="M 155 45 L 181.5 45 L 182 46.5 L 180.5 46 L 175 46 L 175 48.5 L 187.5 72 L 197 56.5 L 200 48.5 L 193.5 46 L 192 46.5 L 192.5 45 L 211.5 45 L 211.5 46 Q 203.4 45.9 201 51.5 L 189 72.5 L 189 75.5 L 209 115.5 L 211.5 118 L 218 118.5 L 190.5 119 L 190.5 118 L 197.5 118 L 198 115.5 L 182.5 85 L 168 108.5 L 165 117 L 171.5 118 L 173 117.5 L 172.5 119 L 151.5 119 L 151.5 118 L 159.5 117 L 163 114.5 L 179 87.5 L 181 81.5 L 165 49.5 L 161.5 46 Q 156.7 44.8 155.5 47 L 155 45 Z " /><path fill="rgb(38,26,66)" stroke="rgb(38,26,66)" stroke-width="0" opacity="1" d="M 226 45 L 253 45.5 L 245.5 46 L 244 47.5 L 244 116.5 L 245.5 118 L 253 118.5 L 226 119 L 226.5 117 Q 228 119.5 233.5 118 L 235 116.5 L 235 47.5 Q 233.5 44.5 227.5 46 L 226 46.5 L 226 45 Z " /><path fill="rgb(38,26,66)" stroke="rgb(38,26,66)" stroke-width="0" opacity="1" d="M 264.5 45 L 283.5 45 L 285 46.5 L 319.5 99 L 320 49.5 L 319 47 L 311 45.5 L 330 45 L 329.5 47 L 326.5 46 L 321 49.5 L 320.5 120 L 276 51 Q 273.3 49.9 274 52.5 L 274 54.5 L 274 112.5 L 276.5 117 L 284 118.5 L 264.5 119 L 264.5 118 L 272 117 L 273 114.5 L 273 46 L 264.5 46 L 264.5 45 Z " /><path fill="rgb(38,26,66)" stroke="rgb(38,26,66)" stroke-width="0" opacity="1" d="M 408 45 L 465 45 L 465 66.5 L 464 66.5 Q 465.5 52.5 457.5 48 L 442.5 46 L 441 47.5 L 441 116.5 L 442.5 118 L 451 118.5 L 422.5 119 L 422.5 118 L 430.5 118 L 432 116.5 L 432 47.5 L 430.5 46 L 418.5 47 L 411 52.5 Q 407.7 57.7 408.5 67 L 408 45 Z " /><path fill="rgb(38,26,66)" stroke="rgb(38,26,66)" stroke-width="0" opacity="1" d="M 544.5 45 L 563.5 45 L 567 48.5 L 599.5 99 L 601 98.5 L 600 97.5 L 600 48.5 L 598.5 47 L 591 45.5 L 610.5 45 L 610.5 46 Q 604.3 45.3 602 48.5 L 602 118.5 L 600.5 119 L 555.5 51 L 555 115.5 L 556.5 117 L 562.5 118 L 564 117.5 L 563.5 119 L 544.5 119 L 544.5 118 Q 550.7 118.7 553 115.5 L 554 111.5 L 554 47.5 L 552.5 46 L 544.5 46 L 544.5 45 Z " /><path fill="rgb(38,26,66)" stroke="rgb(38,26,66)" stroke-width="0" opacity="1" d="M 626 45 L 773.5 45 L 774 45.5 L 774 59.5 L 772.5 59 L 700.5 59 L 699 60.5 L 699 73.5 L 700.5 75 L 773.5 75 L 774 75.5 L 774 89 L 700.5 89 L 699 90.5 L 699 103.5 L 700.5 105 L 773.5 105 L 774 105.5 L 774 119 L 626 119 L 626 45 Z M 635 52 L 636 55 L 636 66 L 634 67 L 646 67 L 647 62 Q 644 61 645 65 Q 644 67 639 66 L 639 55 L 641 53 L 635 52 Z M 656 52 L 656 53 L 657 54 L 657 66 L 655 67 L 668 67 L 668 62 L 666 66 L 660 66 L 661 61 L 663 62 Q 662 64 665 63 Q 666 58 664 56 L 662 59 L 661 56 Q 659 54 662 53 L 666 54 L 668 57 L 668 54 L 667 52 L 656 52 Z M 678 52 L 679 53 L 683 60 L 682 63 L 677 67 L 682 67 L 681 66 L 684 62 L 686 66 L 686 67 L 692 67 L 690 66 L 686 59 L 691 53 L 687 52 L 687 54 L 686 57 L 683 55 L 684 53 L 678 52 Z M 636 74 Q 635 77 638 76 L 638 88 L 636 88 L 637 90 L 643 90 Q 644 87 641 88 L 641 77 L 643 76 L 643 74 L 636 74 Z M 654 74 Q 653 77 656 76 L 656 88 L 654 88 L 654 90 L 659 90 Q 660 87 657 88 L 658 77 L 664 88 L 667 90 L 667 77 L 669 76 L 669 74 L 664 74 Q 663 77 666 76 L 666 82 L 661 76 Q 659 73 654 74 Z M 683 74 L 679 76 L 677 81 L 678 87 L 683 90 L 689 89 L 690 87 L 692 84 L 685 85 L 687 85 L 686 89 Q 682 90 681 87 Q 680 79 682 76 L 685 75 L 687 76 L 688 79 Q 692 80 690 75 L 683 74 Z M 661 96 L 655 101 L 656 110 Q 658 114 665 112 L 669 106 L 668 101 Q 666 96 661 96 Z M 633 97 L 634 102 L 637 98 L 638 99 L 638 111 L 636 112 L 643 112 L 641 110 L 641 99 L 643 98 L 645 102 L 646 102 L 646 97 L 633 97 Z M 678 97 L 678 98 L 679 99 L 679 111 L 677 112 L 682 112 L 680 110 L 681 100 L 690 112 L 691 106 Q 689 104 690 100 L 692 97 L 687 98 L 689 98 L 689 105 L 686 101 Q 685 96 678 97 Z " /><path fill="rgb(38,26,66)" stroke="rgb(38,26,66)" stroke-width="0" opacity="1" d="M 659 98 Q 663.6 96.8 665 99.5 Q 666.1 107.7 664 111 Q 660.2 112 659 109.5 L 658 101.5 L 659 98 Z " /><path fill="rgb(254,254,254)" stroke="rgb(254,254,254)" stroke-width="0" opacity="1" d="M 0 0 L 799.5 0 L 800 0.5 L 800 164 L 0.5 164 L 0 163.5 L 0 0 Z M 365 43 L 353 50 Q 343 59 340 76 Q 339 98 348 111 Q 354 118 364 121 Q 374 122 382 120 L 396 111 L 396 99 L 398 97 L 403 98 L 404 95 L 378 95 L 377 97 Q 378 99 384 98 L 385 98 Q 387 108 384 114 L 375 119 Q 365 120 362 116 L 355 107 L 352 94 L 352 71 L 354 61 L 358 52 L 368 45 L 377 46 L 385 51 L 391 62 L 392 67 Q 391 69 394 68 L 394 46 L 392 45 L 390 50 L 376 43 L 365 43 Z M 499 43 L 488 49 Q 477 58 474 75 L 474 90 L 475 95 Q 478 105 484 112 Q 489 118 499 121 Q 512 123 519 117 L 529 106 L 533 97 L 535 86 L 533 68 L 527 56 Q 522 48 513 44 Q 507 42 499 43 Z M 27 44 L 25 46 L 27 47 L 35 47 L 35 117 L 35 117 L 27 117 Q 24 119 27 120 L 82 120 L 83 119 L 83 96 L 82 94 L 80 96 Q 81 105 78 111 L 74 115 L 67 117 L 45 117 L 45 48 L 46 47 L 55 47 L 55 46 L 54 44 L 27 44 Z M 90 44 L 88 46 L 89 47 L 97 47 L 97 117 L 97 117 L 89 117 L 88 119 L 90 120 L 144 120 L 144 98 L 142 97 L 142 104 L 140 111 L 136 115 L 129 117 L 107 117 L 107 83 L 119 83 L 121 84 Q 125 87 124 95 L 127 95 L 126 94 L 126 66 L 124 68 L 123 76 L 118 80 L 108 80 L 107 80 L 107 47 L 127 47 L 134 50 L 138 58 Q 136 65 141 63 Q 139 57 140 46 L 139 44 L 90 44 Z M 156 44 L 154 46 L 155 47 L 163 47 L 181 83 L 163 114 L 159 117 L 151 117 L 151 120 L 173 120 L 174 119 L 174 117 L 166 117 L 168 110 L 183 86 L 197 116 L 198 117 L 191 117 L 190 119 L 192 120 L 218 120 L 218 117 L 210 117 L 189 75 L 203 50 L 207 47 Q 213 48 213 46 L 212 44 L 193 44 L 191 47 Q 198 45 200 50 L 188 71 L 176 49 L 176 47 L 183 47 L 183 46 L 182 44 L 156 44 Z M 226 44 L 226 47 L 234 47 L 234 117 L 234 117 L 226 117 L 227 120 L 253 120 L 253 117 L 245 117 L 245 48 L 246 47 L 253 47 L 253 44 L 226 44 Z M 265 44 L 263 46 L 265 47 L 273 47 L 273 111 L 272 116 Q 271 119 265 117 Q 262 119 265 120 L 284 120 L 285 119 Q 284 115 278 117 L 275 115 L 276 52 L 321 120 L 322 120 L 322 49 L 324 47 L 331 47 L 330 44 L 312 44 L 310 46 L 311 47 L 318 47 L 320 52 L 320 99 L 285 46 L 284 44 L 265 44 Z M 409 44 L 407 46 L 407 67 Q 411 68 409 63 L 409 61 L 412 52 Q 418 45 431 47 L 431 117 L 431 117 L 422 117 L 421 119 L 423 120 L 451 120 Q 454 119 451 117 L 443 117 L 442 117 L 442 47 Q 453 46 460 50 L 463 56 L 464 67 L 466 67 L 466 46 L 465 44 L 409 44 Z M 544 44 L 544 47 L 553 47 L 553 115 L 551 117 L 544 117 L 544 120 L 564 120 L 565 119 L 565 117 L 558 117 L 555 113 L 556 52 L 599 119 L 602 120 L 602 50 L 605 47 L 611 47 L 611 44 L 592 44 L 590 46 Q 591 49 598 47 L 600 50 L 600 98 L 566 47 L 564 44 L 544 44 Z M 627 44 L 625 46 L 625 120 L 774 120 L 775 119 L 775 104 L 701 104 L 700 104 L 700 90 L 774 90 L 775 89 L 775 75 L 775 74 L 700 74 L 700 61 L 701 60 L 775 60 L 775 46 L 774 44 L 627 44 Z " /><path fill="rgb(254,254,254)" stroke="rgb(254,254,254)" stroke-width="0" opacity="1" d="M 502.5 45 Q 511.9 45.1 516 50.5 L 522 64.5 Q 520.5 70 523 71.5 L 523 92.5 L 519 108.5 L 513.5 116 L 506.5 119 L 502.5 119 Q 495.1 117.9 492 112.5 L 488 104.5 L 486 95.5 L 486 68.5 L 490 54.5 L 496.5 47 L 502.5 45 Z " /><path fill="rgb(254,254,254)" stroke="rgb(254,254,254)" stroke-width="0" opacity="1" d="M 636 53 L 639 53.5 L 639 67 L 636 66.5 L 636 53 Z " /><path fill="rgb(254,254,254)" stroke="rgb(254,254,254)" stroke-width="0" opacity="1" d="M 658 53 L 660 53 L 660 59 L 662.5 59 L 664 58.5 L 663.5 61 L 660 60 L 660 66.5 L 658 67 L 658 53 Z " /><path fill="rgb(254,254,254)" stroke="rgb(254,254,254)" stroke-width="0" opacity="1" d="M 679.5 53 Q 683.5 52.5 684 55.5 L 690 67 Q 686.3 68.5 687 65.5 L 679.5 53 Z " /><path fill="rgb(254,254,254)" stroke="rgb(254,254,254)" stroke-width="0" opacity="1" d="M 682.5 62 L 681.5 64 L 682.5 62 Z " /><path fill="rgb(254,254,254)" stroke="rgb(254,254,254)" stroke-width="0" opacity="1" d="M 667.5 63 L 668 65.5 L 665.5 67 L 667 64.5 L 667.5 63 Z " /><path fill="rgb(254,254,254)" stroke="rgb(254,254,254)" stroke-width="0" opacity="1" d="M 645.5 64 L 646 67 L 643 66.5 L 645 66 L 645.5 64 Z " /><path fill="rgb(254,254,254)" stroke="rgb(254,254,254)" stroke-width="0" opacity="1" d="M 638 75 L 641 75.5 L 641 89 L 638 88.5 L 638 75 Z " /><path fill="rgb(254,254,254)" stroke="rgb(254,254,254)" stroke-width="0" opacity="1" d="M 656.5 75 Q 660.3 74.3 661 76.5 L 667 84.5 L 667 88.5 L 664 86.5 L 658 76 L 656.5 75 Z " /><path fill="rgb(254,254,254)" stroke="rgb(254,254,254)" stroke-width="0" opacity="1" d="M 681.5 75 L 681 76.5 L 681 87.5 L 682 88.5 L 678 85.5 Q 676.7 77.2 681.5 75 Z " /><path fill="rgb(254,254,254)" stroke="rgb(254,254,254)" stroke-width="0" opacity="1" d="M 687.5 75 Q 690.1 74.2 689 77.5 L 688 77.5 L 687.5 75 Z " /><path fill="rgb(254,254,254)" stroke="rgb(254,254,254)" stroke-width="0" opacity="1" d="M 688.5 84 Q 691.1 83.2 690 86.5 L 686.5 89 L 687 87.5 L 688.5 84 Z " /><path fill="rgb(254,254,254)" stroke="rgb(254,254,254)" stroke-width="0" opacity="1" d="M 633 97 L 636 97.5 L 633.5 101 L 633 97 Z " /><path fill="rgb(254,254,254)" stroke="rgb(254,254,254)" stroke-width="0" opacity="1" d="M 638 97 L 641 97.5 L 641 111 L 638 110.5 L 638 97 Z " /><path fill="rgb(254,254,254)" stroke="rgb(254,254,254)" stroke-width="0" opacity="1" d="M 643.5 97 Q 647.7 95.7 646 100.5 L 645 100.5 L 643.5 97 Z " /><path fill="rgb(254,254,254)" stroke="rgb(254,254,254)" stroke-width="0" opacity="1" d="M 679.5 97 Q 683.3 96.3 684 98.5 L 688 106 Q 692 104.6 690 111.5 L 689 111.5 L 679.5 97 Z " /><path fill="rgb(254,254,254)" stroke="rgb(254,254,254)" stroke-width="0" opacity="1" d="M 658.5 98 L 658 99.5 L 658 109.5 L 659 110.5 L 656 108.5 L 655 102.5 L 658.5 98 Z " /><path fill="rgb(254,254,254)" stroke="rgb(254,254,254)" stroke-width="0" opacity="1" d="M 664.5 98 L 667 99.5 L 668 107.5 L 665.5 111 L 664 110.5 L 666 102.5 L 664.5 98 Z " /><path fill="rgb(157,156,174)" stroke="rgb(157,156,174)" stroke-width="0" opacity="1" d="M 364.5 43 L 368 43.5 L 364.5 44 L 364.5 43 Z " /><path fill="rgb(157,156,174)" stroke="rgb(157,156,174)" stroke-width="0" opacity="1" d="M 373.5 43 L 376 43.5 L 373.5 44 L 373.5 43 Z " /><path fill="rgb(157,156,174)" stroke="rgb(157,156,174)" stroke-width="0" opacity="1" d="M 498.5 43 L 502 43.5 L 498.5 44 L 498.5 43 Z " /><path fill="rgb(157,156,174)" stroke="rgb(157,156,174)" stroke-width="0" opacity="1" d="M 507.5 43 L 510 43.5 L 507.5 44 L 507.5 43 Z " /><path fill="rgb(157,156,174)" stroke="rgb(157,156,174)" stroke-width="0" opacity="1" d="M 26.5 44 L 53.5 44 L 55 45.5 L 54.5 47 L 45.5 47 L 45.5 46 L 54 45.5 L 26.5 45 L 26.5 46 L 35 46.5 L 26.5 47 Q 23.5 45.5 26.5 44 Z " /><path fill="rgb(157,156,174)" stroke="rgb(157,156,174)" stroke-width="0" opacity="1" d="M 89.5 44 L 138.5 44 L 140 45.5 L 139.5 50 L 139 45 L 89 45.5 L 96 46.5 L 88 47 L 89.5 44 Z " /><path fill="rgb(157,156,174)" stroke="rgb(157,156,174)" stroke-width="0" opacity="1" d="M 155.5 44 L 181.5 44 L 183 45.5 L 182.5 47 L 182 45 L 155.5 45 L 155 46.5 L 154 46.5 L 155.5 44 Z " /><path fill="rgb(157,156,174)" stroke="rgb(157,156,174)" stroke-width="0" opacity="1" d="M 192.5 44 L 211.5 44 L 213 45.5 Q 213.9 48.9 208.5 47 L 208.5 46 L 212 45.5 L 192 45 L 191.5 47 L 191 45.5 L 192.5 44 Z " /><path fill="rgb(157,156,174)" stroke="rgb(157,156,174)" stroke-width="0" opacity="1" d="M 226.5 44 L 253 44.5 L 226.5 45 L 226.5 44 Z " /><path fill="rgb(157,156,174)" stroke="rgb(157,156,174)" stroke-width="0" opacity="1" d="M 264.5 44 L 283.5 44 L 285 45.5 L 283.5 45 L 264 45.5 L 273 46.5 L 264.5 47 Q 261.5 45.5 264.5 44 Z " /><path fill="rgb(157,156,174)" stroke="rgb(157,156,174)" stroke-width="0" opacity="1" d="M 311.5 44 L 329.5 44 L 331 45.5 L 330.5 47 L 330 45 L 311 45.5 L 316 46.5 L 310 47 L 311.5 44 Z " /><path fill="rgb(157,156,174)" stroke="rgb(157,156,174)" stroke-width="0" opacity="1" d="M 408.5 44 L 464.5 44 L 466 45.5 L 465.5 67 L 465 45 L 408 45 L 408 66.5 L 407 66.5 L 407 45.5 L 408.5 44 Z " /><path fill="rgb(157,156,174)" stroke="rgb(157,156,174)" stroke-width="0" opacity="1" d="M 544.5 44 L 563.5 44 L 566 46.5 L 563.5 45 L 544.5 45 L 544.5 44 Z " /><path fill="rgb(157,156,174)" stroke="rgb(157,156,174)" stroke-width="0" opacity="1" d="M 591.5 44 L 611 44.5 L 591 45.5 L 596 46.5 L 591.5 47 Q 588.5 45.5 591.5 44 Z " /><path fill="rgb(157,156,174)" stroke="rgb(157,156,174)" stroke-width="0" opacity="1" d="M 626.5 44 L 773.5 44 L 775 45.5 L 774.5 60 L 774 45 L 626 45 L 626 119 L 773.5 119 L 774 118.5 L 774 105 L 700.5 105 L 699 103.5 L 699 90.5 L 700.5 89 L 773.5 89 L 774 88.5 L 774 75 L 700.5 75 L 699 73.5 L 699 60.5 L 700.5 59 L 773 59.5 L 700 60 L 700 73.5 L 700.5 74 L 775 74 L 775 88.5 L 773.5 90 L 700 90 L 700 103.5 L 700.5 104 L 775 104 L 775 118.5 L 773.5 120 L 625 120 L 625 45.5 L 626.5 44 Z " /><path fill="rgb(157,156,174)" stroke="rgb(157,156,174)" stroke-width="0" opacity="1" d="M 359.5 45 L 361 45.5 L 358.5 47 L 359.5 45 Z " /><path fill="rgb(157,156,174)" stroke="rgb(157,156,174)" stroke-width="0" opacity="1" d="M 393.5 45 L 394 67.5 L 393 67.5 L 393.5 45 Z " /><path fill="rgb(157,156,174)" stroke="rgb(157,156,174)" stroke-width="0" opacity="1" d="M 499.5 45 L 502 45.5 L 499.5 46 L 499.5 45 Z " /><path fill="rgb(157,156,174)" stroke="rgb(157,156,174)" stroke-width="0" opacity="1" d="M 107.5 46 L 123 46.5 L 107 47 L 107 79.5 L 107.5 80 L 115.5 80 L 115.5 81 L 107.5 81 L 106 79.5 L 106 47.5 L 107.5 46 Z " /><path fill="rgb(157,156,174)" stroke="rgb(157,156,174)" stroke-width="0" opacity="1" d="M 156.5 46 L 162 46.5 L 156.5 47 L 156.5 46 Z " /><path fill="rgb(157,156,174)" stroke="rgb(157,156,174)" stroke-width="0" opacity="1" d="M 175.5 46 L 181 46.5 L 175.5 47 L 175.5 46 Z " /><path fill="rgb(157,156,174)" stroke="rgb(157,156,174)" stroke-width="0" opacity="1" d="M 193.5 46 L 196 46.5 L 193.5 47 L 193.5 46 Z " /><path fill="rgb(157,156,174)" stroke="rgb(157,156,174)" stroke-width="0" opacity="1" d="M 227.5 46 Q 233.5 44.5 235 47.5 L 235 116.5 L 233.5 118 L 227 117.5 L 234 117 L 234 47.5 Q 233.8 46.3 227.5 47 L 227.5 46 Z " /><path fill="rgb(157,156,174)" stroke="rgb(157,156,174)" stroke-width="0" opacity="1" d="M 245.5 46 L 253 46.5 L 245 47 L 245 116.5 L 245.5 117 L 252.5 117 L 252.5 118 Q 245.7 119.7 244 116.5 L 244 47.5 L 245.5 46 Z " /><path fill="rgb(157,156,174)" stroke="rgb(157,156,174)" stroke-width="0" opacity="1" d="M 326.5 46 L 329 46.5 L 326.5 47 L 326.5 46 Z " /><path fill="rgb(157,156,174)" stroke="rgb(157,156,174)" stroke-width="0" opacity="1" d="M 363.5 46 L 362.5 48 L 363.5 46 Z " /><path fill="rgb(157,156,174)" stroke="rgb(157,156,174)" stroke-width="0" opacity="1" d="M 382.5 46 L 383.5 48 L 382.5 46 Z " /><path fill="rgb(157,156,174)" stroke="rgb(157,156,174)" stroke-width="0" opacity="1" d="M 426.5 46 Q 431 45 432 47.5 L 432 116.5 L 430.5 118 L 422 118.5 L 450.5 119 L 450.5 118 L 442.5 118 L 441 116.5 L 441 47.5 L 442.5 46 L 447 46.5 L 442 47 L 442 116.5 L 442.5 117 L 450.5 117 Q 453.5 118.5 450.5 120 L 422.5 120 L 421 118.5 L 421.5 117 L 430.5 117 L 431 116.5 L 431 47 L 426.5 47 L 426.5 46 Z " /><path fill="rgb(157,156,174)" stroke="rgb(157,156,174)" stroke-width="0" opacity="1" d="M 544.5 46 L 552.5 46 L 554 47.5 L 553.5 112 L 553 47 L 544.5 47 L 544.5 46 Z " /><path fill="rgb(157,156,174)" stroke="rgb(157,156,174)" stroke-width="0" opacity="1" d="M 606.5 46 L 611 46.5 L 606.5 47 L 606.5 46 Z " /><path fill="rgb(157,156,174)" stroke="rgb(157,156,174)" stroke-width="0" opacity="1" d="M 198.5 47 L 199.5 49 L 198.5 47 Z " /><path fill="rgb(157,156,174)" stroke="rgb(157,156,174)" stroke-width="0" opacity="1" d="M 285.5 47 L 286.5 49 L 285.5 47 Z " /><path fill="rgb(157,156,174)" stroke="rgb(157,156,174)" stroke-width="0" opacity="1" d="M 356.5 47 L 355.5 49 L 356.5 47 Z " /><path fill="rgb(157,156,174)" stroke="rgb(157,156,174)" stroke-width="0" opacity="1" d="M 391.5 47 L 392 48.5 L 390 49.5 L 391.5 47 Z " /><path fill="rgb(157,156,174)" stroke="rgb(157,156,174)" stroke-width="0" opacity="1" d="M 418.5 47 L 421 47.5 L 418.5 48 L 418.5 47 Z " /><path fill="rgb(157,156,174)" stroke="rgb(157,156,174)" stroke-width="0" opacity="1" d="M 452.5 47 L 455 47.5 L 452.5 48 L 452.5 47 Z " /><path fill="rgb(157,156,174)" stroke="rgb(157,156,174)" stroke-width="0" opacity="1" d="M 518.5 47 L 520.5 50 L 518.5 47 Z " /><path fill="rgb(157,156,174)" stroke="rgb(157,156,174)" stroke-width="0" opacity="1" d="M 598.5 47 L 599.5 49 L 598.5 47 Z " /><path fill="rgb(157,156,174)" stroke="rgb(157,156,174)" stroke-width="0" opacity="1" d="M 603.5 47 L 602.5 49 L 603.5 47 Z " /><path fill="rgb(157,156,174)" stroke="rgb(157,156,174)" stroke-width="0" opacity="1" d="M 130.5 48 L 133 49.5 L 131.5 49 L 130.5 48 Z " /><path fill="rgb(157,156,174)" stroke="rgb(157,156,174)" stroke-width="0" opacity="1" d="M 163.5 48 L 167 53.5 L 165 52.5 L 163.5 48 Z " /><path fill="rgb(157,156,174)" stroke="rgb(157,156,174)" stroke-width="0" opacity="1" d="M 381.5 48 L 383.5 51 L 381.5 48 Z " /><path fill="rgb(157,156,174)" stroke="rgb(157,156,174)" stroke-width="0" opacity="1" d="M 385.5 48 L 386.5 50 L 385.5 48 Z " /><path fill="rgb(157,156,174)" stroke="rgb(157,156,174)" stroke-width="0" opacity="1" d="M 415.5 48 L 417 48.5 L 414.5 50 L 415.5 48 Z " /><path fill="rgb(157,156,174)" stroke="rgb(157,156,174)" stroke-width="0" opacity="1" d="M 456.5 48 L 459 49.5 L 457.5 49 L 456.5 48 Z " /><path fill="rgb(157,156,174)" stroke="rgb(157,156,174)" stroke-width="0" opacity="1" d="M 494.5 48 L 492.5 51 L 494.5 48 Z " /><path fill="rgb(157,156,174)" stroke="rgb(157,156,174)" stroke-width="0" opacity="1" d="M 321.5 49 L 322 119.5 L 321 119.5 L 321.5 49 Z " /><path fill="rgb(157,156,174)" stroke="rgb(157,156,174)" stroke-width="0" opacity="1" d="M 487.5 49 L 484.5 53 L 487.5 49 Z " /><path fill="rgb(157,156,174)" stroke="rgb(157,156,174)" stroke-width="0" opacity="1" d="M 202.5 50 L 201.5 52 L 202.5 50 Z " /><path fill="rgb(157,156,174)" stroke="rgb(157,156,174)" stroke-width="0" opacity="1" d="M 287.5 50 L 288.5 52 L 287.5 50 Z " /><path fill="rgb(157,156,174)" stroke="rgb(157,156,174)" stroke-width="0" opacity="1" d="M 352.5 50 L 351.5 52 L 352.5 50 Z " /><path fill="rgb(157,156,174)" stroke="rgb(157,156,174)" stroke-width="0" opacity="1" d="M 274 51 L 276 51.5 L 274 52.5 L 274 51 Z " /><path fill="rgb(157,156,174)" stroke="rgb(157,156,174)" stroke-width="0" opacity="1" d="M 516.5 51 L 517.5 53 L 516.5 51 Z " /><path fill="rgb(157,156,174)" stroke="rgb(157,156,174)" stroke-width="0" opacity="1" d="M 555.5 51 L 556.5 53 L 555.5 51 Z " /><path fill="rgb(157,156,174)" stroke="rgb(157,156,174)" stroke-width="0" opacity="1" d="M 568.5 51 L 569.5 53 L 568.5 51 Z " /><path fill="rgb(157,156,174)" stroke="rgb(157,156,174)" stroke-width="0" opacity="1" d="M 385.5 52 L 387.5 55 L 385.5 52 Z " /><path fill="rgb(157,156,174)" stroke="rgb(157,156,174)" stroke-width="0" opacity="1" d="M 491.5 52 L 490.5 54 L 491.5 52 Z " /><path fill="rgb(157,156,174)" stroke="rgb(157,156,174)" stroke-width="0" opacity="1" d="M 634.5 52 L 641 52.5 Q 639.8 55.3 638.5 53 L 635.5 54 L 634.5 52 Z " /><path fill="rgb(157,156,174)" stroke="rgb(157,156,174)" stroke-width="0" opacity="1" d="M 655.5 52 L 666.5 52 L 668 53.5 L 667.5 57 Q 664.8 55.8 667 54.5 L 666.5 53 L 663.5 54 L 661.5 53 L 659.5 53 L 658 53.5 L 658 66.5 L 655.5 67 L 655.5 66 L 657 65.5 L 657 53 L 655.5 52 Z " /><path fill="rgb(157,156,174)" stroke="rgb(157,156,174)" stroke-width="0" opacity="1" d="M 677.5 52 L 684 52.5 Q 682.8 55.3 681.5 53 Q 676.5 54 677.5 52 Z " /><path fill="rgb(157,156,174)" stroke="rgb(157,156,174)" stroke-width="0" opacity="1" d="M 686.5 52 L 691 52.5 L 686.5 56 L 687 54.5 L 686.5 52 Z " /><path fill="rgb(157,156,174)" stroke="rgb(157,156,174)" stroke-width="0" opacity="1" d="M 276.5 53 L 277.5 55 L 276.5 53 Z " /><path fill="rgb(157,156,174)" stroke="rgb(157,156,174)" stroke-width="0" opacity="1" d="M 289.5 53 L 290.5 55 L 289.5 53 Z " /><path fill="rgb(157,156,174)" stroke="rgb(157,156,174)" stroke-width="0" opacity="1" d="M 524.5 53 L 526.5 56 L 524.5 53 Z " /><path fill="rgb(157,156,174)" stroke="rgb(157,156,174)" stroke-width="0" opacity="1" d="M 274.5 54 L 275 112.5 L 274 112.5 L 274.5 54 Z " /><path fill="rgb(157,156,174)" stroke="rgb(157,156,174)" stroke-width="0" opacity="1" d="M 349.5 54 L 347.5 57 L 349.5 54 Z " /><path fill="rgb(157,156,174)" stroke="rgb(157,156,174)" stroke-width="0" opacity="1" d="M 570.5 54 L 571.5 56 L 570.5 54 Z " /><path fill="rgb(157,156,174)" stroke="rgb(157,156,174)" stroke-width="0" opacity="1" d="M 167.5 55 L 169 57.5 L 167 56.5 L 167.5 55 Z " /><path fill="rgb(157,156,174)" stroke="rgb(157,156,174)" stroke-width="0" opacity="1" d="M 482.5 55 L 481.5 57 L 482.5 55 Z " /><path fill="rgb(157,156,174)" stroke="rgb(157,156,174)" stroke-width="0" opacity="1" d="M 660.5 55 L 661 58.5 L 660 58.5 L 660.5 55 Z " /><path fill="rgb(157,156,174)" stroke="rgb(157,156,174)" stroke-width="0" opacity="1" d="M 196.5 56 L 195.5 58 L 196.5 56 Z " /><path fill="rgb(157,156,174)" stroke="rgb(157,156,174)" stroke-width="0" opacity="1" d="M 291.5 56 L 292.5 58 L 291.5 56 Z " /><path fill="rgb(157,156,174)" stroke="rgb(157,156,174)" stroke-width="0" opacity="1" d="M 663.5 56 Q 666.5 57.6 665 63 Q 662.3 64.1 663 61.5 L 662.5 60 L 664 60.5 L 663.5 58 L 662 58.5 L 663.5 56 Z " /><path fill="rgb(157,156,174)" stroke="rgb(157,156,174)" stroke-width="0" opacity="1" d="M 684.5 56 L 687 57.5 L 685.5 58 L 684.5 56 Z " /><path fill="rgb(157,156,174)" stroke="rgb(157,156,174)" stroke-width="0" opacity="1" d="M 198.5 57 L 197.5 59 L 198.5 57 Z " /><path fill="rgb(157,156,174)" stroke="rgb(157,156,174)" stroke-width="0" opacity="1" d="M 409.5 57 L 410 59.5 L 409 59.5 L 409.5 57 Z " /><path fill="rgb(157,156,174)" stroke="rgb(157,156,174)" stroke-width="0" opacity="1" d="M 463.5 57 L 464 61.5 L 463 61.5 L 463.5 57 Z " /><path fill="rgb(157,156,174)" stroke="rgb(157,156,174)" stroke-width="0" opacity="1" d="M 527.5 57 L 528.5 59 L 527.5 57 Z " /><path fill="rgb(157,156,174)" stroke="rgb(157,156,174)" stroke-width="0" opacity="1" d="M 559.5 57 L 560.5 59 L 559.5 57 Z " /><path fill="rgb(157,156,174)" stroke="rgb(157,156,174)" stroke-width="0" opacity="1" d="M 572.5 57 L 573.5 59 L 572.5 57 Z " /><path fill="rgb(157,156,174)" stroke="rgb(157,156,174)" stroke-width="0" opacity="1" d="M 138.5 58 L 139 62.5 L 138 62.5 L 138.5 58 Z " /><path fill="rgb(157,156,174)" stroke="rgb(157,156,174)" stroke-width="0" opacity="1" d="M 480.5 58 L 479.5 60 L 480.5 58 Z " /><path fill="rgb(157,156,174)" stroke="rgb(157,156,174)" stroke-width="0" opacity="1" d="M 140.5 59 L 141 62.5 L 140 62.5 L 140.5 59 Z " /><path fill="rgb(157,156,174)" stroke="rgb(157,156,174)" stroke-width="0" opacity="1" d="M 280.5 59 L 281.5 61 L 280.5 59 Z " /><path fill="rgb(157,156,174)" stroke="rgb(157,156,174)" stroke-width="0" opacity="1" d="M 293.5 59 L 294.5 61 L 293.5 59 Z " /><path fill="rgb(157,156,174)" stroke="rgb(157,156,174)" stroke-width="0" opacity="1" d="M 561.5 60 L 562.5 62 L 561.5 60 Z " /><path fill="rgb(157,156,174)" stroke="rgb(157,156,174)" stroke-width="0" opacity="1" d="M 574.5 60 L 575.5 62 L 574.5 60 Z " /><path fill="rgb(157,156,174)" stroke="rgb(157,156,174)" stroke-width="0" opacity="1" d="M 660.5 60 L 661 64.5 L 660 64.5 L 660.5 60 Z " /><path fill="rgb(157,156,174)" stroke="rgb(157,156,174)" stroke-width="0" opacity="1" d="M 353.5 61 L 354 63.5 L 353 63.5 L 353.5 61 Z " /><path fill="rgb(157,156,174)" stroke="rgb(157,156,174)" stroke-width="0" opacity="1" d="M 682.5 61 L 686 63.5 L 683.5 62 L 682.5 61 Z " /><path fill="rgb(157,156,174)" stroke="rgb(157,156,174)" stroke-width="0" opacity="1" d="M 282.5 62 L 283.5 64 L 282.5 62 Z " /><path fill="rgb(157,156,174)" stroke="rgb(157,156,174)" stroke-width="0" opacity="1" d="M 645 62 Q 648 61 647 64 Q 644 65 645 62 Z " /><path fill="rgb(157,156,174)" stroke="rgb(157,156,174)" stroke-width="0" opacity="1" d="M 192.5 63 L 191.5 65 L 192.5 63 Z " /><path fill="rgb(157,156,174)" stroke="rgb(157,156,174)" stroke-width="0" opacity="1" d="M 391.5 63 L 392 65.5 L 391 65.5 L 391.5 63 Z " /><path fill="rgb(157,156,174)" stroke="rgb(157,156,174)" stroke-width="0" opacity="1" d="M 563.5 63 L 564.5 65 L 563.5 63 Z " /><path fill="rgb(157,156,174)" stroke="rgb(157,156,174)" stroke-width="0" opacity="1" d="M 576.5 63 L 577.5 65 L 576.5 63 Z " /><path fill="rgb(157,156,174)" stroke="rgb(157,156,174)" stroke-width="0" opacity="1" d="M 682.5 63 L 681.5 67 L 679.5 66 L 677.5 67 L 677.5 66 L 682.5 63 Z " /><path fill="rgb(157,156,174)" stroke="rgb(157,156,174)" stroke-width="0" opacity="1" d="M 194.5 64 L 193.5 66 L 194.5 64 Z " /><path fill="rgb(157,156,174)" stroke="rgb(157,156,174)" stroke-width="0" opacity="1" d="M 284.5 65 L 285.5 67 L 284.5 65 Z " /><path fill="rgb(157,156,174)" stroke="rgb(157,156,174)" stroke-width="0" opacity="1" d="M 297.5 65 L 300 68.5 L 298 67.5 L 297.5 65 Z " /><path fill="rgb(157,156,174)" stroke="rgb(157,156,174)" stroke-width="0" opacity="1" d="M 486.5 65 L 487 67.5 L 486 67.5 L 486.5 65 Z " /><path fill="rgb(157,156,174)" stroke="rgb(157,156,174)" stroke-width="0" opacity="1" d="M 686.5 65 L 687 67 L 685 66.5 L 686.5 65 Z " /><path fill="rgb(157,156,174)" stroke="rgb(157,156,174)" stroke-width="0" opacity="1" d="M 125.5 66 L 125 67.5 L 124.5 71 L 124 67.5 L 125.5 66 Z " /><path fill="rgb(157,156,174)" stroke="rgb(157,156,174)" stroke-width="0" opacity="1" d="M 352.5 66 L 353 69.5 L 352 69.5 L 352.5 66 Z " /><path fill="rgb(157,156,174)" stroke="rgb(157,156,174)" stroke-width="0" opacity="1" d="M 565.5 66 L 566.5 68 L 565.5 66 Z " /><path fill="rgb(157,156,174)" stroke="rgb(157,156,174)" stroke-width="0" opacity="1" d="M 639.5 66 L 643 66.5 L 639.5 67 L 639.5 66 Z " /><path fill="rgb(157,156,174)" stroke="rgb(157,156,174)" stroke-width="0" opacity="1" d="M 660.5 66 L 665 66.5 L 660.5 67 L 660.5 66 Z " /><path fill="rgb(157,156,174)" stroke="rgb(157,156,174)" stroke-width="0" opacity="1" d="M 522.5 67 L 523 70.5 L 522 70.5 L 522.5 67 Z " /><path fill="rgb(157,156,174)" stroke="rgb(157,156,174)" stroke-width="0" opacity="1" d="M 286.5 68 L 287.5 70 L 286.5 68 Z " /><path fill="rgb(157,156,174)" stroke="rgb(157,156,174)" stroke-width="0" opacity="1" d="M 567.5 69 L 568.5 71 L 567.5 69 Z " /><path fill="rgb(157,156,174)" stroke="rgb(157,156,174)" stroke-width="0" opacity="1" d="M 186.5 70 L 189 70.5 Q 186.9 73.8 186.5 70 Z " /><path fill="rgb(157,156,174)" stroke="rgb(157,156,174)" stroke-width="0" opacity="1" d="M 300.5 70 L 301.5 72 L 300.5 70 Z " /><path fill="rgb(157,156,174)" stroke="rgb(157,156,174)" stroke-width="0" opacity="1" d="M 341.5 70 L 342 72.5 L 341 72.5 L 341.5 70 Z " /><path fill="rgb(157,156,174)" stroke="rgb(157,156,174)" stroke-width="0" opacity="1" d="M 190.5 71 L 189.5 73 L 190.5 71 Z " /><path fill="rgb(157,156,174)" stroke="rgb(157,156,174)" stroke-width="0" opacity="1" d="M 533.5 71 L 534 73.5 L 533 73.5 L 533.5 71 Z " /><path fill="rgb(157,156,174)" stroke="rgb(157,156,174)" stroke-width="0" opacity="1" d="M 581.5 71 L 582.5 73 L 581.5 71 Z " /><path fill="rgb(157,156,174)" stroke="rgb(157,156,174)" stroke-width="0" opacity="1" d="M 485.5 72 L 486 91.5 L 485 91.5 L 485.5 72 Z " /><path fill="rgb(157,156,174)" stroke="rgb(157,156,174)" stroke-width="0" opacity="1" d="M 302.5 73 L 303.5 75 L 302.5 73 Z " /><path fill="rgb(157,156,174)" stroke="rgb(157,156,174)" stroke-width="0" opacity="1" d="M 474.5 74 L 475 78.5 L 474 78.5 L 474.5 74 Z " /><path fill="rgb(157,156,174)" stroke="rgb(157,156,174)" stroke-width="0" opacity="1" d="M 583.5 74 L 584.5 76 L 583.5 74 Z " /><path fill="rgb(157,156,174)" stroke="rgb(157,156,174)" stroke-width="0" opacity="1" d="M 636 74 L 642.5 74 L 643 76 L 638.5 75 L 636 76 L 636 74 Z " /><path fill="rgb(157,156,174)" stroke="rgb(157,156,174)" stroke-width="0" opacity="1" d="M 654 74 Q 659.4 72.5 661 75.5 L 659.5 75 L 656 75.5 L 658 76.5 L 657 77.5 L 657 88 Q 660 87 659 90 L 654 90 L 654 88 L 656 87.5 L 656 76 Q 653 77 654 74 Z " /><path fill="rgb(157,156,174)" stroke="rgb(157,156,174)" stroke-width="0" opacity="1" d="M 664 74 L 669 74 L 669 76 L 667 76.5 L 667 83.5 L 663 80.5 L 666 81.5 L 666 76.5 Q 663.3 77.1 664 74 Z " /><path fill="rgb(157,156,174)" stroke="rgb(157,156,174)" stroke-width="0" opacity="1" d="M 682 74 L 687 74 L 687 75.5 L 687.5 77 L 684.5 75 L 682 76 L 681.5 78 L 681 76.5 L 682 74 Z " /><path fill="rgb(157,156,174)" stroke="rgb(157,156,174)" stroke-width="0" opacity="1" d="M 340.5 75 L 341 81.5 L 340 81.5 L 340.5 75 Z " /><path fill="rgb(157,156,174)" stroke="rgb(157,156,174)" stroke-width="0" opacity="1" d="M 351.5 75 L 352 88.5 L 351 88.5 L 351.5 75 Z " /><path fill="rgb(157,156,174)" stroke="rgb(157,156,174)" stroke-width="0" opacity="1" d="M 689.5 75 L 690 79 L 688 78.5 L 689.5 75 Z " /><path fill="rgb(157,156,174)" stroke="rgb(157,156,174)" stroke-width="0" opacity="1" d="M 122.5 76 L 119.5 80 L 118 79.5 L 122.5 76 Z " /><path fill="rgb(157,156,174)" stroke="rgb(157,156,174)" stroke-width="0" opacity="1" d="M 291.5 76 L 292.5 78 L 291.5 76 Z " /><path fill="rgb(157,156,174)" stroke="rgb(157,156,174)" stroke-width="0" opacity="1" d="M 304.5 76 L 305.5 78 L 304.5 76 Z " /><path fill="rgb(157,156,174)" stroke="rgb(157,156,174)" stroke-width="0" opacity="1" d="M 523.5 76 L 524 87.5 L 523 87.5 L 523.5 76 Z " /><path fill="rgb(157,156,174)" stroke="rgb(157,156,174)" stroke-width="0" opacity="1" d="M 190.5 77 L 194 83.5 L 192 82.5 L 190.5 77 Z " /><path fill="rgb(157,156,174)" stroke="rgb(157,156,174)" stroke-width="0" opacity="1" d="M 572.5 77 L 573.5 79 L 572.5 77 Z " /><path fill="rgb(157,156,174)" stroke="rgb(157,156,174)" stroke-width="0" opacity="1" d="M 585.5 77 L 586.5 79 L 585.5 77 Z " /><path fill="rgb(157,156,174)" stroke="rgb(157,156,174)" stroke-width="0" opacity="1" d="M 661.5 77 L 662.5 79 L 661.5 77 Z " /><path fill="rgb(157,156,174)" stroke="rgb(157,156,174)" stroke-width="0" opacity="1" d="M 534.5 78 L 535 85.5 L 534 85.5 L 534.5 78 Z " /><path fill="rgb(157,156,174)" stroke="rgb(157,156,174)" stroke-width="0" opacity="1" d="M 658.5 78 L 659.5 80 L 658.5 78 Z " /><path fill="rgb(157,156,174)" stroke="rgb(157,156,174)" stroke-width="0" opacity="1" d="M 293.5 79 L 294.5 81 L 293.5 79 Z " /><path fill="rgb(157,156,174)" stroke="rgb(157,156,174)" stroke-width="0" opacity="1" d="M 306.5 79 L 307.5 81 L 306.5 79 Z " /><path fill="rgb(157,156,174)" stroke="rgb(157,156,174)" stroke-width="0" opacity="1" d="M 574.5 80 L 575.5 82 L 574.5 80 Z " /><path fill="rgb(157,156,174)" stroke="rgb(157,156,174)" stroke-width="0" opacity="1" d="M 587.5 80 L 588.5 82 L 587.5 80 Z " /><path fill="rgb(157,156,174)" stroke="rgb(157,156,174)" stroke-width="0" opacity="1" d="M 677.5 80 L 678 83.5 L 677 83.5 L 677.5 80 Z " /><path fill="rgb(157,156,174)" stroke="rgb(157,156,174)" stroke-width="0" opacity="1" d="M 660.5 81 L 661.5 83 L 660.5 81 Z " /><path fill="rgb(157,156,174)" stroke="rgb(157,156,174)" stroke-width="0" opacity="1" d="M 107.5 82 L 118 82.5 L 107 83 L 107 117 L 122.5 117 L 122.5 118 L 107.5 118 L 106 116.5 L 106 83.5 L 107.5 82 Z " /><path fill="rgb(157,156,174)" stroke="rgb(157,156,174)" stroke-width="0" opacity="1" d="M 295.5 82 L 296.5 84 L 295.5 82 Z " /><path fill="rgb(157,156,174)" stroke="rgb(157,156,174)" stroke-width="0" opacity="1" d="M 308.5 82 L 309.5 84 L 308.5 82 Z " /><path fill="rgb(157,156,174)" stroke="rgb(157,156,174)" stroke-width="0" opacity="1" d="M 119.5 83 L 123 85.5 L 120.5 84 L 119.5 83 Z " /><path fill="rgb(157,156,174)" stroke="rgb(157,156,174)" stroke-width="0" opacity="1" d="M 340.5 83 L 341 89.5 L 340 89.5 L 340.5 83 Z " /><path fill="rgb(157,156,174)" stroke="rgb(157,156,174)" stroke-width="0" opacity="1" d="M 576.5 83 L 577.5 85 L 576.5 83 Z " /><path fill="rgb(157,156,174)" stroke="rgb(157,156,174)" stroke-width="0" opacity="1" d="M 589.5 83 L 590.5 85 L 589.5 83 Z " /><path fill="rgb(157,156,174)" stroke="rgb(157,156,174)" stroke-width="0" opacity="1" d="M 662.5 84 L 663.5 86 L 662.5 84 Z " /><path fill="rgb(157,156,174)" stroke="rgb(157,156,174)" stroke-width="0" opacity="1" d="M 685.5 84 L 688 84.5 L 685.5 85 L 685.5 84 Z " /><path fill="rgb(157,156,174)" stroke="rgb(157,156,174)" stroke-width="0" opacity="1" d="M 690 84 L 692 84.5 L 690 85.5 L 690 84 Z " /><path fill="rgb(157,156,174)" stroke="rgb(157,156,174)" stroke-width="0" opacity="1" d="M 182.5 85 L 181.5 87 L 182.5 85 Z " /><path fill="rgb(157,156,174)" stroke="rgb(157,156,174)" stroke-width="0" opacity="1" d="M 297.5 85 L 298.5 87 L 297.5 85 Z " /><path fill="rgb(157,156,174)" stroke="rgb(157,156,174)" stroke-width="0" opacity="1" d="M 474.5 85 L 475 89.5 L 474 89.5 L 474.5 85 Z " /><path fill="rgb(157,156,174)" stroke="rgb(157,156,174)" stroke-width="0" opacity="1" d="M 578.5 86 L 579.5 88 L 578.5 86 Z " /><path fill="rgb(157,156,174)" stroke="rgb(157,156,174)" stroke-width="0" opacity="1" d="M 591.5 86 L 592.5 88 L 591.5 86 Z " /><path fill="rgb(157,156,174)" stroke="rgb(157,156,174)" stroke-width="0" opacity="1" d="M 678.5 86 L 683.5 89 L 687 89.5 L 682 90 L 681.5 88 L 680.5 89 L 678.5 86 Z " /><path fill="rgb(157,156,174)" stroke="rgb(157,156,174)" stroke-width="0" opacity="1" d="M 178.5 87 L 177.5 89 L 178.5 87 Z " /><path fill="rgb(157,156,174)" stroke="rgb(157,156,174)" stroke-width="0" opacity="1" d="M 664.5 87 L 666.5 90 L 664.5 87 Z " /><path fill="rgb(157,156,174)" stroke="rgb(157,156,174)" stroke-width="0" opacity="1" d="M 689.5 87 L 688.5 89 L 689.5 87 Z " /><path fill="rgb(157,156,174)" stroke="rgb(157,156,174)" stroke-width="0" opacity="1" d="M 299.5 88 L 300.5 90 L 299.5 88 Z " /><path fill="rgb(157,156,174)" stroke="rgb(157,156,174)" stroke-width="0" opacity="1" d="M 636 88 L 640.5 89 L 643 88 L 642.5 90 L 636 90 L 636 88 Z " /><path fill="rgb(157,156,174)" stroke="rgb(157,156,174)" stroke-width="0" opacity="1" d="M 580.5 89 L 581.5 91 L 580.5 89 Z " /><path fill="rgb(157,156,174)" stroke="rgb(157,156,174)" stroke-width="0" opacity="1" d="M 313.5 90 L 314.5 92 L 313.5 90 Z " /><path fill="rgb(157,156,174)" stroke="rgb(157,156,174)" stroke-width="0" opacity="1" d="M 533.5 90 L 534 92.5 L 533 92.5 L 533.5 90 Z " /><path fill="rgb(157,156,174)" stroke="rgb(157,156,174)" stroke-width="0" opacity="1" d="M 124.5 91 L 125 94.5 L 124 94.5 L 124.5 91 Z " /><path fill="rgb(157,156,174)" stroke="rgb(157,156,174)" stroke-width="0" opacity="1" d="M 301.5 91 L 302.5 93 L 301.5 91 Z " /><path fill="rgb(157,156,174)" stroke="rgb(157,156,174)" stroke-width="0" opacity="1" d="M 315.5 93 L 316.5 95 L 315.5 93 Z " /><path fill="rgb(157,156,174)" stroke="rgb(157,156,174)" stroke-width="0" opacity="1" d="M 522.5 93 L 523 96.5 L 522 96.5 L 522.5 93 Z " /><path fill="rgb(157,156,174)" stroke="rgb(157,156,174)" stroke-width="0" opacity="1" d="M 81.5 94 L 83 95.5 L 83 118.5 L 81.5 120 L 26.5 120 Q 23.5 118.5 26.5 117 L 35 117.5 L 26 118.5 L 82 119 L 81.5 95 L 80.5 102 L 80 95.5 L 81.5 94 Z " /><path fill="rgb(157,156,174)" stroke="rgb(157,156,174)" stroke-width="0" opacity="1" d="M 174.5 94 L 173.5 96 L 174.5 94 Z " /><path fill="rgb(157,156,174)" stroke="rgb(157,156,174)" stroke-width="0" opacity="1" d="M 352.5 94 L 353 97.5 L 352 97.5 L 352.5 94 Z " /><path fill="rgb(157,156,174)" stroke="rgb(157,156,174)" stroke-width="0" opacity="1" d="M 596.5 94 L 597.5 96 L 596.5 94 Z " /><path fill="rgb(157,156,174)" stroke="rgb(157,156,174)" stroke-width="0" opacity="1" d="M 176.5 95 L 175.5 97 L 176.5 95 Z " /><path fill="rgb(157,156,174)" stroke="rgb(157,156,174)" stroke-width="0" opacity="1" d="M 403.5 95 L 404 96.5 Q 403 99 398.5 98 L 398.5 97 Q 403.9 98.7 403.5 95 Z " /><path fill="rgb(157,156,174)" stroke="rgb(157,156,174)" stroke-width="0" opacity="1" d="M 317.5 96 L 318.5 98 L 317.5 96 Z " /><path fill="rgb(157,156,174)" stroke="rgb(157,156,174)" stroke-width="0" opacity="1" d="M 486.5 96 L 487 98.5 L 486 98.5 L 486.5 96 Z " /><path fill="rgb(157,156,174)" stroke="rgb(157,156,174)" stroke-width="0" opacity="1" d="M 660.5 96 L 665 97.5 L 658 98.5 L 659 100.5 L 658 100.5 L 657.5 99 L 655.5 102 L 655 100.5 L 660.5 96 Z " /><path fill="rgb(157,156,174)" stroke="rgb(157,156,174)" stroke-width="0" opacity="1" d="M 378.5 97 L 384 97.5 L 378.5 98 L 378.5 97 Z " /><path fill="rgb(157,156,174)" stroke="rgb(157,156,174)" stroke-width="0" opacity="1" d="M 385.5 97 L 386 109.5 L 385 109.5 L 385.5 97 Z " /><path fill="rgb(157,156,174)" stroke="rgb(157,156,174)" stroke-width="0" opacity="1" d="M 598.5 97 L 601 98.5 L 599.5 99 L 598.5 97 Z " /><path fill="rgb(157,156,174)" stroke="rgb(157,156,174)" stroke-width="0" opacity="1" d="M 636.5 97 L 638 97.5 L 634.5 100 L 636.5 97 Z " /><path fill="rgb(157,156,174)" stroke="rgb(157,156,174)" stroke-width="0" opacity="1" d="M 641.5 97 L 645 99.5 L 642.5 98 L 641.5 97 Z " /><path fill="rgb(157,156,174)" stroke="rgb(157,156,174)" stroke-width="0" opacity="1" d="M 677.5 97 L 683 101.5 L 680 100.5 L 680 109.5 L 682 111.5 L 677.5 112 L 677.5 111 L 679 110.5 L 679 98 L 677.5 97 Z " /><path fill="rgb(157,156,174)" stroke="rgb(157,156,174)" stroke-width="0" opacity="1" d="M 687.5 97 L 689.5 98 L 691.5 97 L 690 99.5 Q 688.8 104.2 691 105.5 L 688.5 106 L 689 104.5 Q 690.5 97.5 687.5 98 L 687.5 97 Z " /><path fill="rgb(157,156,174)" stroke="rgb(157,156,174)" stroke-width="0" opacity="1" d="M 171.5 99 L 170.5 101 L 171.5 99 Z " /><path fill="rgb(157,156,174)" stroke="rgb(157,156,174)" stroke-width="0" opacity="1" d="M 306.5 99 L 307.5 101 L 306.5 99 Z " /><path fill="rgb(157,156,174)" stroke="rgb(157,156,174)" stroke-width="0" opacity="1" d="M 684.5 99 L 685.5 101 L 684.5 99 Z " /><path fill="rgb(157,156,174)" stroke="rgb(157,156,174)" stroke-width="0" opacity="1" d="M 173.5 100 L 173 101.5 L 171.5 104 L 172 102.5 L 173.5 100 Z " /><path fill="rgb(157,156,174)" stroke="rgb(157,156,174)" stroke-width="0" opacity="1" d="M 353.5 100 L 354 102.5 L 353 102.5 L 353.5 100 Z " /><path fill="rgb(157,156,174)" stroke="rgb(157,156,174)" stroke-width="0" opacity="1" d="M 587.5 100 L 588.5 102 L 587.5 100 Z " /><path fill="rgb(157,156,174)" stroke="rgb(157,156,174)" stroke-width="0" opacity="1" d="M 308.5 102 L 309.5 104 L 308.5 102 Z " /><path fill="rgb(157,156,174)" stroke="rgb(157,156,174)" stroke-width="0" opacity="1" d="M 665.5 102 L 666 105.5 L 665 105.5 L 665.5 102 Z " /><path fill="rgb(157,156,174)" stroke="rgb(157,156,174)" stroke-width="0" opacity="1" d="M 668.5 102 L 669 105.5 L 668 105.5 L 668.5 102 Z " /><path fill="rgb(157,156,174)" stroke="rgb(157,156,174)" stroke-width="0" opacity="1" d="M 686.5 102 L 687.5 104 L 686.5 102 Z " /><path fill="rgb(157,156,174)" stroke="rgb(157,156,174)" stroke-width="0" opacity="1" d="M 589.5 103 L 590.5 105 L 589.5 103 Z " /><path fill="rgb(157,156,174)" stroke="rgb(157,156,174)" stroke-width="0" opacity="1" d="M 683.5 103 L 684.5 105 L 683.5 103 Z " /><path fill="rgb(157,156,174)" stroke="rgb(157,156,174)" stroke-width="0" opacity="1" d="M 141.5 104 L 142 106.5 L 141 106.5 L 141.5 104 Z " /><path fill="rgb(157,156,174)" stroke="rgb(157,156,174)" stroke-width="0" opacity="1" d="M 479.5 104 L 480.5 106 L 479.5 104 Z " /><path fill="rgb(157,156,174)" stroke="rgb(157,156,174)" stroke-width="0" opacity="1" d="M 310.5 105 L 311.5 107 L 310.5 105 Z " /><path fill="rgb(157,156,174)" stroke="rgb(157,156,174)" stroke-width="0" opacity="1" d="M 528.5 105 L 527.5 107 L 528.5 105 Z " /><path fill="rgb(157,156,174)" stroke="rgb(157,156,174)" stroke-width="0" opacity="1" d="M 167.5 106 L 166.5 108 L 167.5 106 Z " /><path fill="rgb(157,156,174)" stroke="rgb(157,156,174)" stroke-width="0" opacity="1" d="M 591.5 106 L 592.5 108 L 591.5 106 Z " /><path fill="rgb(157,156,174)" stroke="rgb(157,156,174)" stroke-width="0" opacity="1" d="M 685.5 106 L 686.5 108 L 685.5 106 Z " /><path fill="rgb(157,156,174)" stroke="rgb(157,156,174)" stroke-width="0" opacity="1" d="M 169.5 107 L 168.5 109 L 169.5 107 Z " /><path fill="rgb(157,156,174)" stroke="rgb(157,156,174)" stroke-width="0" opacity="1" d="M 346.5 107 L 347.5 109 L 346.5 107 Z " /><path fill="rgb(157,156,174)" stroke="rgb(157,156,174)" stroke-width="0" opacity="1" d="M 481.5 107 L 482.5 109 L 481.5 107 Z " /><path fill="rgb(157,156,174)" stroke="rgb(157,156,174)" stroke-width="0" opacity="1" d="M 312.5 108 L 313.5 110 L 312.5 108 Z " /><path fill="rgb(157,156,174)" stroke="rgb(157,156,174)" stroke-width="0" opacity="1" d="M 526.5 108 L 524.5 111 L 526.5 108 Z " /><path fill="rgb(157,156,174)" stroke="rgb(157,156,174)" stroke-width="0" opacity="1" d="M 658.5 108 L 660.5 111 L 665 111.5 L 658.5 112 L 656.5 109 L 658 109.5 L 658.5 108 Z " /><path fill="rgb(157,156,174)" stroke="rgb(157,156,174)" stroke-width="0" opacity="1" d="M 593.5 109 L 594.5 111 L 593.5 109 Z " /><path fill="rgb(157,156,174)" stroke="rgb(157,156,174)" stroke-width="0" opacity="1" d="M 687.5 109 L 688.5 111 L 687.5 109 Z " /><path fill="rgb(157,156,174)" stroke="rgb(157,156,174)" stroke-width="0" opacity="1" d="M 348.5 110 L 353.5 116 L 348.5 110 Z " /><path fill="rgb(157,156,174)" stroke="rgb(157,156,174)" stroke-width="0" opacity="1" d="M 490.5 110 L 491.5 112 L 490.5 110 Z " /><path fill="rgb(157,156,174)" stroke="rgb(157,156,174)" stroke-width="0" opacity="1" d="M 641.5 110 L 642.5 112 L 636 111.5 L 641.5 110 Z " /><path fill="rgb(157,156,174)" stroke="rgb(157,156,174)" stroke-width="0" opacity="1" d="M 77.5 111 L 75.5 114 L 77.5 111 Z " /><path fill="rgb(157,156,174)" stroke="rgb(157,156,174)" stroke-width="0" opacity="1" d="M 164.5 111 L 163.5 113 L 164.5 111 Z " /><path fill="rgb(157,156,174)" stroke="rgb(157,156,174)" stroke-width="0" opacity="1" d="M 272.5 111 L 273 114.5 L 272 114.5 L 272.5 111 Z " /><path fill="rgb(157,156,174)" stroke="rgb(157,156,174)" stroke-width="0" opacity="1" d="M 314.5 111 L 315.5 113 L 314.5 111 Z " /><path fill="rgb(157,156,174)" stroke="rgb(157,156,174)" stroke-width="0" opacity="1" d="M 357.5 111 L 358.5 113 L 357.5 111 Z " /><path fill="rgb(157,156,174)" stroke="rgb(157,156,174)" stroke-width="0" opacity="1" d="M 484.5 111 L 487.5 115 L 484.5 111 Z " /><path fill="rgb(157,156,174)" stroke="rgb(157,156,174)" stroke-width="0" opacity="1" d="M 517.5 111 L 516.5 113 L 517.5 111 Z " /><path fill="rgb(157,156,174)" stroke="rgb(157,156,174)" stroke-width="0" opacity="1" d="M 138.5 112 L 137.5 114 L 138.5 112 Z " /><path fill="rgb(157,156,174)" stroke="rgb(157,156,174)" stroke-width="0" opacity="1" d="M 595.5 112 L 596.5 114 L 595.5 112 Z " /><path fill="rgb(157,156,174)" stroke="rgb(157,156,174)" stroke-width="0" opacity="1" d="M 391.5 113 L 390.5 115 L 391.5 113 Z " /><path fill="rgb(157,156,174)" stroke="rgb(157,156,174)" stroke-width="0" opacity="1" d="M 492.5 113 L 494.5 116 L 492.5 113 Z " /><path fill="rgb(157,156,174)" stroke="rgb(157,156,174)" stroke-width="0" opacity="1" d="M 555.5 113 L 557 116.5 L 555 115.5 L 555.5 113 Z " /><path fill="rgb(157,156,174)" stroke="rgb(157,156,174)" stroke-width="0" opacity="1" d="M 162.5 114 L 161.5 116 L 162.5 114 Z " /><path fill="rgb(157,156,174)" stroke="rgb(157,156,174)" stroke-width="0" opacity="1" d="M 165.5 114 L 166 116.5 L 165 116.5 L 165.5 114 Z " /><path fill="rgb(157,156,174)" stroke="rgb(157,156,174)" stroke-width="0" opacity="1" d="M 520.5 114 L 518.5 117 L 520.5 114 Z " /><path fill="rgb(157,156,174)" stroke="rgb(157,156,174)" stroke-width="0" opacity="1" d="M 275.5 115 L 276.5 117 L 275.5 115 Z " /><path fill="rgb(157,156,174)" stroke="rgb(157,156,174)" stroke-width="0" opacity="1" d="M 552.5 115 L 551.5 117 L 552.5 115 Z " /><path fill="rgb(157,156,174)" stroke="rgb(157,156,174)" stroke-width="0" opacity="1" d="M 67.5 116 L 70 116.5 L 67.5 117 L 67.5 116 Z " /><path fill="rgb(157,156,174)" stroke="rgb(157,156,174)" stroke-width="0" opacity="1" d="M 129.5 116 L 132 116.5 L 129.5 117 L 129.5 116 Z " /><path fill="rgb(157,156,174)" stroke="rgb(157,156,174)" stroke-width="0" opacity="1" d="M 355.5 116 L 356.5 118 L 355.5 116 Z " /><path fill="rgb(157,156,174)" stroke="rgb(157,156,174)" stroke-width="0" opacity="1" d="M 362.5 116 L 363.5 118 L 362.5 116 Z " /><path fill="rgb(157,156,174)" stroke="rgb(157,156,174)" stroke-width="0" opacity="1" d="M 380.5 116 L 379.5 118 L 378 117.5 L 380.5 116 Z " /><path fill="rgb(157,156,174)" stroke="rgb(157,156,174)" stroke-width="0" opacity="1" d="M 45.5 117 L 60 117.5 L 45.5 118 L 45.5 117 Z " /><path fill="rgb(157,156,174)" stroke="rgb(157,156,174)" stroke-width="0" opacity="1" d="M 88 117 L 96 117.5 L 89 118.5 L 144 119.5 L 89.5 120 L 88 117 Z " /><path fill="rgb(157,156,174)" stroke="rgb(157,156,174)" stroke-width="0" opacity="1" d="M 151.5 117 L 155 117.5 L 151.5 118 L 151.5 117 Z " /><path fill="rgb(157,156,174)" stroke="rgb(157,156,174)" stroke-width="0" opacity="1" d="M 168.5 117 L 172 117.5 L 168.5 118 L 168.5 117 Z " /><path fill="rgb(157,156,174)" stroke="rgb(157,156,174)" stroke-width="0" opacity="1" d="M 173.5 117 L 174 118.5 L 172.5 120 L 151.5 120 L 151.5 119 L 172.5 119 L 173.5 117 Z " /><path fill="rgb(157,156,174)" stroke="rgb(157,156,174)" stroke-width="0" opacity="1" d="M 190.5 117 L 198 117.5 L 190.5 118 L 190.5 117 Z " /><path fill="rgb(157,156,174)" stroke="rgb(157,156,174)" stroke-width="0" opacity="1" d="M 211.5 117 L 218 117.5 L 211.5 118 L 211.5 117 Z " /><path fill="rgb(157,156,174)" stroke="rgb(157,156,174)" stroke-width="0" opacity="1" d="M 264.5 117 L 268 117.5 L 264 118.5 L 283.5 119 L 283.5 118 L 279 117.5 L 283.5 117 Q 286.5 118.5 283.5 120 L 264.5 120 L 263 118.5 L 264.5 117 Z " /><path fill="rgb(157,156,174)" stroke="rgb(157,156,174)" stroke-width="0" opacity="1" d="M 544.5 117 L 549 117.5 L 544.5 118 L 544.5 117 Z " /><path fill="rgb(157,156,174)" stroke="rgb(157,156,174)" stroke-width="0" opacity="1" d="M 560.5 117 L 563 117.5 L 560.5 118 L 560.5 117 Z " /><path fill="rgb(157,156,174)" stroke="rgb(157,156,174)" stroke-width="0" opacity="1" d="M 564.5 117 L 565 118.5 L 563.5 120 L 544.5 120 L 544.5 119 L 563.5 119 L 564.5 117 Z " /><path fill="rgb(157,156,174)" stroke="rgb(157,156,174)" stroke-width="0" opacity="1" d="M 499.5 118 L 502 118.5 L 499.5 119 L 499.5 118 Z " /><path fill="rgb(157,156,174)" stroke="rgb(157,156,174)" stroke-width="0" opacity="1" d="M 599.5 118 L 602 119.5 L 600.5 120 L 599.5 118 Z " /><path fill="rgb(157,156,174)" stroke="rgb(157,156,174)" stroke-width="0" opacity="1" d="M 191.5 119 L 218 119.5 L 191.5 120 L 191.5 119 Z " /><path fill="rgb(157,156,174)" stroke="rgb(157,156,174)" stroke-width="0" opacity="1" d="M 226.5 119 L 253 119.5 L 226.5 120 L 226.5 119 Z " /><path fill="rgb(157,156,174)" stroke="rgb(157,156,174)" stroke-width="0" opacity="1" d="M 379.5 119 L 382 119.5 L 379.5 120 L 379.5 119 Z " /><path fill="rgb(157,156,174)" stroke="rgb(157,156,174)" stroke-width="0" opacity="1" d="M 363.5 120 L 367 120.5 L 363.5 121 L 363.5 120 Z " /><path fill="rgb(157,156,174)" stroke="rgb(157,156,174)" stroke-width="0" opacity="1" d="M 374.5 120 L 378 120.5 L 374.5 121 L 374.5 120 Z " /><path fill="rgb(157,156,174)" stroke="rgb(157,156,174)" stroke-width="0" opacity="1" d="M 498.5 120 L 502 120.5 L 498.5 121 L 498.5 120 Z " /><path fill="rgb(157,156,174)" stroke="rgb(157,156,174)" stroke-width="0" opacity="1" d="M 507.5 120 L 510 120.5 L 507.5 121 L 507.5 120 Z " /></svg>