<svg viewBox="0 0 260 121" version="1.1" xmlns="http://www.w3.org/2000/svg" desc="Created with imagetracer.js version 1.2.6" ><path fill="rgb(140,140,141)" stroke="rgb(140,140,141)" stroke-width="0" opacity="1" d="M 12.5 10 L 50 10.5 L 12.5 11 L 12.5 10 Z " /><path fill="rgb(140,140,141)" stroke="rgb(140,140,141)" stroke-width="0" opacity="1" d="M 77.5 10 L 115 10.5 L 77.5 11 L 77.5 10 Z " /><path fill="rgb(140,140,141)" stroke="rgb(140,140,141)" stroke-width="0" opacity="1" d="M 126.5 10 L 138 10.5 L 126.5 11 L 126.5 10 Z " /><path fill="rgb(140,140,141)" stroke="rgb(140,140,141)" stroke-width="0" opacity="1" d="M 146.5 10 L 158 10.5 L 146.5 11 L 146.5 10 Z " /><path fill="rgb(140,140,141)" stroke="rgb(140,140,141)" stroke-width="0" opacity="1" d="M 170.5 10 L 179 10.5 L 170.5 11 L 170.5 10 Z " /><path fill="rgb(140,140,141)" stroke="rgb(140,140,141)" stroke-width="0" opacity="1" d="M 190.5 10 L 202 10.5 L 190.5 11 L 190.5 10 Z " /><path fill="rgb(140,140,141)" stroke="rgb(140,140,141)" stroke-width="0" opacity="1" d="M 204.5 10 L 209 10.5 L 204.5 11 L 204.5 10 Z " /><path fill="rgb(140,140,141)" stroke="rgb(140,140,141)" stroke-width="0" opacity="1" d="M 222.5 10 L 235 10.5 L 222 11.5 L 222.5 13 Q 219.5 11.5 222.5 10 Z " /><path fill="rgb(140,140,141)" stroke="rgb(140,140,141)" stroke-width="0" opacity="1" d="M 240.5 10 L 249 10.5 L 240.5 11 L 239.5 12 L 240.5 10 Z " /><path fill="rgb(140,140,141)" stroke="rgb(140,140,141)" stroke-width="0" opacity="1" d="M 126.5 12 L 129 13.5 L 127.5 13 L 126.5 12 Z " /><path fill="rgb(140,140,141)" stroke="rgb(140,140,141)" stroke-width="0" opacity="1" d="M 117.5 13 L 118 15.5 L 117 15.5 L 117.5 13 Z " /><path fill="rgb(140,140,141)" stroke="rgb(140,140,141)" stroke-width="0" opacity="1" d="M 155.5 14 L 156 36.5 L 155 36.5 L 155.5 14 Z " /><path fill="rgb(140,140,141)" stroke="rgb(140,140,141)" stroke-width="0" opacity="1" d="M 233.5 14 L 234 36.5 L 233 36.5 L 233.5 14 Z " /><path fill="rgb(140,140,141)" stroke="rgb(140,140,141)" stroke-width="0" opacity="1" d="M 246.5 14 L 243.5 18 L 246.5 14 Z " /><path fill="rgb(140,140,141)" stroke="rgb(140,140,141)" stroke-width="0" opacity="1" d="M 10.5 16 L 13 17.5 L 11.5 18 L 10.5 16 Z " /><path fill="rgb(140,140,141)" stroke="rgb(140,140,141)" stroke-width="0" opacity="1" d="M 16.5 18 L 18.5 21 L 16.5 18 Z " /><path fill="rgb(140,140,141)" stroke="rgb(140,140,141)" stroke-width="0" opacity="1" d="M 111.5 19 L 110.5 21 L 111.5 19 Z " /><path fill="rgb(140,140,141)" stroke="rgb(140,140,141)" stroke-width="0" opacity="1" d="M 169.5 19 L 170 21.5 L 169 21.5 L 169.5 19 Z " /><path fill="rgb(140,140,141)" stroke="rgb(140,140,141)" stroke-width="0" opacity="1" d="M 214.5 22 L 213.5 24 L 214.5 22 Z " /><path fill="rgb(140,140,141)" stroke="rgb(140,140,141)" stroke-width="0" opacity="1" d="M 235.5 25 L 236 27.5 L 235 27.5 L 235.5 25 Z " /><path fill="rgb(140,140,141)" stroke="rgb(140,140,141)" stroke-width="0" opacity="1" d="M 131.5 27 L 132 35.5 L 131 35.5 L 131.5 27 Z " /><path fill="rgb(140,140,141)" stroke="rgb(140,140,141)" stroke-width="0" opacity="1" d="M 204.5 27 L 205.5 29 L 204.5 27 Z " /><path fill="rgb(140,140,141)" stroke="rgb(140,140,141)" stroke-width="0" opacity="1" d="M 173.5 29 L 172.5 31 L 169 31.5 L 174 32.5 L 168 33 L 169.5 30 L 173.5 29 Z " /><path fill="rgb(140,140,141)" stroke="rgb(140,140,141)" stroke-width="0" opacity="1" d="M 217.5 35 L 219 35.5 L 216.5 37 L 217.5 35 Z " /><path fill="rgb(140,140,141)" stroke="rgb(140,140,141)" stroke-width="0" opacity="1" d="M 162.5 36 L 161.5 38 L 162.5 36 Z " /><path fill="rgb(140,140,141)" stroke="rgb(140,140,141)" stroke-width="0" opacity="1" d="M 238.5 36 L 239 37.5 L 237 38.5 L 238.5 36 Z " /><path fill="rgb(140,140,141)" stroke="rgb(140,140,141)" stroke-width="0" opacity="1" d="M 145.5 37 L 144.5 39 L 145.5 37 Z " /><path fill="rgb(140,140,141)" stroke="rgb(140,140,141)" stroke-width="0" opacity="1" d="M 185.5 37 L 186.5 39 L 185.5 37 Z " /><path fill="rgb(140,140,141)" stroke="rgb(140,140,141)" stroke-width="0" opacity="1" d="M 249.5 37 Q 254 39 250.5 41 L 238 40.5 L 251 39.5 L 249.5 37 Z " /><path fill="rgb(140,140,141)" stroke="rgb(140,140,141)" stroke-width="0" opacity="1" d="M 222.5 38 L 222.5 40 L 235 40.5 L 222.5 41 Q 219.5 39.5 222.5 38 Z " /><path fill="rgb(140,140,141)" stroke="rgb(140,140,141)" stroke-width="0" opacity="1" d="M 137.5 39 L 138.5 41 L 137.5 39 Z " /><path fill="rgb(140,140,141)" stroke="rgb(140,140,141)" stroke-width="0" opacity="1" d="M 159.5 39 L 168 40.5 L 160.5 41 L 159.5 39 Z " /><path fill="rgb(140,140,141)" stroke="rgb(140,140,141)" stroke-width="0" opacity="1" d="M 127.5 40 L 134 40.5 L 127.5 41 L 127.5 40 Z " /><path fill="rgb(140,140,141)" stroke="rgb(140,140,141)" stroke-width="0" opacity="1" d="M 144.5 40 L 157 40.5 L 144.5 41 L 144.5 40 Z " /><path fill="rgb(140,140,141)" stroke="rgb(140,140,141)" stroke-width="0" opacity="1" d="M 174.5 40 L 187 40.5 L 174.5 41 L 174.5 40 Z " /><path fill="rgb(140,140,141)" stroke="rgb(140,140,141)" stroke-width="0" opacity="1" d="M 190.5 40 L 203 40.5 L 190.5 41 L 190.5 40 Z " /><path fill="rgb(140,140,141)" stroke="rgb(140,140,141)" stroke-width="0" opacity="1" d="M 177.5 43 L 176.5 45 L 177.5 43 Z " /><path fill="rgb(140,140,141)" stroke="rgb(140,140,141)" stroke-width="0" opacity="1" d="M 182.5 43 L 183.5 45 L 182.5 43 Z " /><path fill="rgb(140,140,141)" stroke="rgb(140,140,141)" stroke-width="0" opacity="1" d="M 190.5 43 L 189.5 45 L 190.5 43 Z " /><path fill="rgb(140,140,141)" stroke="rgb(140,140,141)" stroke-width="0" opacity="1" d="M 21.5 45 L 23 48.5 L 22 48.5 L 21.5 45 Z " /><path fill="rgb(140,140,141)" stroke="rgb(140,140,141)" stroke-width="0" opacity="1" d="M 145.5 47 Q 148.8 48.8 147 55.5 L 146 55.5 Q 146.6 48.8 145.5 47 Z " /><path fill="rgb(140,140,141)" stroke="rgb(140,140,141)" stroke-width="0" opacity="1" d="M 184.5 47 Q 186.8 46.3 186 48.5 L 184.5 47 Z " /><path fill="rgb(140,140,141)" stroke="rgb(140,140,141)" stroke-width="0" opacity="1" d="M 187.5 47 L 188 49.5 L 187 49.5 L 187.5 47 Z " /><path fill="rgb(140,140,141)" stroke="rgb(140,140,141)" stroke-width="0" opacity="1" d="M 236.5 48 L 237 76.5 L 236 76.5 L 236.5 48 Z " /><path fill="rgb(140,140,141)" stroke="rgb(140,140,141)" stroke-width="0" opacity="1" d="M 63.5 49 L 65 51.5 L 63 50.5 L 63.5 49 Z " /><path fill="rgb(140,140,141)" stroke="rgb(140,140,141)" stroke-width="0" opacity="1" d="M 129.5 49 L 128.5 51 L 129.5 49 Z " /><path fill="rgb(140,140,141)" stroke="rgb(140,140,141)" stroke-width="0" opacity="1" d="M 135.5 49 L 133.5 52 L 135.5 49 Z " /><path fill="rgb(140,140,141)" stroke="rgb(140,140,141)" stroke-width="0" opacity="1" d="M 140.5 50 L 142.5 53 L 140.5 50 Z " /><path fill="rgb(140,140,141)" stroke="rgb(140,140,141)" stroke-width="0" opacity="1" d="M 183.5 51 L 184 73.5 L 183 73.5 L 183.5 51 Z " /><path fill="rgb(140,140,141)" stroke="rgb(140,140,141)" stroke-width="0" opacity="1" d="M 189.5 51 L 190 73.5 L 189 73.5 L 189.5 51 Z " /><path fill="rgb(140,140,141)" stroke="rgb(140,140,141)" stroke-width="0" opacity="1" d="M 195.5 51 L 196.5 53 L 195.5 51 Z " /><path fill="rgb(140,140,141)" stroke="rgb(140,140,141)" stroke-width="0" opacity="1" d="M 220.5 51 L 221 70.5 L 220 70.5 L 220.5 51 Z " /><path fill="rgb(140,140,141)" stroke="rgb(140,140,141)" stroke-width="0" opacity="1" d="M 176.5 52 L 175.5 54 L 176.5 52 Z " /><path fill="rgb(140,140,141)" stroke="rgb(140,140,141)" stroke-width="0" opacity="1" d="M 173.5 59 L 174 65.5 L 173 65.5 L 173.5 59 Z " /><path fill="rgb(140,140,141)" stroke="rgb(140,140,141)" stroke-width="0" opacity="1" d="M 199.5 60 L 200 64.5 L 199 64.5 L 199.5 60 Z " /><path fill="rgb(140,140,141)" stroke="rgb(140,140,141)" stroke-width="0" opacity="1" d="M 127.5 66 L 128.5 68 L 127.5 66 Z " /><path fill="rgb(140,140,141)" stroke="rgb(140,140,141)" stroke-width="0" opacity="1" d="M 147.5 66 L 148 68.5 L 147 68.5 L 147.5 66 Z " /><path fill="rgb(140,140,141)" stroke="rgb(140,140,141)" stroke-width="0" opacity="1" d="M 202.5 66 L 201.5 68 L 202.5 66 Z " /><path fill="rgb(140,140,141)" stroke="rgb(140,140,141)" stroke-width="0" opacity="1" d="M 172.5 68 L 173 76.5 L 172 76.5 L 172.5 68 Z " /><path fill="rgb(140,140,141)" stroke="rgb(140,140,141)" stroke-width="0" opacity="1" d="M 200.5 69 L 201 72.5 L 200 72.5 L 200.5 69 Z " /><path fill="rgb(140,140,141)" stroke="rgb(140,140,141)" stroke-width="0" opacity="1" d="M 197.5 71 L 196.5 73 L 197.5 71 Z " /><path fill="rgb(140,140,141)" stroke="rgb(140,140,141)" stroke-width="0" opacity="1" d="M 130.5 72 L 132.5 75 L 130.5 72 Z " /><path fill="rgb(140,140,141)" stroke="rgb(140,140,141)" stroke-width="0" opacity="1" d="M 208.5 72 L 207.5 76 Q 204 74 208.5 72 Z " /><path fill="rgb(140,140,141)" stroke="rgb(140,140,141)" stroke-width="0" opacity="1" d="M 145.5 73 L 143.5 76 L 145.5 73 Z " /><path fill="rgb(140,140,141)" stroke="rgb(140,140,141)" stroke-width="0" opacity="1" d="M 240.5 73 L 239 75.5 L 238.5 77 L 238 75.5 L 240.5 73 Z " /><path fill="rgb(140,140,141)" stroke="rgb(140,140,141)" stroke-width="0" opacity="1" d="M 210.5 74 L 210 75.5 Q 209.1 78.5 213.5 77 L 213.5 78 Q 209.8 78.8 209 76.5 L 210.5 74 Z " /><path fill="rgb(140,140,141)" stroke="rgb(140,140,141)" stroke-width="0" opacity="1" d="M 245.5 74 L 244.5 76 L 245.5 74 Z " /><path fill="rgb(140,140,141)" stroke="rgb(140,140,141)" stroke-width="0" opacity="1" d="M 217.5 75 L 216.5 77 L 217.5 75 Z " /><path fill="rgb(140,140,141)" stroke="rgb(140,140,141)" stroke-width="0" opacity="1" d="M 128.5 76 L 127.5 78 L 128.5 76 Z " /><path fill="rgb(140,140,141)" stroke="rgb(140,140,141)" stroke-width="0" opacity="1" d="M 185.5 76 L 186 78 L 183 77.5 L 185.5 76 Z " /><path fill="rgb(140,140,141)" stroke="rgb(140,140,141)" stroke-width="0" opacity="1" d="M 187.5 76 L 190 77.5 L 187 78 L 187.5 76 Z " /><path fill="rgb(140,140,141)" stroke="rgb(140,140,141)" stroke-width="0" opacity="1" d="M 137.5 77 L 140 77.5 L 137.5 78 L 137.5 77 Z " /><path fill="rgb(140,140,141)" stroke="rgb(140,140,141)" stroke-width="0" opacity="1" d="M 126.5 81 L 251 81.5 L 126.5 82 L 126.5 81 Z " /><path fill="rgb(140,140,141)" stroke="rgb(140,140,141)" stroke-width="0" opacity="1" d="M 145.5 89 L 153 89.5 L 145.5 90 L 145.5 89 Z " /><path fill="rgb(140,140,141)" stroke="rgb(140,140,141)" stroke-width="0" opacity="1" d="M 165.5 89 L 169 89.5 L 165.5 90 L 165.5 89 Z " /><path fill="rgb(140,140,141)" stroke="rgb(140,140,141)" stroke-width="0" opacity="1" d="M 172.5 89 L 179 89.5 L 172.5 90 L 172.5 89 Z " /><path fill="rgb(140,140,141)" stroke="rgb(140,140,141)" stroke-width="0" opacity="1" d="M 181.5 89 L 187 89.5 L 181.5 90 L 181.5 89 Z " /><path fill="rgb(140,140,141)" stroke="rgb(140,140,141)" stroke-width="0" opacity="1" d="M 191.5 89 L 198 89.5 L 191.5 90 L 191.5 89 Z " /><path fill="rgb(140,140,141)" stroke="rgb(140,140,141)" stroke-width="0" opacity="1" d="M 213.5 89 Q 219.5 87.5 221 90.5 L 221 112 L 212.5 112 L 212.5 111 L 220 111 L 220 90 L 213.5 90 L 213.5 89 Z " /><path fill="rgb(140,140,141)" stroke="rgb(140,140,141)" stroke-width="0" opacity="1" d="M 222.5 89 Q 227.8 87.8 229 90.5 L 228.5 96 L 228 90 L 222.5 90 L 222.5 89 Z " /><path fill="rgb(140,140,141)" stroke="rgb(140,140,141)" stroke-width="0" opacity="1" d="M 232.5 89 Q 239.3 87.3 241 90.5 L 239.5 90 L 232.5 90 L 232.5 89 Z " /><path fill="rgb(140,140,141)" stroke="rgb(140,140,141)" stroke-width="0" opacity="1" d="M 246.5 89 L 250 89.5 L 246.5 90 L 246.5 89 Z " /><path fill="rgb(140,140,141)" stroke="rgb(140,140,141)" stroke-width="0" opacity="1" d="M 132.5 91 L 131.5 93 L 132.5 91 Z " /><path fill="rgb(140,140,141)" stroke="rgb(140,140,141)" stroke-width="0" opacity="1" d="M 136.5 91 L 138.5 94 L 136.5 91 Z " /><path fill="rgb(140,140,141)" stroke="rgb(140,140,141)" stroke-width="0" opacity="1" d="M 212.5 91 L 214 92.5 L 214 109.5 L 213 109.5 L 213 92.5 L 212.5 91 Z " /><path fill="rgb(140,140,141)" stroke="rgb(140,140,141)" stroke-width="0" opacity="1" d="M 232.5 91 L 233.5 93 L 232.5 91 Z " /><path fill="rgb(140,140,141)" stroke="rgb(140,140,141)" stroke-width="0" opacity="1" d="M 245.5 91 L 246.5 93 L 245.5 91 Z " /><path fill="rgb(140,140,141)" stroke="rgb(140,140,141)" stroke-width="0" opacity="1" d="M 172.5 92 L 173 109.5 L 172 109.5 L 172.5 92 Z " /><path fill="rgb(140,140,141)" stroke="rgb(140,140,141)" stroke-width="0" opacity="1" d="M 191.5 93 L 192 107.5 L 191 107.5 L 191.5 93 Z " /><path fill="rgb(140,140,141)" stroke="rgb(140,140,141)" stroke-width="0" opacity="1" d="M 248.5 93 L 249 100.5 L 248 100.5 L 248.5 93 Z " /><path fill="rgb(140,140,141)" stroke="rgb(140,140,141)" stroke-width="0" opacity="1" d="M 131.5 94 L 132.5 96 L 131.5 94 Z " /><path fill="rgb(140,140,141)" stroke="rgb(140,140,141)" stroke-width="0" opacity="1" d="M 225.5 96 L 226 104.5 L 225 104.5 L 225.5 96 Z " /><path fill="rgb(140,140,141)" stroke="rgb(140,140,141)" stroke-width="0" opacity="1" d="M 233.5 96 L 234 107.5 L 233 107.5 L 233.5 96 Z " /><path fill="rgb(140,140,141)" stroke="rgb(140,140,141)" stroke-width="0" opacity="1" d="M 164.5 97 L 166 100.5 L 163 100.5 L 164.5 97 Z " /><path fill="rgb(140,140,141)" stroke="rgb(140,140,141)" stroke-width="0" opacity="1" d="M 209.5 97 L 210 99.5 L 209 99.5 L 209.5 97 Z " /><path fill="rgb(140,140,141)" stroke="rgb(140,140,141)" stroke-width="0" opacity="1" d="M 182.5 98 L 181.5 100 L 182.5 98 Z " /><path fill="rgb(140,140,141)" stroke="rgb(140,140,141)" stroke-width="0" opacity="1" d="M 223.5 98 L 222.5 100 L 223.5 98 Z " /><path fill="rgb(140,140,141)" stroke="rgb(140,140,141)" stroke-width="0" opacity="1" d="M 140.5 100 L 142 102.5 L 141 102.5 L 140.5 100 Z " /><path fill="rgb(140,140,141)" stroke="rgb(140,140,141)" stroke-width="0" opacity="1" d="M 76.5 101 L 75.5 103 L 76.5 101 Z " /><path fill="rgb(140,140,141)" stroke="rgb(140,140,141)" stroke-width="0" opacity="1" d="M 110.5 101 L 111.5 103 L 110.5 101 Z " /><path fill="rgb(140,140,141)" stroke="rgb(140,140,141)" stroke-width="0" opacity="1" d="M 181.5 101 L 182.5 103 L 181.5 101 Z " /><path fill="rgb(140,140,141)" stroke="rgb(140,140,141)" stroke-width="0" opacity="1" d="M 222.5 101 L 223.5 103 L 222.5 101 Z " /><path fill="rgb(140,140,141)" stroke="rgb(140,140,141)" stroke-width="0" opacity="1" d="M 209.5 102 L 210 104.5 L 209 104.5 L 209.5 102 Z " /><path fill="rgb(140,140,141)" stroke="rgb(140,140,141)" stroke-width="0" opacity="1" d="M 155.5 103 L 156 105.5 L 155 105.5 L 155.5 103 Z " /><path fill="rgb(140,140,141)" stroke="rgb(140,140,141)" stroke-width="0" opacity="1" d="M 248.5 104 L 249 112 L 244 111.5 L 248 111 L 248.5 104 Z " /><path fill="rgb(140,140,141)" stroke="rgb(140,140,141)" stroke-width="0" opacity="1" d="M 135.5 105 L 136.5 107 L 135.5 105 Z " /><path fill="rgb(140,140,141)" stroke="rgb(140,140,141)" stroke-width="0" opacity="1" d="M 228.5 105 L 229 112 L 222 111.5 L 228 111 L 228.5 105 Z " /><path fill="rgb(140,140,141)" stroke="rgb(140,140,141)" stroke-width="0" opacity="1" d="M 10.5 106 L 11 108.5 L 10 108.5 L 10.5 106 Z " /><path fill="rgb(140,140,141)" stroke="rgb(140,140,141)" stroke-width="0" opacity="1" d="M 39.5 106 L 40 108.5 L 39 108.5 L 39.5 106 Z " /><path fill="rgb(140,140,141)" stroke="rgb(140,140,141)" stroke-width="0" opacity="1" d="M 69.5 106 L 70 108.5 L 69 108.5 L 69.5 106 Z " /><path fill="rgb(140,140,141)" stroke="rgb(140,140,141)" stroke-width="0" opacity="1" d="M 117.5 106 L 118 108.5 L 117 108.5 L 117.5 106 Z " /><path fill="rgb(140,140,141)" stroke="rgb(140,140,141)" stroke-width="0" opacity="1" d="M 185.5 107 L 183.5 110 L 185.5 107 Z " /><path fill="rgb(140,140,141)" stroke="rgb(140,140,141)" stroke-width="0" opacity="1" d="M 129.5 108 L 130.5 110 L 129.5 108 Z " /><path fill="rgb(140,140,141)" stroke="rgb(140,140,141)" stroke-width="0" opacity="1" d="M 201.5 109 L 201.5 111 L 203 111.5 L 200 112 L 201.5 109 Z " /><path fill="rgb(140,140,141)" stroke="rgb(140,140,141)" stroke-width="0" opacity="1" d="M 232.5 109 L 232.5 111 L 237 111.5 L 231 112 L 232.5 109 Z " /><path fill="rgb(140,140,141)" stroke="rgb(140,140,141)" stroke-width="0" opacity="1" d="M 49.5 110 L 54 111.5 L 50.5 112 L 49.5 110 Z " /><path fill="rgb(140,140,141)" stroke="rgb(140,140,141)" stroke-width="0" opacity="1" d="M 14.5 111 L 36 111.5 L 14.5 112 L 14.5 111 Z " /><path fill="rgb(140,140,141)" stroke="rgb(140,140,141)" stroke-width="0" opacity="1" d="M 72.5 111 L 114 111.5 L 72.5 112 L 72.5 111 Z " /><path fill="rgb(140,140,141)" stroke="rgb(140,140,141)" stroke-width="0" opacity="1" d="M 150.5 111 L 154 111.5 L 150.5 112 L 150.5 111 Z " /><path fill="rgb(140,140,141)" stroke="rgb(140,140,141)" stroke-width="0" opacity="1" d="M 159.5 111 L 163 111.5 L 159.5 112 L 159.5 111 Z " /><path fill="rgb(140,140,141)" stroke="rgb(140,140,141)" stroke-width="0" opacity="1" d="M 171.5 111 L 180 111.5 L 171.5 112 L 171.5 111 Z " /><path fill="rgb(140,140,141)" stroke="rgb(140,140,141)" stroke-width="0" opacity="1" d="M 181.5 111 L 188 111.5 L 181.5 112 L 181.5 111 Z " /><path fill="rgb(140,140,141)" stroke="rgb(140,140,141)" stroke-width="0" opacity="1" d="M 190.5 111 L 199 111.5 L 190.5 112 L 190.5 111 Z " /><path fill="rgb(140,140,141)" stroke="rgb(140,140,141)" stroke-width="0" opacity="1" d="M 2.5 119 L 258 119.5 L 2.5 120 L 2.5 119 Z " /><path fill="rgb(219,219,219)" stroke="rgb(219,219,219)" stroke-width="0" opacity="1" d="M 4.5 3 L 256 3.5 L 4.5 4 L 4.5 3 Z " /><path fill="rgb(219,219,219)" stroke="rgb(219,219,219)" stroke-width="0" opacity="1" d="M 257.5 3 L 258 118.5 L 257 118.5 L 257.5 3 Z " /><path fill="rgb(219,219,219)" stroke="rgb(219,219,219)" stroke-width="0" opacity="1" d="M 2.5 5 L 3 117.5 L 2 117.5 L 2.5 5 Z " /><path fill="rgb(219,219,219)" stroke="rgb(219,219,219)" stroke-width="0" opacity="1" d="M 76.5 10 L 77 100.5 L 76 100.5 L 76.5 10 Z " /><path fill="rgb(219,219,219)" stroke="rgb(219,219,219)" stroke-width="0" opacity="1" d="M 145.5 10 L 146 36.5 L 145 36.5 L 145 20.5 L 143 17.5 L 145 17 L 145.5 10 Z " /><path fill="rgb(219,219,219)" stroke="rgb(219,219,219)" stroke-width="0" opacity="1" d="M 203.5 10 L 206 14.5 L 203 12.5 L 203.5 10 Z " /><path fill="rgb(219,219,219)" stroke="rgb(219,219,219)" stroke-width="0" opacity="1" d="M 235.5 10 L 236.5 12 L 235.5 10 Z " /><path fill="rgb(219,219,219)" stroke="rgb(219,219,219)" stroke-width="0" opacity="1" d="M 249.5 10 L 250.5 12 L 249.5 10 Z " /><path fill="rgb(219,219,219)" stroke="rgb(219,219,219)" stroke-width="0" opacity="1" d="M 116.5 11 L 117.5 13 L 116.5 11 Z " /><path fill="rgb(219,219,219)" stroke="rgb(219,219,219)" stroke-width="0" opacity="1" d="M 9.5 13 L 10 15.5 L 9 15.5 L 9.5 13 Z " /><path fill="rgb(219,219,219)" stroke="rgb(219,219,219)" stroke-width="0" opacity="1" d="M 214.5 13 L 215.5 15 L 214.5 13 Z " /><path fill="rgb(219,219,219)" stroke="rgb(219,219,219)" stroke-width="0" opacity="1" d="M 223.5 15 L 224 35.5 L 223 35.5 L 223.5 15 Z " /><path fill="rgb(219,219,219)" stroke="rgb(219,219,219)" stroke-width="0" opacity="1" d="M 117.5 16 L 116.5 18 L 117.5 16 Z " /><path fill="rgb(219,219,219)" stroke="rgb(219,219,219)" stroke-width="0" opacity="1" d="M 170.5 17 L 171 19 L 169 18.5 L 170.5 17 Z " /><path fill="rgb(219,219,219)" stroke="rgb(219,219,219)" stroke-width="0" opacity="1" d="M 141.5 20 Q 143.8 19.3 143 21.5 L 141.5 20 Z " /><path fill="rgb(219,219,219)" stroke="rgb(219,219,219)" stroke-width="0" opacity="1" d="M 110.5 21 L 111 100.5 L 110 100.5 L 110.5 21 Z " /><path fill="rgb(219,219,219)" stroke="rgb(219,219,219)" stroke-width="0" opacity="1" d="M 131.5 22 L 130.5 24 L 131.5 22 Z " /><path fill="rgb(219,219,219)" stroke="rgb(219,219,219)" stroke-width="0" opacity="1" d="M 205.5 23 L 204 25.5 L 203.5 27 L 203 25.5 L 205.5 23 Z " /><path fill="rgb(219,219,219)" stroke="rgb(219,219,219)" stroke-width="0" opacity="1" d="M 132.5 25 L 131.5 27 L 132.5 25 Z " /><path fill="rgb(219,219,219)" stroke="rgb(219,219,219)" stroke-width="0" opacity="1" d="M 70.5 29 L 72 31.5 L 71 31.5 L 70.5 29 Z " /><path fill="rgb(219,219,219)" stroke="rgb(219,219,219)" stroke-width="0" opacity="1" d="M 167.5 29 L 168.5 31 L 167.5 29 Z " /><path fill="rgb(219,219,219)" stroke="rgb(219,219,219)" stroke-width="0" opacity="1" d="M 174.5 35 L 175 37.5 L 173 38.5 L 174.5 35 Z " /><path fill="rgb(219,219,219)" stroke="rgb(219,219,219)" stroke-width="0" opacity="1" d="M 127.5 37 L 126.5 39 L 127.5 37 Z " /><path fill="rgb(219,219,219)" stroke="rgb(219,219,219)" stroke-width="0" opacity="1" d="M 218.5 38 L 216.5 41 L 218.5 38 Z " /><path fill="rgb(219,219,219)" stroke="rgb(219,219,219)" stroke-width="0" opacity="1" d="M 207.5 39 L 208.5 41 L 207.5 39 Z " /><path fill="rgb(219,219,219)" stroke="rgb(219,219,219)" stroke-width="0" opacity="1" d="M 236.5 39 L 237.5 41 L 235 40.5 L 236.5 39 Z " /><path fill="rgb(219,219,219)" stroke="rgb(219,219,219)" stroke-width="0" opacity="1" d="M 210.5 41 L 215 41.5 L 210.5 42 L 210.5 41 Z " /><path fill="rgb(219,219,219)" stroke="rgb(219,219,219)" stroke-width="0" opacity="1" d="M 136 47 Q 139 46 138 49 Q 135 50 136 47 Z " /><path fill="rgb(219,219,219)" stroke="rgb(219,219,219)" stroke-width="0" opacity="1" d="M 144.5 47 L 143.5 49 L 144.5 47 Z " /><path fill="rgb(219,219,219)" stroke="rgb(219,219,219)" stroke-width="0" opacity="1" d="M 151.5 47 L 164 47.5 L 151 48 L 150.5 50 L 150 48.5 L 151.5 47 Z " /><path fill="rgb(219,219,219)" stroke="rgb(219,219,219)" stroke-width="0" opacity="1" d="M 210.5 47 L 222 47.5 L 210.5 48 L 210.5 47 Z " /><path fill="rgb(219,219,219)" stroke="rgb(219,219,219)" stroke-width="0" opacity="1" d="M 226.5 47 L 237 47.5 L 226.5 48 L 226.5 47 Z " /><path fill="rgb(219,219,219)" stroke="rgb(219,219,219)" stroke-width="0" opacity="1" d="M 185.5 49 L 184.5 51 L 185.5 49 Z " /><path fill="rgb(219,219,219)" stroke="rgb(219,219,219)" stroke-width="0" opacity="1" d="M 196.5 49 L 195.5 51 L 196.5 49 Z " /><path fill="rgb(219,219,219)" stroke="rgb(219,219,219)" stroke-width="0" opacity="1" d="M 245.5 49 L 248.5 53 L 245.5 49 Z " /><path fill="rgb(219,219,219)" stroke="rgb(219,219,219)" stroke-width="0" opacity="1" d="M 152.5 52 L 153 72.5 L 152 72.5 L 152.5 52 Z " /><path fill="rgb(219,219,219)" stroke="rgb(219,219,219)" stroke-width="0" opacity="1" d="M 162.5 52 L 163 76.5 L 161.5 78 L 152.5 78 L 152.5 77 L 162 77 L 162.5 52 Z " /><path fill="rgb(219,219,219)" stroke="rgb(219,219,219)" stroke-width="0" opacity="1" d="M 143.5 56 L 144.5 58 L 143.5 56 Z " /><path fill="rgb(219,219,219)" stroke="rgb(219,219,219)" stroke-width="0" opacity="1" d="M 143.5 59 L 146.5 63 L 143.5 59 Z " /><path fill="rgb(219,219,219)" stroke="rgb(219,219,219)" stroke-width="0" opacity="1" d="M 127.5 62 L 129.5 65 L 127.5 62 Z " /><path fill="rgb(219,219,219)" stroke="rgb(219,219,219)" stroke-width="0" opacity="1" d="M 251.5 62 L 252 64.5 L 251 64.5 L 251.5 62 Z " /><path fill="rgb(219,219,219)" stroke="rgb(219,219,219)" stroke-width="0" opacity="1" d="M 171.5 66 L 174 66.5 Q 171.9 69.8 171.5 66 Z " /><path fill="rgb(219,219,219)" stroke="rgb(219,219,219)" stroke-width="0" opacity="1" d="M 207.5 66 L 208.5 68 L 207.5 66 Z " /><path fill="rgb(219,219,219)" stroke="rgb(219,219,219)" stroke-width="0" opacity="1" d="M 125.5 68 L 126 75.5 L 125 75.5 L 125.5 68 Z " /><path fill="rgb(219,219,219)" stroke="rgb(219,219,219)" stroke-width="0" opacity="1" d="M 139.5 73 L 138.5 75 L 139.5 73 Z " /><path fill="rgb(219,219,219)" stroke="rgb(219,219,219)" stroke-width="0" opacity="1" d="M 176.5 73 L 178.5 76 L 176.5 73 Z " /><path fill="rgb(219,219,219)" stroke="rgb(219,219,219)" stroke-width="0" opacity="1" d="M 196.5 73 L 195.5 75 L 196.5 73 Z " /><path fill="rgb(219,219,219)" stroke="rgb(219,219,219)" stroke-width="0" opacity="1" d="M 200.5 73 L 201.5 75 L 200.5 73 Z " /><path fill="rgb(219,219,219)" stroke="rgb(219,219,219)" stroke-width="0" opacity="1" d="M 247.5 73 L 246.5 75 L 247.5 73 Z " /><path fill="rgb(219,219,219)" stroke="rgb(219,219,219)" stroke-width="0" opacity="1" d="M 151.5 74 L 151 75.5 L 150.5 77 L 150 75.5 L 151.5 74 Z " /><path fill="rgb(219,219,219)" stroke="rgb(219,219,219)" stroke-width="0" opacity="1" d="M 184.5 74 L 185.5 76 L 184.5 74 Z " /><path fill="rgb(219,219,219)" stroke="rgb(219,219,219)" stroke-width="0" opacity="1" d="M 188.5 74 L 187.5 76 L 188.5 74 Z " /><path fill="rgb(219,219,219)" stroke="rgb(219,219,219)" stroke-width="0" opacity="1" d="M 219.5 74 L 218.5 76 L 219.5 74 Z " /><path fill="rgb(219,219,219)" stroke="rgb(219,219,219)" stroke-width="0" opacity="1" d="M 136.5 75 L 137 77.5 L 136 77.5 L 136.5 75 Z " /><path fill="rgb(219,219,219)" stroke="rgb(219,219,219)" stroke-width="0" opacity="1" d="M 164.5 77 L 172 77.5 L 164.5 78 L 164.5 77 Z " /><path fill="rgb(219,219,219)" stroke="rgb(219,219,219)" stroke-width="0" opacity="1" d="M 226.5 77 L 236 77.5 L 226.5 78 L 226.5 77 Z " /><path fill="rgb(219,219,219)" stroke="rgb(219,219,219)" stroke-width="0" opacity="1" d="M 251.5 81 L 252 82.5 L 250.5 84 L 126.5 84 L 125.5 82 L 126.5 83 L 251 83 L 251.5 81 Z " /><path fill="rgb(219,219,219)" stroke="rgb(219,219,219)" stroke-width="0" opacity="1" d="M 133 89 Q 135.7 87.9 135 90.5 L 135.5 92 L 133 91 L 133 89 Z " /><path fill="rgb(219,219,219)" stroke="rgb(219,219,219)" stroke-width="0" opacity="1" d="M 141.5 89 L 142 96.5 L 141 96.5 L 141.5 89 Z " /><path fill="rgb(219,219,219)" stroke="rgb(219,219,219)" stroke-width="0" opacity="1" d="M 144.5 89 L 144 90.5 L 143.5 92 L 143 90.5 L 144.5 89 Z " /><path fill="rgb(219,219,219)" stroke="rgb(219,219,219)" stroke-width="0" opacity="1" d="M 153.5 89 Q 156.5 90.5 153.5 92 L 153.5 89 Z " /><path fill="rgb(219,219,219)" stroke="rgb(219,219,219)" stroke-width="0" opacity="1" d="M 164.5 89 L 163.5 91 L 164.5 89 Z " /><path fill="rgb(219,219,219)" stroke="rgb(219,219,219)" stroke-width="0" opacity="1" d="M 200.5 89 L 203 89.5 L 200.5 90 L 200.5 89 Z " /><path fill="rgb(219,219,219)" stroke="rgb(219,219,219)" stroke-width="0" opacity="1" d="M 212.5 89 L 211.5 91 L 212.5 89 Z " /><path fill="rgb(219,219,219)" stroke="rgb(219,219,219)" stroke-width="0" opacity="1" d="M 245.5 89 L 244.5 91 L 245.5 89 Z " /><path fill="rgb(219,219,219)" stroke="rgb(219,219,219)" stroke-width="0" opacity="1" d="M 250.5 89 Q 254 91 249.5 93 L 250.5 89 Z " /><path fill="rgb(219,219,219)" stroke="rgb(219,219,219)" stroke-width="0" opacity="1" d="M 128.5 90 L 127.5 92 L 128.5 90 Z " /><path fill="rgb(219,219,219)" stroke="rgb(219,219,219)" stroke-width="0" opacity="1" d="M 190.5 91 L 191.5 93 L 190.5 91 Z " /><path fill="rgb(219,219,219)" stroke="rgb(219,219,219)" stroke-width="0" opacity="1" d="M 200.5 91 L 201.5 93 L 200.5 91 Z " /><path fill="rgb(219,219,219)" stroke="rgb(219,219,219)" stroke-width="0" opacity="1" d="M 206.5 91 L 207.5 93 L 206.5 91 Z " /><path fill="rgb(219,219,219)" stroke="rgb(219,219,219)" stroke-width="0" opacity="1" d="M 183.5 92 L 184.5 94 L 183.5 92 Z " /><path fill="rgb(219,219,219)" stroke="rgb(219,219,219)" stroke-width="0" opacity="1" d="M 224.5 92 L 225.5 94 L 224.5 92 Z " /><path fill="rgb(219,219,219)" stroke="rgb(219,219,219)" stroke-width="0" opacity="1" d="M 226.5 95 L 227.5 97 L 226.5 95 Z " /><path fill="rgb(219,219,219)" stroke="rgb(219,219,219)" stroke-width="0" opacity="1" d="M 233.5 95 L 236 96.5 L 234.5 97 L 233.5 95 Z " /><path fill="rgb(219,219,219)" stroke="rgb(219,219,219)" stroke-width="0" opacity="1" d="M 235 98 L 237 98.5 L 236 99.5 L 235.5 108 L 235 98 Z " /><path fill="rgb(219,219,219)" stroke="rgb(219,219,219)" stroke-width="0" opacity="1" d="M 163.5 99 Q 168 101 164.5 103 L 163.5 99 Z " /><path fill="rgb(219,219,219)" stroke="rgb(219,219,219)" stroke-width="0" opacity="1" d="M 17.5 100 L 15.5 103 L 17.5 100 Z " /><path fill="rgb(219,219,219)" stroke="rgb(219,219,219)" stroke-width="0" opacity="1" d="M 32.5 100 L 34.5 103 L 32.5 100 Z " /><path fill="rgb(219,219,219)" stroke="rgb(219,219,219)" stroke-width="0" opacity="1" d="M 246.5 100 L 249 101.5 L 247.5 101 L 246.5 100 Z " /><path fill="rgb(219,219,219)" stroke="rgb(219,219,219)" stroke-width="0" opacity="1" d="M 127.5 101 Q 130.5 102.5 127.5 104 L 126 103.5 L 128 102.5 L 127.5 101 Z " /><path fill="rgb(219,219,219)" stroke="rgb(219,219,219)" stroke-width="0" opacity="1" d="M 155.5 101 L 156.5 103 Q 153.7 103.7 155.5 101 Z " /><path fill="rgb(219,219,219)" stroke="rgb(219,219,219)" stroke-width="0" opacity="1" d="M 11.5 104 L 10.5 106 L 11.5 104 Z " /><path fill="rgb(219,219,219)" stroke="rgb(219,219,219)" stroke-width="0" opacity="1" d="M 70.5 104 L 69.5 106 L 70.5 104 Z " /><path fill="rgb(219,219,219)" stroke="rgb(219,219,219)" stroke-width="0" opacity="1" d="M 116.5 104 L 117.5 106 L 116.5 104 Z " /><path fill="rgb(219,219,219)" stroke="rgb(219,219,219)" stroke-width="0" opacity="1" d="M 125.5 105 L 126 110.5 L 125 110.5 L 125.5 105 Z " /><path fill="rgb(219,219,219)" stroke="rgb(219,219,219)" stroke-width="0" opacity="1" d="M 208.5 107 L 205.5 111 L 208.5 107 Z " /><path fill="rgb(219,219,219)" stroke="rgb(219,219,219)" stroke-width="0" opacity="1" d="M 69.5 109 L 70.5 111 L 69.5 109 Z " /><path fill="rgb(219,219,219)" stroke="rgb(219,219,219)" stroke-width="0" opacity="1" d="M 117.5 109 L 116.5 111 L 117.5 109 Z " /><path fill="rgb(219,219,219)" stroke="rgb(219,219,219)" stroke-width="0" opacity="1" d="M 140.5 109 L 139.5 111 L 140.5 109 Z " /><path fill="rgb(219,219,219)" stroke="rgb(219,219,219)" stroke-width="0" opacity="1" d="M 236.5 109 L 238 111.5 L 237 111.5 L 236.5 109 Z " /><path fill="rgb(254,254,254)" stroke="rgb(254,254,254)" stroke-width="0" opacity="1" d="M 0.5 0 L 260 0.5 L 0.5 1 L 0.5 0 Z " /><path fill="rgb(254,254,254)" stroke="rgb(254,254,254)" stroke-width="0" opacity="1" d="M 3.5 3 L 4.5 4 L 255.5 4 L 257 3.5 L 257 119 L 2.5 119 L 3 117.5 L 3 5.5 L 2 4.5 L 3.5 3 Z M 13 10 L 10 11 L 9 16 Q 11 19 17 19 L 21 27 L 49 110 L 49 112 L 54 112 L 71 57 L 71 33 L 72 32 L 71 29 L 65 50 L 51 12 L 50 10 L 13 10 Z M 76 10 L 76 102 L 71 104 Q 68 105 69 110 L 73 112 L 115 112 L 117 111 Q 119 110 118 106 L 113 103 L 111 102 L 111 21 L 117 18 Q 119 17 118 13 L 115 10 L 76 10 Z M 127 10 L 125 12 L 128 13 L 137 39 Q 136 42 139 41 L 144 27 L 144 21 L 145 21 L 145 38 L 143 38 L 143 40 L 145 41 L 158 41 Q 159 37 156 38 L 156 14 L 158 13 Q 161 12 158 10 L 145 10 L 145 17 Q 142 16 143 20 L 141 20 L 139 12 L 138 10 L 127 10 Z M 171 10 L 169 12 L 170 15 L 170 18 L 169 16 L 162 37 L 159 38 L 159 41 L 168 41 L 169 40 L 166 37 L 171 19 L 173 29 L 173 30 L 168 30 L 168 33 L 174 33 L 173 41 L 187 41 L 188 40 L 185 36 L 180 15 L 180 10 L 171 10 Z M 191 10 Q 187 12 192 15 L 192 37 L 189 40 L 191 41 L 204 41 Q 205 38 202 37 L 202 10 L 191 10 Z M 203 10 Q 202 14 206 16 Q 208 24 203 26 L 206 31 L 207 40 L 211 42 L 217 41 L 219 38 Q 221 36 219 35 L 217 36 L 215 27 L 211 26 L 213 25 Q 218 23 216 15 Q 213 8 203 10 Z M 223 10 Q 219 12 224 15 L 223 16 L 223 36 Q 225 37 223 38 Q 220 37 221 40 L 223 41 L 236 41 L 238 41 L 251 41 L 252 40 Q 253 37 250 38 L 243 21 L 244 18 L 249 14 Q 253 12 250 10 L 240 10 L 239 13 L 242 15 L 235 26 L 238 36 L 237 39 L 234 38 L 234 15 L 237 12 L 236 10 L 223 10 Z M 130 21 L 129 35 L 126 39 L 127 41 L 135 41 Q 136 37 133 38 Q 131 35 132 27 L 130 21 Z M 179 42 L 175 47 L 177 51 L 173 58 Q 172 68 176 74 Q 179 79 186 78 Q 187 75 184 74 L 184 52 L 186 50 L 184 45 Q 183 41 179 42 Z M 192 42 L 187 48 L 189 52 L 189 74 Q 186 75 187 78 Q 193 79 196 75 L 200 67 Q 201 56 196 52 L 197 45 Q 196 41 192 42 Z M 22 45 L 21 92 L 18 100 L 12 104 Q 9 105 10 110 L 14 112 L 37 112 L 39 111 Q 41 110 40 105 L 36 103 L 32 100 L 29 91 L 29 65 L 22 45 Z M 133 47 L 131 48 L 126 54 L 127 63 L 140 71 Q 141 75 138 75 Q 134 74 136 78 L 143 77 L 148 71 L 147 63 Q 142 57 134 55 Q 133 50 137 49 L 141 51 L 143 57 L 146 58 L 147 57 L 147 47 L 144 48 L 133 47 Z M 152 47 L 150 49 Q 149 51 152 50 Q 154 51 152 53 L 152 73 L 153 74 L 152 74 L 150 77 Q 153 79 162 78 L 163 77 L 163 52 L 165 49 L 164 47 L 152 47 Z M 211 47 L 209 48 L 211 52 L 211 73 L 209 78 Q 215 79 219 76 L 221 73 L 221 52 L 223 49 L 222 47 L 211 47 Z M 227 47 L 224 48 Q 223 51 226 50 L 227 52 L 227 74 L 225 75 L 227 78 L 236 78 L 237 77 L 237 47 L 227 47 Z M 240 47 L 238 49 L 241 54 L 241 72 L 240 73 Q 241 75 238 74 L 238 77 Q 244 78 247 75 Q 251 71 252 65 L 251 57 L 249 53 Q 246 48 240 47 Z M 205 65 L 203 66 Q 199 67 200 74 Q 202 78 208 78 L 207 75 L 210 71 L 209 68 L 205 65 Z M 126 66 L 125 69 Q 124 75 126 78 L 129 77 L 133 78 Q 136 79 135 76 L 133 74 L 129 69 Q 130 64 126 66 Z M 172 66 Q 168 68 168 73 L 166 74 L 164 74 L 164 78 L 172 78 L 173 77 L 173 68 L 172 66 Z M 127 81 Q 124 83 127 84 L 251 84 L 252 83 L 252 81 L 127 81 Z M 131 89 L 129 90 L 125 97 L 127 102 L 136 106 L 134 113 L 140 111 L 143 106 L 141 99 L 132 95 L 134 91 L 137 92 L 139 97 L 142 97 L 142 89 L 139 90 Q 137 87 131 89 Z M 145 89 L 143 91 Q 142 93 145 92 L 150 111 Q 149 113 154 112 L 155 111 L 157 103 L 158 111 Q 159 113 163 112 L 168 95 Q 167 91 170 92 Q 172 87 165 89 Q 161 91 165 93 L 164 99 L 161 91 L 161 89 L 157 89 L 155 98 L 154 94 Q 151 92 155 91 L 154 89 L 145 89 Z M 171 89 L 172 93 L 172 110 L 171 111 L 172 112 L 180 112 L 180 89 L 171 89 Z M 181 89 L 181 92 L 186 96 Q 185 98 188 97 L 188 89 L 181 89 Z M 190 89 L 191 93 L 191 110 L 190 111 L 191 112 L 199 112 L 199 89 L 190 89 Z M 200 89 Q 199 92 202 94 L 202 109 L 200 112 L 206 111 L 210 106 Q 212 97 208 93 Q 205 88 200 89 Z M 213 89 L 211 91 L 213 93 L 213 110 L 211 111 L 213 112 L 221 112 L 221 89 L 213 89 Z M 222 89 Q 220 93 224 92 L 226 96 Q 228 99 229 96 L 229 89 L 222 89 Z M 231 89 Q 230 93 233 92 L 234 95 L 233 96 L 233 109 L 231 111 L 232 112 L 238 112 L 236 109 L 237 99 L 243 111 Q 244 113 249 112 L 249 104 L 247 102 L 249 102 L 249 94 L 252 91 Q 251 88 246 89 Q 242 91 247 94 L 247 100 L 241 91 L 241 89 L 231 89 Z M 183 96 L 181 100 L 183 104 Q 182 106 185 105 L 185 97 L 183 96 Z M 225 96 L 222 100 L 223 104 L 226 105 L 226 97 L 225 96 Z M 126 103 Q 124 105 125 111 L 127 112 L 133 113 Q 134 109 132 110 L 128 105 Q 129 102 126 103 Z M 187 105 L 185 108 L 181 111 L 182 112 L 188 112 L 188 106 L 187 105 Z M 228 105 L 226 108 L 222 109 L 222 112 L 229 112 L 229 106 L 228 105 Z " /><path fill="rgb(64,64,66)" stroke="rgb(64,64,66)" stroke-width="0" opacity="1" d="M 0.5 1 L 260 1 L 260 120.5 L 259 120.5 L 259 2.5 L 257.5 2 L 256.5 3 L 193.5 3 L 192.5 2 L 0.5 2 L 0.5 1 Z " /><path fill="rgb(64,64,66)" stroke="rgb(64,64,66)" stroke-width="0" opacity="1" d="M 1.5 3 L 2 118.5 L 1 118.5 L 1.5 3 Z " /><path fill="rgb(64,64,66)" stroke="rgb(64,64,66)" stroke-width="0" opacity="1" d="M 11.5 11 L 10.5 13 L 11.5 11 Z " /><path fill="rgb(64,64,66)" stroke="rgb(64,64,66)" stroke-width="0" opacity="1" d="M 115.5 11 L 116.5 13 L 114 12.5 L 115.5 11 Z " /><path fill="rgb(64,64,66)" stroke="rgb(64,64,66)" stroke-width="0" opacity="1" d="M 201.5 11 L 202 37.5 L 203 38.5 L 200 38.5 L 201 37.5 L 201.5 11 Z " /><path fill="rgb(64,64,66)" stroke="rgb(64,64,66)" stroke-width="0" opacity="1" d="M 77.5 12 L 78 98.5 L 77 98.5 L 77.5 12 Z " /><path fill="rgb(64,64,66)" stroke="rgb(64,64,66)" stroke-width="0" opacity="1" d="M 156.5 12 L 155.5 14 L 156.5 12 Z " /><path fill="rgb(64,64,66)" stroke="rgb(64,64,66)" stroke-width="0" opacity="1" d="M 191.5 12 L 193 13.5 L 193 37.5 L 191 38.5 L 192 37.5 L 192 13.5 L 191.5 12 Z " /><path fill="rgb(64,64,66)" stroke="rgb(64,64,66)" stroke-width="0" opacity="1" d="M 204.5 12 L 205.5 14 L 204.5 12 Z " /><path fill="rgb(64,64,66)" stroke="rgb(64,64,66)" stroke-width="0" opacity="1" d="M 234.5 12 L 233.5 14 L 234.5 12 Z " /><path fill="rgb(64,64,66)" stroke="rgb(64,64,66)" stroke-width="0" opacity="1" d="M 246.5 12 L 247.5 14 L 246.5 12 Z " /><path fill="rgb(64,64,66)" stroke="rgb(64,64,66)" stroke-width="0" opacity="1" d="M 171.5 13 L 171 14.5 L 170.5 16 L 170 14.5 L 171.5 13 Z " /><path fill="rgb(64,64,66)" stroke="rgb(64,64,66)" stroke-width="0" opacity="1" d="M 115.5 15 Q 118.5 16.5 115.5 18 L 115.5 15 Z " /><path fill="rgb(64,64,66)" stroke="rgb(64,64,66)" stroke-width="0" opacity="1" d="M 206.5 15 L 207 22.5 L 206 22.5 L 206.5 15 Z " /><path fill="rgb(64,64,66)" stroke="rgb(64,64,66)" stroke-width="0" opacity="1" d="M 215.5 17 L 216 19.5 L 215 19.5 L 215.5 17 Z " /><path fill="rgb(64,64,66)" stroke="rgb(64,64,66)" stroke-width="0" opacity="1" d="M 241.5 17 L 242.5 19 L 240 18.5 L 241.5 17 Z " /><path fill="rgb(64,64,66)" stroke="rgb(64,64,66)" stroke-width="0" opacity="1" d="M 238.5 21 L 239.5 23 L 238.5 21 Z " /><path fill="rgb(64,64,66)" stroke="rgb(64,64,66)" stroke-width="0" opacity="1" d="M 141.5 22 Q 144.8 20.9 144 23.5 L 142.5 23 L 141.5 22 Z " /><path fill="rgb(64,64,66)" stroke="rgb(64,64,66)" stroke-width="0" opacity="1" d="M 129.5 23 L 131 25.5 L 130 26.5 L 129.5 36 L 129.5 23 Z " /><path fill="rgb(64,64,66)" stroke="rgb(64,64,66)" stroke-width="0" opacity="1" d="M 166.5 24 L 168 27.5 L 167 27.5 L 166.5 24 Z " /><path fill="rgb(64,64,66)" stroke="rgb(64,64,66)" stroke-width="0" opacity="1" d="M 214.5 28 L 213.5 30 L 214.5 28 Z " /><path fill="rgb(64,64,66)" stroke="rgb(64,64,66)" stroke-width="0" opacity="1" d="M 206.5 29 L 207 35.5 L 206 35.5 L 206.5 29 Z " /><path fill="rgb(64,64,66)" stroke="rgb(64,64,66)" stroke-width="0" opacity="1" d="M 215.5 30 L 216 36.5 L 215 36.5 L 215.5 30 Z " /><path fill="rgb(64,64,66)" stroke="rgb(64,64,66)" stroke-width="0" opacity="1" d="M 70.5 32 L 71 53.5 L 70 53.5 L 70 36.5 L 69 35.5 L 70.5 32 Z " /><path fill="rgb(64,64,66)" stroke="rgb(64,64,66)" stroke-width="0" opacity="1" d="M 164.5 32 L 166 34.5 L 165 34.5 L 164.5 32 Z " /><path fill="rgb(64,64,66)" stroke="rgb(64,64,66)" stroke-width="0" opacity="1" d="M 128.5 37 L 126.5 40 L 128.5 37 Z " /><path fill="rgb(64,64,66)" stroke="rgb(64,64,66)" stroke-width="0" opacity="1" d="M 155.5 37 L 156.5 39 L 155.5 37 Z " /><path fill="rgb(64,64,66)" stroke="rgb(64,64,66)" stroke-width="0" opacity="1" d="M 165.5 37 L 166.5 39 L 164 38.5 L 165.5 37 Z " /><path fill="rgb(64,64,66)" stroke="rgb(64,64,66)" stroke-width="0" opacity="1" d="M 233.5 37 L 234.5 39 L 233.5 37 Z " /><path fill="rgb(64,64,66)" stroke="rgb(64,64,66)" stroke-width="0" opacity="1" d="M 133.5 38 L 134.5 40 L 133.5 38 Z " /><path fill="rgb(64,64,66)" stroke="rgb(64,64,66)" stroke-width="0" opacity="1" d="M 174.5 38 L 173.5 40 L 174.5 38 Z " /><path fill="rgb(64,64,66)" stroke="rgb(64,64,66)" stroke-width="0" opacity="1" d="M 238.5 38 L 237.5 40 L 238.5 38 Z " /><path fill="rgb(64,64,66)" stroke="rgb(64,64,66)" stroke-width="0" opacity="1" d="M 196.5 45 L 197 47.5 L 196 47.5 L 196.5 45 Z " /><path fill="rgb(64,64,66)" stroke="rgb(64,64,66)" stroke-width="0" opacity="1" d="M 21.5 47 L 23 49.5 L 22 50.5 L 21.5 92 L 21.5 47 Z " /><path fill="rgb(64,64,66)" stroke="rgb(64,64,66)" stroke-width="0" opacity="1" d="M 188.5 47 L 189.5 49 L 188.5 47 Z " /><path fill="rgb(64,64,66)" stroke="rgb(64,64,66)" stroke-width="0" opacity="1" d="M 131.5 48 L 132.5 50 L 131.5 48 Z " /><path fill="rgb(64,64,66)" stroke="rgb(64,64,66)" stroke-width="0" opacity="1" d="M 194.5 48 L 195.5 50 L 194.5 48 Z " /><path fill="rgb(64,64,66)" stroke="rgb(64,64,66)" stroke-width="0" opacity="1" d="M 225 48 L 235 48.5 L 226.5 49 L 225.5 50 L 225 48 Z " /><path fill="rgb(64,64,66)" stroke="rgb(64,64,66)" stroke-width="0" opacity="1" d="M 184.5 49 L 183.5 51 L 184.5 49 Z " /><path fill="rgb(64,64,66)" stroke="rgb(64,64,66)" stroke-width="0" opacity="1" d="M 153.5 51 L 154 73.5 L 153 73.5 L 153.5 51 Z " /><path fill="rgb(64,64,66)" stroke="rgb(64,64,66)" stroke-width="0" opacity="1" d="M 211.5 51 L 212 72.5 L 211 72.5 L 211.5 51 Z " /><path fill="rgb(64,64,66)" stroke="rgb(64,64,66)" stroke-width="0" opacity="1" d="M 227.5 51 L 228 73.5 L 227 73.5 L 227.5 51 Z " /><path fill="rgb(64,64,66)" stroke="rgb(64,64,66)" stroke-width="0" opacity="1" d="M 241.5 52 L 242 71.5 L 241 71.5 L 241.5 52 Z " /><path fill="rgb(64,64,66)" stroke="rgb(64,64,66)" stroke-width="0" opacity="1" d="M 126.5 55 L 127 58.5 L 126 58.5 L 126.5 55 Z " /><path fill="rgb(64,64,66)" stroke="rgb(64,64,66)" stroke-width="0" opacity="1" d="M 250.5 59 L 251 66.5 L 250 66.5 L 250.5 59 Z " /><path fill="rgb(64,64,66)" stroke="rgb(64,64,66)" stroke-width="0" opacity="1" d="M 130.5 62 Q 133.5 63.5 130.5 65 L 130.5 62 Z " /><path fill="rgb(64,64,66)" stroke="rgb(64,64,66)" stroke-width="0" opacity="1" d="M 28.5 66 L 29 90.5 L 28 90.5 L 28.5 66 Z " /><path fill="rgb(64,64,66)" stroke="rgb(64,64,66)" stroke-width="0" opacity="1" d="M 203.5 66 L 207 66.5 L 203.5 67 L 203.5 66 Z " /><path fill="rgb(64,64,66)" stroke="rgb(64,64,66)" stroke-width="0" opacity="1" d="M 126.5 67 L 127 76.5 L 126 76.5 L 126.5 67 Z " /><path fill="rgb(64,64,66)" stroke="rgb(64,64,66)" stroke-width="0" opacity="1" d="M 169.5 70 L 171 72.5 L 170 72.5 L 169.5 70 Z " /><path fill="rgb(64,64,66)" stroke="rgb(64,64,66)" stroke-width="0" opacity="1" d="M 38.5 72 L 37.5 74 L 38.5 72 Z " /><path fill="rgb(64,64,66)" stroke="rgb(64,64,66)" stroke-width="0" opacity="1" d="M 168.5 72 L 168.5 75 L 166 74.5 L 168.5 72 Z " /><path fill="rgb(64,64,66)" stroke="rgb(64,64,66)" stroke-width="0" opacity="1" d="M 176.5 72 L 180 73.5 L 178.5 75 L 176.5 72 Z " /><path fill="rgb(64,64,66)" stroke="rgb(64,64,66)" stroke-width="0" opacity="1" d="M 194.5 72 Q 197.5 73.5 194.5 75 Q 191.5 73.5 194.5 72 Z " /><path fill="rgb(64,64,66)" stroke="rgb(64,64,66)" stroke-width="0" opacity="1" d="M 245.5 72 L 248 72.5 Q 245.9 75.8 245.5 72 Z " /><path fill="rgb(64,64,66)" stroke="rgb(64,64,66)" stroke-width="0" opacity="1" d="M 183.5 74 L 184.5 76 L 183.5 74 Z " /><path fill="rgb(64,64,66)" stroke="rgb(64,64,66)" stroke-width="0" opacity="1" d="M 189.5 74 L 188.5 76 L 189.5 74 Z " /><path fill="rgb(64,64,66)" stroke="rgb(64,64,66)" stroke-width="0" opacity="1" d="M 242.5 74 L 243.5 76 L 242.5 74 Z " /><path fill="rgb(64,64,66)" stroke="rgb(64,64,66)" stroke-width="0" opacity="1" d="M 164.5 75 L 171 76.5 L 165.5 77 L 164.5 75 Z " /><path fill="rgb(64,64,66)" stroke="rgb(64,64,66)" stroke-width="0" opacity="1" d="M 225.5 75 L 226.5 76 L 236 76.5 L 225 77 L 225.5 75 Z " /><path fill="rgb(64,64,66)" stroke="rgb(64,64,66)" stroke-width="0" opacity="1" d="M 151.5 76 L 162 76.5 L 151.5 77 L 151.5 76 Z " /><path fill="rgb(64,64,66)" stroke="rgb(64,64,66)" stroke-width="0" opacity="1" d="M 171.5 90 L 172.5 92 L 171.5 90 Z " /><path fill="rgb(64,64,66)" stroke="rgb(64,64,66)" stroke-width="0" opacity="1" d="M 179.5 90 L 180 110.5 L 179 110.5 L 179.5 90 Z " /><path fill="rgb(64,64,66)" stroke="rgb(64,64,66)" stroke-width="0" opacity="1" d="M 187.5 90 L 188 95.5 L 187 95.5 L 187.5 90 Z " /><path fill="rgb(64,64,66)" stroke="rgb(64,64,66)" stroke-width="0" opacity="1" d="M 190.5 90 L 191.5 92 L 190.5 90 Z " /><path fill="rgb(64,64,66)" stroke="rgb(64,64,66)" stroke-width="0" opacity="1" d="M 198.5 90 L 199 110.5 L 198 110.5 L 198.5 90 Z " /><path fill="rgb(64,64,66)" stroke="rgb(64,64,66)" stroke-width="0" opacity="1" d="M 200.5 90 L 201.5 92 L 200.5 90 Z " /><path fill="rgb(64,64,66)" stroke="rgb(64,64,66)" stroke-width="0" opacity="1" d="M 128.5 91 L 129.5 93 L 127 92.5 L 128.5 91 Z " /><path fill="rgb(64,64,66)" stroke="rgb(64,64,66)" stroke-width="0" opacity="1" d="M 183.5 91 L 186 91.5 L 185.5 94 L 183.5 91 Z " /><path fill="rgb(64,64,66)" stroke="rgb(64,64,66)" stroke-width="0" opacity="1" d="M 205.5 91 Q 208.5 92.5 205.5 94 L 205.5 91 Z " /><path fill="rgb(64,64,66)" stroke="rgb(64,64,66)" stroke-width="0" opacity="1" d="M 226.5 91 L 226.5 94 Q 223.5 92.5 226.5 91 Z " /><path fill="rgb(64,64,66)" stroke="rgb(64,64,66)" stroke-width="0" opacity="1" d="M 202.5 93 L 203 108.5 L 202 108.5 L 202.5 93 Z " /><path fill="rgb(64,64,66)" stroke="rgb(64,64,66)" stroke-width="0" opacity="1" d="M 126.5 95 L 127 98.5 L 126 98.5 L 126.5 95 Z " /><path fill="rgb(64,64,66)" stroke="rgb(64,64,66)" stroke-width="0" opacity="1" d="M 139.5 95 L 140.5 97 L 139.5 95 Z " /><path fill="rgb(64,64,66)" stroke="rgb(64,64,66)" stroke-width="0" opacity="1" d="M 184.5 96 L 185 104 L 183 103.5 L 184 98.5 Q 181.8 97.2 184.5 96 Z " /><path fill="rgb(64,64,66)" stroke="rgb(64,64,66)" stroke-width="0" opacity="1" d="M 237.5 96 L 236.5 98 L 237.5 96 Z " /><path fill="rgb(64,64,66)" stroke="rgb(64,64,66)" stroke-width="0" opacity="1" d="M 127.5 100 L 130 100.5 Q 127.9 103.8 127.5 100 Z " /><path fill="rgb(64,64,66)" stroke="rgb(64,64,66)" stroke-width="0" opacity="1" d="M 17.5 101 L 16.5 103 L 17.5 101 Z " /><path fill="rgb(64,64,66)" stroke="rgb(64,64,66)" stroke-width="0" opacity="1" d="M 32.5 101 L 33.5 103 L 32.5 101 Z " /><path fill="rgb(64,64,66)" stroke="rgb(64,64,66)" stroke-width="0" opacity="1" d="M 240.5 101 L 239.5 103 L 240.5 101 Z " /><path fill="rgb(64,64,66)" stroke="rgb(64,64,66)" stroke-width="0" opacity="1" d="M 141.5 103 L 142 106.5 L 141 106.5 L 141.5 103 Z " /><path fill="rgb(64,64,66)" stroke="rgb(64,64,66)" stroke-width="0" opacity="1" d="M 71.5 104 L 71.5 107 Q 68.5 105.5 71.5 104 Z " /><path fill="rgb(64,64,66)" stroke="rgb(64,64,66)" stroke-width="0" opacity="1" d="M 115.5 104 Q 118.5 105.5 115.5 107 L 115.5 104 Z " /><path fill="rgb(64,64,66)" stroke="rgb(64,64,66)" stroke-width="0" opacity="1" d="M 126 104 L 128 104.5 L 126.5 112 L 126 104 Z " /><path fill="rgb(64,64,66)" stroke="rgb(64,64,66)" stroke-width="0" opacity="1" d="M 11.5 105 L 12.5 107 L 11.5 105 Z " /><path fill="rgb(64,64,66)" stroke="rgb(64,64,66)" stroke-width="0" opacity="1" d="M 38.5 105 L 37.5 107 L 38.5 105 Z " /><path fill="rgb(64,64,66)" stroke="rgb(64,64,66)" stroke-width="0" opacity="1" d="M 187.5 105 L 188 110.5 L 187 110.5 L 187.5 105 Z " /><path fill="rgb(64,64,66)" stroke="rgb(64,64,66)" stroke-width="0" opacity="1" d="M 243.5 106 L 242.5 108 L 243.5 106 Z " /><path fill="rgb(64,64,66)" stroke="rgb(64,64,66)" stroke-width="0" opacity="1" d="M 226.5 107 L 226.5 110 L 224 109.5 L 226.5 107 Z " /><path fill="rgb(64,64,66)" stroke="rgb(64,64,66)" stroke-width="0" opacity="1" d="M 71.5 108 L 71.5 111 Q 68.5 109.5 71.5 108 Z " /><path fill="rgb(64,64,66)" stroke="rgb(64,64,66)" stroke-width="0" opacity="1" d="M 115.5 108 Q 118.5 109.5 115.5 111 L 115.5 108 Z " /><path fill="rgb(64,64,66)" stroke="rgb(64,64,66)" stroke-width="0" opacity="1" d="M 160.5 109 L 163 110.5 L 161.5 110 L 160.5 109 Z " /><path fill="rgb(64,64,66)" stroke="rgb(64,64,66)" stroke-width="0" opacity="1" d="M 131.5 110 L 130.5 112 L 131.5 110 Z " /><path fill="rgb(55,55,57)" stroke="rgb(55,55,57)" stroke-width="0" opacity="1" d="M 0 2 L 193 2.5 L 1 3 L 1 118.5 L 2.5 120 L 258 120 L 258 3.5 L 257.5 2 L 259 2.5 L 259 121 L 0 121 L 0 2 Z " /><path fill="rgb(55,55,57)" stroke="rgb(55,55,57)" stroke-width="0" opacity="1" d="M 12.5 11 L 49.5 11 L 50 13.5 L 63 52 Q 65.7 53.1 65 50.5 L 69.5 36 L 70 56.5 L 55 106.5 L 52.5 111 Q 49.2 112.1 50 109.5 L 22 26.5 L 16.5 18 L 10 15.5 Q 9.5 11.5 12.5 11 Z " /><path fill="rgb(55,55,57)" stroke="rgb(55,55,57)" stroke-width="0" opacity="1" d="M 77.5 11 L 114.5 11 L 117 13.5 Q 117.5 17.5 114.5 18 Q 110.5 17.5 110 20.5 L 110 101.5 L 112.5 104 Q 116.5 103.5 117 106.5 Q 117.5 110.5 114.5 111 L 72.5 111 L 70 108.5 Q 69.5 104.5 72.5 104 Q 76.5 104.5 77 101.5 L 78 98.5 L 78 12.5 L 77.5 11 Z " /><path fill="rgb(55,55,57)" stroke="rgb(55,55,57)" stroke-width="0" opacity="1" d="M 126.5 11 L 137.5 11 L 138 13.5 L 141 23 Q 144.3 21.7 143 26.5 L 138.5 40 L 130 14.5 L 127.5 12 L 126.5 11 Z " /><path fill="rgb(55,55,57)" stroke="rgb(55,55,57)" stroke-width="0" opacity="1" d="M 146 11 L 158 11.5 L 155 13.5 L 155 37.5 L 156.5 39 L 158 39.5 L 144.5 40 L 144.5 39 L 146 38.5 L 146 11 Z " /><path fill="rgb(55,55,57)" stroke="rgb(55,55,57)" stroke-width="0" opacity="1" d="M 170 11 L 179 11 L 179 14.5 L 184 32.5 L 184 36.5 L 187 39.5 L 174.5 40 L 175 38.5 Q 176.3 33.3 173.5 32 L 169 31.5 L 174 31 L 170 11 Z " /><path fill="rgb(55,55,57)" stroke="rgb(55,55,57)" stroke-width="0" opacity="1" d="M 190.5 11 L 201 11 L 201 37.5 L 204 39.5 L 190.5 40 L 190.5 39 L 193 37.5 L 193 13.5 L 191.5 12 L 190.5 11 Z " /><path fill="rgb(55,55,57)" stroke="rgb(55,55,57)" stroke-width="0" opacity="1" d="M 204.5 11 Q 211.4 10.1 214 13.5 L 215 21.5 L 209 25 Q 207.7 28.3 212.5 27 L 215 29.5 L 215 37 L 218.5 36 L 218 37.5 Q 218.8 39.8 216.5 39 Q 215.1 41.6 210.5 41 L 208 40 L 206 27 Q 203 28 204 25 Q 206.7 26.1 206 23.5 Q 208.7 21.7 207 15.5 L 204.5 11 Z " /><path fill="rgb(55,55,57)" stroke="rgb(55,55,57)" stroke-width="0" opacity="1" d="M 222.5 11 L 236 11.5 L 233 13.5 L 233 37.5 L 234.5 39 L 236 39.5 L 222.5 40 L 222.5 39 Q 224.8 39.8 224 37.5 L 224 35.5 L 224 12.5 L 222.5 12 L 222.5 11 Z " /><path fill="rgb(55,55,57)" stroke="rgb(55,55,57)" stroke-width="0" opacity="1" d="M 240.5 11 L 250 11.5 L 242 18.5 L 247 33.5 L 251 39.5 L 238.5 40 L 239 38.5 L 236 25.5 L 243 14.5 L 240.5 11 Z " /><path fill="rgb(55,55,57)" stroke="rgb(55,55,57)" stroke-width="0" opacity="1" d="M 168.5 18 L 169 22.5 L 165 33.5 L 165 37.5 L 168 39.5 L 160.5 40 L 164 35.5 L 168.5 18 Z " /><path fill="rgb(55,55,57)" stroke="rgb(55,55,57)" stroke-width="0" opacity="1" d="M 130.5 26 L 131 36.5 L 134 39.5 L 127.5 40 L 129 37.5 L 130.5 26 Z " /><path fill="rgb(55,55,57)" stroke="rgb(55,55,57)" stroke-width="0" opacity="1" d="M 178.5 43 Q 182.3 42.3 183 44.5 L 185 48.5 L 183 50.5 L 183 74.5 L 184.5 77 Q 178.2 76.4 176 71.5 Q 172.9 67.1 174 58.5 L 178 50.5 L 176 46.5 L 178.5 43 Z " /><path fill="rgb(55,55,57)" stroke="rgb(55,55,57)" stroke-width="0" opacity="1" d="M 191.5 43 Q 195.3 42.3 196 44.5 L 195 51.5 Q 200.5 55.5 199 66.5 Q 197.5 73 192.5 76 L 188.5 77 L 190 74.5 L 190 51.5 L 188 48.5 L 191.5 43 Z " /><path fill="rgb(55,55,57)" stroke="rgb(55,55,57)" stroke-width="0" opacity="1" d="M 132.5 48 L 136 48.5 Q 132.2 49.3 133 54.5 L 135.5 57 L 145 61 Q 147.6 63.3 147 69.5 L 142.5 76 L 137.5 77 L 138.5 75 Q 140.8 75.8 140 73.5 L 141 70.5 Q 136.7 65.2 129 64 L 127 60.5 L 127 53.5 L 130.5 49 L 132.5 48 Z " /><path fill="rgb(55,55,57)" stroke="rgb(55,55,57)" stroke-width="0" opacity="1" d="M 138.5 48 L 144.5 49 L 146 48.5 L 146 56.5 L 144 57 Q 145 50.6 139.5 49 L 138.5 48 Z " /><path fill="rgb(55,55,57)" stroke="rgb(55,55,57)" stroke-width="0" opacity="1" d="M 152 48 L 163.5 48 L 164 50 L 162 50.5 L 162 76 L 151.5 76 L 151.5 75 L 154 73.5 L 154 51.5 L 152 48 Z " /><path fill="rgb(55,55,57)" stroke="rgb(55,55,57)" stroke-width="0" opacity="1" d="M 210 48 L 221.5 48 L 222 50 L 220 50.5 L 220 71.5 L 216.5 76 L 210 77 L 212 72.5 L 212 51.5 L 210 48 Z " /><path fill="rgb(55,55,57)" stroke="rgb(55,55,57)" stroke-width="0" opacity="1" d="M 235.5 48 L 236 76 L 226 75.5 L 228 73.5 L 228 51.5 L 226.5 49 L 234.5 49 L 235.5 48 Z " /><path fill="rgb(55,55,57)" stroke="rgb(55,55,57)" stroke-width="0" opacity="1" d="M 239.5 48 L 245.5 50 L 248 52.5 Q 251.6 57.9 250 68.5 L 244.5 75 L 239.5 76 L 239.5 75 Q 242.1 75.8 241 72.5 L 242 71.5 L 242 52.5 L 241 50 Q 237.8 51 239.5 48 Z " /><path fill="rgb(55,55,57)" stroke="rgb(55,55,57)" stroke-width="0" opacity="1" d="M 22.5 50 L 28 64.5 L 28 90.5 L 29 95.5 L 33.5 103 L 39 106.5 Q 40.5 110.9 37.5 110 L 36.5 111 L 13.5 111 L 11 110 Q 10 106.2 12.5 105 L 18 101.5 L 22 91.5 L 22.5 50 Z " /><path fill="rgb(55,55,57)" stroke="rgb(55,55,57)" stroke-width="0" opacity="1" d="M 127.5 67 L 132.5 75 Q 135.1 74.3 134 77 L 128.5 76 L 127 76.5 L 127.5 67 Z " /><path fill="rgb(55,55,57)" stroke="rgb(55,55,57)" stroke-width="0" opacity="1" d="M 171.5 67 L 172 76.5 L 170.5 76 L 165 75.5 L 169 72.5 L 171.5 67 Z " /><path fill="rgb(55,55,57)" stroke="rgb(55,55,57)" stroke-width="0" opacity="1" d="M 202.5 67 Q 208.6 65.8 208 68.5 L 209 70.5 L 208 73 Q 205.3 71.9 206 74.5 L 207 76.5 L 205.5 76 L 202 74.5 L 201 68.5 L 202.5 67 Z " /><path fill="rgb(55,55,57)" stroke="rgb(55,55,57)" stroke-width="0" opacity="1" d="M 127.5 82 L 251 82.5 L 127.5 83 L 127.5 82 Z " /><path fill="rgb(55,55,57)" stroke="rgb(55,55,57)" stroke-width="0" opacity="1" d="M 130.5 90 L 133 90.5 L 131 91 Q 130 95.7 133.5 97 Q 139.1 97.5 141 101.5 Q 141.8 107.6 140 110 L 134.5 112 L 137 108.5 Q 137.5 104.5 134.5 104 Q 129 103.6 127 99.5 Q 125.5 91.5 130.5 90 Z " /><path fill="rgb(55,55,57)" stroke="rgb(55,55,57)" stroke-width="0" opacity="1" d="M 135.5 90 L 139.5 91 L 141 90.5 L 140.5 96 L 136.5 91 L 135.5 90 Z " /><path fill="rgb(55,55,57)" stroke="rgb(55,55,57)" stroke-width="0" opacity="1" d="M 144.5 90 L 154 90.5 L 152 91 L 155 101.5 L 155 106.5 L 154 111 L 150 109.5 L 147 95.5 L 144.5 90 Z " /><path fill="rgb(55,55,57)" stroke="rgb(55,55,57)" stroke-width="0" opacity="1" d="M 158 90 L 161 91.5 L 164 105.5 L 161.5 111 Q 157.3 112.3 159 107.5 L 156 96.5 L 158 90 Z " /><path fill="rgb(55,55,57)" stroke="rgb(55,55,57)" stroke-width="0" opacity="1" d="M 164.5 90 L 169 90.5 L 166.5 95 L 166 91 L 164.5 90 Z " /><path fill="rgb(55,55,57)" stroke="rgb(55,55,57)" stroke-width="0" opacity="1" d="M 172.5 90 Q 178.8 89.3 179 90.5 L 179 111 L 172 110.5 L 173 109.5 L 173 91.5 L 172.5 90 Z " /><path fill="rgb(55,55,57)" stroke="rgb(55,55,57)" stroke-width="0" opacity="1" d="M 181.5 90 Q 189.8 87.3 187 95.5 L 186 95.5 Q 186.5 91.5 183.5 91 Q 180.5 91.5 181.5 90 Z " /><path fill="rgb(55,55,57)" stroke="rgb(55,55,57)" stroke-width="0" opacity="1" d="M 191.5 90 Q 197.8 89.3 198 90.5 L 198 111 L 191 110.5 L 192 109.5 L 192 91.5 L 191.5 90 Z " /><path fill="rgb(55,55,57)" stroke="rgb(55,55,57)" stroke-width="0" opacity="1" d="M 201.5 90 L 208 94.5 Q 210.3 97.7 209 104.5 L 207 109 L 201.5 111 L 203 108.5 L 203 93.5 L 201.5 90 Z " /><path fill="rgb(55,55,57)" stroke="rgb(55,55,57)" stroke-width="0" opacity="1" d="M 212.5 90 L 220 90 L 220 111 L 213 110.5 L 214 109.5 L 214 91 L 212.5 90 Z " /><path fill="rgb(55,55,57)" stroke="rgb(55,55,57)" stroke-width="0" opacity="1" d="M 222.5 90 Q 230.8 87.3 228 95.5 L 227 95.5 L 225.5 92 Q 221.8 91.7 222.5 90 Z " /><path fill="rgb(55,55,57)" stroke="rgb(55,55,57)" stroke-width="0" opacity="1" d="M 232.5 90 Q 239.3 88.3 241 91.5 L 248 104.5 L 248 111 L 244 111 L 244 109.5 L 232.5 90 Z " /><path fill="rgb(55,55,57)" stroke="rgb(55,55,57)" stroke-width="0" opacity="1" d="M 245.5 90 L 251 90.5 L 249 91 L 247.5 94 L 245.5 90 Z " /><path fill="rgb(55,55,57)" stroke="rgb(55,55,57)" stroke-width="0" opacity="1" d="M 247.5 95 L 248 98.5 L 247 98.5 L 247.5 95 Z " /><path fill="rgb(55,55,57)" stroke="rgb(55,55,57)" stroke-width="0" opacity="1" d="M 165.5 96 L 166 98.5 L 165 98.5 L 165.5 96 Z " /><path fill="rgb(55,55,57)" stroke="rgb(55,55,57)" stroke-width="0" opacity="1" d="M 224.5 97 L 225 103.5 L 224 103.5 L 222 100.5 L 224.5 97 Z " /><path fill="rgb(55,55,57)" stroke="rgb(55,55,57)" stroke-width="0" opacity="1" d="M 183.5 98 L 184 102.5 L 181 100.5 L 183.5 98 Z " /><path fill="rgb(55,55,57)" stroke="rgb(55,55,57)" stroke-width="0" opacity="1" d="M 234.5 98 L 235 110 L 237 110.5 L 232.5 111 L 234 108.5 L 234.5 98 Z " /><path fill="rgb(55,55,57)" stroke="rgb(55,55,57)" stroke-width="0" opacity="1" d="M 127.5 105 Q 127.9 110.1 132 111.5 L 130.5 111 L 127 111 L 127.5 105 Z " /><path fill="rgb(55,55,57)" stroke="rgb(55,55,57)" stroke-width="0" opacity="1" d="M 186.5 106 L 187 111 L 182 110.5 L 186 107.5 L 186.5 106 Z " /><path fill="rgb(55,55,57)" stroke="rgb(55,55,57)" stroke-width="0" opacity="1" d="M 227.5 106 L 228 111 L 222 110.5 L 227 107.5 L 227.5 106 Z " /></svg>