<svg viewBox="0 0 750 360" version="1.1" xmlns="http://www.w3.org/2000/svg" desc="Created with imagetracer.js version 1.2.6" ><path fill="rgb(254,254,254)" stroke="rgb(254,254,254)" stroke-width="0" opacity="1" d="M 0 0 L 332 0.5 L 328 7.5 L 327 25.5 L 328 30.5 L 331.5 34 Q 333.8 34.8 333 32.5 L 336.5 25 L 341.5 24 L 350 30.5 L 379 76.5 L 417 147.5 L 426.5 159 Q 432 160 433 156.5 L 434 153.5 L 434 128.5 L 433 127.5 L 433 112.5 L 432 111.5 L 432 95.5 L 431 94.5 L 431 84.5 L 430 83.5 L 430 71.5 L 429 70.5 Q 430.3 61.6 428 58 L 424 60.5 L 421 68.5 L 421 75.5 L 422 76.5 L 423 96.5 L 424 97.5 L 424 99.5 L 424 111.5 L 425 112.5 L 424 114.5 L 425 115.5 L 425 127.5 L 424 131 Q 418.4 132 417 127.5 L 367 38.5 L 351 15.5 L 337 0.5 L 414.5 0 L 413 2.5 L 413 8.5 L 416 13.5 L 418 21.5 L 418 35.5 L 419 38 L 424 34.5 L 426 29.5 L 426 10.5 Q 425.1 3.9 420.5 1 L 419 0.5 L 750 0 L 750 286.5 L 748.5 287 L 743.5 286 L 740 283.5 L 739 278.5 L 739 242.5 L 740 241.5 L 740 235 L 749 233 L 748.5 229 L 723.5 229 L 719.5 228 Q 716.8 229.4 718 234 Q 724.2 233.1 727 235 L 728 237.5 L 728 282.5 L 725.5 286 Q 719.5 284.5 718 287.5 L 718.5 291 L 750 291 L 750 360 L 571.5 360 L 571 359.5 L 571 339.5 Q 571 338.5 566.5 339 L 567 340.5 L 566 346.5 L 567 350 Q 564.3 351.1 565 348.5 L 558.5 339 Q 553.1 338.4 553 339.5 L 553 360 L 542.5 360 L 542.5 356 L 534 356 L 534 352 Q 540.1 353.8 542 350.5 L 540.5 347 L 534 347 L 534 343 L 543 343 L 543 339 L 529 339 L 529 360 L 513.5 360 L 513.5 359 Q 518.5 359.5 519 355.5 L 520 345.5 L 514.5 339 L 502 339 L 502 358.5 L 502.5 360 L 492.5 360 L 492 356 L 487.5 356 L 485.5 356 L 483 353.5 Q 484.9 350.3 491 352 L 492 348.5 L 490.5 347 Q 484.5 348.5 483 345.5 L 483.5 343 L 492 343 L 492 339 L 478 339 L 478 358.5 L 478.5 360 L 463 359.5 L 465 359 L 470 338 Q 466.2 337 465 339.5 L 461.5 351 L 458 339 L 454.5 338 L 452 339 L 448.5 351 L 445 338 Q 441.2 337 440 339.5 L 447 359.5 L 426.5 360 L 426.5 359 Q 431.5 359.5 432 355.5 L 433 351.5 L 429.5 347 L 423.5 346 L 422 344.5 Q 420.6 339.9 426.5 342 L 429.5 345 L 430.5 344 Q 433.1 344.8 432 341.5 Q 430.1 336.9 422.5 338 L 417 342.5 Q 416.2 348.3 419.5 350 L 428 352 L 426.5 355 Q 422 356 421 353.5 Q 421.9 350.5 417.5 352 L 416 354.5 Q 417.7 359.8 425 359.5 L 316.5 360 L 316.5 359 L 320 356.5 Q 323 353.5 322 346.5 L 318.5 341 L 311.5 340 L 307 343.5 Q 305.3 351.3 309.5 353 L 314.5 354 L 316.5 353 L 314.5 356 Q 308.5 354.5 307 357.5 L 308 359.5 L 294.5 360 L 298 355.5 Q 300.5 352 299 344.5 Q 297.4 339.1 289.5 340 L 284 344.5 Q 282.8 351.8 287.5 353 L 292.5 354 L 294 353.5 Q 294.8 355.8 292.5 355 L 291.5 356 L 285 356 L 285 360 L 274 360 L 274 341.5 L 272.5 340 Q 269.2 338.9 270 341.5 L 265 344 Q 263.3 348.5 268.5 347 L 270 348.5 L 270 360 L 248 359.5 L 249 356.5 L 245.5 354 L 243 357.5 L 244.5 360 L 234 360 L 234 343 L 240 343 L 240 339 L 222.5 339 L 222 343 L 229 343 L 229 360 L 210 359.5 L 216 356.5 L 217 351.5 L 213.5 347 L 207.5 346 L 206 344.5 L 207.5 342 L 216 344 Q 216.8 340.2 213.5 339 L 206.5 338 L 202 341.5 L 201 346.5 L 205.5 351 L 212 352 Q 213.7 356.1 209.5 355 L 207.5 355 L 205 353.5 Q 205.9 350.5 201.5 352 Q 198.8 353.3 201 354.5 L 204.5 359 L 207 359.5 L 192 360 L 192 356 L 184.5 356 L 184 354.5 Q 181.8 353.3 184.5 352 Q 190.5 353.5 192 350.5 L 190.5 347 Q 184.5 348.5 183 345.5 L 184 343 L 192 343 L 192 339 L 179 339 L 179 359.5 L 178.5 360 L 0 360 L 0 291 L 26.5 291 L 27 286 Q 21 286.9 18 283.5 L 17 277.5 L 17 275.5 L 18 273.5 L 18 254.5 L 19 253.5 L 19 251.5 L 19.5 244 L 38 291 Q 41.8 292 43 289.5 L 62.5 244 L 64 250.5 L 64 281.5 L 61.5 285 L 54 286 L 54.5 291 L 86 291 L 86 286 L 81.5 286 L 76 283.5 L 75 276.5 L 76 274.5 L 75 273.5 L 75 236.5 L 78.5 234 L 85 233 L 85 229 L 83.5 229 Q 82.3 226.7 77.5 228 L 76.5 229 L 63.5 229 L 62 230.5 L 61 235.5 L 45 270 L 42 268.5 L 27 234.5 L 26 229 L 6.5 228 L 3 229 L 4.5 233 L 11.5 234 L 14 236.5 L 10 281.5 L 7.5 285 L 0 286 L 0 0 Z M 296 1 L 291 10 L 288 24 L 288 32 L 286 40 L 285 55 L 284 56 L 284 64 L 282 73 L 282 81 L 280 90 L 277 124 L 276 125 L 274 151 L 273 152 L 274 159 L 278 161 L 287 159 L 290 155 L 290 142 L 290 140 L 291 139 L 291 121 L 292 120 L 293 83 L 294 82 L 296 41 L 299 28 L 303 24 Q 308 23 310 26 Q 320 37 328 51 L 345 82 Q 358 110 367 142 Q 368 146 375 145 L 379 139 L 379 136 L 391 106 L 390 101 L 387 98 L 375 117 L 372 119 L 342 59 Q 327 32 308 9 L 300 1 L 296 1 Z M 453 1 L 451 2 L 431 27 L 397 81 L 398 85 L 401 86 L 405 82 L 439 32 Q 442 25 451 25 L 453 30 L 454 48 L 455 49 L 456 92 L 457 93 L 457 111 L 458 112 L 458 138 L 459 139 L 458 142 L 459 143 L 459 157 Q 463 163 474 163 L 477 159 L 466 42 L 466 40 L 464 32 L 463 17 L 459 6 L 455 1 L 453 1 Z M 327 59 L 324 66 L 323 95 L 322 96 L 322 109 L 321 110 L 320 138 L 319 139 L 319 156 L 323 158 L 330 157 L 331 156 L 331 119 L 332 118 L 331 116 Q 329 109 332 108 L 332 67 L 330 62 L 327 59 Z M 515 227 Q 505 228 500 233 L 491 242 L 488 248 L 486 259 Q 488 262 487 269 L 489 275 L 494 283 Q 501 291 515 293 Q 531 294 539 287 Q 546 281 550 273 L 552 264 Q 553 249 547 241 Q 539 226 515 227 Z M 566 227 L 564 247 Q 565 249 569 248 L 574 235 L 579 234 L 580 235 L 588 235 L 588 280 L 587 284 Q 584 287 577 286 L 576 290 L 578 291 L 611 291 L 612 288 L 611 286 L 603 285 L 600 279 L 600 236 L 601 235 L 608 235 L 611 234 L 615 235 L 618 244 L 618 248 L 623 248 L 625 227 L 620 228 L 572 228 L 566 227 Z M 642 227 L 640 247 Q 641 249 645 248 L 649 238 L 655 234 L 656 235 L 664 235 L 664 282 L 663 284 Q 660 287 653 286 L 654 291 L 687 291 L 688 288 L 687 286 L 679 285 L 677 284 Q 678 279 676 278 L 676 264 L 677 263 L 676 261 L 676 235 L 679 234 L 680 235 L 691 235 Q 695 238 694 247 Q 695 249 699 248 L 701 227 L 696 228 L 648 228 L 642 227 Z M 106 228 Q 103 229 105 231 L 105 234 L 112 234 L 114 237 L 115 241 L 115 282 L 114 285 L 113 286 Q 108 285 107 287 Q 103 286 105 291 Q 106 293 108 291 L 110 292 L 113 291 L 137 291 L 137 288 L 136 286 L 129 285 L 126 282 L 126 240 L 127 236 L 129 234 L 136 233 Q 137 229 135 228 Q 128 226 127 229 L 112 229 L 111 228 L 109 229 L 106 228 Z M 160 228 L 158 232 Q 160 235 167 234 L 169 237 L 169 282 L 168 285 L 160 287 Q 155 286 157 291 L 207 291 L 209 290 L 213 279 L 214 270 L 211 269 L 204 281 L 200 285 L 185 285 L 184 284 Q 179 285 181 281 L 181 279 L 180 278 L 180 237 L 183 234 Q 188 235 190 233 Q 191 229 189 228 Q 184 227 183 229 L 166 229 Q 164 227 160 228 Z M 228 228 L 228 233 L 236 234 L 238 237 L 238 283 L 237 285 L 226 287 L 227 291 L 277 291 L 279 288 L 283 276 L 283 270 L 280 269 L 274 280 L 269 285 Q 258 286 252 284 L 249 278 Q 252 276 250 270 L 250 268 L 249 266 L 249 237 L 252 234 Q 257 235 259 233 Q 260 229 258 228 L 253 229 L 237 229 L 236 228 L 228 228 Z M 298 228 L 296 230 L 297 233 L 305 234 L 307 237 L 307 282 L 306 284 Q 303 287 296 286 L 294 288 L 295 291 L 347 291 Q 352 284 352 273 L 349 272 L 344 281 L 341 284 L 336 285 Q 325 286 319 284 L 318 282 L 318 263 L 331 263 L 334 264 Q 336 265 335 270 Q 336 272 340 271 Q 342 270 340 269 L 340 257 L 341 256 Q 344 247 336 250 L 334 257 L 318 257 L 318 235 L 334 235 L 337 236 L 339 240 L 340 245 Q 339 247 343 246 L 345 244 L 345 233 L 346 232 L 345 228 L 343 229 L 306 229 L 304 229 L 298 228 Z M 405 228 L 403 230 L 404 233 L 414 235 L 416 240 L 415 281 L 414 284 L 410 286 L 405 286 L 405 291 L 433 291 L 433 286 Q 425 287 422 282 L 423 244 L 460 292 L 461 291 L 468 291 L 468 242 L 469 241 L 468 239 L 469 235 L 478 233 Q 479 229 477 228 L 475 229 L 473 229 L 457 229 L 456 228 L 453 229 L 451 228 L 449 232 L 452 234 L 459 235 L 461 238 L 461 251 L 461 253 L 462 255 L 462 274 L 461 274 L 427 232 L 425 229 L 405 228 Z M 338 340 L 333 344 L 330 344 L 330 347 L 335 347 L 335 359 L 339 359 L 339 341 L 338 340 Z M 367 347 L 364 348 L 366 352 L 392 352 L 392 348 L 368 348 L 367 347 Z " /><path fill="rgb(254,254,254)" stroke="rgb(254,254,254)" stroke-width="0" opacity="1" d="M 517.5 232 Q 528.3 232.7 533 239.5 Q 541.5 249.4 539 270.5 Q 537.1 279.1 531.5 284 Q 527.2 287.7 517.5 286 L 507 279.5 L 501 267.5 L 500 251.5 L 503 241.5 L 508.5 235 L 517.5 232 Z " /><path fill="rgb(254,254,254)" stroke="rgb(254,254,254)" stroke-width="0" opacity="1" d="M 507 343 Q 512.9 342.1 515 346.5 L 516 349.5 L 513.5 355 L 507 356 L 507 343 Z " /><path fill="rgb(254,254,254)" stroke="rgb(254,254,254)" stroke-width="0" opacity="1" d="M 290.5 344 L 294 345 L 292.5 349 Q 288.8 349.8 288 347.5 L 290.5 344 Z " /><path fill="rgb(254,254,254)" stroke="rgb(254,254,254)" stroke-width="0" opacity="1" d="M 313.5 344 L 317 345 L 315.5 349 Q 311.8 349.8 311 347.5 Q 309.9 344.2 312.5 345 L 313.5 344 Z " /><path fill="rgb(254,254,254)" stroke="rgb(254,254,254)" stroke-width="0" opacity="1" d="M 455.5 347 L 459 359 L 461 359.5 L 449.5 360 L 449.5 359 L 452 357.5 L 452 354.5 L 455.5 347 Z " /><path fill="rgb(254,254,254)" stroke="rgb(254,254,254)" stroke-width="0" opacity="1" d="M 558.5 347 L 566 360 L 558 360 L 558.5 347 Z " /><path fill="rgb(69,69,69)" stroke="rgb(69,69,69)" stroke-width="0" opacity="1" d="M 332.5 0 L 335.5 0 L 344 7.5 L 369 42.5 Q 389.6 75.9 407 112.5 L 415 125.5 L 421.5 132 Q 424.8 133.1 424 130.5 L 425 129.5 L 425 104.5 L 424 103.5 L 424 92.5 L 423 91.5 L 423 81.5 L 421 70.5 L 423 62.5 L 427.5 58 L 429 64.5 L 430 87.5 L 431 88.5 L 434 147.5 L 432 158 L 428.5 159 L 421 153.5 L 376 70.5 L 355 36.5 L 344.5 25 L 337.5 24 Q 332.8 26.5 333 33 L 329 31.5 L 327 23.5 L 327 16.5 L 329 6.5 L 332.5 0 Z " /><path fill="rgb(69,69,69)" stroke="rgb(69,69,69)" stroke-width="0" opacity="1" d="M 296.5 1 L 300.5 2 L 309 10.5 Q 327 33.5 342 59.5 L 371.5 120 L 374 118.5 L 385 99 L 389 99 L 389 100.5 L 391 103.5 L 379 134.5 L 379 137.5 L 374.5 144 L 371.5 145 L 368 142.5 L 354 101.5 L 341 72.5 L 320 37.5 L 307.5 24 L 303.5 23 L 299 26.5 L 296 37.5 L 295 58.5 L 294 59.5 L 291 129.5 L 290 130.5 L 290 148.5 Q 287.5 150 289 155.5 L 286.5 158 Q 282.6 161.3 275 160 Q 272.6 156.1 274 146.5 L 275 145.5 L 275 136.5 L 277 127.5 L 277 119.5 L 279 110.5 L 279 102.5 L 280 101.5 L 280 93.5 L 282 84.5 L 282 76.5 L 283 75.5 L 289 20.5 L 292 7.5 L 296.5 1 Z " /><path fill="rgb(69,69,69)" stroke="rgb(69,69,69)" stroke-width="0" opacity="1" d="M 415.5 1 L 419.5 1 L 424 5.5 L 426 15.5 L 426 25.5 L 424 33.5 L 420.5 37 Q 417.5 37.9 419 33.5 L 418 31.5 Q 420.3 30.2 419 25.5 L 417 15.5 L 413 7.5 L 413 3.5 L 415.5 1 Z " /><path fill="rgb(69,69,69)" stroke="rgb(69,69,69)" stroke-width="0" opacity="1" d="M 451.5 2 Q 457 1 458 4.5 L 462 14.5 L 463 25.5 L 464 26.5 L 467 63.5 L 469 73.5 L 469 83.5 L 470 84.5 L 472 112.5 L 473 113.5 L 475 145.5 L 476 146.5 L 476 160.5 L 474.5 162 L 466.5 162 L 461 158.5 L 459 154.5 L 459 152.5 L 459 129.5 L 458 128.5 L 458 126.5 L 458 104.5 L 457 103.5 L 457 80.5 L 456 79.5 L 455 43.5 L 454 42.5 L 454 30.5 L 450.5 25 Q 441.5 23.5 440 29.5 L 400.5 86 L 398 84.5 L 398 79.5 L 420 43.5 L 449 3 L 451.5 2 Z " /><path fill="rgb(69,69,69)" stroke="rgb(69,69,69)" stroke-width="0" opacity="1" d="M 325 60 Q 328.8 59.3 330 62.5 L 332 68.5 L 332 95.5 L 331 96.5 L 331 154.5 L 328.5 157 L 320.5 157 L 319 155.5 L 325 60 Z " /><path fill="rgb(69,69,69)" stroke="rgb(69,69,69)" stroke-width="0" opacity="1" d="M 567.5 227 L 569.5 228 L 621.5 228 L 623.5 227 Q 626.3 228.3 624 229.5 L 623 247 Q 615.5 249.8 618 241.5 L 613.5 234 L 600.5 234 L 600 234.5 L 600 282.5 L 601 285 L 611 287 L 611 291 L 599.5 291 L 598.5 290 L 587.5 290 L 586.5 291 L 577 291 L 577 287 L 578.5 287 Q 579.7 284.7 584.5 286 L 588 282.5 L 588 239.5 L 589 238.5 L 588 234 L 575.5 234 L 572 237.5 L 567.5 248 L 564 246.5 L 566 237.5 L 566 228.5 L 567.5 227 Z " /><path fill="rgb(69,69,69)" stroke="rgb(69,69,69)" stroke-width="0" opacity="1" d="M 643 227 L 645.5 228 L 697.5 228 L 701 227 L 700 230.5 L 699 247 L 695 247 L 695 245.5 L 693 237.5 L 689.5 234 L 676.5 234 L 676 234.5 L 676 281.5 L 678.5 285 L 687 287 L 687 291 L 675.5 291 L 674.5 290 L 663.5 290 L 662.5 291 L 653 291 L 653 287 L 654.5 287 Q 655.7 284.7 660.5 286 L 664 283.5 L 664 275.5 L 665 274.5 L 665 234 L 652.5 234 L 649 236.5 L 644.5 248 L 641 247 L 642 240.5 L 642 230.5 L 643 227 Z " /><path fill="rgb(69,69,69)" stroke="rgb(69,69,69)" stroke-width="0" opacity="1" d="M 512.5 228 Q 524 226.5 531.5 229 Q 539.9 232.1 545 238.5 L 551 251.5 L 551 267.5 Q 548.1 278.6 540.5 285 L 526.5 292 L 512.5 292 Q 499.3 289.7 493 280.5 L 487 265.5 L 487 253.5 Q 489.4 241.4 497.5 235 Q 503.4 229.9 512.5 228 Z M 515 232 L 506 236 L 500 249 Q 498 268 505 278 Q 510 285 521 287 Q 527 288 531 285 L 536 280 L 540 267 L 540 257 L 538 248 L 535 242 Q 530 231 515 232 Z " /><path fill="rgb(69,69,69)" stroke="rgb(69,69,69)" stroke-width="0" opacity="1" d="M 4 229 L 24.5 229 L 26 230.5 L 30 242.5 L 43.5 271 Q 45.8 271.8 45 269.5 L 58 243.5 L 63 229 L 84.5 229 L 85 233 L 76.5 234 L 75 235.5 L 74 243.5 L 75 244.5 L 75 281.5 L 77.5 285 L 86 287 L 84.5 291 L 61.5 290 L 60.5 291 L 54 291 L 54 287 L 55.5 287 L 63 285 L 64 282.5 L 64 242.5 L 62 243.5 L 42 291 L 38 289.5 L 20 243 L 18 243.5 L 18 264.5 L 17 265.5 L 17 282.5 L 18 285 L 27 287 L 26.5 290 L 0 290 Q -1.5 286.3 1.5 287 L 7.5 285 L 10 282.5 L 11 269.5 L 12 268.5 L 12 259.5 L 13 258.5 L 14 235.5 L 3 231.5 L 4 229 Z " /><path fill="rgb(69,69,69)" stroke="rgb(69,69,69)" stroke-width="0" opacity="1" d="M 105 229 L 134.5 229 L 136 230.5 L 134.5 233 Q 127.6 232.1 126 236.5 L 126 282.5 L 127 285 L 137 287 L 136.5 291 L 105 291 Q 102.8 285 109.5 287 L 115 283.5 L 115 236.5 L 112.5 234 L 105 233 L 105 229 Z " /><path fill="rgb(69,69,69)" stroke="rgb(69,69,69)" stroke-width="0" opacity="1" d="M 159 229 L 188.5 229 L 189 233 L 181.5 234 L 180 235.5 L 180 282.5 L 182.5 285 L 195.5 286 L 200.5 285 L 204 281.5 L 210.5 270 Q 215.3 268.3 214 272.5 L 208 290 L 205.5 291 L 181.5 291 L 180.5 290 L 169.5 290 L 167.5 290 L 158.5 291 L 157 288.5 L 158.5 287 L 166.5 286 L 169 283.5 L 169 235.5 L 167.5 234 L 159 233 L 159 229 Z " /><path fill="rgb(69,69,69)" stroke="rgb(69,69,69)" stroke-width="0" opacity="1" d="M 228 229 L 257.5 229 L 258 233 L 250.5 234 L 249 235.5 L 249 281.5 L 251.5 285 L 262.5 285 L 263.5 286 Q 264.7 283.8 269.5 285 L 273 281.5 L 279.5 270 Q 284.8 268.3 283 273.5 L 279 286.5 L 275.5 291 L 238.5 290 L 237.5 291 L 227 291 Q 224.7 284.6 232.5 287 L 238 283.5 L 238 275.5 L 239 274.5 L 239 238.5 L 236.5 234 L 228 233 L 228 229 Z " /><path fill="rgb(69,69,69)" stroke="rgb(69,69,69)" stroke-width="0" opacity="1" d="M 297 229 L 346 229.5 L 344 237.5 L 344 245 Q 338.4 247.2 340 241.5 L 335.5 235 Q 329.3 236.7 327.5 234 L 324.5 235 Q 318.5 233.5 317 236.5 L 317 256.5 L 318.5 258 L 331.5 258 L 336 254.5 Q 334 247.8 340 250 L 340 270.5 L 336 271 L 335 264 Q 328.8 260.8 318 262 L 318 282.5 L 320.5 285 L 339.5 285 L 345 279.5 L 348.5 273 L 352 274.5 L 349 286.5 L 345.5 291 L 305.5 290 L 303.5 290 L 295 291 Q 294 287.2 296.5 286 Q 304.5 287.5 307 283.5 L 307 240.5 L 308 239.5 L 305.5 234 L 298.5 233 L 297 231.5 L 297 229 Z " /><path fill="rgb(69,69,69)" stroke="rgb(69,69,69)" stroke-width="0" opacity="1" d="M 404 229 L 424.5 229 L 425 230.5 L 461.5 275 L 462 241.5 L 459.5 235 L 450 233 L 450.5 229 L 476.5 229 L 478 231.5 Q 477 234 472.5 233 L 468 236.5 L 467 263.5 L 468 266.5 L 467 267.5 L 467 288.5 L 468 291 L 458.5 291 L 458 289.5 L 423 243 L 421 243.5 L 421 263.5 L 422 264.5 L 422 282.5 L 424.5 285 L 430.5 286 L 433 288.5 L 431.5 291 L 412.5 290 L 411.5 291 L 405 291 L 405 287 L 406.5 287 L 414 285 L 416 274.5 L 416 237.5 L 415 235 L 404 232 L 404 229 Z " /><path fill="rgb(69,69,69)" stroke="rgb(69,69,69)" stroke-width="0" opacity="1" d="M 718 229 L 747.5 229 L 749 230.5 L 749 233 L 743.5 233 L 740 235.5 L 739 237.5 L 739 282.5 L 740 285 L 750 287 L 749.5 291 L 718 291 Q 715.8 285 722.5 287 L 728 285 L 728 236.5 L 725.5 234 L 718 233 L 718 229 Z " /><path fill="rgb(69,69,69)" stroke="rgb(69,69,69)" stroke-width="0" opacity="1" d="M 207.5 338 Q 213.9 338.1 216 342.5 L 216 344 L 212 344 L 210.5 341 Q 206.8 340.3 206 342.5 Q 204.3 347.3 208.5 346 L 212.5 347 L 216 350.5 Q 217.3 356.8 213.5 358 L 205.5 359 L 202 356.5 L 201 353 L 203.5 352 L 207.5 356 L 210.5 356 L 212 352.5 Q 210 349.5 204.5 350 L 202 347.5 Q 200.5 341.5 203.5 340 L 207.5 338 Z " /><path fill="rgb(69,69,69)" stroke="rgb(69,69,69)" stroke-width="0" opacity="1" d="M 423.5 338 Q 429.1 337.9 431 341.5 L 432 343.5 L 428 344 L 426.5 341 Q 421.8 340.3 421 343.5 L 422.5 346 L 428.5 347 L 432 350.5 Q 433.3 356.8 429.5 358 L 421.5 359 L 417 355.5 Q 415.9 352.2 418.5 353 Q 419.8 350.8 421 353.5 Q 420.3 355.8 422.5 355 L 425.5 356 L 428 355 L 426.5 351 L 420.5 350 L 418 347.5 L 417 343.5 L 420.5 339 L 423.5 338 Z " /><path fill="rgb(69,69,69)" stroke="rgb(69,69,69)" stroke-width="0" opacity="1" d="M 179 339 L 191.5 339 L 192 343 L 183 343 L 183 348 L 191 348 L 191 351 L 183 351 L 183 356 L 192 356 L 192 360 L 179 360 L 179 339 Z " /><path fill="rgb(69,69,69)" stroke="rgb(69,69,69)" stroke-width="0" opacity="1" d="M 223 339 L 239.5 339 L 240 343 L 234 343 L 234 357.5 L 233 360 L 229 358.5 L 229 344.5 L 230 343.5 L 223 343 L 223 339 Z " /><path fill="rgb(69,69,69)" stroke="rgb(69,69,69)" stroke-width="0" opacity="1" d="M 441 339 Q 446.2 336.9 445 341.5 L 448.5 352 L 453 339 Q 456.8 338 458 340.5 L 461.5 352 L 463 350.5 L 465 339 Q 470.6 336.8 469 342.5 L 464 359 Q 460.2 360 459 357.5 L 455.5 346 L 454 347.5 L 451 359 L 446 359 L 446 356.5 L 441 339 Z " /><path fill="rgb(69,69,69)" stroke="rgb(69,69,69)" stroke-width="0" opacity="1" d="M 479 339 L 491.5 339 L 492 343 L 483 343 L 483 348 L 491 348 L 491 351 L 483 351 L 483 356 L 492 356 L 492 360 L 481.5 360 L 480.5 359 L 479 359.5 L 479 339 Z " /><path fill="rgb(69,69,69)" stroke="rgb(69,69,69)" stroke-width="0" opacity="1" d="M 502 339 L 513.5 339 L 518 342.5 Q 520.6 345.4 520 351.5 L 514.5 359 L 510.5 360 L 509.5 359 L 502 359 L 502 339 Z M 506 343 L 506 356 L 513 356 Q 518 354 516 347 Q 514 341 506 343 Z " /><path fill="rgb(69,69,69)" stroke="rgb(69,69,69)" stroke-width="0" opacity="1" d="M 530.5 339 L 542 339 L 542 343 L 533 343 L 533 346.5 Q 534.9 349.8 541 348 L 541 351 L 534.5 351 Q 532 352.2 533 356 L 542 356 L 542 360 L 530.5 360 L 529 358.5 L 529 340.5 L 530.5 339 Z " /><path fill="rgb(69,69,69)" stroke="rgb(69,69,69)" stroke-width="0" opacity="1" d="M 554.5 339 Q 559.9 337.1 559 340.5 L 566.5 352 L 567 339 L 571 339.5 L 571 360 Q 567.2 361 566 358.5 L 558.5 346 L 558 357.5 L 557 360 L 553 358.5 L 553 340.5 L 554.5 339 Z " /><path fill="rgb(69,69,69)" stroke="rgb(69,69,69)" stroke-width="0" opacity="1" d="M 291.5 340 L 295.5 341 L 298 343.5 L 299 352.5 L 294.5 359 L 287.5 360 L 285 359 L 286.5 356 L 290.5 357 L 295 353.5 L 294.5 352 Q 293.3 354.2 288.5 353 L 285 350.5 L 284 346.5 L 287.5 341 L 291.5 340 Z M 290 344 L 288 346 Q 287 350 291 350 L 293 349 Q 295 350 294 346 Q 293 343 290 344 Z " /><path fill="rgb(69,69,69)" stroke="rgb(69,69,69)" stroke-width="0" opacity="1" d="M 314.5 340 L 321 344.5 Q 323 356 316.5 359 L 309.5 360 L 308 356 L 313.5 357 L 317 354.5 Q 317.5 351.5 310.5 353 Q 305.7 351.7 307 344.5 L 310.5 341 L 314.5 340 Z M 313 344 Q 310 345 311 349 L 314 350 L 316 349 Q 318 350 317 346 Q 316 343 313 344 Z " /><path fill="rgb(69,69,69)" stroke="rgb(69,69,69)" stroke-width="0" opacity="1" d="M 270 341 L 274 341.5 L 274 359 L 270 359 L 270 347.5 L 266.5 347 L 265 344 L 270 343 L 270 341 Z " /><path fill="rgb(69,69,69)" stroke="rgb(69,69,69)" stroke-width="0" opacity="1" d="M 335 341 L 339 341.5 L 339 359 L 335 358.5 L 335 346.5 L 333.5 347 Q 329.3 348.1 331 344 L 335 342.5 L 335 341 Z " /><path fill="rgb(69,69,69)" stroke="rgb(69,69,69)" stroke-width="0" opacity="1" d="M 365 348 L 391.5 348 L 392 351 L 365.5 351 L 365 348 Z " /><path fill="rgb(69,69,69)" stroke="rgb(69,69,69)" stroke-width="0" opacity="1" d="M 244 355 Q 250 353 248 359 Q 242 361 244 355 Z " /><path fill="rgb(160,160,160)" stroke="rgb(160,160,160)" stroke-width="0" opacity="1" d="M 336.5 0 L 337.5 2 L 336.5 0 Z " /><path fill="rgb(160,160,160)" stroke="rgb(160,160,160)" stroke-width="0" opacity="1" d="M 415.5 0 L 419 0.5 Q 414.8 0.3 413.5 3 L 415.5 0 Z " /><path fill="rgb(160,160,160)" stroke="rgb(160,160,160)" stroke-width="0" opacity="1" d="M 295.5 1 L 294.5 3 L 295.5 1 Z " /><path fill="rgb(160,160,160)" stroke="rgb(160,160,160)" stroke-width="0" opacity="1" d="M 420.5 1 L 423.5 5 L 420.5 1 Z " /><path fill="rgb(160,160,160)" stroke="rgb(160,160,160)" stroke-width="0" opacity="1" d="M 452.5 1 L 455 1.5 L 452.5 2 L 452.5 1 Z " /><path fill="rgb(160,160,160)" stroke="rgb(160,160,160)" stroke-width="0" opacity="1" d="M 302.5 3 L 307.5 9 L 302.5 3 Z " /><path fill="rgb(160,160,160)" stroke="rgb(160,160,160)" stroke-width="0" opacity="1" d="M 448.5 4 L 445.5 8 L 448.5 4 Z " /><path fill="rgb(160,160,160)" stroke="rgb(160,160,160)" stroke-width="0" opacity="1" d="M 328.5 7 L 329 9.5 L 328 9.5 L 328.5 7 Z " /><path fill="rgb(160,160,160)" stroke="rgb(160,160,160)" stroke-width="0" opacity="1" d="M 344.5 8 L 346.5 11 L 344.5 8 Z " /><path fill="rgb(160,160,160)" stroke="rgb(160,160,160)" stroke-width="0" opacity="1" d="M 425.5 10 L 426 14.5 L 425 14.5 L 425.5 10 Z " /><path fill="rgb(160,160,160)" stroke="rgb(160,160,160)" stroke-width="0" opacity="1" d="M 443.5 10 L 442.5 12 L 443.5 10 Z " /><path fill="rgb(160,160,160)" stroke="rgb(160,160,160)" stroke-width="0" opacity="1" d="M 309.5 11 L 311.5 14 L 309.5 11 Z " /><path fill="rgb(160,160,160)" stroke="rgb(160,160,160)" stroke-width="0" opacity="1" d="M 327.5 12 L 328 15.5 L 327 15.5 L 327.5 12 Z " /><path fill="rgb(160,160,160)" stroke="rgb(160,160,160)" stroke-width="0" opacity="1" d="M 348.5 13 L 350.5 16 L 348.5 13 Z " /><path fill="rgb(160,160,160)" stroke="rgb(160,160,160)" stroke-width="0" opacity="1" d="M 440.5 14 L 439.5 16 L 440.5 14 Z " /><path fill="rgb(160,160,160)" stroke="rgb(160,160,160)" stroke-width="0" opacity="1" d="M 313.5 16 L 314.5 18 L 313.5 16 Z " /><path fill="rgb(160,160,160)" stroke="rgb(160,160,160)" stroke-width="0" opacity="1" d="M 462.5 16 L 463 18.5 L 462 18.5 L 462.5 16 Z " /><path fill="rgb(160,160,160)" stroke="rgb(160,160,160)" stroke-width="0" opacity="1" d="M 351.5 17 L 352.5 19 L 351.5 17 Z " /><path fill="rgb(160,160,160)" stroke="rgb(160,160,160)" stroke-width="0" opacity="1" d="M 437.5 18 L 436.5 20 L 437.5 18 Z " /><path fill="rgb(160,160,160)" stroke="rgb(160,160,160)" stroke-width="0" opacity="1" d="M 315.5 19 L 316.5 21 L 315.5 19 Z " /><path fill="rgb(160,160,160)" stroke="rgb(160,160,160)" stroke-width="0" opacity="1" d="M 354.5 21 L 355.5 23 L 354.5 21 Z " /><path fill="rgb(160,160,160)" stroke="rgb(160,160,160)" stroke-width="0" opacity="1" d="M 435.5 21 L 434.5 23 L 435.5 21 Z " /><path fill="rgb(160,160,160)" stroke="rgb(160,160,160)" stroke-width="0" opacity="1" d="M 463.5 22 L 464 25.5 L 463 25.5 L 463.5 22 Z " /><path fill="rgb(160,160,160)" stroke="rgb(160,160,160)" stroke-width="0" opacity="1" d="M 288.5 23 L 289 26.5 L 288 26.5 L 288.5 23 Z " /><path fill="rgb(160,160,160)" stroke="rgb(160,160,160)" stroke-width="0" opacity="1" d="M 318.5 23 L 319.5 25 L 318.5 23 Z " /><path fill="rgb(160,160,160)" stroke="rgb(160,160,160)" stroke-width="0" opacity="1" d="M 301.5 24 L 299.5 27 L 301.5 24 Z " /><path fill="rgb(160,160,160)" stroke="rgb(160,160,160)" stroke-width="0" opacity="1" d="M 307.5 24 L 308.5 26 L 307.5 24 Z " /><path fill="rgb(160,160,160)" stroke="rgb(160,160,160)" stroke-width="0" opacity="1" d="M 418.5 25 L 419 30.5 L 418 30.5 L 418.5 25 Z " /><path fill="rgb(160,160,160)" stroke="rgb(160,160,160)" stroke-width="0" opacity="1" d="M 432.5 25 L 431.5 27 L 432.5 25 Z " /><path fill="rgb(160,160,160)" stroke="rgb(160,160,160)" stroke-width="0" opacity="1" d="M 444.5 25 L 446 25.5 L 440.5 30 L 444.5 25 Z " /><path fill="rgb(160,160,160)" stroke="rgb(160,160,160)" stroke-width="0" opacity="1" d="M 320.5 26 L 321.5 28 L 320.5 26 Z " /><path fill="rgb(160,160,160)" stroke="rgb(160,160,160)" stroke-width="0" opacity="1" d="M 425.5 26 L 426 29.5 L 425 29.5 L 425.5 26 Z " /><path fill="rgb(160,160,160)" stroke="rgb(160,160,160)" stroke-width="0" opacity="1" d="M 451.5 26 L 453 28.5 L 452 28.5 L 451.5 26 Z " /><path fill="rgb(160,160,160)" stroke="rgb(160,160,160)" stroke-width="0" opacity="1" d="M 430.5 28 L 429.5 30 L 430.5 28 Z " /><path fill="rgb(160,160,160)" stroke="rgb(160,160,160)" stroke-width="0" opacity="1" d="M 313.5 30 L 316.5 34 L 313.5 30 Z " /><path fill="rgb(160,160,160)" stroke="rgb(160,160,160)" stroke-width="0" opacity="1" d="M 323.5 30 L 324.5 32 L 323.5 30 Z " /><path fill="rgb(160,160,160)" stroke="rgb(160,160,160)" stroke-width="0" opacity="1" d="M 453.5 30 L 454 34.5 L 453 34.5 L 453.5 30 Z " /><path fill="rgb(160,160,160)" stroke="rgb(160,160,160)" stroke-width="0" opacity="1" d="M 350.5 31 L 351.5 33 L 350.5 31 Z " /><path fill="rgb(160,160,160)" stroke="rgb(160,160,160)" stroke-width="0" opacity="1" d="M 361.5 31 L 362.5 33 L 361.5 31 Z " /><path fill="rgb(160,160,160)" stroke="rgb(160,160,160)" stroke-width="0" opacity="1" d="M 428.5 31 L 427.5 33 L 428.5 31 Z " /><path fill="rgb(160,160,160)" stroke="rgb(160,160,160)" stroke-width="0" opacity="1" d="M 438.5 32 L 436.5 35 L 438.5 32 Z " /><path fill="rgb(160,160,160)" stroke="rgb(160,160,160)" stroke-width="0" opacity="1" d="M 464.5 32 L 465 34.5 L 464 34.5 L 464.5 32 Z " /><path fill="rgb(160,160,160)" stroke="rgb(160,160,160)" stroke-width="0" opacity="1" d="M 418.5 33 L 419 35.5 L 418 35.5 L 418.5 33 Z " /><path fill="rgb(160,160,160)" stroke="rgb(160,160,160)" stroke-width="0" opacity="1" d="M 363.5 34 L 364.5 36 L 363.5 34 Z " /><path fill="rgb(160,160,160)" stroke="rgb(160,160,160)" stroke-width="0" opacity="1" d="M 423.5 34 L 420.5 38 L 419 37.5 L 423.5 34 Z " /><path fill="rgb(160,160,160)" stroke="rgb(160,160,160)" stroke-width="0" opacity="1" d="M 426.5 34 L 425.5 36 L 426.5 34 Z " /><path fill="rgb(160,160,160)" stroke="rgb(160,160,160)" stroke-width="0" opacity="1" d="M 353.5 35 L 354.5 37 L 353.5 35 Z " /><path fill="rgb(160,160,160)" stroke="rgb(160,160,160)" stroke-width="0" opacity="1" d="M 318.5 36 L 319.5 38 L 318.5 36 Z " /><path fill="rgb(160,160,160)" stroke="rgb(160,160,160)" stroke-width="0" opacity="1" d="M 296.5 37 L 297 39.5 L 296 39.5 L 296.5 37 Z " /><path fill="rgb(160,160,160)" stroke="rgb(160,160,160)" stroke-width="0" opacity="1" d="M 365.5 37 L 366.5 39 L 365.5 37 Z " /><path fill="rgb(160,160,160)" stroke="rgb(160,160,160)" stroke-width="0" opacity="1" d="M 424.5 37 L 423.5 39 L 424.5 37 Z " /><path fill="rgb(160,160,160)" stroke="rgb(160,160,160)" stroke-width="0" opacity="1" d="M 434.5 37 L 433.5 39 L 434.5 37 Z " /><path fill="rgb(160,160,160)" stroke="rgb(160,160,160)" stroke-width="0" opacity="1" d="M 355.5 38 L 356.5 40 L 355.5 38 Z " /><path fill="rgb(160,160,160)" stroke="rgb(160,160,160)" stroke-width="0" opacity="1" d="M 286.5 39 L 287 41.5 L 286 41.5 L 286.5 39 Z " /><path fill="rgb(160,160,160)" stroke="rgb(160,160,160)" stroke-width="0" opacity="1" d="M 320.5 39 L 321.5 41 L 320.5 39 Z " /><path fill="rgb(160,160,160)" stroke="rgb(160,160,160)" stroke-width="0" opacity="1" d="M 422.5 40 L 421.5 42 L 422.5 40 Z " /><path fill="rgb(160,160,160)" stroke="rgb(160,160,160)" stroke-width="0" opacity="1" d="M 357.5 41 L 358.5 43 L 357.5 41 Z " /><path fill="rgb(160,160,160)" stroke="rgb(160,160,160)" stroke-width="0" opacity="1" d="M 465.5 41 L 466 43.5 L 465 43.5 L 465.5 41 Z " /><path fill="rgb(160,160,160)" stroke="rgb(160,160,160)" stroke-width="0" opacity="1" d="M 322.5 42 L 323.5 44 L 322.5 42 Z " /><path fill="rgb(160,160,160)" stroke="rgb(160,160,160)" stroke-width="0" opacity="1" d="M 331.5 42 L 332.5 44 L 331.5 42 Z " /><path fill="rgb(160,160,160)" stroke="rgb(160,160,160)" stroke-width="0" opacity="1" d="M 454.5 43 L 455 47.5 L 454 47.5 L 454.5 43 Z " /><path fill="rgb(160,160,160)" stroke="rgb(160,160,160)" stroke-width="0" opacity="1" d="M 324.5 45 L 325.5 47 L 324.5 45 Z " /><path fill="rgb(160,160,160)" stroke="rgb(160,160,160)" stroke-width="0" opacity="1" d="M 370.5 45 L 371.5 47 L 370.5 45 Z " /><path fill="rgb(160,160,160)" stroke="rgb(160,160,160)" stroke-width="0" opacity="1" d="M 295.5 46 L 296 50.5 L 295 50.5 L 295.5 46 Z " /><path fill="rgb(160,160,160)" stroke="rgb(160,160,160)" stroke-width="0" opacity="1" d="M 360.5 46 L 361.5 48 L 360.5 46 Z " /><path fill="rgb(160,160,160)" stroke="rgb(160,160,160)" stroke-width="0" opacity="1" d="M 418.5 46 L 417.5 48 L 418.5 46 Z " /><path fill="rgb(160,160,160)" stroke="rgb(160,160,160)" stroke-width="0" opacity="1" d="M 285.5 47 L 286 50.5 L 285 50.5 L 285.5 47 Z " /><path fill="rgb(160,160,160)" stroke="rgb(160,160,160)" stroke-width="0" opacity="1" d="M 334.5 47 L 335.5 49 L 334.5 47 Z " /><path fill="rgb(160,160,160)" stroke="rgb(160,160,160)" stroke-width="0" opacity="1" d="M 326.5 48 L 327.5 50 L 326.5 48 Z " /><path fill="rgb(160,160,160)" stroke="rgb(160,160,160)" stroke-width="0" opacity="1" d="M 466.5 49 L 467 53.5 L 466 53.5 L 466.5 49 Z " /><path fill="rgb(160,160,160)" stroke="rgb(160,160,160)" stroke-width="0" opacity="1" d="M 337.5 52 L 338.5 54 L 337.5 52 Z " /><path fill="rgb(160,160,160)" stroke="rgb(160,160,160)" stroke-width="0" opacity="1" d="M 423.5 53 L 422.5 55 L 423.5 53 Z " /><path fill="rgb(160,160,160)" stroke="rgb(160,160,160)" stroke-width="0" opacity="1" d="M 413.5 54 L 412.5 56 L 413.5 54 Z " /><path fill="rgb(160,160,160)" stroke="rgb(160,160,160)" stroke-width="0" opacity="1" d="M 284.5 55 L 285 58.5 L 284 58.5 L 284.5 55 Z " /><path fill="rgb(160,160,160)" stroke="rgb(160,160,160)" stroke-width="0" opacity="1" d="M 421.5 56 L 420.5 58 L 421.5 56 Z " /><path fill="rgb(160,160,160)" stroke="rgb(160,160,160)" stroke-width="0" opacity="1" d="M 340.5 57 L 341.5 59 L 340.5 57 Z " /><path fill="rgb(160,160,160)" stroke="rgb(160,160,160)" stroke-width="0" opacity="1" d="M 426.5 58 L 424.5 61 L 426.5 58 Z " /><path fill="rgb(160,160,160)" stroke="rgb(160,160,160)" stroke-width="0" opacity="1" d="M 294.5 59 L 295 65.5 L 294 65.5 L 294.5 59 Z " /><path fill="rgb(160,160,160)" stroke="rgb(160,160,160)" stroke-width="0" opacity="1" d="M 326.5 59 L 330 61.5 L 327.5 60 L 326.5 59 Z " /><path fill="rgb(160,160,160)" stroke="rgb(160,160,160)" stroke-width="0" opacity="1" d="M 368.5 59 L 369.5 61 L 368.5 59 Z " /><path fill="rgb(160,160,160)" stroke="rgb(160,160,160)" stroke-width="0" opacity="1" d="M 410.5 59 L 409.5 61 L 410.5 59 Z " /><path fill="rgb(160,160,160)" stroke="rgb(160,160,160)" stroke-width="0" opacity="1" d="M 467.5 59 L 468 63.5 L 467 63.5 L 467.5 59 Z " /><path fill="rgb(160,160,160)" stroke="rgb(160,160,160)" stroke-width="0" opacity="1" d="M 418.5 60 L 417.5 62 L 418.5 60 Z " /><path fill="rgb(160,160,160)" stroke="rgb(160,160,160)" stroke-width="0" opacity="1" d="M 428.5 60 L 429 63.5 L 428 63.5 L 428.5 60 Z " /><path fill="rgb(160,160,160)" stroke="rgb(160,160,160)" stroke-width="0" opacity="1" d="M 455.5 60 L 456 68.5 L 455 68.5 L 455.5 60 Z " /><path fill="rgb(160,160,160)" stroke="rgb(160,160,160)" stroke-width="0" opacity="1" d="M 416.5 63 L 415.5 65 L 416.5 63 Z " /><path fill="rgb(160,160,160)" stroke="rgb(160,160,160)" stroke-width="0" opacity="1" d="M 283.5 64 L 284 67.5 L 283 67.5 L 283.5 64 Z " /><path fill="rgb(160,160,160)" stroke="rgb(160,160,160)" stroke-width="0" opacity="1" d="M 371.5 64 L 372.5 66 L 371.5 64 Z " /><path fill="rgb(160,160,160)" stroke="rgb(160,160,160)" stroke-width="0" opacity="1" d="M 381.5 64 L 382.5 66 L 381.5 64 Z " /><path fill="rgb(160,160,160)" stroke="rgb(160,160,160)" stroke-width="0" opacity="1" d="M 407.5 64 L 406.5 66 L 407.5 64 Z " /><path fill="rgb(160,160,160)" stroke="rgb(160,160,160)" stroke-width="0" opacity="1" d="M 324.5 65 L 325 71.5 L 324 71.5 L 324.5 65 Z " /><path fill="rgb(160,160,160)" stroke="rgb(160,160,160)" stroke-width="0" opacity="1" d="M 414.5 66 L 413.5 68 L 414.5 66 Z " /><path fill="rgb(160,160,160)" stroke="rgb(160,160,160)" stroke-width="0" opacity="1" d="M 346.5 68 L 347.5 70 L 346.5 68 Z " /><path fill="rgb(160,160,160)" stroke="rgb(160,160,160)" stroke-width="0" opacity="1" d="M 374.5 69 L 375.5 71 L 374.5 69 Z " /><path fill="rgb(160,160,160)" stroke="rgb(160,160,160)" stroke-width="0" opacity="1" d="M 412.5 69 L 411.5 71 L 412.5 69 Z " /><path fill="rgb(160,160,160)" stroke="rgb(160,160,160)" stroke-width="0" opacity="1" d="M 468.5 69 L 469 72.5 L 468 72.5 L 468.5 69 Z " /><path fill="rgb(160,160,160)" stroke="rgb(160,160,160)" stroke-width="0" opacity="1" d="M 339.5 71 L 341 73.5 L 340 73.5 L 339.5 71 Z " /><path fill="rgb(160,160,160)" stroke="rgb(160,160,160)" stroke-width="0" opacity="1" d="M 429.5 71 L 430 76.5 L 429 76.5 L 429.5 71 Z " /><path fill="rgb(160,160,160)" stroke="rgb(160,160,160)" stroke-width="0" opacity="1" d="M 282.5 72 L 283 75.5 L 282 75.5 L 282.5 72 Z " /><path fill="rgb(160,160,160)" stroke="rgb(160,160,160)" stroke-width="0" opacity="1" d="M 410.5 72 L 409.5 74 L 410.5 72 Z " /><path fill="rgb(160,160,160)" stroke="rgb(160,160,160)" stroke-width="0" opacity="1" d="M 421.5 72 L 422 75.5 L 421 75.5 L 421.5 72 Z " /><path fill="rgb(160,160,160)" stroke="rgb(160,160,160)" stroke-width="0" opacity="1" d="M 386.5 73 L 387.5 75 L 386.5 73 Z " /><path fill="rgb(160,160,160)" stroke="rgb(160,160,160)" stroke-width="0" opacity="1" d="M 293.5 75 L 294 81.5 L 293 81.5 L 293.5 75 Z " /><path fill="rgb(160,160,160)" stroke="rgb(160,160,160)" stroke-width="0" opacity="1" d="M 399.5 77 L 398.5 79 L 399.5 77 Z " /><path fill="rgb(160,160,160)" stroke="rgb(160,160,160)" stroke-width="0" opacity="1" d="M 469.5 79 L 470 83.5 L 469 83.5 L 469.5 79 Z " /><path fill="rgb(160,160,160)" stroke="rgb(160,160,160)" stroke-width="0" opacity="1" d="M 323.5 80 L 324 85.5 L 323 85.5 L 323.5 80 Z " /><path fill="rgb(160,160,160)" stroke="rgb(160,160,160)" stroke-width="0" opacity="1" d="M 397.5 80 L 398 82.5 L 397 82.5 L 397.5 80 Z " /><path fill="rgb(160,160,160)" stroke="rgb(160,160,160)" stroke-width="0" opacity="1" d="M 456.5 80 L 457 91.5 L 456 91.5 L 456.5 80 Z " /><path fill="rgb(160,160,160)" stroke="rgb(160,160,160)" stroke-width="0" opacity="1" d="M 281.5 81 L 282 84.5 L 281 84.5 L 281.5 81 Z " /><path fill="rgb(160,160,160)" stroke="rgb(160,160,160)" stroke-width="0" opacity="1" d="M 381.5 81 L 382.5 83 L 381.5 81 Z " /><path fill="rgb(160,160,160)" stroke="rgb(160,160,160)" stroke-width="0" opacity="1" d="M 404.5 81 L 403.5 83 L 404.5 81 Z " /><path fill="rgb(160,160,160)" stroke="rgb(160,160,160)" stroke-width="0" opacity="1" d="M 422.5 81 L 423 85.5 L 422 85.5 L 422.5 81 Z " /><path fill="rgb(160,160,160)" stroke="rgb(160,160,160)" stroke-width="0" opacity="1" d="M 430.5 84 L 431 87.5 L 430 87.5 L 430.5 84 Z " /><path fill="rgb(160,160,160)" stroke="rgb(160,160,160)" stroke-width="0" opacity="1" d="M 385.5 88 L 386.5 90 L 385.5 88 Z " /><path fill="rgb(160,160,160)" stroke="rgb(160,160,160)" stroke-width="0" opacity="1" d="M 280.5 89 L 281 92.5 L 280 92.5 L 280.5 89 Z " /><path fill="rgb(160,160,160)" stroke="rgb(160,160,160)" stroke-width="0" opacity="1" d="M 470.5 89 L 471 92.5 L 470 92.5 L 470.5 89 Z " /><path fill="rgb(160,160,160)" stroke="rgb(160,160,160)" stroke-width="0" opacity="1" d="M 423.5 92 L 424 96.5 L 423 96.5 L 423.5 92 Z " /><path fill="rgb(160,160,160)" stroke="rgb(160,160,160)" stroke-width="0" opacity="1" d="M 292.5 93 L 293 101.5 L 292 101.5 L 292.5 93 Z " /><path fill="rgb(160,160,160)" stroke="rgb(160,160,160)" stroke-width="0" opacity="1" d="M 322.5 95 L 323 99.5 L 322 99.5 L 322.5 95 Z " /><path fill="rgb(160,160,160)" stroke="rgb(160,160,160)" stroke-width="0" opacity="1" d="M 431.5 95 L 432 101.5 L 431 101.5 L 431.5 95 Z " /><path fill="rgb(160,160,160)" stroke="rgb(160,160,160)" stroke-width="0" opacity="1" d="M 331.5 96 L 332 107.5 L 331 107.5 L 331.5 96 Z " /><path fill="rgb(160,160,160)" stroke="rgb(160,160,160)" stroke-width="0" opacity="1" d="M 279.5 98 L 280 101.5 L 279 101.5 L 279.5 98 Z " /><path fill="rgb(160,160,160)" stroke="rgb(160,160,160)" stroke-width="0" opacity="1" d="M 471.5 98 L 472 102.5 L 471 102.5 L 471.5 98 Z " /><path fill="rgb(160,160,160)" stroke="rgb(160,160,160)" stroke-width="0" opacity="1" d="M 400.5 99 L 403 102.5 L 401 101.5 L 400.5 99 Z " /><path fill="rgb(160,160,160)" stroke="rgb(160,160,160)" stroke-width="0" opacity="1" d="M 383.5 102 L 382.5 104 L 383.5 102 Z " /><path fill="rgb(160,160,160)" stroke="rgb(160,160,160)" stroke-width="0" opacity="1" d="M 424.5 104 L 425 111.5 L 424 111.5 L 424.5 104 Z " /><path fill="rgb(160,160,160)" stroke="rgb(160,160,160)" stroke-width="0" opacity="1" d="M 457.5 104 L 458 110.5 L 457 110.5 L 457.5 104 Z " /><path fill="rgb(160,160,160)" stroke="rgb(160,160,160)" stroke-width="0" opacity="1" d="M 278.5 107 L 279 110.5 L 278 110.5 L 278.5 107 Z " /><path fill="rgb(160,160,160)" stroke="rgb(160,160,160)" stroke-width="0" opacity="1" d="M 472.5 108 L 473 112.5 L 472 112.5 L 472.5 108 Z " /><path fill="rgb(160,160,160)" stroke="rgb(160,160,160)" stroke-width="0" opacity="1" d="M 321.5 109 L 322 115.5 L 321 115.5 L 321.5 109 Z " /><path fill="rgb(160,160,160)" stroke="rgb(160,160,160)" stroke-width="0" opacity="1" d="M 291.5 112 L 292 119.5 L 291 119.5 L 291.5 112 Z " /><path fill="rgb(160,160,160)" stroke="rgb(160,160,160)" stroke-width="0" opacity="1" d="M 377.5 112 L 376.5 114 L 377.5 112 Z " /><path fill="rgb(160,160,160)" stroke="rgb(160,160,160)" stroke-width="0" opacity="1" d="M 407.5 112 L 408.5 114 L 407.5 112 Z " /><path fill="rgb(160,160,160)" stroke="rgb(160,160,160)" stroke-width="0" opacity="1" d="M 432.5 112 L 433 117.5 L 432 117.5 L 432.5 112 Z " /><path fill="rgb(160,160,160)" stroke="rgb(160,160,160)" stroke-width="0" opacity="1" d="M 399.5 114 L 400.5 116 L 399.5 114 Z " /><path fill="rgb(160,160,160)" stroke="rgb(160,160,160)" stroke-width="0" opacity="1" d="M 277.5 116 L 278 118.5 L 277 118.5 L 277.5 116 Z " /><path fill="rgb(160,160,160)" stroke="rgb(160,160,160)" stroke-width="0" opacity="1" d="M 370.5 118 L 372.5 119 L 374 118.5 L 371.5 120 L 370.5 118 Z " /><path fill="rgb(160,160,160)" stroke="rgb(160,160,160)" stroke-width="0" opacity="1" d="M 473.5 120 L 474 123.5 L 473 123.5 L 473.5 120 Z " /><path fill="rgb(160,160,160)" stroke="rgb(160,160,160)" stroke-width="0" opacity="1" d="M 413.5 122 L 414.5 124 L 413.5 122 Z " /><path fill="rgb(160,160,160)" stroke="rgb(160,160,160)" stroke-width="0" opacity="1" d="M 276.5 124 L 277 127.5 L 276 127.5 L 276.5 124 Z " /><path fill="rgb(160,160,160)" stroke="rgb(160,160,160)" stroke-width="0" opacity="1" d="M 320.5 124 L 321 129.5 L 320 129.5 L 320.5 124 Z " /><path fill="rgb(160,160,160)" stroke="rgb(160,160,160)" stroke-width="0" opacity="1" d="M 405.5 125 L 406.5 127 L 405.5 125 Z " /><path fill="rgb(160,160,160)" stroke="rgb(160,160,160)" stroke-width="0" opacity="1" d="M 415.5 125 L 416.5 127 L 415.5 125 Z " /><path fill="rgb(160,160,160)" stroke="rgb(160,160,160)" stroke-width="0" opacity="1" d="M 433.5 128 L 434 139.5 L 433 139.5 L 433.5 128 Z " /><path fill="rgb(160,160,160)" stroke="rgb(160,160,160)" stroke-width="0" opacity="1" d="M 458.5 129 L 459 137.5 L 458 137.5 L 458.5 129 Z " /><path fill="rgb(160,160,160)" stroke="rgb(160,160,160)" stroke-width="0" opacity="1" d="M 474.5 129 L 475 134.5 L 474 134.5 L 474.5 129 Z " /><path fill="rgb(160,160,160)" stroke="rgb(160,160,160)" stroke-width="0" opacity="1" d="M 290.5 130 L 291 138.5 L 290 138.5 L 290.5 130 Z " /><path fill="rgb(160,160,160)" stroke="rgb(160,160,160)" stroke-width="0" opacity="1" d="M 421.5 131 L 424 131.5 L 421.5 132 L 421.5 131 Z " /><path fill="rgb(160,160,160)" stroke="rgb(160,160,160)" stroke-width="0" opacity="1" d="M 275.5 133 L 276 135.5 L 275 135.5 L 275.5 133 Z " /><path fill="rgb(160,160,160)" stroke="rgb(160,160,160)" stroke-width="0" opacity="1" d="M 319.5 138 L 320 143.5 L 319 143.5 L 319.5 138 Z " /><path fill="rgb(160,160,160)" stroke="rgb(160,160,160)" stroke-width="0" opacity="1" d="M 475.5 140 L 476 145.5 L 475 145.5 L 475.5 140 Z " /><path fill="rgb(160,160,160)" stroke="rgb(160,160,160)" stroke-width="0" opacity="1" d="M 274.5 142 L 275 145.5 L 274 145.5 L 274.5 142 Z " /><path fill="rgb(160,160,160)" stroke="rgb(160,160,160)" stroke-width="0" opacity="1" d="M 376.5 142 L 374.5 145 L 373 144.5 L 376.5 142 Z " /><path fill="rgb(160,160,160)" stroke="rgb(160,160,160)" stroke-width="0" opacity="1" d="M 433.5 148 L 434 153.5 L 433 153.5 L 433.5 148 Z " /><path fill="rgb(160,160,160)" stroke="rgb(160,160,160)" stroke-width="0" opacity="1" d="M 289.5 149 L 290 154.5 L 289 154.5 L 289.5 149 Z " /><path fill="rgb(160,160,160)" stroke="rgb(160,160,160)" stroke-width="0" opacity="1" d="M 273.5 151 L 274 156.5 L 273 156.5 L 273.5 151 Z " /><path fill="rgb(160,160,160)" stroke="rgb(160,160,160)" stroke-width="0" opacity="1" d="M 476.5 152 L 477 158.5 L 476 158.5 L 476.5 152 Z " /><path fill="rgb(160,160,160)" stroke="rgb(160,160,160)" stroke-width="0" opacity="1" d="M 330.5 155 L 329.5 157 L 330.5 155 Z " /><path fill="rgb(160,160,160)" stroke="rgb(160,160,160)" stroke-width="0" opacity="1" d="M 459.5 155 L 461 157.5 L 459 156.5 L 459.5 155 Z " /><path fill="rgb(160,160,160)" stroke="rgb(160,160,160)" stroke-width="0" opacity="1" d="M 288.5 156 L 286.5 159 L 283.5 160 L 283.5 159 L 288.5 156 Z " /><path fill="rgb(160,160,160)" stroke="rgb(160,160,160)" stroke-width="0" opacity="1" d="M 322.5 157 L 328 157.5 L 322.5 158 L 322.5 157 Z " /><path fill="rgb(160,160,160)" stroke="rgb(160,160,160)" stroke-width="0" opacity="1" d="M 425.5 157 L 428 158.5 L 426.5 159 L 425.5 157 Z " /><path fill="rgb(160,160,160)" stroke="rgb(160,160,160)" stroke-width="0" opacity="1" d="M 277.5 160 L 281 160.5 L 277.5 161 L 277.5 160 Z " /><path fill="rgb(160,160,160)" stroke="rgb(160,160,160)" stroke-width="0" opacity="1" d="M 468.5 162 L 474 162.5 L 468.5 163 L 468.5 162 Z " /><path fill="rgb(160,160,160)" stroke="rgb(160,160,160)" stroke-width="0" opacity="1" d="M 514.5 227 L 526 227.5 L 514.5 228 L 514.5 227 Z " /><path fill="rgb(160,160,160)" stroke="rgb(160,160,160)" stroke-width="0" opacity="1" d="M 642.5 227 L 643 229.5 L 642 229.5 L 642.5 227 Z " /><path fill="rgb(160,160,160)" stroke="rgb(160,160,160)" stroke-width="0" opacity="1" d="M 6.5 228 L 12 228.5 L 6.5 229 L 6.5 228 Z " /><path fill="rgb(160,160,160)" stroke="rgb(160,160,160)" stroke-width="0" opacity="1" d="M 77.5 228 L 83 228.5 L 77.5 229 L 77.5 228 Z " /><path fill="rgb(160,160,160)" stroke="rgb(160,160,160)" stroke-width="0" opacity="1" d="M 105.5 228 L 107 228.5 L 104.5 230 L 105.5 228 Z " /><path fill="rgb(160,160,160)" stroke="rgb(160,160,160)" stroke-width="0" opacity="1" d="M 127.5 228 Q 134.3 226.3 136 229.5 L 134.5 229 L 127.5 229 L 127.5 228 Z " /><path fill="rgb(160,160,160)" stroke="rgb(160,160,160)" stroke-width="0" opacity="1" d="M 159.5 228 L 165 228.5 L 159 229 L 158.5 232 L 158 229.5 L 159.5 228 Z " /><path fill="rgb(160,160,160)" stroke="rgb(160,160,160)" stroke-width="0" opacity="1" d="M 183.5 228 Q 188.8 226.8 190 229.5 L 189.5 233 L 189 229 L 183.5 229 L 183.5 228 Z " /><path fill="rgb(160,160,160)" stroke="rgb(160,160,160)" stroke-width="0" opacity="1" d="M 228.5 228 L 236 228.5 L 228.5 229 L 228.5 228 Z " /><path fill="rgb(160,160,160)" stroke="rgb(160,160,160)" stroke-width="0" opacity="1" d="M 253.5 228 Q 258 227 259 229.5 L 258.5 233 L 258 229 L 253.5 229 L 253.5 228 Z " /><path fill="rgb(160,160,160)" stroke="rgb(160,160,160)" stroke-width="0" opacity="1" d="M 297.5 228 L 299 228.5 L 297 229 L 296.5 231 L 296 229.5 L 297.5 228 Z " /><path fill="rgb(160,160,160)" stroke="rgb(160,160,160)" stroke-width="0" opacity="1" d="M 404.5 228 L 412 228.5 L 404 229 L 403.5 231 L 403 229.5 L 404.5 228 Z " /><path fill="rgb(160,160,160)" stroke="rgb(160,160,160)" stroke-width="0" opacity="1" d="M 450.5 228 L 450 229.5 L 449.5 232 L 449 229.5 L 450.5 228 Z " /><path fill="rgb(160,160,160)" stroke="rgb(160,160,160)" stroke-width="0" opacity="1" d="M 453.5 228 L 456 228.5 L 453.5 229 L 453.5 228 Z " /><path fill="rgb(160,160,160)" stroke="rgb(160,160,160)" stroke-width="0" opacity="1" d="M 476.5 228 L 477.5 230 L 476.5 228 Z " /><path fill="rgb(160,160,160)" stroke="rgb(160,160,160)" stroke-width="0" opacity="1" d="M 719.5 228 L 723 228.5 L 719.5 229 L 719.5 228 Z " /><path fill="rgb(160,160,160)" stroke="rgb(160,160,160)" stroke-width="0" opacity="1" d="M 425.5 230 L 426.5 232 L 425.5 230 Z " /><path fill="rgb(160,160,160)" stroke="rgb(160,160,160)" stroke-width="0" opacity="1" d="M 700.5 230 L 701 233.5 L 700 233.5 L 700.5 230 Z " /><path fill="rgb(160,160,160)" stroke="rgb(160,160,160)" stroke-width="0" opacity="1" d="M 502.5 231 L 501.5 233 L 502.5 231 Z " /><path fill="rgb(160,160,160)" stroke="rgb(160,160,160)" stroke-width="0" opacity="1" d="M 514.5 232 L 517 232.5 L 514.5 233 L 514.5 232 Z " /><path fill="rgb(160,160,160)" stroke="rgb(160,160,160)" stroke-width="0" opacity="1" d="M 538.5 232 L 539.5 234 L 538.5 232 Z " /><path fill="rgb(160,160,160)" stroke="rgb(160,160,160)" stroke-width="0" opacity="1" d="M 80.5 233 L 83 233.5 L 80.5 234 L 80.5 233 Z " /><path fill="rgb(160,160,160)" stroke="rgb(160,160,160)" stroke-width="0" opacity="1" d="M 105.5 233 L 109 233.5 L 105.5 234 L 105.5 233 Z " /><path fill="rgb(160,160,160)" stroke="rgb(160,160,160)" stroke-width="0" opacity="1" d="M 162.5 233 L 165 233.5 L 162.5 234 L 162.5 233 Z " /><path fill="rgb(160,160,160)" stroke="rgb(160,160,160)" stroke-width="0" opacity="1" d="M 185.5 233 L 188 233.5 L 185.5 234 L 185.5 233 Z " /><path fill="rgb(160,160,160)" stroke="rgb(160,160,160)" stroke-width="0" opacity="1" d="M 231.5 233 L 234 233.5 L 231.5 234 L 231.5 233 Z " /><path fill="rgb(160,160,160)" stroke="rgb(160,160,160)" stroke-width="0" opacity="1" d="M 254.5 233 L 257 233.5 L 254.5 234 L 254.5 233 Z " /><path fill="rgb(160,160,160)" stroke="rgb(160,160,160)" stroke-width="0" opacity="1" d="M 301.5 233 L 304 233.5 L 301.5 234 L 301.5 233 Z " /><path fill="rgb(160,160,160)" stroke="rgb(160,160,160)" stroke-width="0" opacity="1" d="M 451.5 233 L 454 233.5 L 451.5 234 L 451.5 233 Z " /><path fill="rgb(160,160,160)" stroke="rgb(160,160,160)" stroke-width="0" opacity="1" d="M 499.5 233 L 498.5 235 L 499.5 233 Z " /><path fill="rgb(160,160,160)" stroke="rgb(160,160,160)" stroke-width="0" opacity="1" d="M 718.5 233 L 722 233.5 L 718.5 234 L 718.5 233 Z " /><path fill="rgb(160,160,160)" stroke="rgb(160,160,160)" stroke-width="0" opacity="1" d="M 12.5 234 L 13.5 236 L 12.5 234 Z " /><path fill="rgb(160,160,160)" stroke="rgb(160,160,160)" stroke-width="0" opacity="1" d="M 76.5 234 L 78 234.5 L 75.5 236 L 76.5 234 Z " /><path fill="rgb(160,160,160)" stroke="rgb(160,160,160)" stroke-width="0" opacity="1" d="M 112.5 234 Q 115.8 234.8 115 239.5 L 114 239.5 Q 114.5 234.8 112.5 234 Z " /><path fill="rgb(160,160,160)" stroke="rgb(160,160,160)" stroke-width="0" opacity="1" d="M 167.5 234 L 168.5 236 L 167.5 234 Z " /><path fill="rgb(160,160,160)" stroke="rgb(160,160,160)" stroke-width="0" opacity="1" d="M 181.5 234 L 180.5 236 L 181.5 234 Z " /><path fill="rgb(160,160,160)" stroke="rgb(160,160,160)" stroke-width="0" opacity="1" d="M 236.5 234 L 237.5 236 L 236.5 234 Z " /><path fill="rgb(160,160,160)" stroke="rgb(160,160,160)" stroke-width="0" opacity="1" d="M 250.5 234 L 249.5 236 L 250.5 234 Z " /><path fill="rgb(160,160,160)" stroke="rgb(160,160,160)" stroke-width="0" opacity="1" d="M 305.5 234 L 306.5 236 L 305.5 234 Z " /><path fill="rgb(160,160,160)" stroke="rgb(160,160,160)" stroke-width="0" opacity="1" d="M 428.5 234 L 430.5 237 L 428.5 234 Z " /><path fill="rgb(160,160,160)" stroke="rgb(160,160,160)" stroke-width="0" opacity="1" d="M 565.5 234 L 566 237.5 L 565 237.5 L 565.5 234 Z " /><path fill="rgb(160,160,160)" stroke="rgb(160,160,160)" stroke-width="0" opacity="1" d="M 575.5 234 L 578 234.5 L 575.5 235 L 575.5 234 Z " /><path fill="rgb(160,160,160)" stroke="rgb(160,160,160)" stroke-width="0" opacity="1" d="M 579.5 234 L 588 234.5 L 579.5 235 L 579.5 234 Z " /><path fill="rgb(160,160,160)" stroke="rgb(160,160,160)" stroke-width="0" opacity="1" d="M 600.5 234 L 608 234.5 L 600.5 235 L 600.5 234 Z " /><path fill="rgb(160,160,160)" stroke="rgb(160,160,160)" stroke-width="0" opacity="1" d="M 611.5 234 L 614 234.5 L 611.5 235 L 611.5 234 Z " /><path fill="rgb(160,160,160)" stroke="rgb(160,160,160)" stroke-width="0" opacity="1" d="M 655.5 234 L 664.5 234 L 665 234.5 L 665 274.5 L 664 274.5 L 664 235.5 L 663.5 235 L 655.5 235 L 655.5 234 Z " /><path fill="rgb(160,160,160)" stroke="rgb(160,160,160)" stroke-width="0" opacity="1" d="M 679.5 234 L 690 234.5 L 679.5 235 L 679.5 234 Z " /><path fill="rgb(160,160,160)" stroke="rgb(160,160,160)" stroke-width="0" opacity="1" d="M 459.5 235 L 460.5 237 L 459.5 235 Z " /><path fill="rgb(160,160,160)" stroke="rgb(160,160,160)" stroke-width="0" opacity="1" d="M 650.5 235 L 649.5 237 L 650.5 235 Z " /><path fill="rgb(160,160,160)" stroke="rgb(160,160,160)" stroke-width="0" opacity="1" d="M 126.5 236 L 127 238.5 L 126 238.5 L 126.5 236 Z " /><path fill="rgb(160,160,160)" stroke="rgb(160,160,160)" stroke-width="0" opacity="1" d="M 317.5 236 L 318 257 L 332 257.5 L 318.5 258 L 317 256.5 L 317.5 236 Z " /><path fill="rgb(160,160,160)" stroke="rgb(160,160,160)" stroke-width="0" opacity="1" d="M 573.5 236 L 572.5 238 L 573.5 236 Z " /><path fill="rgb(160,160,160)" stroke="rgb(160,160,160)" stroke-width="0" opacity="1" d="M 641.5 236 L 642 240.5 L 641 240.5 L 641.5 236 Z " /><path fill="rgb(160,160,160)" stroke="rgb(160,160,160)" stroke-width="0" opacity="1" d="M 74.5 237 L 75 243.5 L 74 243.5 L 74.5 237 Z " /><path fill="rgb(160,160,160)" stroke="rgb(160,160,160)" stroke-width="0" opacity="1" d="M 344.5 237 L 345 243.5 L 344 243.5 L 344.5 237 Z " /><path fill="rgb(160,160,160)" stroke="rgb(160,160,160)" stroke-width="0" opacity="1" d="M 623.5 237 L 624 242.5 L 623 242.5 L 623.5 237 Z " /><path fill="rgb(160,160,160)" stroke="rgb(160,160,160)" stroke-width="0" opacity="1" d="M 739.5 237 L 740 241.5 L 739 241.5 L 739.5 237 Z " /><path fill="rgb(160,160,160)" stroke="rgb(160,160,160)" stroke-width="0" opacity="1" d="M 238.5 238 L 239 274.5 L 238 274.5 L 238.5 238 Z " /><path fill="rgb(160,160,160)" stroke="rgb(160,160,160)" stroke-width="0" opacity="1" d="M 432.5 239 L 433.5 241 L 432.5 239 Z " /><path fill="rgb(160,160,160)" stroke="rgb(160,160,160)" stroke-width="0" opacity="1" d="M 504.5 239 L 503.5 241 L 504.5 239 Z " /><path fill="rgb(160,160,160)" stroke="rgb(160,160,160)" stroke-width="0" opacity="1" d="M 545.5 239 L 546.5 241 L 545.5 239 Z " /><path fill="rgb(160,160,160)" stroke="rgb(160,160,160)" stroke-width="0" opacity="1" d="M 699.5 239 L 700 243.5 L 699 243.5 L 699.5 239 Z " /><path fill="rgb(160,160,160)" stroke="rgb(160,160,160)" stroke-width="0" opacity="1" d="M 492.5 240 L 491.5 242 L 492.5 240 Z " /><path fill="rgb(160,160,160)" stroke="rgb(160,160,160)" stroke-width="0" opacity="1" d="M 533.5 240 L 534.5 242 L 533.5 240 Z " /><path fill="rgb(160,160,160)" stroke="rgb(160,160,160)" stroke-width="0" opacity="1" d="M 13.5 241 L 14 246.5 L 13 246.5 L 13.5 241 Z " /><path fill="rgb(160,160,160)" stroke="rgb(160,160,160)" stroke-width="0" opacity="1" d="M 339.5 241 L 340 243.5 L 339 243.5 L 339.5 241 Z " /><path fill="rgb(160,160,160)" stroke="rgb(160,160,160)" stroke-width="0" opacity="1" d="M 461.5 241 L 462 250.5 L 461 250.5 L 461.5 241 Z " /><path fill="rgb(160,160,160)" stroke="rgb(160,160,160)" stroke-width="0" opacity="1" d="M 63.5 242 L 64 249.5 L 63 249.5 Q 64.3 244.7 62 243.5 L 63.5 242 Z " /><path fill="rgb(160,160,160)" stroke="rgb(160,160,160)" stroke-width="0" opacity="1" d="M 18 243 L 20 243.5 L 18.5 252 L 18 243 Z " /><path fill="rgb(160,160,160)" stroke="rgb(160,160,160)" stroke-width="0" opacity="1" d="M 421 243 L 423 243.5 L 422 244.5 L 421.5 264 L 421 243 Z " /><path fill="rgb(160,160,160)" stroke="rgb(160,160,160)" stroke-width="0" opacity="1" d="M 564.5 243 L 565 245.5 L 564 245.5 L 564.5 243 Z " /><path fill="rgb(160,160,160)" stroke="rgb(160,160,160)" stroke-width="0" opacity="1" d="M 436.5 244 L 437.5 246 L 436.5 244 Z " /><path fill="rgb(160,160,160)" stroke="rgb(160,160,160)" stroke-width="0" opacity="1" d="M 640.5 244 L 641 247 L 644 247.5 L 641.5 248 Q 639 247 640.5 244 Z " /><path fill="rgb(160,160,160)" stroke="rgb(160,160,160)" stroke-width="0" opacity="1" d="M 340.5 245 L 343 245.5 L 340.5 246 L 340.5 245 Z " /><path fill="rgb(160,160,160)" stroke="rgb(160,160,160)" stroke-width="0" opacity="1" d="M 694.5 245 L 695 247 L 699 247.5 L 695.5 248 L 694.5 245 Z " /><path fill="rgb(160,160,160)" stroke="rgb(160,160,160)" stroke-width="0" opacity="1" d="M 424.5 246 L 425.5 248 L 424.5 246 Z " /><path fill="rgb(160,160,160)" stroke="rgb(160,160,160)" stroke-width="0" opacity="1" d="M 618.5 247 L 623 247.5 L 618.5 248 L 618.5 247 Z " /><path fill="rgb(160,160,160)" stroke="rgb(160,160,160)" stroke-width="0" opacity="1" d="M 439.5 248 L 441.5 251 L 439.5 248 Z " /><path fill="rgb(160,160,160)" stroke="rgb(160,160,160)" stroke-width="0" opacity="1" d="M 500.5 248 L 501 250.5 L 500 250.5 L 500.5 248 Z " /><path fill="rgb(160,160,160)" stroke="rgb(160,160,160)" stroke-width="0" opacity="1" d="M 340.5 250 L 341 255.5 L 340 255.5 L 340.5 250 Z " /><path fill="rgb(160,160,160)" stroke="rgb(160,160,160)" stroke-width="0" opacity="1" d="M 427.5 250 L 429.5 253 L 427.5 250 Z " /><path fill="rgb(160,160,160)" stroke="rgb(160,160,160)" stroke-width="0" opacity="1" d="M 443.5 253 L 445.5 256 L 443.5 253 Z " /><path fill="rgb(160,160,160)" stroke="rgb(160,160,160)" stroke-width="0" opacity="1" d="M 551.5 254 L 552 263.5 L 551 263.5 L 551.5 254 Z " /><path fill="rgb(160,160,160)" stroke="rgb(160,160,160)" stroke-width="0" opacity="1" d="M 12.5 255 L 13 258.5 L 12 258.5 L 12.5 255 Z " /><path fill="rgb(160,160,160)" stroke="rgb(160,160,160)" stroke-width="0" opacity="1" d="M 431.5 255 L 432.5 257 L 431.5 255 Z " /><path fill="rgb(160,160,160)" stroke="rgb(160,160,160)" stroke-width="0" opacity="1" d="M 467.5 255 L 468 263.5 L 467 263.5 L 467.5 255 Z " /><path fill="rgb(160,160,160)" stroke="rgb(160,160,160)" stroke-width="0" opacity="1" d="M 539.5 256 L 540 266.5 L 539 266.5 L 539.5 256 Z " /><path fill="rgb(160,160,160)" stroke="rgb(160,160,160)" stroke-width="0" opacity="1" d="M 415.5 257 L 416 274.5 L 415 274.5 L 415.5 257 Z " /><path fill="rgb(160,160,160)" stroke="rgb(160,160,160)" stroke-width="0" opacity="1" d="M 447.5 258 L 449.5 261 L 447.5 258 Z " /><path fill="rgb(160,160,160)" stroke="rgb(160,160,160)" stroke-width="0" opacity="1" d="M 434.5 259 L 435.5 261 L 434.5 259 Z " /><path fill="rgb(160,160,160)" stroke="rgb(160,160,160)" stroke-width="0" opacity="1" d="M 318.5 262 L 329 262.5 L 318.5 263 L 318.5 262 Z " /><path fill="rgb(160,160,160)" stroke="rgb(160,160,160)" stroke-width="0" opacity="1" d="M 500.5 262 L 501 264.5 L 500 264.5 L 500.5 262 Z " /><path fill="rgb(160,160,160)" stroke="rgb(160,160,160)" stroke-width="0" opacity="1" d="M 437.5 263 L 439.5 266 L 437.5 263 Z " /><path fill="rgb(160,160,160)" stroke="rgb(160,160,160)" stroke-width="0" opacity="1" d="M 11.5 264 L 12 268.5 L 11 268.5 L 11.5 264 Z " /><path fill="rgb(160,160,160)" stroke="rgb(160,160,160)" stroke-width="0" opacity="1" d="M 452.5 264 L 454.5 267 L 452.5 264 Z " /><path fill="rgb(160,160,160)" stroke="rgb(160,160,160)" stroke-width="0" opacity="1" d="M 17.5 265 L 18 273.5 L 17 273.5 L 17.5 265 Z " /><path fill="rgb(160,160,160)" stroke="rgb(160,160,160)" stroke-width="0" opacity="1" d="M 487.5 266 L 488 268.5 L 487 268.5 L 487.5 266 Z " /><path fill="rgb(160,160,160)" stroke="rgb(160,160,160)" stroke-width="0" opacity="1" d="M 335.5 267 L 336 269.5 L 335 269.5 L 335.5 267 Z " /><path fill="rgb(160,160,160)" stroke="rgb(160,160,160)" stroke-width="0" opacity="1" d="M 440.5 267 L 442.5 270 L 440.5 267 Z " /><path fill="rgb(160,160,160)" stroke="rgb(160,160,160)" stroke-width="0" opacity="1" d="M 467.5 267 L 468 288.5 L 467 288.5 L 467.5 267 Z " /><path fill="rgb(160,160,160)" stroke="rgb(160,160,160)" stroke-width="0" opacity="1" d="M 42.5 269 L 45 270.5 L 43.5 271 L 42.5 269 Z " /><path fill="rgb(160,160,160)" stroke="rgb(160,160,160)" stroke-width="0" opacity="1" d="M 210.5 269 L 212 269.5 L 209.5 271 L 210.5 269 Z " /><path fill="rgb(160,160,160)" stroke="rgb(160,160,160)" stroke-width="0" opacity="1" d="M 249.5 269 L 250 276.5 L 249 276.5 L 249.5 269 Z " /><path fill="rgb(160,160,160)" stroke="rgb(160,160,160)" stroke-width="0" opacity="1" d="M 279.5 269 L 281 269.5 L 278.5 271 L 279.5 269 Z " /><path fill="rgb(160,160,160)" stroke="rgb(160,160,160)" stroke-width="0" opacity="1" d="M 456.5 269 L 458.5 272 L 456.5 269 Z " /><path fill="rgb(160,160,160)" stroke="rgb(160,160,160)" stroke-width="0" opacity="1" d="M 348.5 272 L 350 272.5 L 347.5 274 L 348.5 272 Z " /><path fill="rgb(160,160,160)" stroke="rgb(160,160,160)" stroke-width="0" opacity="1" d="M 444.5 272 L 445.5 274 L 444.5 272 Z " /><path fill="rgb(160,160,160)" stroke="rgb(160,160,160)" stroke-width="0" opacity="1" d="M 489.5 273 L 492 277.5 L 490 276.5 L 489.5 273 Z " /><path fill="rgb(160,160,160)" stroke="rgb(160,160,160)" stroke-width="0" opacity="1" d="M 503.5 273 L 505 275.5 L 503 274.5 L 503.5 273 Z " /><path fill="rgb(160,160,160)" stroke="rgb(160,160,160)" stroke-width="0" opacity="1" d="M 10.5 274 L 11 276.5 L 10 276.5 L 10.5 274 Z " /><path fill="rgb(160,160,160)" stroke="rgb(160,160,160)" stroke-width="0" opacity="1" d="M 206.5 276 L 206 277.5 L 204.5 280 L 205 278.5 L 206.5 276 Z " /><path fill="rgb(160,160,160)" stroke="rgb(160,160,160)" stroke-width="0" opacity="1" d="M 447.5 276 L 448.5 278 L 447.5 276 Z " /><path fill="rgb(160,160,160)" stroke="rgb(160,160,160)" stroke-width="0" opacity="1" d="M 505.5 277 L 506.5 279 L 505.5 277 Z " /><path fill="rgb(160,160,160)" stroke="rgb(160,160,160)" stroke-width="0" opacity="1" d="M 75.5 278 L 76 281.5 L 75 281.5 L 75.5 278 Z " /><path fill="rgb(160,160,160)" stroke="rgb(160,160,160)" stroke-width="0" opacity="1" d="M 249.5 278 L 250 281.5 L 249 281.5 L 249.5 278 Z " /><path fill="rgb(160,160,160)" stroke="rgb(160,160,160)" stroke-width="0" opacity="1" d="M 676.5 278 L 677 281.5 L 676 281.5 L 676.5 278 Z " /><path fill="rgb(160,160,160)" stroke="rgb(160,160,160)" stroke-width="0" opacity="1" d="M 535.5 279 L 534.5 281 L 535.5 279 Z " /><path fill="rgb(160,160,160)" stroke="rgb(160,160,160)" stroke-width="0" opacity="1" d="M 600.5 279 L 601 282.5 L 600 282.5 L 600.5 279 Z " /><path fill="rgb(160,160,160)" stroke="rgb(160,160,160)" stroke-width="0" opacity="1" d="M 739.5 279 L 740 282.5 L 739 282.5 L 739.5 279 Z " /><path fill="rgb(160,160,160)" stroke="rgb(160,160,160)" stroke-width="0" opacity="1" d="M 180.5 280 L 181 282.5 L 180 282.5 L 180.5 280 Z " /><path fill="rgb(160,160,160)" stroke="rgb(160,160,160)" stroke-width="0" opacity="1" d="M 450.5 280 L 452.5 283 L 450.5 280 Z " /><path fill="rgb(160,160,160)" stroke="rgb(160,160,160)" stroke-width="0" opacity="1" d="M 544.5 280 L 543.5 282 L 544.5 280 Z " /><path fill="rgb(160,160,160)" stroke="rgb(160,160,160)" stroke-width="0" opacity="1" d="M 587.5 280 L 588 282.5 L 587 282.5 L 587.5 280 Z " /><path fill="rgb(160,160,160)" stroke="rgb(160,160,160)" stroke-width="0" opacity="1" d="M 203.5 281 L 200.5 285 L 203.5 281 Z " /><path fill="rgb(160,160,160)" stroke="rgb(160,160,160)" stroke-width="0" opacity="1" d="M 272.5 281 L 269.5 285 L 272.5 281 Z " /><path fill="rgb(160,160,160)" stroke="rgb(160,160,160)" stroke-width="0" opacity="1" d="M 306.5 282 L 307 283.5 L 305 284.5 L 306.5 282 Z " /><path fill="rgb(160,160,160)" stroke="rgb(160,160,160)" stroke-width="0" opacity="1" d="M 422.5 282 L 424.5 285 L 422.5 282 Z " /><path fill="rgb(160,160,160)" stroke="rgb(160,160,160)" stroke-width="0" opacity="1" d="M 494.5 282 L 497.5 286 L 494.5 282 Z " /><path fill="rgb(160,160,160)" stroke="rgb(160,160,160)" stroke-width="0" opacity="1" d="M 510.5 282 L 511.5 284 L 510.5 282 Z " /><path fill="rgb(160,160,160)" stroke="rgb(160,160,160)" stroke-width="0" opacity="1" d="M 663.5 282 L 664 283.5 L 662 284.5 L 663.5 282 Z " /><path fill="rgb(160,160,160)" stroke="rgb(160,160,160)" stroke-width="0" opacity="1" d="M 250.5 283 L 255 284.5 L 251.5 285 L 250.5 283 Z " /><path fill="rgb(160,160,160)" stroke="rgb(160,160,160)" stroke-width="0" opacity="1" d="M 320.5 284 L 323 284.5 L 320.5 285 L 320.5 284 Z " /><path fill="rgb(160,160,160)" stroke="rgb(160,160,160)" stroke-width="0" opacity="1" d="M 336.5 284 L 340 284.5 L 336.5 285 L 336.5 284 Z " /><path fill="rgb(160,160,160)" stroke="rgb(160,160,160)" stroke-width="0" opacity="1" d="M 453.5 284 L 455.5 287 L 453.5 284 Z " /><path fill="rgb(160,160,160)" stroke="rgb(160,160,160)" stroke-width="0" opacity="1" d="M 191.5 285 L 196 285.5 L 191.5 286 L 191.5 285 Z " /><path fill="rgb(160,160,160)" stroke="rgb(160,160,160)" stroke-width="0" opacity="1" d="M 301.5 285 L 304 285.5 L 301.5 286 L 301.5 285 Z " /><path fill="rgb(160,160,160)" stroke="rgb(160,160,160)" stroke-width="0" opacity="1" d="M 539.5 285 L 538.5 287 L 539.5 285 Z " /><path fill="rgb(160,160,160)" stroke="rgb(160,160,160)" stroke-width="0" opacity="1" d="M 107.5 286 L 110 286.5 L 107.5 287 L 107.5 286 Z " /><path fill="rgb(160,160,160)" stroke="rgb(160,160,160)" stroke-width="0" opacity="1" d="M 133.5 286 L 136 286.5 L 133.5 287 L 133.5 286 Z " /><path fill="rgb(160,160,160)" stroke="rgb(160,160,160)" stroke-width="0" opacity="1" d="M 160.5 286 L 164 286.5 L 160.5 287 L 160.5 286 Z " /><path fill="rgb(160,160,160)" stroke="rgb(160,160,160)" stroke-width="0" opacity="1" d="M 228.5 286 L 233 286.5 L 228.5 287 L 228.5 286 Z " /><path fill="rgb(160,160,160)" stroke="rgb(160,160,160)" stroke-width="0" opacity="1" d="M 295.5 286 L 295 287.5 L 294.5 291 L 294 287.5 L 295.5 286 Z " /><path fill="rgb(160,160,160)" stroke="rgb(160,160,160)" stroke-width="0" opacity="1" d="M 431.5 286 Q 433.8 285.3 433 287.5 L 431.5 286 Z " /><path fill="rgb(160,160,160)" stroke="rgb(160,160,160)" stroke-width="0" opacity="1" d="M 520.5 286 L 526 286.5 L 520.5 287 L 520.5 286 Z " /><path fill="rgb(160,160,160)" stroke="rgb(160,160,160)" stroke-width="0" opacity="1" d="M 608.5 286 L 612 287.5 L 610.5 287 Q 607.5 287.5 608.5 286 Z " /><path fill="rgb(160,160,160)" stroke="rgb(160,160,160)" stroke-width="0" opacity="1" d="M 685.5 286 L 688 287.5 L 687.5 290 L 687 287 L 685.5 286 Z " /><path fill="rgb(160,160,160)" stroke="rgb(160,160,160)" stroke-width="0" opacity="1" d="M 719.5 286 L 723 286.5 L 719.5 287 L 719.5 286 Z " /><path fill="rgb(160,160,160)" stroke="rgb(160,160,160)" stroke-width="0" opacity="1" d="M 226.5 287 L 227 290.5 L 226 290.5 L 226.5 287 Z " /><path fill="rgb(160,160,160)" stroke="rgb(160,160,160)" stroke-width="0" opacity="1" d="M 277.5 289 L 276.5 291 L 277.5 289 Z " /><path fill="rgb(160,160,160)" stroke="rgb(160,160,160)" stroke-width="0" opacity="1" d="M 347.5 289 L 346.5 291 L 347.5 289 Z " /><path fill="rgb(160,160,160)" stroke="rgb(160,160,160)" stroke-width="0" opacity="1" d="M 0.5 290 L 27 290.5 L 0.5 291 L 0.5 290 Z " /><path fill="rgb(160,160,160)" stroke="rgb(160,160,160)" stroke-width="0" opacity="1" d="M 61.5 290 L 75 290.5 L 61.5 291 L 61.5 290 Z " /><path fill="rgb(160,160,160)" stroke="rgb(160,160,160)" stroke-width="0" opacity="1" d="M 169.5 290 L 181 290.5 L 169.5 291 L 169.5 290 Z " /><path fill="rgb(160,160,160)" stroke="rgb(160,160,160)" stroke-width="0" opacity="1" d="M 238.5 290 L 264 290.5 L 238.5 291 L 238.5 290 Z " /><path fill="rgb(160,160,160)" stroke="rgb(160,160,160)" stroke-width="0" opacity="1" d="M 301.5 290 L 304 290.5 L 301.5 291 L 301.5 290 Z " /><path fill="rgb(160,160,160)" stroke="rgb(160,160,160)" stroke-width="0" opacity="1" d="M 305.5 290 L 326 290.5 L 305.5 291 L 305.5 290 Z " /><path fill="rgb(160,160,160)" stroke="rgb(160,160,160)" stroke-width="0" opacity="1" d="M 412.5 290 L 425 290.5 L 412.5 291 L 412.5 290 Z " /><path fill="rgb(160,160,160)" stroke="rgb(160,160,160)" stroke-width="0" opacity="1" d="M 587.5 290 L 599 290.5 L 587.5 291 L 587.5 290 Z " /><path fill="rgb(160,160,160)" stroke="rgb(160,160,160)" stroke-width="0" opacity="1" d="M 663.5 290 L 675 290.5 L 663.5 291 L 663.5 290 Z " /><path fill="rgb(160,160,160)" stroke="rgb(160,160,160)" stroke-width="0" opacity="1" d="M 109.5 291 L 112 291.5 L 109.5 292 L 109.5 291 Z " /><path fill="rgb(160,160,160)" stroke="rgb(160,160,160)" stroke-width="0" opacity="1" d="M 509.5 291 L 512 291.5 L 509.5 292 L 509.5 291 Z " /><path fill="rgb(160,160,160)" stroke="rgb(160,160,160)" stroke-width="0" opacity="1" d="M 514.5 292 L 524 292.5 L 514.5 293 L 514.5 292 Z " /><path fill="rgb(160,160,160)" stroke="rgb(160,160,160)" stroke-width="0" opacity="1" d="M 441.5 338 L 445 338.5 L 440.5 340 L 441.5 338 Z " /><path fill="rgb(160,160,160)" stroke="rgb(160,160,160)" stroke-width="0" opacity="1" d="M 466.5 338 Q 471.3 336.3 470 340.5 L 469 340.5 Q 469.8 337.9 466.5 339 L 466.5 338 Z " /><path fill="rgb(160,160,160)" stroke="rgb(160,160,160)" stroke-width="0" opacity="1" d="M 213.5 339 L 215.5 342 L 213.5 339 Z " /><path fill="rgb(160,160,160)" stroke="rgb(160,160,160)" stroke-width="0" opacity="1" d="M 222.5 339 L 223 342.5 L 222 342.5 L 222.5 339 Z " /><path fill="rgb(160,160,160)" stroke="rgb(160,160,160)" stroke-width="0" opacity="1" d="M 429.5 339 L 432 342.5 L 431 342.5 L 429.5 339 Z " /><path fill="rgb(160,160,160)" stroke="rgb(160,160,160)" stroke-width="0" opacity="1" d="M 478.5 339 L 479 358.5 L 478 358.5 L 478.5 339 Z " /><path fill="rgb(160,160,160)" stroke="rgb(160,160,160)" stroke-width="0" opacity="1" d="M 542.5 339 L 543 342.5 L 542 342.5 L 542.5 339 Z " /><path fill="rgb(160,160,160)" stroke="rgb(160,160,160)" stroke-width="0" opacity="1" d="M 270.5 340 L 273 340.5 L 270.5 341 L 270.5 340 Z " /><path fill="rgb(160,160,160)" stroke="rgb(160,160,160)" stroke-width="0" opacity="1" d="M 311.5 340 L 314 340.5 L 311.5 341 L 311.5 340 Z " /><path fill="rgb(160,160,160)" stroke="rgb(160,160,160)" stroke-width="0" opacity="1" d="M 207.5 341 Q 211.3 340.3 212 342.5 L 210.5 342 L 206.5 343 L 207.5 341 Z " /><path fill="rgb(160,160,160)" stroke="rgb(160,160,160)" stroke-width="0" opacity="1" d="M 309.5 341 L 307.5 344 L 309.5 341 Z " /><path fill="rgb(160,160,160)" stroke="rgb(160,160,160)" stroke-width="0" opacity="1" d="M 318.5 341 L 320.5 344 L 318.5 341 Z " /><path fill="rgb(160,160,160)" stroke="rgb(160,160,160)" stroke-width="0" opacity="1" d="M 423.5 341 Q 427.3 340.3 428 342.5 L 426.5 342 Q 422.5 342.8 423.5 341 Z " /><path fill="rgb(160,160,160)" stroke="rgb(160,160,160)" stroke-width="0" opacity="1" d="M 334.5 342 L 333.5 344 L 334.5 342 Z " /><path fill="rgb(160,160,160)" stroke="rgb(160,160,160)" stroke-width="0" opacity="1" d="M 201.5 343 L 202 346.5 L 201 346.5 L 201.5 343 Z " /><path fill="rgb(160,160,160)" stroke="rgb(160,160,160)" stroke-width="0" opacity="1" d="M 421.5 343 L 423 345.5 L 421 344.5 L 421.5 343 Z " /><path fill="rgb(160,160,160)" stroke="rgb(160,160,160)" stroke-width="0" opacity="1" d="M 506.5 343 L 507 355.5 L 506 355.5 L 506.5 343 Z " /><path fill="rgb(160,160,160)" stroke="rgb(160,160,160)" stroke-width="0" opacity="1" d="M 511.5 343 L 516 346.5 L 515.5 349 L 512.5 344 L 511.5 343 Z " /><path fill="rgb(160,160,160)" stroke="rgb(160,160,160)" stroke-width="0" opacity="1" d="M 533.5 343 L 534 347 Q 540.1 345.2 542 348.5 L 540.5 352 L 534 352 L 534 355.5 L 533 355.5 Q 532.3 351.8 534.5 351 L 541 351 L 541 348 Q 534.9 349.8 533 346.5 L 533.5 343 Z " /><path fill="rgb(160,160,160)" stroke="rgb(160,160,160)" stroke-width="0" opacity="1" d="M 289.5 344 L 288.5 346 L 289.5 344 Z " /><path fill="rgb(160,160,160)" stroke="rgb(160,160,160)" stroke-width="0" opacity="1" d="M 330.5 344 L 331 346.5 L 330 346.5 L 330.5 344 Z " /><path fill="rgb(160,160,160)" stroke="rgb(160,160,160)" stroke-width="0" opacity="1" d="M 183.5 346 Q 185 348.5 190.5 347 L 192 348.5 L 190.5 352 Q 185 350.5 183.5 353 L 183 351 L 191 351 L 191 348 L 183.5 348 L 183.5 346 Z " /><path fill="rgb(160,160,160)" stroke="rgb(160,160,160)" stroke-width="0" opacity="1" d="M 209.5 346 L 212 346.5 L 209.5 347 L 209.5 346 Z " /><path fill="rgb(160,160,160)" stroke="rgb(160,160,160)" stroke-width="0" opacity="1" d="M 321.5 346 L 322 352.5 L 321 352.5 L 321.5 346 Z " /><path fill="rgb(160,160,160)" stroke="rgb(160,160,160)" stroke-width="0" opacity="1" d="M 455.5 346 L 454.5 348 L 455.5 346 Z " /><path fill="rgb(160,160,160)" stroke="rgb(160,160,160)" stroke-width="0" opacity="1" d="M 483.5 346 Q 485 348.5 490.5 347 L 492 348.5 L 491.5 350 L 491 348 L 483.5 348 L 483.5 346 Z " /><path fill="rgb(160,160,160)" stroke="rgb(160,160,160)" stroke-width="0" opacity="1" d="M 213.5 347 L 215.5 350 L 213.5 347 Z " /><path fill="rgb(160,160,160)" stroke="rgb(160,160,160)" stroke-width="0" opacity="1" d="M 429.5 347 L 431.5 350 L 429.5 347 Z " /><path fill="rgb(160,160,160)" stroke="rgb(160,160,160)" stroke-width="0" opacity="1" d="M 364.5 348 L 365 351 L 392 351.5 L 365.5 352 Q 363 351 364.5 348 Z " /><path fill="rgb(160,160,160)" stroke="rgb(160,160,160)" stroke-width="0" opacity="1" d="M 418.5 348 L 419.5 350 L 418.5 348 Z " /><path fill="rgb(160,160,160)" stroke="rgb(160,160,160)" stroke-width="0" opacity="1" d="M 462.5 349 L 463 350.5 L 461 351.5 L 462.5 349 Z " /><path fill="rgb(160,160,160)" stroke="rgb(160,160,160)" stroke-width="0" opacity="1" d="M 205.5 350 L 208 350.5 L 205.5 351 L 205.5 350 Z " /><path fill="rgb(160,160,160)" stroke="rgb(160,160,160)" stroke-width="0" opacity="1" d="M 307.5 350 L 309.5 353 L 307.5 350 Z " /><path fill="rgb(160,160,160)" stroke="rgb(160,160,160)" stroke-width="0" opacity="1" d="M 421.5 350 L 424 350.5 L 421.5 351 L 421.5 350 Z " /><path fill="rgb(160,160,160)" stroke="rgb(160,160,160)" stroke-width="0" opacity="1" d="M 515.5 350 L 516 352.5 L 515 352.5 L 515.5 350 Z " /><path fill="rgb(160,160,160)" stroke="rgb(160,160,160)" stroke-width="0" opacity="1" d="M 565.5 350 Q 567.8 349.3 567 351.5 L 565.5 350 Z " /><path fill="rgb(160,160,160)" stroke="rgb(160,160,160)" stroke-width="0" opacity="1" d="M 216.5 351 L 217 354.5 L 216 354.5 L 216.5 351 Z " /><path fill="rgb(160,160,160)" stroke="rgb(160,160,160)" stroke-width="0" opacity="1" d="M 432.5 351 L 433 353.5 L 432 353.5 L 432.5 351 Z " /><path fill="rgb(160,160,160)" stroke="rgb(160,160,160)" stroke-width="0" opacity="1" d="M 483 351 L 491 351.5 L 483.5 353 L 483 351 Z " /><path fill="rgb(160,160,160)" stroke="rgb(160,160,160)" stroke-width="0" opacity="1" d="M 201.5 352 L 203 352.5 L 200.5 354 L 201.5 352 Z " /><path fill="rgb(160,160,160)" stroke="rgb(160,160,160)" stroke-width="0" opacity="1" d="M 417.5 352 L 419 352.5 L 417 353 L 416.5 355 L 416 353.5 L 417.5 352 Z " /><path fill="rgb(160,160,160)" stroke="rgb(160,160,160)" stroke-width="0" opacity="1" d="M 289.5 353 L 293 353.5 L 289.5 354 L 289.5 353 Z " /><path fill="rgb(160,160,160)" stroke="rgb(160,160,160)" stroke-width="0" opacity="1" d="M 312.5 353 L 315 353.5 L 312.5 354 L 312.5 353 Z " /><path fill="rgb(160,160,160)" stroke="rgb(160,160,160)" stroke-width="0" opacity="1" d="M 316.5 354 L 315.5 356 L 316.5 354 Z " /><path fill="rgb(160,160,160)" stroke="rgb(160,160,160)" stroke-width="0" opacity="1" d="M 483.5 354 L 484.5 356 Q 481.7 356.7 483.5 354 Z " /><path fill="rgb(160,160,160)" stroke="rgb(160,160,160)" stroke-width="0" opacity="1" d="M 423.5 355 L 426 355.5 L 423.5 356 L 423.5 355 Z " /><path fill="rgb(160,160,160)" stroke="rgb(160,160,160)" stroke-width="0" opacity="1" d="M 518.5 355 L 515.5 359 L 518.5 355 Z " /><path fill="rgb(160,160,160)" stroke="rgb(160,160,160)" stroke-width="0" opacity="1" d="M 215.5 356 L 214.5 358 L 215.5 356 Z " /><path fill="rgb(160,160,160)" stroke="rgb(160,160,160)" stroke-width="0" opacity="1" d="M 248.5 356 L 249 358.5 L 245.5 360 L 245.5 359 Q 249.5 360.1 248.5 356 Z " /><path fill="rgb(160,160,160)" stroke="rgb(160,160,160)" stroke-width="0" opacity="1" d="M 288.5 356 L 291 356.5 L 288.5 357 L 288.5 356 Z " /><path fill="rgb(160,160,160)" stroke="rgb(160,160,160)" stroke-width="0" opacity="1" d="M 310.5 356 L 314 356.5 L 310.5 357 L 310.5 356 Z " /><path fill="rgb(160,160,160)" stroke="rgb(160,160,160)" stroke-width="0" opacity="1" d="M 319.5 356 L 317.5 359 L 319.5 356 Z " /><path fill="rgb(160,160,160)" stroke="rgb(160,160,160)" stroke-width="0" opacity="1" d="M 307.5 357 L 309 359.5 L 307 358.5 L 307.5 357 Z " /><path fill="rgb(160,160,160)" stroke="rgb(160,160,160)" stroke-width="0" opacity="1" d="M 270.5 359 L 274 359.5 L 270.5 360 L 270.5 359 Z " /><path fill="rgb(160,160,160)" stroke="rgb(160,160,160)" stroke-width="0" opacity="1" d="M 507.5 359 L 510 359.5 L 507.5 360 L 507.5 359 Z " /></svg>