<svg viewBox="0 0 800 220" version="1.1" xmlns="http://www.w3.org/2000/svg" desc="Created with imagetracer.js version 1.2.6" ><path fill="rgb(254,254,254)" stroke="rgb(254,254,254)" stroke-width="0" opacity="1" d="M 0 0 L 799.5 0 L 800 0.5 L 800 220 L 0.5 220 L 0 219.5 L 0 0 Z M 140 3 L 129 8 Q 120 14 118 27 Q 118 39 124 46 Q 130 52 141 55 L 149 55 L 159 51 Q 167 45 170 35 L 170 24 L 168 18 L 163 10 L 150 3 L 140 3 Z M 34 62 L 28 70 L 29 74 L 35 78 L 128 78 L 135 81 L 139 89 L 138 101 L 115 172 L 115 175 L 108 193 Q 104 200 96 202 Q 87 203 83 200 Q 77 198 76 192 L 77 180 L 105 125 L 104 118 L 98 113 L 45 113 L 43 114 L 39 120 L 40 125 L 44 128 L 61 128 L 71 131 L 76 141 L 74 153 L 63 186 Q 61 199 66 206 Q 73 215 87 218 Q 105 219 114 211 Q 121 205 125 196 L 152 110 L 155 97 Q 156 80 149 73 Q 142 65 130 62 L 34 62 Z M 641 86 L 631 90 L 620 103 L 605 150 L 606 152 L 623 152 L 627 140 L 628 137 L 661 137 L 665 151 L 667 152 L 693 152 L 679 106 L 674 97 Q 665 83 641 86 Z M 15 87 L 12 88 Q 7 90 8 99 L 14 103 L 114 103 L 116 102 L 119 97 L 118 92 L 113 87 L 15 87 Z M 209 87 L 193 91 L 188 94 L 183 101 Q 182 108 185 111 L 198 120 L 226 131 L 229 136 L 228 138 L 226 140 L 218 142 L 196 141 L 189 139 L 183 139 L 183 149 L 190 151 L 205 152 L 206 153 L 230 153 Q 231 150 238 152 L 257 146 Q 262 143 264 137 L 262 129 L 254 121 L 221 106 Q 218 105 219 101 L 223 98 L 260 98 L 260 88 L 260 87 L 209 87 Z M 303 87 L 292 92 Q 286 96 284 105 L 284 135 L 287 142 L 296 149 L 313 153 L 341 153 L 342 152 L 353 152 L 363 150 L 364 149 L 364 139 L 352 140 L 351 141 L 337 141 L 336 142 Q 323 144 317 140 L 313 136 L 313 127 L 316 124 L 354 124 L 354 124 L 354 115 L 353 113 L 316 113 L 313 111 L 314 102 L 319 98 L 360 98 L 360 88 L 360 87 L 303 87 Z M 401 87 L 390 92 Q 384 96 382 104 L 382 135 L 384 141 L 394 149 L 411 153 L 436 153 Q 437 150 444 152 L 459 148 L 464 145 L 469 139 L 469 119 L 463 113 L 430 113 L 430 124 L 440 124 L 442 127 L 442 137 Q 439 141 433 142 Q 422 143 416 141 L 411 136 L 411 103 L 417 98 L 459 98 L 459 88 L 459 87 L 401 87 Z M 484 87 L 496 129 L 503 148 Q 507 152 514 153 L 521 153 L 529 150 L 533 145 L 540 123 Q 539 118 543 120 L 551 147 Q 555 152 563 153 L 570 153 L 578 150 L 582 145 L 599 91 L 599 87 L 584 87 L 584 91 L 572 127 Q 573 129 570 128 L 561 98 L 557 90 L 552 87 Q 541 86 537 90 L 533 95 L 523 127 Q 524 129 521 128 L 509 91 L 509 87 L 484 87 Z M 694 87 L 696 93 L 721 128 L 721 146 L 723 151 L 730 153 Q 741 155 747 151 L 749 148 L 749 129 L 777 89 L 777 87 L 761 87 L 745 110 Q 744 114 739 113 L 721 89 L 721 87 L 694 87 Z M 787 87 L 784 88 L 783 95 L 788 98 L 794 94 L 793 90 Q 792 86 787 87 Z " /><path fill="rgb(254,254,254)" stroke="rgb(254,254,254)" stroke-width="0" opacity="1" d="M 787.5 88 Q 791.5 87.5 792 90.5 Q 793.3 95.3 790 94 L 791 90.5 L 787.5 89 L 787.5 88 Z " /><path fill="rgb(254,254,254)" stroke="rgb(254,254,254)" stroke-width="0" opacity="1" d="M 785.5 89 L 786 95 L 788.5 94 L 789.5 96 Q 785.8 96.8 785 94.5 L 784 91.5 L 785.5 89 Z " /><path fill="rgb(254,254,254)" stroke="rgb(254,254,254)" stroke-width="0" opacity="1" d="M 641.5 101 Q 649.1 99.9 651 104.5 L 657 126 L 632.5 126 L 631 124.5 L 638 103 L 641.5 101 Z " /><path fill="rgb(36,26,23)" stroke="rgb(36,26,23)" stroke-width="0" opacity="1" d="M 143.5 3 L 153.5 5 L 165 13.5 Q 170.3 19.7 170 31.5 Q 167.8 42.8 160.5 49 Q 154 56 138.5 54 Q 128.3 51.3 123 43.5 Q 117.3 37.2 119 23.5 Q 121.8 13.3 129.5 8 L 134.5 5 L 143.5 3 Z " /><path fill="rgb(36,26,23)" stroke="rgb(36,26,23)" stroke-width="0" opacity="1" d="M 36.5 62 L 123.5 62 L 124.5 63 L 135.5 64 Q 144.8 67.2 150 74.5 Q 156.5 82.5 154 99.5 L 124 196.5 Q 119.7 206.2 111.5 212 L 100.5 217 L 84.5 217 Q 74 214.5 68 207.5 L 64 200.5 L 63 188.5 L 75 150.5 L 76 138.5 L 69.5 130 L 64.5 128 L 45.5 128 L 40 123.5 Q 38.5 115.5 43.5 114 L 45.5 113 L 95.5 113 L 103 116 Q 104.9 118.7 104 125.5 L 77 178.5 L 75 189.5 Q 76.1 196.9 81.5 200 Q 85.8 203.2 93.5 203 Q 103.4 200.9 108 193.5 L 114 179.5 L 114 176.5 L 138 102.5 L 140 91.5 L 138 84.5 L 132.5 79 L 124.5 77 L 33.5 77 L 29 72.5 Q 28 66 31.5 64 L 36.5 62 Z " /><path fill="rgb(36,26,23)" stroke="rgb(36,26,23)" stroke-width="0" opacity="1" d="M 643.5 86 Q 666.7 84.8 675 98.5 L 681 113.5 L 692 151 L 666.5 151 L 665 149.5 L 662 137 L 659.5 136 L 628.5 136 L 626 138.5 L 623 151 L 605 150.5 L 620 103.5 L 627.5 93 Q 633.6 87.6 643.5 86 Z M 641 101 L 636 107 L 631 126 L 657 126 L 658 125 L 651 104 Q 648 100 641 101 Z " /><path fill="rgb(36,26,23)" stroke="rgb(36,26,23)" stroke-width="0" opacity="1" d="M 213.5 87 L 258.5 87 L 259 87.5 L 259 97 L 224.5 97 L 219 99 L 218 103.5 L 222.5 108 L 252.5 121 L 262 129.5 L 263 138.5 L 258.5 144 L 248.5 149 L 233.5 152 L 199.5 152 L 183 149 L 183 139.5 L 185.5 139 L 199.5 142 L 221.5 142 L 228 139 L 229 134.5 L 228 132 L 191.5 116 L 185 109.5 L 183 101.5 L 188.5 94 L 200.5 89 L 212.5 88 L 213.5 87 Z " /><path fill="rgb(36,26,23)" stroke="rgb(36,26,23)" stroke-width="0" opacity="1" d="M 304.5 87 L 358.5 87 L 360 88.5 Q 357.5 90 359 95.5 L 359.5 97 L 320.5 97 L 314 100.5 Q 311.5 104 313 111.5 L 314.5 113 L 353 113 L 353 123.5 L 352.5 124 L 314.5 124 L 313 125.5 L 313 136.5 L 315 140 L 319.5 142 L 345.5 142 L 362.5 139 L 363 149 L 346.5 152 L 308.5 152 L 299.5 150 Q 292.2 147.8 288 142.5 L 285 136.5 L 285 102.5 Q 287.6 95.1 293.5 91 L 304.5 87 Z " /><path fill="rgb(36,26,23)" stroke="rgb(36,26,23)" stroke-width="0" opacity="1" d="M 402.5 87 L 458.5 87 L 459 87.5 L 459 97 L 418.5 97 L 411 101.5 L 410 104.5 L 410 134.5 L 413.5 140 L 417.5 142 L 435.5 142 L 442 137.5 L 442 125.5 L 440.5 124 L 431.5 124 L 430 122.5 L 430 120.5 L 431 115.5 Q 428.8 114.3 431.5 113 L 459.5 113 L 467 116.5 L 469 120.5 L 469 137.5 L 466 143 L 459.5 147 L 446.5 151 Q 441 149.5 439.5 152 L 406.5 152 L 392.5 148 L 386 142.5 L 383 136.5 L 383 102.5 Q 385.1 94.6 391.5 91 L 402.5 87 Z " /><path fill="rgb(36,26,23)" stroke="rgb(36,26,23)" stroke-width="0" opacity="1" d="M 484 87 L 507.5 87 L 508 88.5 L 520 126.5 L 521.5 128 L 524 126.5 L 533 96.5 L 537.5 90 L 540.5 88 L 549.5 87 Q 555.3 88.3 558 92.5 L 569 128 L 573 126.5 L 585 87 L 598.5 87 L 599 88.5 L 581 145.5 L 576.5 150 Q 571.1 153.6 560.5 152 Q 554 150.5 551 145.5 L 544 121.5 L 541.5 119 L 539 121.5 L 532 145.5 L 527.5 150 Q 522.1 153.6 511.5 152 Q 505.8 150.8 503 146.5 L 484 87 Z " /><path fill="rgb(36,26,23)" stroke="rgb(36,26,23)" stroke-width="0" opacity="1" d="M 694 87 L 719.5 87 L 721 88.5 Q 728.6 102.9 739.5 114 L 744 111.5 L 760 87 L 777 87.5 L 748 129.5 L 748 148.5 L 745.5 151 L 733.5 153 Q 732 150.5 726.5 152 L 723 149.5 L 722 147.5 L 722 128.5 L 694 87 Z " /><path fill="rgb(36,26,23)" stroke="rgb(36,26,23)" stroke-width="0" opacity="1" d="M 12.5 88 L 113.5 88 L 117 90.5 L 118 98.5 L 111.5 103 L 14.5 103 L 10 101 L 8 93.5 L 12.5 88 Z " /><path fill="rgb(36,26,23)" stroke="rgb(36,26,23)" stroke-width="0" opacity="1" d="M 785.5 88 L 784.5 90 L 785.5 88 Z " /><path fill="rgb(36,26,23)" stroke="rgb(36,26,23)" stroke-width="0" opacity="1" d="M 787.5 89 L 790 90.5 L 789.5 95 L 789 93 Q 786.3 91.9 787 94.5 L 786 94.5 Q 785 90 787.5 89 Z M 787 90 Q 786 93 789 92 Q 790 89 787 90 Z " /><path fill="rgb(36,26,23)" stroke="rgb(36,26,23)" stroke-width="0" opacity="1" d="M 792.5 93 L 793 94.5 L 791 95.5 L 792.5 93 Z " /><path fill="rgb(153,148,147)" stroke="rgb(153,148,147)" stroke-width="0" opacity="1" d="M 139.5 3 L 143 3.5 L 139.5 4 L 139.5 3 Z " /><path fill="rgb(153,148,147)" stroke="rgb(153,148,147)" stroke-width="0" opacity="1" d="M 145.5 3 L 150 3.5 L 145.5 4 L 145.5 3 Z " /><path fill="rgb(153,148,147)" stroke="rgb(153,148,147)" stroke-width="0" opacity="1" d="M 131.5 6 L 130.5 8 L 131.5 6 Z " /><path fill="rgb(153,148,147)" stroke="rgb(153,148,147)" stroke-width="0" opacity="1" d="M 158.5 7 L 159.5 9 L 158.5 7 Z " /><path fill="rgb(153,148,147)" stroke="rgb(153,148,147)" stroke-width="0" opacity="1" d="M 128.5 8 L 123.5 14 L 128.5 8 Z " /><path fill="rgb(153,148,147)" stroke="rgb(153,148,147)" stroke-width="0" opacity="1" d="M 169.5 23 L 170 25.5 L 169 25.5 L 169.5 23 Z " /><path fill="rgb(153,148,147)" stroke="rgb(153,148,147)" stroke-width="0" opacity="1" d="M 118.5 26 L 119 31.5 L 118 31.5 L 118.5 26 Z " /><path fill="rgb(153,148,147)" stroke="rgb(153,148,147)" stroke-width="0" opacity="1" d="M 169.5 32 L 170 34.5 L 169 34.5 L 169.5 32 Z " /><path fill="rgb(153,148,147)" stroke="rgb(153,148,147)" stroke-width="0" opacity="1" d="M 167.5 39 L 168 40.5 L 166 41.5 L 167.5 39 Z " /><path fill="rgb(153,148,147)" stroke="rgb(153,148,147)" stroke-width="0" opacity="1" d="M 165.5 43 L 164.5 45 L 165.5 43 Z " /><path fill="rgb(153,148,147)" stroke="rgb(153,148,147)" stroke-width="0" opacity="1" d="M 124.5 45 L 127.5 49 L 124.5 45 Z " /><path fill="rgb(153,148,147)" stroke="rgb(153,148,147)" stroke-width="0" opacity="1" d="M 159.5 49 L 158.5 51 L 159.5 49 Z " /><path fill="rgb(153,148,147)" stroke="rgb(153,148,147)" stroke-width="0" opacity="1" d="M 140.5 54 L 149 54.5 L 140.5 55 L 140.5 54 Z " /><path fill="rgb(153,148,147)" stroke="rgb(153,148,147)" stroke-width="0" opacity="1" d="M 33.5 62 L 36 62.5 L 32.5 64 L 33.5 62 Z " /><path fill="rgb(153,148,147)" stroke="rgb(153,148,147)" stroke-width="0" opacity="1" d="M 124.5 62 L 130 62.5 L 124.5 63 L 124.5 62 Z " /><path fill="rgb(153,148,147)" stroke="rgb(153,148,147)" stroke-width="0" opacity="1" d="M 145.5 69 L 148.5 73 L 145.5 69 Z " /><path fill="rgb(153,148,147)" stroke="rgb(153,148,147)" stroke-width="0" opacity="1" d="M 29.5 73 L 32.5 77 L 29.5 73 Z " /><path fill="rgb(153,148,147)" stroke="rgb(153,148,147)" stroke-width="0" opacity="1" d="M 34.5 77 L 125 77.5 L 34.5 78 L 34.5 77 Z " /><path fill="rgb(153,148,147)" stroke="rgb(153,148,147)" stroke-width="0" opacity="1" d="M 131.5 79 L 134 80.5 L 132.5 80 L 131.5 79 Z " /><path fill="rgb(153,148,147)" stroke="rgb(153,148,147)" stroke-width="0" opacity="1" d="M 154.5 85 L 155 96.5 L 154 96.5 L 154.5 85 Z " /><path fill="rgb(153,148,147)" stroke="rgb(153,148,147)" stroke-width="0" opacity="1" d="M 640.5 86 L 643 86.5 L 640.5 87 L 640.5 86 Z " /><path fill="rgb(153,148,147)" stroke="rgb(153,148,147)" stroke-width="0" opacity="1" d="M 14.5 87 L 113 87.5 L 14.5 88 L 14.5 87 Z " /><path fill="rgb(153,148,147)" stroke="rgb(153,148,147)" stroke-width="0" opacity="1" d="M 208.5 87 L 213 87.5 L 208.5 88 L 208.5 87 Z " /><path fill="rgb(153,148,147)" stroke="rgb(153,148,147)" stroke-width="0" opacity="1" d="M 259.5 87 L 260 98 L 224 97.5 L 259 97 L 259.5 87 Z " /><path fill="rgb(153,148,147)" stroke="rgb(153,148,147)" stroke-width="0" opacity="1" d="M 786 87 Q 791.5 85.8 793 89.5 L 791 90 L 790.5 92 L 789.5 90 L 787 91.5 L 786 87 Z M 787 88 L 787 90 L 790 89 L 787 88 Z " /><path fill="rgb(153,148,147)" stroke="rgb(153,148,147)" stroke-width="0" opacity="1" d="M 11.5 88 L 9.5 91 L 11.5 88 Z " /><path fill="rgb(153,148,147)" stroke="rgb(153,148,147)" stroke-width="0" opacity="1" d="M 202.5 88 L 205 88.5 L 202.5 89 L 202.5 88 Z " /><path fill="rgb(153,148,147)" stroke="rgb(153,148,147)" stroke-width="0" opacity="1" d="M 539.5 88 L 538.5 90 L 539.5 88 Z " /><path fill="rgb(153,148,147)" stroke="rgb(153,148,147)" stroke-width="0" opacity="1" d="M 759.5 88 L 758.5 90 L 759.5 88 Z " /><path fill="rgb(153,148,147)" stroke="rgb(153,148,147)" stroke-width="0" opacity="1" d="M 359.5 89 L 360 95.5 L 359 95.5 L 359.5 89 Z " /><path fill="rgb(153,148,147)" stroke="rgb(153,148,147)" stroke-width="0" opacity="1" d="M 664.5 89 L 667 90.5 L 665.5 90 L 664.5 89 Z " /><path fill="rgb(153,148,147)" stroke="rgb(153,148,147)" stroke-width="0" opacity="1" d="M 694.5 89 L 695.5 91 L 694.5 89 Z " /><path fill="rgb(153,148,147)" stroke="rgb(153,148,147)" stroke-width="0" opacity="1" d="M 721.5 89 L 722.5 91 L 721.5 89 Z " /><path fill="rgb(153,148,147)" stroke="rgb(153,148,147)" stroke-width="0" opacity="1" d="M 536.5 90 L 535.5 92 L 536.5 90 Z " /><path fill="rgb(153,148,147)" stroke="rgb(153,148,147)" stroke-width="0" opacity="1" d="M 630.5 90 L 628.5 93 L 630.5 90 Z " /><path fill="rgb(153,148,147)" stroke="rgb(153,148,147)" stroke-width="0" opacity="1" d="M 783 90 L 785 90.5 L 784 92.5 L 786.5 96 L 790 96 Q 788.9 93.3 791.5 94 L 791 95.5 Q 791.8 97.8 789.5 97 L 787.5 98 L 783 94.5 L 783 90 Z " /><path fill="rgb(153,148,147)" stroke="rgb(153,148,147)" stroke-width="0" opacity="1" d="M 668.5 91 L 673.5 97 L 668.5 91 Z " /><path fill="rgb(153,148,147)" stroke="rgb(153,148,147)" stroke-width="0" opacity="1" d="M 757.5 91 L 756.5 93 L 757.5 91 Z " /><path fill="rgb(153,148,147)" stroke="rgb(153,148,147)" stroke-width="0" opacity="1" d="M 774.5 91 L 773.5 93 L 774.5 91 Z " /><path fill="rgb(153,148,147)" stroke="rgb(153,148,147)" stroke-width="0" opacity="1" d="M 792 91 Q 795 89.8 794 93.5 L 792 92.5 L 792 91 Z " /><path fill="rgb(153,148,147)" stroke="rgb(153,148,147)" stroke-width="0" opacity="1" d="M 190.5 92 L 189.5 94 L 190.5 92 Z " /><path fill="rgb(153,148,147)" stroke="rgb(153,148,147)" stroke-width="0" opacity="1" d="M 291.5 92 L 288.5 96 L 291.5 92 Z " /><path fill="rgb(153,148,147)" stroke="rgb(153,148,147)" stroke-width="0" opacity="1" d="M 389.5 92 L 386.5 96 L 389.5 92 Z " /><path fill="rgb(153,148,147)" stroke="rgb(153,148,147)" stroke-width="0" opacity="1" d="M 696.5 92 L 697.5 94 L 696.5 92 Z " /><path fill="rgb(153,148,147)" stroke="rgb(153,148,147)" stroke-width="0" opacity="1" d="M 723.5 92 L 724.5 94 L 723.5 92 Z " /><path fill="rgb(153,148,147)" stroke="rgb(153,148,147)" stroke-width="0" opacity="1" d="M 118.5 93 L 119 96.5 L 118 96.5 L 118.5 93 Z " /><path fill="rgb(153,148,147)" stroke="rgb(153,148,147)" stroke-width="0" opacity="1" d="M 534.5 93 L 534 94.5 L 533.5 96 L 533 94.5 L 534.5 93 Z " /><path fill="rgb(153,148,147)" stroke="rgb(153,148,147)" stroke-width="0" opacity="1" d="M 787 93 L 789 93.5 L 787 94.5 L 787 93 Z " /><path fill="rgb(153,148,147)" stroke="rgb(153,148,147)" stroke-width="0" opacity="1" d="M 187.5 94 L 185.5 97 L 187.5 94 Z " /><path fill="rgb(153,148,147)" stroke="rgb(153,148,147)" stroke-width="0" opacity="1" d="M 772.5 94 L 771.5 96 L 772.5 94 Z " /><path fill="rgb(153,148,147)" stroke="rgb(153,148,147)" stroke-width="0" opacity="1" d="M 624.5 96 L 623.5 98 L 624.5 96 Z " /><path fill="rgb(153,148,147)" stroke="rgb(153,148,147)" stroke-width="0" opacity="1" d="M 699.5 96 L 700.5 98 L 699.5 96 Z " /><path fill="rgb(153,148,147)" stroke="rgb(153,148,147)" stroke-width="0" opacity="1" d="M 8.5 97 L 10 99.5 L 8 98.5 L 8.5 97 Z " /><path fill="rgb(153,148,147)" stroke="rgb(153,148,147)" stroke-width="0" opacity="1" d="M 287.5 97 L 286.5 99 L 287.5 97 Z " /><path fill="rgb(153,148,147)" stroke="rgb(153,148,147)" stroke-width="0" opacity="1" d="M 320.5 97 L 360 97.5 L 320.5 98 L 320.5 97 Z " /><path fill="rgb(153,148,147)" stroke="rgb(153,148,147)" stroke-width="0" opacity="1" d="M 418.5 97 L 459 97.5 L 418.5 98 L 418.5 97 Z " /><path fill="rgb(153,148,147)" stroke="rgb(153,148,147)" stroke-width="0" opacity="1" d="M 770.5 97 L 769.5 99 L 770.5 97 Z " /><path fill="rgb(153,148,147)" stroke="rgb(153,148,147)" stroke-width="0" opacity="1" d="M 752.5 98 L 751.5 100 L 752.5 98 Z " /><path fill="rgb(153,148,147)" stroke="rgb(153,148,147)" stroke-width="0" opacity="1" d="M 117.5 99 L 115.5 102 L 117.5 99 Z " /><path fill="rgb(153,148,147)" stroke="rgb(153,148,147)" stroke-width="0" opacity="1" d="M 315.5 99 L 314.5 101 L 315.5 99 Z " /><path fill="rgb(153,148,147)" stroke="rgb(153,148,147)" stroke-width="0" opacity="1" d="M 413.5 99 L 411.5 102 L 413.5 99 Z " /><path fill="rgb(153,148,147)" stroke="rgb(153,148,147)" stroke-width="0" opacity="1" d="M 622.5 99 L 621.5 101 L 622.5 99 Z " /><path fill="rgb(153,148,147)" stroke="rgb(153,148,147)" stroke-width="0" opacity="1" d="M 701.5 99 L 702.5 101 L 701.5 99 Z " /><path fill="rgb(153,148,147)" stroke="rgb(153,148,147)" stroke-width="0" opacity="1" d="M 728.5 99 L 729.5 101 L 728.5 99 Z " /><path fill="rgb(153,148,147)" stroke="rgb(153,148,147)" stroke-width="0" opacity="1" d="M 153.5 100 L 154 102.5 L 153 102.5 L 153.5 100 Z " /><path fill="rgb(153,148,147)" stroke="rgb(153,148,147)" stroke-width="0" opacity="1" d="M 218.5 101 L 219 103.5 L 218 103.5 L 218.5 101 Z " /><path fill="rgb(153,148,147)" stroke="rgb(153,148,147)" stroke-width="0" opacity="1" d="M 640.5 101 L 639.5 103 L 640.5 101 Z " /><path fill="rgb(153,148,147)" stroke="rgb(153,148,147)" stroke-width="0" opacity="1" d="M 750.5 101 L 749.5 103 L 750.5 101 Z " /><path fill="rgb(153,148,147)" stroke="rgb(153,148,147)" stroke-width="0" opacity="1" d="M 767.5 101 L 766.5 103 L 767.5 101 Z " /><path fill="rgb(153,148,147)" stroke="rgb(153,148,147)" stroke-width="0" opacity="1" d="M 649.5 102 L 650.5 104 L 649.5 102 Z " /><path fill="rgb(153,148,147)" stroke="rgb(153,148,147)" stroke-width="0" opacity="1" d="M 703.5 102 L 704.5 104 L 703.5 102 Z " /><path fill="rgb(153,148,147)" stroke="rgb(153,148,147)" stroke-width="0" opacity="1" d="M 730.5 102 L 731.5 104 L 730.5 102 Z " /><path fill="rgb(153,148,147)" stroke="rgb(153,148,147)" stroke-width="0" opacity="1" d="M 382.5 103 L 383 134.5 L 382 134.5 L 382.5 103 Z " /><path fill="rgb(153,148,147)" stroke="rgb(153,148,147)" stroke-width="0" opacity="1" d="M 284.5 104 L 285 134.5 L 284 134.5 L 284.5 104 Z " /><path fill="rgb(153,148,147)" stroke="rgb(153,148,147)" stroke-width="0" opacity="1" d="M 410.5 104 L 411 134.5 L 410 134.5 L 410.5 104 Z " /><path fill="rgb(153,148,147)" stroke="rgb(153,148,147)" stroke-width="0" opacity="1" d="M 748.5 104 L 747.5 106 L 748.5 104 Z " /><path fill="rgb(153,148,147)" stroke="rgb(153,148,147)" stroke-width="0" opacity="1" d="M 765.5 104 L 764.5 106 L 765.5 104 Z " /><path fill="rgb(153,148,147)" stroke="rgb(153,148,147)" stroke-width="0" opacity="1" d="M 732.5 105 L 733.5 107 L 732.5 105 Z " /><path fill="rgb(153,148,147)" stroke="rgb(153,148,147)" stroke-width="0" opacity="1" d="M 221.5 106 L 222.5 108 L 221.5 106 Z " /><path fill="rgb(153,148,147)" stroke="rgb(153,148,147)" stroke-width="0" opacity="1" d="M 708.5 109 L 709.5 111 L 708.5 109 Z " /><path fill="rgb(153,148,147)" stroke="rgb(153,148,147)" stroke-width="0" opacity="1" d="M 735.5 109 L 736.5 111 L 735.5 109 Z " /><path fill="rgb(153,148,147)" stroke="rgb(153,148,147)" stroke-width="0" opacity="1" d="M 185.5 110 L 189.5 115 L 185.5 110 Z " /><path fill="rgb(153,148,147)" stroke="rgb(153,148,147)" stroke-width="0" opacity="1" d="M 313.5 111 L 314.5 113 L 313.5 111 Z " /><path fill="rgb(153,148,147)" stroke="rgb(153,148,147)" stroke-width="0" opacity="1" d="M 743.5 111 L 742.5 113 L 743.5 111 Z " /><path fill="rgb(153,148,147)" stroke="rgb(153,148,147)" stroke-width="0" opacity="1" d="M 760.5 111 L 759.5 113 L 760.5 111 Z " /><path fill="rgb(153,148,147)" stroke="rgb(153,148,147)" stroke-width="0" opacity="1" d="M 710.5 112 L 711.5 114 L 710.5 112 Z " /><path fill="rgb(153,148,147)" stroke="rgb(153,148,147)" stroke-width="0" opacity="1" d="M 460.5 113 L 463 113.5 L 460.5 114 L 460.5 113 Z " /><path fill="rgb(153,148,147)" stroke="rgb(153,148,147)" stroke-width="0" opacity="1" d="M 42.5 114 L 40.5 117 L 42.5 114 Z " /><path fill="rgb(153,148,147)" stroke="rgb(153,148,147)" stroke-width="0" opacity="1" d="M 100.5 114 L 101.5 116 L 100.5 114 Z " /><path fill="rgb(153,148,147)" stroke="rgb(153,148,147)" stroke-width="0" opacity="1" d="M 353.5 114 L 354 123.5 L 353 123.5 L 353.5 114 Z " /><path fill="rgb(153,148,147)" stroke="rgb(153,148,147)" stroke-width="0" opacity="1" d="M 758.5 114 L 757.5 116 L 758.5 114 Z " /><path fill="rgb(153,148,147)" stroke="rgb(153,148,147)" stroke-width="0" opacity="1" d="M 712.5 115 L 713.5 117 L 712.5 115 Z " /><path fill="rgb(153,148,147)" stroke="rgb(153,148,147)" stroke-width="0" opacity="1" d="M 467.5 117 L 469 119.5 L 468 119.5 L 467.5 117 Z " /><path fill="rgb(153,148,147)" stroke="rgb(153,148,147)" stroke-width="0" opacity="1" d="M 196.5 118 L 199 119.5 L 197.5 120 L 196.5 118 Z " /><path fill="rgb(153,148,147)" stroke="rgb(153,148,147)" stroke-width="0" opacity="1" d="M 39.5 119 L 40 122.5 L 39 122.5 L 39.5 119 Z " /><path fill="rgb(153,148,147)" stroke="rgb(153,148,147)" stroke-width="0" opacity="1" d="M 104.5 119 L 105 124.5 L 104 124.5 L 104.5 119 Z " /><path fill="rgb(153,148,147)" stroke="rgb(153,148,147)" stroke-width="0" opacity="1" d="M 715.5 119 L 716.5 121 L 715.5 119 Z " /><path fill="rgb(153,148,147)" stroke="rgb(153,148,147)" stroke-width="0" opacity="1" d="M 253.5 121 L 254.5 123 L 253.5 121 Z " /><path fill="rgb(153,148,147)" stroke="rgb(153,148,147)" stroke-width="0" opacity="1" d="M 753.5 121 L 752.5 123 L 753.5 121 Z " /><path fill="rgb(153,148,147)" stroke="rgb(153,148,147)" stroke-width="0" opacity="1" d="M 717.5 122 L 718.5 124 L 717.5 122 Z " /><path fill="rgb(153,148,147)" stroke="rgb(153,148,147)" stroke-width="0" opacity="1" d="M 256.5 123 L 261.5 129 L 256.5 123 Z " /><path fill="rgb(153,148,147)" stroke="rgb(153,148,147)" stroke-width="0" opacity="1" d="M 40.5 124 L 45 127.5 L 43.5 128 L 40.5 124 Z " /><path fill="rgb(153,148,147)" stroke="rgb(153,148,147)" stroke-width="0" opacity="1" d="M 314.5 124 L 313.5 126 L 314.5 124 Z " /><path fill="rgb(153,148,147)" stroke="rgb(153,148,147)" stroke-width="0" opacity="1" d="M 440.5 124 L 441.5 126 L 440.5 124 Z " /><path fill="rgb(153,148,147)" stroke="rgb(153,148,147)" stroke-width="0" opacity="1" d="M 751.5 124 L 750.5 126 L 751.5 124 Z " /><path fill="rgb(153,148,147)" stroke="rgb(153,148,147)" stroke-width="0" opacity="1" d="M 719.5 125 L 720.5 127 L 719.5 125 Z " /><path fill="rgb(153,148,147)" stroke="rgb(153,148,147)" stroke-width="0" opacity="1" d="M 61.5 128 L 65 128.5 L 61.5 129 L 61.5 128 Z " /><path fill="rgb(153,148,147)" stroke="rgb(153,148,147)" stroke-width="0" opacity="1" d="M 721.5 128 L 722 145.5 L 721 145.5 L 721.5 128 Z " /><path fill="rgb(153,148,147)" stroke="rgb(153,148,147)" stroke-width="0" opacity="1" d="M 748.5 129 L 749 147.5 L 748 147.5 L 748.5 129 Z " /><path fill="rgb(153,148,147)" stroke="rgb(153,148,147)" stroke-width="0" opacity="1" d="M 263.5 133 L 264 136.5 L 263 136.5 L 263.5 133 Z " /><path fill="rgb(153,148,147)" stroke="rgb(153,148,147)" stroke-width="0" opacity="1" d="M 628.5 136 L 660 136.5 L 628.5 137 L 628.5 136 Z " /><path fill="rgb(153,148,147)" stroke="rgb(153,148,147)" stroke-width="0" opacity="1" d="M 441.5 137 L 438.5 141 L 437 140.5 L 441.5 137 Z " /><path fill="rgb(153,148,147)" stroke="rgb(153,148,147)" stroke-width="0" opacity="1" d="M 412.5 138 L 413.5 140 L 412.5 138 Z " /><path fill="rgb(153,148,147)" stroke="rgb(153,148,147)" stroke-width="0" opacity="1" d="M 186.5 139 L 189 139.5 L 186.5 140 L 186.5 139 Z " /><path fill="rgb(153,148,147)" stroke="rgb(153,148,147)" stroke-width="0" opacity="1" d="M 359.5 139 L 362 139.5 L 359.5 140 L 359.5 139 Z " /><path fill="rgb(153,148,147)" stroke="rgb(153,148,147)" stroke-width="0" opacity="1" d="M 363.5 139 L 364 148.5 L 361.5 150 L 361.5 149 L 363 148.5 L 363.5 139 Z " /><path fill="rgb(153,148,147)" stroke="rgb(153,148,147)" stroke-width="0" opacity="1" d="M 191.5 140 L 195 140.5 L 191.5 141 L 191.5 140 Z " /><path fill="rgb(153,148,147)" stroke="rgb(153,148,147)" stroke-width="0" opacity="1" d="M 351.5 140 L 356 140.5 L 351.5 141 L 351.5 140 Z " /><path fill="rgb(153,148,147)" stroke="rgb(153,148,147)" stroke-width="0" opacity="1" d="M 384.5 140 L 385.5 142 L 384.5 140 Z " /><path fill="rgb(153,148,147)" stroke="rgb(153,148,147)" stroke-width="0" opacity="1" d="M 467.5 140 L 466.5 142 L 467.5 140 Z " /><path fill="rgb(153,148,147)" stroke="rgb(153,148,147)" stroke-width="0" opacity="1" d="M 199.5 141 L 206 141.5 L 199.5 142 L 199.5 141 Z " /><path fill="rgb(153,148,147)" stroke="rgb(153,148,147)" stroke-width="0" opacity="1" d="M 218.5 141 L 222 141.5 L 218.5 142 L 218.5 141 Z " /><path fill="rgb(153,148,147)" stroke="rgb(153,148,147)" stroke-width="0" opacity="1" d="M 336.5 141 L 346 141.5 L 336.5 142 L 336.5 141 Z " /><path fill="rgb(153,148,147)" stroke="rgb(153,148,147)" stroke-width="0" opacity="1" d="M 433.5 141 L 436 141.5 L 433.5 142 L 433.5 141 Z " /><path fill="rgb(153,148,147)" stroke="rgb(153,148,147)" stroke-width="0" opacity="1" d="M 464.5 143 L 463.5 145 L 464.5 143 Z " /><path fill="rgb(153,148,147)" stroke="rgb(153,148,147)" stroke-width="0" opacity="1" d="M 75.5 144 L 76 146.5 L 75 146.5 L 75.5 144 Z " /><path fill="rgb(153,148,147)" stroke="rgb(153,148,147)" stroke-width="0" opacity="1" d="M 257.5 144 L 256.5 146 L 257.5 144 Z " /><path fill="rgb(153,148,147)" stroke="rgb(153,148,147)" stroke-width="0" opacity="1" d="M 461.5 145 L 460.5 147 L 461.5 145 Z " /><path fill="rgb(153,148,147)" stroke="rgb(153,148,147)" stroke-width="0" opacity="1" d="M 531.5 146 L 528.5 150 L 531.5 146 Z " /><path fill="rgb(153,148,147)" stroke="rgb(153,148,147)" stroke-width="0" opacity="1" d="M 551.5 146 L 553.5 149 L 551.5 146 Z " /><path fill="rgb(153,148,147)" stroke="rgb(153,148,147)" stroke-width="0" opacity="1" d="M 580.5 146 L 577.5 150 L 580.5 146 Z " /><path fill="rgb(153,148,147)" stroke="rgb(153,148,147)" stroke-width="0" opacity="1" d="M 294.5 147 L 297 148.5 L 295.5 149 L 294.5 147 Z " /><path fill="rgb(153,148,147)" stroke="rgb(153,148,147)" stroke-width="0" opacity="1" d="M 503.5 147 L 504.5 149 L 503.5 147 Z " /><path fill="rgb(153,148,147)" stroke="rgb(153,148,147)" stroke-width="0" opacity="1" d="M 747.5 149 L 746.5 151 L 747.5 149 Z " /><path fill="rgb(153,148,147)" stroke="rgb(153,148,147)" stroke-width="0" opacity="1" d="M 189.5 150 L 192 150.5 L 189.5 151 L 189.5 150 Z " /><path fill="rgb(153,148,147)" stroke="rgb(153,148,147)" stroke-width="0" opacity="1" d="M 356.5 150 L 359 150.5 L 356.5 151 L 356.5 150 Z " /><path fill="rgb(153,148,147)" stroke="rgb(153,148,147)" stroke-width="0" opacity="1" d="M 665.5 150 L 666.5 151 L 691.5 151 L 693 150.5 L 692.5 152 L 666.5 152 L 665.5 150 Z " /><path fill="rgb(153,148,147)" stroke="rgb(153,148,147)" stroke-width="0" opacity="1" d="M 195.5 151 L 199 151.5 L 195.5 152 L 195.5 151 Z " /><path fill="rgb(153,148,147)" stroke="rgb(153,148,147)" stroke-width="0" opacity="1" d="M 234.5 151 L 238 151.5 L 234.5 152 L 234.5 151 Z " /><path fill="rgb(153,148,147)" stroke="rgb(153,148,147)" stroke-width="0" opacity="1" d="M 305.5 151 L 308 151.5 L 305.5 152 L 305.5 151 Z " /><path fill="rgb(153,148,147)" stroke="rgb(153,148,147)" stroke-width="0" opacity="1" d="M 347.5 151 L 353 151.5 L 347.5 152 L 347.5 151 Z " /><path fill="rgb(153,148,147)" stroke="rgb(153,148,147)" stroke-width="0" opacity="1" d="M 403.5 151 L 406 151.5 L 403.5 152 L 403.5 151 Z " /><path fill="rgb(153,148,147)" stroke="rgb(153,148,147)" stroke-width="0" opacity="1" d="M 440.5 151 L 444 151.5 L 440.5 152 L 440.5 151 Z " /><path fill="rgb(153,148,147)" stroke="rgb(153,148,147)" stroke-width="0" opacity="1" d="M 605.5 151 L 623 151.5 L 605.5 152 L 605.5 151 Z " /><path fill="rgb(153,148,147)" stroke="rgb(153,148,147)" stroke-width="0" opacity="1" d="M 205.5 152 L 230 152.5 L 205.5 153 L 205.5 152 Z " /><path fill="rgb(153,148,147)" stroke="rgb(153,148,147)" stroke-width="0" opacity="1" d="M 312.5 152 L 341 152.5 L 312.5 153 L 312.5 152 Z " /><path fill="rgb(153,148,147)" stroke="rgb(153,148,147)" stroke-width="0" opacity="1" d="M 410.5 152 L 436 152.5 L 410.5 153 L 410.5 152 Z " /><path fill="rgb(153,148,147)" stroke="rgb(153,148,147)" stroke-width="0" opacity="1" d="M 513.5 152 L 521 152.5 L 513.5 153 L 513.5 152 Z " /><path fill="rgb(153,148,147)" stroke="rgb(153,148,147)" stroke-width="0" opacity="1" d="M 562.5 152 L 570 152.5 L 562.5 153 L 562.5 152 Z " /><path fill="rgb(153,148,147)" stroke="rgb(153,148,147)" stroke-width="0" opacity="1" d="M 729.5 152 L 733 152.5 L 729.5 153 L 729.5 152 Z " /><path fill="rgb(153,148,147)" stroke="rgb(153,148,147)" stroke-width="0" opacity="1" d="M 738.5 152 L 742 152.5 L 738.5 153 L 738.5 152 Z " /><path fill="rgb(153,148,147)" stroke="rgb(153,148,147)" stroke-width="0" opacity="1" d="M 63.5 185 L 64 187.5 L 63 187.5 L 63.5 185 Z " /><path fill="rgb(153,148,147)" stroke="rgb(153,148,147)" stroke-width="0" opacity="1" d="M 75.5 185 L 76 189.5 L 75 189.5 L 75.5 185 Z " /><path fill="rgb(153,148,147)" stroke="rgb(153,148,147)" stroke-width="0" opacity="1" d="M 107.5 193 L 102.5 199 L 107.5 193 Z " /><path fill="rgb(153,148,147)" stroke="rgb(153,148,147)" stroke-width="0" opacity="1" d="M 77.5 195 L 81.5 200 L 77.5 195 Z " /><path fill="rgb(153,148,147)" stroke="rgb(153,148,147)" stroke-width="0" opacity="1" d="M 63.5 196 L 64 198.5 L 63 198.5 L 63.5 196 Z " /><path fill="rgb(153,148,147)" stroke="rgb(153,148,147)" stroke-width="0" opacity="1" d="M 121.5 201 L 120.5 203 L 121.5 201 Z " /><path fill="rgb(153,148,147)" stroke="rgb(153,148,147)" stroke-width="0" opacity="1" d="M 89.5 202 L 94 202.5 L 89.5 203 L 89.5 202 Z " /><path fill="rgb(153,148,147)" stroke="rgb(153,148,147)" stroke-width="0" opacity="1" d="M 119.5 204 L 113.5 211 L 119.5 204 Z " /><path fill="rgb(153,148,147)" stroke="rgb(153,148,147)" stroke-width="0" opacity="1" d="M 66.5 205 L 67.5 207 L 66.5 205 Z " /><path fill="rgb(153,148,147)" stroke="rgb(153,148,147)" stroke-width="0" opacity="1" d="M 71.5 210 L 72.5 212 L 71.5 210 Z " /><path fill="rgb(153,148,147)" stroke="rgb(153,148,147)" stroke-width="0" opacity="1" d="M 86.5 217 L 98 217.5 L 86.5 218 L 86.5 217 Z " /></svg>