<svg viewBox="0 0 800 800" version="1.1" xmlns="http://www.w3.org/2000/svg" desc="Created with imagetracer.js version 1.2.6" ><path fill="rgb(254,254,254)" stroke="rgb(254,254,254)" stroke-width="0" opacity="1" d="M 0 0 L 800 0 L 800 800 L 0 800 L 0 0 Z M 349 342 L 339 346 L 331 346 L 330 345 Q 323 344 322 349 L 325 350 Q 329 351 331 349 L 333 350 L 310 432 L 299 466 L 300 469 L 313 469 L 314 468 L 317 453 L 326 424 L 335 425 L 337 428 L 340 436 L 340 454 L 343 466 L 349 470 Q 358 472 363 468 Q 372 461 376 449 Q 377 445 374 446 L 368 459 L 363 464 L 359 464 L 356 461 L 355 441 L 351 431 L 346 425 L 338 422 L 344 419 L 351 412 L 355 402 L 361 397 L 364 404 L 368 406 L 374 405 Q 378 403 377 395 L 372 390 L 360 391 L 355 396 L 346 413 Q 341 421 327 420 L 349 346 L 349 342 Z M 411 342 L 408 345 L 403 346 L 389 346 L 388 345 L 385 346 L 383 349 L 386 350 Q 392 352 394 349 L 397 350 L 397 463 L 396 466 L 390 466 L 389 465 L 387 466 Q 382 464 383 468 L 385 469 L 424 469 L 425 466 L 414 466 L 412 465 L 412 417 L 417 409 Q 423 400 434 397 L 442 398 L 446 406 L 446 466 L 439 466 L 438 465 L 436 466 Q 432 465 433 468 L 435 469 L 474 469 L 475 466 L 463 466 L 461 465 L 461 443 L 462 442 L 462 411 L 458 402 Q 453 396 446 394 L 431 394 L 421 400 L 413 410 L 412 347 L 411 342 Z M 96 355 L 90 360 L 91 369 L 96 372 Q 103 373 106 370 L 108 367 L 107 358 Q 104 353 96 355 Z M 48 373 L 41 390 Q 37 395 31 397 Q 23 396 20 398 L 21 401 L 34 401 L 35 406 L 34 437 L 33 438 L 33 454 L 35 463 Q 39 469 49 471 L 62 470 L 68 467 L 73 461 L 72 457 L 69 461 L 61 467 L 54 467 L 49 462 Q 51 455 48 454 L 49 401 L 72 401 L 73 400 L 72 398 L 49 398 L 49 375 L 48 373 Z M 173 394 Q 161 398 155 408 Q 156 410 153 409 L 153 402 L 154 401 L 153 395 L 145 398 L 126 398 L 124 400 L 126 401 L 139 401 L 138 404 L 139 405 L 139 420 L 139 422 L 139 454 L 138 455 L 138 466 L 131 466 L 130 465 L 128 466 Q 124 465 125 468 L 127 469 L 165 469 L 166 466 L 155 466 L 153 465 L 153 418 L 158 409 Q 164 400 176 397 L 183 398 L 186 402 L 188 409 L 188 459 L 187 460 L 187 466 L 181 466 L 180 465 L 174 468 L 177 469 L 215 469 L 216 468 L 216 466 L 203 466 L 203 434 L 204 433 L 204 415 L 201 404 Q 194 391 173 394 Z M 252 394 L 240 400 L 231 410 L 227 418 L 224 430 L 225 444 L 232 459 Q 239 468 252 471 L 266 471 L 277 466 Q 286 460 289 448 Q 290 443 288 444 L 281 458 Q 274 466 262 468 L 251 466 Q 244 462 242 453 L 242 426 L 272 426 L 273 427 L 280 427 L 288 425 Q 287 414 281 407 Q 275 399 266 395 L 252 394 Z M 516 394 L 507 396 L 498 401 L 488 412 L 483 427 Q 482 437 484 444 L 492 459 Q 499 468 513 471 Q 532 473 541 465 Q 552 457 556 442 L 556 426 Q 554 414 548 407 Q 539 393 516 394 Z M 613 394 L 604 398 L 595 409 L 594 397 L 593 395 L 585 398 L 565 398 L 566 401 L 579 401 L 579 461 L 578 466 L 572 466 L 571 465 L 568 466 Q 564 465 565 468 L 567 469 L 606 469 L 606 466 L 594 466 L 594 437 L 593 436 Q 590 415 599 407 Q 604 400 614 397 L 622 398 L 626 403 L 628 412 L 628 420 L 627 421 L 627 466 L 621 466 L 620 465 L 614 466 L 616 469 L 654 469 L 655 468 L 655 466 L 643 466 L 643 444 L 642 443 L 642 421 Q 644 411 650 405 Q 654 399 663 397 Q 669 396 672 399 L 676 408 L 676 419 L 677 420 L 676 466 L 670 466 L 669 465 L 665 466 Q 662 465 663 468 L 666 469 L 703 469 L 704 466 L 693 466 L 691 465 L 691 433 L 692 432 L 692 415 Q 690 413 691 409 L 688 403 Q 683 396 674 394 Q 657 393 650 400 L 643 411 L 639 402 Q 634 396 627 394 L 613 394 Z M 740 394 L 730 399 Q 717 408 713 426 L 713 442 Q 715 452 721 459 Q 729 468 743 471 Q 759 472 767 465 Q 776 459 778 446 L 775 444 L 771 456 L 764 463 L 750 468 Q 742 468 738 465 L 732 458 L 730 448 L 730 426 L 776 426 L 775 417 L 769 406 L 758 396 Q 751 392 740 394 Z M 105 395 Q 95 400 80 398 L 78 401 L 91 401 L 92 403 L 91 405 L 91 420 L 92 421 L 92 453 L 91 454 L 91 466 L 85 466 L 84 465 L 78 468 L 80 469 L 119 469 L 120 466 L 108 466 L 106 465 L 106 396 L 105 395 Z " /><path fill="rgb(254,254,254)" stroke="rgb(254,254,254)" stroke-width="0" opacity="1" d="M 253.5 397 L 260.5 397 L 268 402.5 L 270 407.5 L 271 421.5 Q 269.8 424.3 268.5 422 L 243.5 422 L 242.5 423 L 241 421.5 L 241 413.5 Q 242.7 402.7 250.5 398 L 253.5 397 Z " /><path fill="rgb(254,254,254)" stroke="rgb(254,254,254)" stroke-width="0" opacity="1" d="M 518.5 397 L 528.5 398 L 535 402.5 L 539 413.5 L 540 439.5 L 539 440.5 L 538 456.5 L 533.5 464 Q 527.9 469.4 515.5 468 Q 507.2 466.3 503 460.5 L 500 448.5 L 500 413.5 L 502 406.5 L 506.5 401 L 512.5 398 Q 517.3 399.2 518.5 397 Z " /><path fill="rgb(254,254,254)" stroke="rgb(254,254,254)" stroke-width="0" opacity="1" d="M 741.5 397 L 749.5 397 L 756 401.5 Q 760.8 408.9 759 422 L 744.5 423 L 743.5 422 L 730 422 Q 728 406.4 736.5 400 L 741.5 397 Z " /><path fill="rgb(6,6,6)" stroke="rgb(6,6,6)" stroke-width="0" opacity="1" d="M 347.5 343 L 349 343.5 L 326 419.5 Q 327 422 331.5 421 Q 343.1 419.1 348 410.5 Q 351.6 398.1 360.5 391 L 369.5 390 L 375 392 L 377 399.5 L 372.5 405 Q 365.5 406.5 364 402.5 L 360.5 396 L 355 400.5 L 351 410.5 L 344.5 418 L 336 421 Q 334.7 424.3 339.5 423 Q 347.4 425.1 351 431.5 L 355 442.5 L 356 461.5 L 358.5 464 L 360.5 465 L 367 460.5 Q 372.3 454.8 373 446 Q 376.7 444.6 375 450.5 L 364.5 466 Q 360.5 471 350.5 470 L 343 464.5 L 341 458.5 L 340 433.5 L 335.5 425 Q 332.3 422 326 423 Q 317.8 443.8 313 468 L 299 467.5 L 334 350.5 L 332.5 349 L 323 349 L 324.5 346 L 340.5 346 L 347.5 343 Z " /><path fill="rgb(6,6,6)" stroke="rgb(6,6,6)" stroke-width="0" opacity="1" d="M 410.5 343 L 411.5 411 L 423.5 398 L 433.5 394 L 443.5 394 Q 453.9 396.1 459 403.5 L 462 414.5 L 462 431.5 L 461 432.5 L 461 466 L 473.5 466 L 474 467.5 Q 472.8 470.3 467.5 469 L 466.5 468 L 440.5 468 L 436.5 469 L 433 467.5 L 434.5 466 L 447 466 L 447 407.5 Q 445.9 400.1 440.5 397 L 428.5 398 L 419 405.5 L 411 417.5 L 411 464.5 L 412.5 466 L 424 466 Q 425.1 468.7 422.5 468 L 417.5 469 L 416.5 468 L 390.5 468 L 386.5 469 L 384 468 L 384.5 466 L 397 466 L 397 446.5 L 398 445.5 L 398 350.5 L 396.5 349 L 384 349 L 385.5 346 L 405.5 346 L 410.5 343 Z " /><path fill="rgb(6,6,6)" stroke="rgb(6,6,6)" stroke-width="0" opacity="1" d="M 97.5 355 Q 105.1 353.9 107 358.5 L 108 365.5 L 103.5 371 L 96.5 372 L 92 370 Q 89.3 367.4 90 360.5 L 92.5 357 L 97.5 355 Z " /><path fill="rgb(6,6,6)" stroke="rgb(6,6,6)" stroke-width="0" opacity="1" d="M 47.5 374 L 48 396.5 L 49.5 398 L 59.5 399 L 60.5 398 L 68.5 398 L 72 399.5 L 70.5 401 L 49 401 L 49 424.5 L 48 425.5 L 48 459.5 L 52.5 467 L 59.5 468 L 69 461.5 L 70 458 Q 73.8 456.5 73 459.5 L 66.5 467 Q 59.9 471.9 46.5 470 Q 39.6 468.4 36 463.5 L 34 457.5 L 34 428.5 L 35 427.5 L 35 401 L 21.5 401 L 20 399.5 L 21.5 398 L 31.5 397 L 40 391.5 Q 45.8 384.8 47.5 374 Z " /><path fill="rgb(6,6,6)" stroke="rgb(6,6,6)" stroke-width="0" opacity="1" d="M 175.5 394 Q 192.1 392.9 199 401.5 L 203 410.5 L 203 441.5 L 202 442.5 L 202 464.5 L 203.5 466 L 214.5 466 L 216 467.5 Q 214.3 469.8 209.5 469 L 208.5 468 L 181.5 468 L 177.5 469 L 175 468 L 175.5 466 L 186.5 466 L 188 464.5 L 188 422.5 L 189 421.5 L 189 413.5 L 187 402.5 L 183.5 398 Q 180.3 395.7 173.5 397 Q 165 399.5 160 405.5 Q 150.2 413.2 152 432.5 L 153 433.5 L 153 466 L 164.5 466 L 166 467.5 Q 164.3 469.8 159.5 469 L 158.5 468 L 132.5 468 L 127.5 469 L 125 467.5 L 126.5 466 L 137.5 466 L 139 464.5 L 139 401.5 L 138.5 401 L 126.5 401 Q 123.5 399.5 126.5 398 L 147.5 398 L 152.5 395 L 153.5 410 L 165.5 398 L 175.5 394 Z " /><path fill="rgb(6,6,6)" stroke="rgb(6,6,6)" stroke-width="0" opacity="1" d="M 615.5 394 Q 632.3 393.2 639 402.5 Q 642 405.8 641 412 Q 643.7 413.1 643 410.5 L 651.5 399 L 660.5 395 L 669.5 394 L 680.5 397 L 688 403.5 L 691 411.5 L 691 440.5 L 690 441.5 L 690 464.5 L 691.5 466 L 704 466 Q 705.1 468.7 702.5 468 L 697.5 469 L 696.5 468 L 682.5 468 L 678.5 469 L 677.5 468 L 663 467.5 L 664.5 466 L 676 466 L 676 452.5 L 677 451.5 L 677 410.5 L 674 401.5 L 670.5 398 Q 667.3 395.7 660.5 397 Q 651.8 400.3 647 407.5 L 642 417.5 L 641 433.5 L 642 434.5 L 643 461.5 L 642 464.5 L 643.5 466 L 655 466 Q 656.1 468.7 653.5 468 L 648.5 469 L 647.5 468 L 621.5 468 L 617.5 469 L 614 467.5 L 615.5 466 L 628 466 L 628 407.5 L 622.5 398 L 611.5 397 Q 602.1 400.6 597 408.5 L 593 416.5 L 592 427.5 L 593 428.5 L 593 466 L 605.5 466 L 606 468 L 599.5 469 L 598.5 468 L 572.5 468 L 568.5 469 L 565 467.5 L 566.5 466 L 579 466 L 579 401.5 L 578.5 401 L 566.5 401 Q 563.5 399.5 566.5 398 L 587.5 398 L 592.5 395 L 593 410 L 596 408.5 L 601.5 400 L 610.5 395 L 615.5 394 Z " /><path fill="rgb(6,6,6)" stroke="rgb(6,6,6)" stroke-width="0" opacity="1" d="M 741.5 394 L 749.5 394 L 756.5 396 L 769 406.5 L 774 415.5 L 776 424.5 L 771.5 426 L 730 426 L 730 451.5 L 733 460.5 L 738.5 466 Q 743.2 469.3 752.5 468 Q 764.5 465 771 456.5 L 776.5 444 L 777 449.5 Q 773.2 460.2 764.5 466 Q 757.9 470.9 746.5 471 L 736.5 469 L 730.5 466 L 720 456.5 Q 712.1 446.9 713 428.5 Q 716.3 410.8 727.5 401 L 741.5 394 Z M 744 396 L 739 398 Q 731 403 729 415 Q 728 421 730 423 L 759 423 L 760 422 L 760 414 L 757 403 Q 754 396 744 396 Z " /><path fill="rgb(6,6,6)" stroke="rgb(6,6,6)" stroke-width="0" opacity="1" d="M 104.5 395 L 106 400.5 L 106 466 L 119.5 466 L 120 468 L 113.5 469 L 112.5 468 L 85.5 468 L 81.5 469 L 79 468 L 79.5 466 L 90.5 466 L 91 464.5 L 92 463.5 L 92 401 L 80.5 401 L 79 399.5 L 80.5 398 L 88.5 398 L 90.5 398 Q 100.3 399.3 104.5 395 Z " /><path fill="rgb(6,6,6)" stroke="rgb(6,6,6)" stroke-width="0" opacity="1" d="M 249.5 395 Q 260.3 393.3 266.5 396 Q 275.9 399.6 281 407.5 Q 286.5 414.2 287 425 L 283.5 426 L 242 426 L 241 430.5 L 241 449.5 L 243 457.5 L 248.5 465 Q 253.3 469.7 264.5 468 Q 276.7 464.7 283 455.5 L 287.5 445 Q 289.8 444.3 289 446.5 Q 286.1 457.6 278.5 464 L 267.5 470 L 255.5 471 L 246.5 469 L 235 462 L 227 448.5 L 225 440.5 L 225 426.5 Q 228.8 408.3 241.5 399 L 249.5 395 Z M 255 396 L 249 399 Q 243 403 241 411 L 241 423 L 271 423 Q 273 408 267 401 Q 263 396 255 396 Z " /><path fill="rgb(6,6,6)" stroke="rgb(6,6,6)" stroke-width="0" opacity="1" d="M 512.5 395 Q 539.4 393.1 549 408.5 Q 556.8 419.7 556 439.5 Q 552.6 454.6 542.5 463 Q 534 472 515.5 471 Q 499.1 467.9 491 456.5 Q 482.8 447.2 483 429.5 L 488 412.5 L 495.5 403 Q 502.1 397.1 512.5 395 Z M 516 397 L 508 400 L 502 406 L 499 417 L 499 444 L 500 445 L 500 453 L 501 458 L 504 463 L 511 467 L 520 469 L 532 466 L 536 462 L 540 450 L 540 418 L 536 404 Q 531 395 516 397 Z " /><path fill="rgb(136,136,136)" stroke="rgb(136,136,136)" stroke-width="0" opacity="1" d="M 410.5 342 L 408.5 345 L 410.5 342 Z " /><path fill="rgb(136,136,136)" stroke="rgb(136,136,136)" stroke-width="0" opacity="1" d="M 326.5 345 L 330 345.5 L 326.5 346 L 326.5 345 Z " /><path fill="rgb(136,136,136)" stroke="rgb(136,136,136)" stroke-width="0" opacity="1" d="M 403.5 345 L 406 345.5 L 403.5 346 L 403.5 345 Z " /><path fill="rgb(136,136,136)" stroke="rgb(136,136,136)" stroke-width="0" opacity="1" d="M 384.5 346 L 384 347.5 L 383.5 349 L 383 347.5 L 384.5 346 Z " /><path fill="rgb(136,136,136)" stroke="rgb(136,136,136)" stroke-width="0" opacity="1" d="M 411.5 346 L 412 410.5 L 411 410.5 L 411.5 346 Z " /><path fill="rgb(136,136,136)" stroke="rgb(136,136,136)" stroke-width="0" opacity="1" d="M 324.5 349 L 330 349.5 L 324.5 350 L 324.5 349 Z " /><path fill="rgb(136,136,136)" stroke="rgb(136,136,136)" stroke-width="0" opacity="1" d="M 331.5 349 L 334 350.5 L 332.5 350 L 331.5 349 Z " /><path fill="rgb(136,136,136)" stroke="rgb(136,136,136)" stroke-width="0" opacity="1" d="M 385.5 349 L 393 349.5 L 385.5 350 L 385.5 349 Z " /><path fill="rgb(136,136,136)" stroke="rgb(136,136,136)" stroke-width="0" opacity="1" d="M 394.5 349 L 398 350.5 L 397.5 446 L 397 350 Q 393.7 350.8 394.5 349 Z " /><path fill="rgb(136,136,136)" stroke="rgb(136,136,136)" stroke-width="0" opacity="1" d="M 105.5 356 L 106.5 358 L 105.5 356 Z " /><path fill="rgb(136,136,136)" stroke="rgb(136,136,136)" stroke-width="0" opacity="1" d="M 106.5 368 L 105.5 370 L 106.5 368 Z " /><path fill="rgb(136,136,136)" stroke="rgb(136,136,136)" stroke-width="0" opacity="1" d="M 47.5 373 L 49 374.5 L 49 396.5 L 48 396.5 L 47.5 374 L 46.5 377 L 46 374.5 L 47.5 373 Z " /><path fill="rgb(136,136,136)" stroke="rgb(136,136,136)" stroke-width="0" opacity="1" d="M 43.5 384 L 44 385.5 L 42 386.5 L 43.5 384 Z " /><path fill="rgb(136,136,136)" stroke="rgb(136,136,136)" stroke-width="0" opacity="1" d="M 39.5 391 L 38.5 393 L 39.5 391 Z " /><path fill="rgb(136,136,136)" stroke="rgb(136,136,136)" stroke-width="0" opacity="1" d="M 359.5 391 L 355.5 396 L 359.5 391 Z " /><path fill="rgb(136,136,136)" stroke="rgb(136,136,136)" stroke-width="0" opacity="1" d="M 375.5 393 L 377 395.5 L 376 395.5 L 375.5 393 Z " /><path fill="rgb(136,136,136)" stroke="rgb(136,136,136)" stroke-width="0" opacity="1" d="M 172.5 394 L 175 394.5 L 172.5 395 L 172.5 394 Z " /><path fill="rgb(136,136,136)" stroke="rgb(136,136,136)" stroke-width="0" opacity="1" d="M 251.5 394 L 262 394.5 L 251.5 395 L 251.5 394 Z " /><path fill="rgb(136,136,136)" stroke="rgb(136,136,136)" stroke-width="0" opacity="1" d="M 430.5 394 L 433 394.5 L 430.5 395 L 430.5 394 Z " /><path fill="rgb(136,136,136)" stroke="rgb(136,136,136)" stroke-width="0" opacity="1" d="M 515.5 394 L 524 394.5 L 515.5 395 L 515.5 394 Z " /><path fill="rgb(136,136,136)" stroke="rgb(136,136,136)" stroke-width="0" opacity="1" d="M 612.5 394 L 615 394.5 L 612.5 395 L 612.5 394 Z " /><path fill="rgb(136,136,136)" stroke="rgb(136,136,136)" stroke-width="0" opacity="1" d="M 624.5 394 L 627 394.5 L 624.5 395 L 624.5 394 Z " /><path fill="rgb(136,136,136)" stroke="rgb(136,136,136)" stroke-width="0" opacity="1" d="M 662.5 394 L 666 394.5 L 662.5 395 L 662.5 394 Z " /><path fill="rgb(136,136,136)" stroke="rgb(136,136,136)" stroke-width="0" opacity="1" d="M 670.5 394 L 674 394.5 L 670.5 395 L 670.5 394 Z " /><path fill="rgb(136,136,136)" stroke="rgb(136,136,136)" stroke-width="0" opacity="1" d="M 105.5 395 L 106 399.5 L 105 399.5 L 105.5 395 Z " /><path fill="rgb(136,136,136)" stroke="rgb(136,136,136)" stroke-width="0" opacity="1" d="M 527.5 395 L 530 395.5 L 527.5 396 L 527.5 395 Z " /><path fill="rgb(136,136,136)" stroke="rgb(136,136,136)" stroke-width="0" opacity="1" d="M 591.5 395 L 590.5 397 L 591.5 395 Z " /><path fill="rgb(136,136,136)" stroke="rgb(136,136,136)" stroke-width="0" opacity="1" d="M 254.5 396 L 259 396.5 L 254.5 397 L 254.5 396 Z " /><path fill="rgb(136,136,136)" stroke="rgb(136,136,136)" stroke-width="0" opacity="1" d="M 360.5 396 L 361.5 398 L 360.5 396 Z " /><path fill="rgb(136,136,136)" stroke="rgb(136,136,136)" stroke-width="0" opacity="1" d="M 593.5 396 L 594.5 409 L 596 408.5 L 593 410 L 593.5 396 Z " /><path fill="rgb(136,136,136)" stroke="rgb(136,136,136)" stroke-width="0" opacity="1" d="M 743.5 396 L 748 396.5 L 743.5 397 L 743.5 396 Z " /><path fill="rgb(136,136,136)" stroke="rgb(136,136,136)" stroke-width="0" opacity="1" d="M 22.5 397 L 28 397.5 L 22.5 398 L 22.5 397 Z " /><path fill="rgb(136,136,136)" stroke="rgb(136,136,136)" stroke-width="0" opacity="1" d="M 96.5 397 L 99 397.5 L 96.5 398 L 96.5 397 Z " /><path fill="rgb(136,136,136)" stroke="rgb(136,136,136)" stroke-width="0" opacity="1" d="M 145.5 397 L 148 397.5 L 145.5 398 L 145.5 397 Z " /><path fill="rgb(136,136,136)" stroke="rgb(136,136,136)" stroke-width="0" opacity="1" d="M 194.5 397 L 195.5 399 L 194.5 397 Z " /><path fill="rgb(136,136,136)" stroke="rgb(136,136,136)" stroke-width="0" opacity="1" d="M 358.5 397 L 355.5 401 L 358.5 397 Z " /><path fill="rgb(136,136,136)" stroke="rgb(136,136,136)" stroke-width="0" opacity="1" d="M 515.5 397 L 518 397.5 L 515.5 398 L 515.5 397 Z " /><path fill="rgb(136,136,136)" stroke="rgb(136,136,136)" stroke-width="0" opacity="1" d="M 524.5 397 L 527 397.5 L 524.5 398 L 524.5 397 Z " /><path fill="rgb(136,136,136)" stroke="rgb(136,136,136)" stroke-width="0" opacity="1" d="M 585.5 397 L 588 397.5 L 585.5 398 L 585.5 397 Z " /><path fill="rgb(136,136,136)" stroke="rgb(136,136,136)" stroke-width="0" opacity="1" d="M 681.5 397 L 682.5 399 L 681.5 397 Z " /><path fill="rgb(136,136,136)" stroke="rgb(136,136,136)" stroke-width="0" opacity="1" d="M 759.5 397 L 760.5 399 L 759.5 397 Z " /><path fill="rgb(136,136,136)" stroke="rgb(136,136,136)" stroke-width="0" opacity="1" d="M 53.5 398 L 60 398.5 L 53.5 399 L 53.5 398 Z " /><path fill="rgb(136,136,136)" stroke="rgb(136,136,136)" stroke-width="0" opacity="1" d="M 69.5 398 L 73 399.5 L 71 400.5 L 71.5 399 Q 68.5 399.5 69.5 398 Z " /><path fill="rgb(136,136,136)" stroke="rgb(136,136,136)" stroke-width="0" opacity="1" d="M 79.5 398 L 79.5 401 Q 77.3 401.8 78 399.5 L 79.5 398 Z " /><path fill="rgb(136,136,136)" stroke="rgb(136,136,136)" stroke-width="0" opacity="1" d="M 125.5 398 L 125.5 401 Q 122.5 399.5 125.5 398 Z " /><path fill="rgb(136,136,136)" stroke="rgb(136,136,136)" stroke-width="0" opacity="1" d="M 164.5 398 L 155.5 408 L 164.5 398 Z " /><path fill="rgb(136,136,136)" stroke="rgb(136,136,136)" stroke-width="0" opacity="1" d="M 183.5 398 L 185.5 401 L 183.5 398 Z " /><path fill="rgb(136,136,136)" stroke="rgb(136,136,136)" stroke-width="0" opacity="1" d="M 603.5 398 L 602.5 400 L 603.5 398 Z " /><path fill="rgb(136,136,136)" stroke="rgb(136,136,136)" stroke-width="0" opacity="1" d="M 622.5 398 L 624.5 401 L 622.5 398 Z " /><path fill="rgb(136,136,136)" stroke="rgb(136,136,136)" stroke-width="0" opacity="1" d="M 738.5 398 L 737.5 400 L 738.5 398 Z " /><path fill="rgb(136,136,136)" stroke="rgb(136,136,136)" stroke-width="0" opacity="1" d="M 752.5 398 L 753.5 400 L 752.5 398 Z " /><path fill="rgb(136,136,136)" stroke="rgb(136,136,136)" stroke-width="0" opacity="1" d="M 248.5 399 L 245.5 403 L 248.5 399 Z " /><path fill="rgb(136,136,136)" stroke="rgb(136,136,136)" stroke-width="0" opacity="1" d="M 265.5 399 L 266.5 401 L 265.5 399 Z " /><path fill="rgb(136,136,136)" stroke="rgb(136,136,136)" stroke-width="0" opacity="1" d="M 353.5 399 L 352.5 401 L 353.5 399 Z " /><path fill="rgb(136,136,136)" stroke="rgb(136,136,136)" stroke-width="0" opacity="1" d="M 455.5 399 L 457.5 402 L 455.5 399 Z " /><path fill="rgb(136,136,136)" stroke="rgb(136,136,136)" stroke-width="0" opacity="1" d="M 531.5 399 L 532.5 401 L 531.5 399 Z " /><path fill="rgb(136,136,136)" stroke="rgb(136,136,136)" stroke-width="0" opacity="1" d="M 636.5 399 L 638.5 402 L 636.5 399 Z " /><path fill="rgb(136,136,136)" stroke="rgb(136,136,136)" stroke-width="0" opacity="1" d="M 684.5 399 L 687.5 403 L 684.5 399 Z " /><path fill="rgb(136,136,136)" stroke="rgb(136,136,136)" stroke-width="0" opacity="1" d="M 729.5 399 L 728.5 401 L 729.5 399 Z " /><path fill="rgb(136,136,136)" stroke="rgb(136,136,136)" stroke-width="0" opacity="1" d="M 166.5 400 L 165.5 402 L 166.5 400 Z " /><path fill="rgb(136,136,136)" stroke="rgb(136,136,136)" stroke-width="0" opacity="1" d="M 239.5 400 L 233.5 407 L 239.5 400 Z " /><path fill="rgb(136,136,136)" stroke="rgb(136,136,136)" stroke-width="0" opacity="1" d="M 274.5 400 L 280.5 407 L 274.5 400 Z " /><path fill="rgb(136,136,136)" stroke="rgb(136,136,136)" stroke-width="0" opacity="1" d="M 420.5 400 L 417.5 404 L 420.5 400 Z " /><path fill="rgb(136,136,136)" stroke="rgb(136,136,136)" stroke-width="0" opacity="1" d="M 605.5 400 L 603.5 403 L 605.5 400 Z " /><path fill="rgb(136,136,136)" stroke="rgb(136,136,136)" stroke-width="0" opacity="1" d="M 649.5 400 L 648.5 402 L 649.5 400 Z " /><path fill="rgb(136,136,136)" stroke="rgb(136,136,136)" stroke-width="0" opacity="1" d="M 654.5 400 L 653.5 402 L 654.5 400 Z " /><path fill="rgb(136,136,136)" stroke="rgb(136,136,136)" stroke-width="0" opacity="1" d="M 672.5 400 L 673.5 402 L 672.5 400 Z " /><path fill="rgb(136,136,136)" stroke="rgb(136,136,136)" stroke-width="0" opacity="1" d="M 763.5 400 L 768.5 406 L 763.5 400 Z " /><path fill="rgb(136,136,136)" stroke="rgb(136,136,136)" stroke-width="0" opacity="1" d="M 34.5 401 L 35 404.5 L 34 404.5 L 34.5 401 Z " /><path fill="rgb(136,136,136)" stroke="rgb(136,136,136)" stroke-width="0" opacity="1" d="M 497.5 401 L 496.5 403 L 497.5 401 Z " /><path fill="rgb(136,136,136)" stroke="rgb(136,136,136)" stroke-width="0" opacity="1" d="M 199.5 402 L 200.5 404 L 199.5 402 Z " /><path fill="rgb(136,136,136)" stroke="rgb(136,136,136)" stroke-width="0" opacity="1" d="M 375.5 402 L 373.5 405 L 375.5 402 Z " /><path fill="rgb(136,136,136)" stroke="rgb(136,136,136)" stroke-width="0" opacity="1" d="M 422.5 402 L 419.5 406 L 422.5 402 Z " /><path fill="rgb(136,136,136)" stroke="rgb(136,136,136)" stroke-width="0" opacity="1" d="M 543.5 402 L 547.5 407 L 543.5 402 Z " /><path fill="rgb(136,136,136)" stroke="rgb(136,136,136)" stroke-width="0" opacity="1" d="M 599.5 402 L 598.5 404 L 599.5 402 Z " /><path fill="rgb(136,136,136)" stroke="rgb(136,136,136)" stroke-width="0" opacity="1" d="M 734.5 402 L 733.5 404 L 734.5 402 Z " /><path fill="rgb(136,136,136)" stroke="rgb(136,136,136)" stroke-width="0" opacity="1" d="M 162.5 403 L 160.5 406 L 162.5 403 Z " /><path fill="rgb(136,136,136)" stroke="rgb(136,136,136)" stroke-width="0" opacity="1" d="M 364.5 403 L 365.5 405 L 364.5 403 Z " /><path fill="rgb(136,136,136)" stroke="rgb(136,136,136)" stroke-width="0" opacity="1" d="M 639.5 403 L 641 405.5 L 640 405.5 L 639.5 403 Z " /><path fill="rgb(136,136,136)" stroke="rgb(136,136,136)" stroke-width="0" opacity="1" d="M 91.5 404 L 92 419.5 L 91 419.5 L 91.5 404 Z " /><path fill="rgb(136,136,136)" stroke="rgb(136,136,136)" stroke-width="0" opacity="1" d="M 244.5 404 L 243.5 406 L 244.5 404 Z " /><path fill="rgb(136,136,136)" stroke="rgb(136,136,136)" stroke-width="0" opacity="1" d="M 503.5 404 L 502.5 406 L 503.5 404 Z " /><path fill="rgb(136,136,136)" stroke="rgb(136,136,136)" stroke-width="0" opacity="1" d="M 187.5 405 L 188 407.5 L 187 407.5 L 187.5 405 Z " /><path fill="rgb(136,136,136)" stroke="rgb(136,136,136)" stroke-width="0" opacity="1" d="M 367.5 405 L 371 405.5 L 367.5 406 L 367.5 405 Z " /><path fill="rgb(136,136,136)" stroke="rgb(136,136,136)" stroke-width="0" opacity="1" d="M 597.5 405 L 596.5 407 L 597.5 405 Z " /><path fill="rgb(136,136,136)" stroke="rgb(136,136,136)" stroke-width="0" opacity="1" d="M 649.5 405 L 647.5 408 L 649.5 405 Z " /><path fill="rgb(136,136,136)" stroke="rgb(136,136,136)" stroke-width="0" opacity="1" d="M 723.5 405 L 721.5 408 L 723.5 405 Z " /><path fill="rgb(136,136,136)" stroke="rgb(136,136,136)" stroke-width="0" opacity="1" d="M 492.5 406 L 490.5 409 L 492.5 406 Z " /><path fill="rgb(136,136,136)" stroke="rgb(136,136,136)" stroke-width="0" opacity="1" d="M 414.5 407 L 413.5 409 L 414.5 407 Z " /><path fill="rgb(136,136,136)" stroke="rgb(136,136,136)" stroke-width="0" opacity="1" d="M 446.5 407 L 447 465.5 L 446 465.5 L 446.5 407 Z " /><path fill="rgb(136,136,136)" stroke="rgb(136,136,136)" stroke-width="0" opacity="1" d="M 598.5 407 L 597.5 409 L 598.5 407 Z " /><path fill="rgb(136,136,136)" stroke="rgb(136,136,136)" stroke-width="0" opacity="1" d="M 627.5 407 L 628 410.5 L 627 410.5 L 627.5 407 Z " /><path fill="rgb(136,136,136)" stroke="rgb(136,136,136)" stroke-width="0" opacity="1" d="M 641.5 407 L 643 411.5 L 641 412 L 641.5 407 Z " /><path fill="rgb(136,136,136)" stroke="rgb(136,136,136)" stroke-width="0" opacity="1" d="M 769.5 407 L 770.5 409 L 769.5 407 Z " /><path fill="rgb(136,136,136)" stroke="rgb(136,136,136)" stroke-width="0" opacity="1" d="M 232.5 408 L 231.5 410 L 232.5 408 Z " /><path fill="rgb(136,136,136)" stroke="rgb(136,136,136)" stroke-width="0" opacity="1" d="M 281.5 408 L 282.5 410 L 281.5 408 Z " /><path fill="rgb(136,136,136)" stroke="rgb(136,136,136)" stroke-width="0" opacity="1" d="M 690.5 408 L 691 410.5 L 690 410.5 L 690.5 408 Z " /><path fill="rgb(136,136,136)" stroke="rgb(136,136,136)" stroke-width="0" opacity="1" d="M 157.5 409 L 156.5 411 L 157.5 409 Z " /><path fill="rgb(136,136,136)" stroke="rgb(136,136,136)" stroke-width="0" opacity="1" d="M 416.5 409 L 415.5 411 L 416.5 409 Z " /><path fill="rgb(136,136,136)" stroke="rgb(136,136,136)" stroke-width="0" opacity="1" d="M 646.5 409 L 645.5 411 L 646.5 409 Z " /><path fill="rgb(136,136,136)" stroke="rgb(136,136,136)" stroke-width="0" opacity="1" d="M 720.5 409 L 719.5 411 L 720.5 409 Z " /><path fill="rgb(136,136,136)" stroke="rgb(136,136,136)" stroke-width="0" opacity="1" d="M 241.5 410 L 242 412.5 L 241 412.5 L 241.5 410 Z " /><path fill="rgb(136,136,136)" stroke="rgb(136,136,136)" stroke-width="0" opacity="1" d="M 270.5 410 L 271 413.5 L 270 413.5 L 270.5 410 Z " /><path fill="rgb(136,136,136)" stroke="rgb(136,136,136)" stroke-width="0" opacity="1" d="M 347.5 410 L 346.5 412 L 347.5 410 Z " /><path fill="rgb(136,136,136)" stroke="rgb(136,136,136)" stroke-width="0" opacity="1" d="M 461.5 410 L 462 413.5 L 461 413.5 L 461.5 410 Z " /><path fill="rgb(136,136,136)" stroke="rgb(136,136,136)" stroke-width="0" opacity="1" d="M 489.5 410 L 488.5 412 L 489.5 410 Z " /><path fill="rgb(136,136,136)" stroke="rgb(136,136,136)" stroke-width="0" opacity="1" d="M 500.5 410 L 501 412.5 L 500 412.5 L 500.5 410 Z " /><path fill="rgb(136,136,136)" stroke="rgb(136,136,136)" stroke-width="0" opacity="1" d="M 676.5 410 L 677 418.5 L 676 418.5 L 676.5 410 Z " /><path fill="rgb(136,136,136)" stroke="rgb(136,136,136)" stroke-width="0" opacity="1" d="M 350.5 411 L 349.5 413 L 350.5 411 Z " /><path fill="rgb(136,136,136)" stroke="rgb(136,136,136)" stroke-width="0" opacity="1" d="M 414.5 412 L 413.5 414 L 414.5 412 Z " /><path fill="rgb(136,136,136)" stroke="rgb(136,136,136)" stroke-width="0" opacity="1" d="M 188.5 413 L 189 421.5 L 188 421.5 L 188.5 413 Z " /><path fill="rgb(136,136,136)" stroke="rgb(136,136,136)" stroke-width="0" opacity="1" d="M 759.5 413 L 760 421.5 Q 758.5 424.5 752.5 423 L 752.5 422 L 759 422 L 759.5 413 Z " /><path fill="rgb(136,136,136)" stroke="rgb(136,136,136)" stroke-width="0" opacity="1" d="M 203.5 414 L 204 432.5 L 203 432.5 L 203.5 414 Z " /><path fill="rgb(136,136,136)" stroke="rgb(136,136,136)" stroke-width="0" opacity="1" d="M 691.5 414 L 692 431.5 L 691 431.5 L 691.5 414 Z " /><path fill="rgb(136,136,136)" stroke="rgb(136,136,136)" stroke-width="0" opacity="1" d="M 729.5 414 L 730 420.5 L 729 420.5 L 729.5 414 Z " /><path fill="rgb(136,136,136)" stroke="rgb(136,136,136)" stroke-width="0" opacity="1" d="M 341.5 416 L 340.5 418 L 341.5 416 Z " /><path fill="rgb(136,136,136)" stroke="rgb(136,136,136)" stroke-width="0" opacity="1" d="M 499.5 416 L 500 443.5 L 499 443.5 L 499.5 416 Z " /><path fill="rgb(136,136,136)" stroke="rgb(136,136,136)" stroke-width="0" opacity="1" d="M 411.5 417 L 412 464.5 L 413 465.5 L 411 464.5 L 411.5 417 Z " /><path fill="rgb(136,136,136)" stroke="rgb(136,136,136)" stroke-width="0" opacity="1" d="M 539.5 417 L 540 425.5 L 539 425.5 L 539.5 417 Z " /><path fill="rgb(136,136,136)" stroke="rgb(136,136,136)" stroke-width="0" opacity="1" d="M 642.5 417 L 643 419.5 L 642 419.5 L 642.5 417 Z " /><path fill="rgb(136,136,136)" stroke="rgb(136,136,136)" stroke-width="0" opacity="1" d="M 326.5 419 L 332 420.5 L 327.5 421 L 326.5 419 Z " /><path fill="rgb(136,136,136)" stroke="rgb(136,136,136)" stroke-width="0" opacity="1" d="M 341.5 419 L 340.5 421 L 339 420.5 L 341.5 419 Z " /><path fill="rgb(136,136,136)" stroke="rgb(136,136,136)" stroke-width="0" opacity="1" d="M 34.5 420 L 35 427.5 L 34 427.5 L 34.5 420 Z " /><path fill="rgb(136,136,136)" stroke="rgb(136,136,136)" stroke-width="0" opacity="1" d="M 152.5 420 L 153 432.5 L 152 432.5 L 152.5 420 Z " /><path fill="rgb(136,136,136)" stroke="rgb(136,136,136)" stroke-width="0" opacity="1" d="M 627.5 420 L 628 465.5 L 627 465.5 L 627.5 420 Z " /><path fill="rgb(136,136,136)" stroke="rgb(136,136,136)" stroke-width="0" opacity="1" d="M 775.5 420 L 776 423.5 L 775 423.5 L 775.5 420 Z " /><path fill="rgb(136,136,136)" stroke="rgb(136,136,136)" stroke-width="0" opacity="1" d="M 336 421 L 339 422.5 L 336 423 L 336 421 Z " /><path fill="rgb(136,136,136)" stroke="rgb(136,136,136)" stroke-width="0" opacity="1" d="M 243.5 422 L 269 422.5 L 243.5 423 L 243.5 422 Z " /><path fill="rgb(136,136,136)" stroke="rgb(136,136,136)" stroke-width="0" opacity="1" d="M 287.5 422 L 288 424.5 L 287 424.5 L 287.5 422 Z " /><path fill="rgb(136,136,136)" stroke="rgb(136,136,136)" stroke-width="0" opacity="1" d="M 592.5 422 L 593 427.5 L 592 427.5 L 592.5 422 Z " /><path fill="rgb(136,136,136)" stroke="rgb(136,136,136)" stroke-width="0" opacity="1" d="M 730.5 422 L 744 422.5 L 730.5 423 L 730.5 422 Z " /><path fill="rgb(136,136,136)" stroke="rgb(136,136,136)" stroke-width="0" opacity="1" d="M 225.5 423 L 226 425.5 L 225 425.5 L 225.5 423 Z " /><path fill="rgb(136,136,136)" stroke="rgb(136,136,136)" stroke-width="0" opacity="1" d="M 326.5 423 L 332 423.5 L 326.5 424 L 326.5 423 Z " /><path fill="rgb(136,136,136)" stroke="rgb(136,136,136)" stroke-width="0" opacity="1" d="M 48.5 425 L 49 437.5 L 48 437.5 L 48.5 425 Z " /><path fill="rgb(136,136,136)" stroke="rgb(136,136,136)" stroke-width="0" opacity="1" d="M 335.5 425 L 336.5 427 L 335.5 425 Z " /><path fill="rgb(136,136,136)" stroke="rgb(136,136,136)" stroke-width="0" opacity="1" d="M 345.5 425 L 350.5 431 L 345.5 425 Z " /><path fill="rgb(136,136,136)" stroke="rgb(136,136,136)" stroke-width="0" opacity="1" d="M 555.5 425 L 556 427.5 L 555 427.5 L 555.5 425 Z " /><path fill="rgb(136,136,136)" stroke="rgb(136,136,136)" stroke-width="0" opacity="1" d="M 641.5 425 L 642 433.5 L 641 433.5 L 641.5 425 Z " /><path fill="rgb(136,136,136)" stroke="rgb(136,136,136)" stroke-width="0" opacity="1" d="M 713.5 425 L 714 427.5 L 713 427.5 L 713.5 425 Z " /><path fill="rgb(136,136,136)" stroke="rgb(136,136,136)" stroke-width="0" opacity="1" d="M 772.5 425 L 776 425.5 L 772.5 426 L 772.5 425 Z " /><path fill="rgb(136,136,136)" stroke="rgb(136,136,136)" stroke-width="0" opacity="1" d="M 272.5 426 L 280 426.5 L 272.5 427 L 272.5 426 Z " /><path fill="rgb(136,136,136)" stroke="rgb(136,136,136)" stroke-width="0" opacity="1" d="M 483.5 426 L 484 428.5 L 483 428.5 L 483.5 426 Z " /><path fill="rgb(136,136,136)" stroke="rgb(136,136,136)" stroke-width="0" opacity="1" d="M 224.5 429 L 225 436.5 L 224 436.5 L 224.5 429 Z " /><path fill="rgb(136,136,136)" stroke="rgb(136,136,136)" stroke-width="0" opacity="1" d="M 241.5 430 L 242 449.5 L 241 449.5 L 241.5 430 Z " /><path fill="rgb(136,136,136)" stroke="rgb(136,136,136)" stroke-width="0" opacity="1" d="M 461.5 432 L 462 441.5 L 461 441.5 L 461.5 432 Z " /><path fill="rgb(136,136,136)" stroke="rgb(136,136,136)" stroke-width="0" opacity="1" d="M 483.5 436 L 484 439.5 L 483 439.5 L 483.5 436 Z " /><path fill="rgb(136,136,136)" stroke="rgb(136,136,136)" stroke-width="0" opacity="1" d="M 593.5 436 L 594 465.5 L 593 465.5 L 593.5 436 Z " /><path fill="rgb(136,136,136)" stroke="rgb(136,136,136)" stroke-width="0" opacity="1" d="M 676.5 436 L 677 451.5 L 676 451.5 L 676.5 436 Z " /><path fill="rgb(136,136,136)" stroke="rgb(136,136,136)" stroke-width="0" opacity="1" d="M 33.5 437 L 34 453.5 L 33 453.5 L 33.5 437 Z " /><path fill="rgb(136,136,136)" stroke="rgb(136,136,136)" stroke-width="0" opacity="1" d="M 713.5 439 L 714 441.5 L 713 441.5 L 713.5 439 Z " /><path fill="rgb(136,136,136)" stroke="rgb(136,136,136)" stroke-width="0" opacity="1" d="M 340.5 440 L 341 453.5 L 340 453.5 L 340.5 440 Z " /><path fill="rgb(136,136,136)" stroke="rgb(136,136,136)" stroke-width="0" opacity="1" d="M 539.5 440 L 540 449.5 L 539 449.5 L 539.5 440 Z " /><path fill="rgb(136,136,136)" stroke="rgb(136,136,136)" stroke-width="0" opacity="1" d="M 225.5 441 L 226 443.5 L 225 443.5 L 225.5 441 Z " /><path fill="rgb(136,136,136)" stroke="rgb(136,136,136)" stroke-width="0" opacity="1" d="M 690.5 441 L 691 464.5 L 692 465.5 L 690 464.5 L 690.5 441 Z " /><path fill="rgb(136,136,136)" stroke="rgb(136,136,136)" stroke-width="0" opacity="1" d="M 202.5 442 L 203 464.5 L 202 464.5 L 202.5 442 Z " /><path fill="rgb(136,136,136)" stroke="rgb(136,136,136)" stroke-width="0" opacity="1" d="M 642.5 443 L 643 451.5 L 642 451.5 L 642.5 443 Z " /><path fill="rgb(136,136,136)" stroke="rgb(136,136,136)" stroke-width="0" opacity="1" d="M 287.5 444 L 289 444.5 L 286.5 446 L 287.5 444 Z " /><path fill="rgb(136,136,136)" stroke="rgb(136,136,136)" stroke-width="0" opacity="1" d="M 777.5 445 L 778 447.5 L 777 447.5 L 777.5 445 Z " /><path fill="rgb(136,136,136)" stroke="rgb(136,136,136)" stroke-width="0" opacity="1" d="M 355.5 446 L 356 456.5 L 355 456.5 L 355.5 446 Z " /><path fill="rgb(136,136,136)" stroke="rgb(136,136,136)" stroke-width="0" opacity="1" d="M 375.5 446 L 376 448.5 L 375 448.5 L 375.5 446 Z " /><path fill="rgb(136,136,136)" stroke="rgb(136,136,136)" stroke-width="0" opacity="1" d="M 730.5 448 L 731 451.5 L 730 451.5 L 730.5 448 Z " /><path fill="rgb(136,136,136)" stroke="rgb(136,136,136)" stroke-width="0" opacity="1" d="M 500.5 449 L 501 452.5 L 500 452.5 L 500.5 449 Z " /><path fill="rgb(136,136,136)" stroke="rgb(136,136,136)" stroke-width="0" opacity="1" d="M 772.5 452 L 773 453.5 L 771 454.5 L 772.5 452 Z " /><path fill="rgb(136,136,136)" stroke="rgb(136,136,136)" stroke-width="0" opacity="1" d="M 91.5 453 L 92 463.5 L 91 463.5 L 91.5 453 Z " /><path fill="rgb(136,136,136)" stroke="rgb(136,136,136)" stroke-width="0" opacity="1" d="M 48.5 454 L 49 459.5 L 48 459.5 L 48.5 454 Z " /><path fill="rgb(136,136,136)" stroke="rgb(136,136,136)" stroke-width="0" opacity="1" d="M 138.5 454 L 139 464.5 L 138 464.5 L 138.5 454 Z " /><path fill="rgb(136,136,136)" stroke="rgb(136,136,136)" stroke-width="0" opacity="1" d="M 489.5 454 L 490.5 456 L 489.5 454 Z " /><path fill="rgb(136,136,136)" stroke="rgb(136,136,136)" stroke-width="0" opacity="1" d="M 282.5 455 L 281.5 457 L 282.5 455 Z " /><path fill="rgb(136,136,136)" stroke="rgb(136,136,136)" stroke-width="0" opacity="1" d="M 285.5 455 L 284.5 457 L 285.5 455 Z " /><path fill="rgb(136,136,136)" stroke="rgb(136,136,136)" stroke-width="0" opacity="1" d="M 549.5 455 L 547.5 458 L 549.5 455 Z " /><path fill="rgb(136,136,136)" stroke="rgb(136,136,136)" stroke-width="0" opacity="1" d="M 774.5 455 L 773.5 457 L 774.5 455 Z " /><path fill="rgb(136,136,136)" stroke="rgb(136,136,136)" stroke-width="0" opacity="1" d="M 770.5 456 L 765.5 462 L 770.5 456 Z " /><path fill="rgb(136,136,136)" stroke="rgb(136,136,136)" stroke-width="0" opacity="1" d="M 371.5 457 L 370.5 459 L 371.5 457 Z " /><path fill="rgb(136,136,136)" stroke="rgb(136,136,136)" stroke-width="0" opacity="1" d="M 232.5 458 L 234.5 461 L 232.5 458 Z " /><path fill="rgb(136,136,136)" stroke="rgb(136,136,136)" stroke-width="0" opacity="1" d="M 283.5 458 L 282.5 460 L 283.5 458 Z " /><path fill="rgb(136,136,136)" stroke="rgb(136,136,136)" stroke-width="0" opacity="1" d="M 492.5 458 L 496.5 463 L 492.5 458 Z " /><path fill="rgb(136,136,136)" stroke="rgb(136,136,136)" stroke-width="0" opacity="1" d="M 721.5 458 L 725.5 463 L 721.5 458 Z " /><path fill="rgb(136,136,136)" stroke="rgb(136,136,136)" stroke-width="0" opacity="1" d="M 772.5 458 L 766.5 465 L 772.5 458 Z " /><path fill="rgb(136,136,136)" stroke="rgb(136,136,136)" stroke-width="0" opacity="1" d="M 187.5 459 L 188 464.5 L 187 464.5 L 187.5 459 Z " /><path fill="rgb(136,136,136)" stroke="rgb(136,136,136)" stroke-width="0" opacity="1" d="M 366.5 460 L 363.5 464 L 366.5 460 Z " /><path fill="rgb(136,136,136)" stroke="rgb(136,136,136)" stroke-width="0" opacity="1" d="M 369.5 460 L 368.5 462 L 369.5 460 Z " /><path fill="rgb(136,136,136)" stroke="rgb(136,136,136)" stroke-width="0" opacity="1" d="M 68.5 461 L 65.5 465 L 68.5 461 Z " /><path fill="rgb(136,136,136)" stroke="rgb(136,136,136)" stroke-width="0" opacity="1" d="M 245.5 461 L 248.5 465 L 245.5 461 Z " /><path fill="rgb(136,136,136)" stroke="rgb(136,136,136)" stroke-width="0" opacity="1" d="M 578.5 461 L 579 465.5 L 578 465.5 L 578.5 461 Z " /><path fill="rgb(136,136,136)" stroke="rgb(136,136,136)" stroke-width="0" opacity="1" d="M 71.5 462 L 67.5 467 L 71.5 462 Z " /><path fill="rgb(136,136,136)" stroke="rgb(136,136,136)" stroke-width="0" opacity="1" d="M 236.5 462 L 238.5 465 L 236.5 462 Z " /><path fill="rgb(136,136,136)" stroke="rgb(136,136,136)" stroke-width="0" opacity="1" d="M 642.5 462 L 643 464.5 L 642 464.5 L 642.5 462 Z " /><path fill="rgb(136,136,136)" stroke="rgb(136,136,136)" stroke-width="0" opacity="1" d="M 396.5 463 L 397 465.5 L 396 465.5 L 396.5 463 Z " /><path fill="rgb(136,136,136)" stroke="rgb(136,136,136)" stroke-width="0" opacity="1" d="M 541.5 463 L 540.5 465 L 541.5 463 Z " /><path fill="rgb(136,136,136)" stroke="rgb(136,136,136)" stroke-width="0" opacity="1" d="M 50.5 464 L 52.5 467 L 50.5 464 Z " /><path fill="rgb(136,136,136)" stroke="rgb(136,136,136)" stroke-width="0" opacity="1" d="M 277.5 464 L 276.5 466 L 277.5 464 Z " /><path fill="rgb(136,136,136)" stroke="rgb(136,136,136)" stroke-width="0" opacity="1" d="M 499.5 464 L 500.5 466 L 499.5 464 Z " /><path fill="rgb(136,136,136)" stroke="rgb(136,136,136)" stroke-width="0" opacity="1" d="M 507.5 464 L 508.5 466 L 507.5 464 Z " /><path fill="rgb(136,136,136)" stroke="rgb(136,136,136)" stroke-width="0" opacity="1" d="M 532.5 464 L 531.5 466 L 532.5 464 Z " /><path fill="rgb(136,136,136)" stroke="rgb(136,136,136)" stroke-width="0" opacity="1" d="M 728.5 464 L 729.5 466 L 728.5 464 Z " /><path fill="rgb(136,136,136)" stroke="rgb(136,136,136)" stroke-width="0" opacity="1" d="M 63.5 465 L 62.5 467 L 61 466.5 L 63.5 465 Z " /><path fill="rgb(136,136,136)" stroke="rgb(136,136,136)" stroke-width="0" opacity="1" d="M 343.5 465 L 346.5 469 L 343.5 465 Z " /><path fill="rgb(136,136,136)" stroke="rgb(136,136,136)" stroke-width="0" opacity="1" d="M 568.5 465 L 571 465.5 L 568.5 466 L 568.5 465 Z " /><path fill="rgb(136,136,136)" stroke="rgb(136,136,136)" stroke-width="0" opacity="1" d="M 665.5 465 L 669 465.5 L 665.5 466 L 665.5 465 Z " /><path fill="rgb(136,136,136)" stroke="rgb(136,136,136)" stroke-width="0" opacity="1" d="M 313.5 466 L 314 467.5 L 312.5 469 L 299.5 469 L 299.5 468 L 312.5 468 L 313.5 466 Z " /><path fill="rgb(136,136,136)" stroke="rgb(136,136,136)" stroke-width="0" opacity="1" d="M 363.5 466 L 362.5 468 L 363.5 466 Z " /><path fill="rgb(136,136,136)" stroke="rgb(136,136,136)" stroke-width="0" opacity="1" d="M 383.5 466 L 384 468 L 386 468.5 L 384.5 469 L 383.5 466 Z " /><path fill="rgb(136,136,136)" stroke="rgb(136,136,136)" stroke-width="0" opacity="1" d="M 424.5 466 L 425 467.5 L 422.5 469 L 422.5 468 Q 425 468.7 424.5 466 Z " /><path fill="rgb(136,136,136)" stroke="rgb(136,136,136)" stroke-width="0" opacity="1" d="M 474.5 466 L 475 467.5 L 473 468.5 L 474.5 466 Z " /><path fill="rgb(136,136,136)" stroke="rgb(136,136,136)" stroke-width="0" opacity="1" d="M 55.5 467 L 60 467.5 L 55.5 468 L 55.5 467 Z " /><path fill="rgb(136,136,136)" stroke="rgb(136,136,136)" stroke-width="0" opacity="1" d="M 78.5 467 L 81 468.5 L 79.5 469 L 78.5 467 Z " /><path fill="rgb(136,136,136)" stroke="rgb(136,136,136)" stroke-width="0" opacity="1" d="M 254.5 467 L 257 467.5 L 254.5 468 L 254.5 467 Z " /><path fill="rgb(136,136,136)" stroke="rgb(136,136,136)" stroke-width="0" opacity="1" d="M 262.5 467 L 265 467.5 L 262.5 468 L 262.5 467 Z " /><path fill="rgb(136,136,136)" stroke="rgb(136,136,136)" stroke-width="0" opacity="1" d="M 750.5 467 L 753 467.5 L 750.5 468 L 750.5 467 Z " /><path fill="rgb(136,136,136)" stroke="rgb(136,136,136)" stroke-width="0" opacity="1" d="M 85.5 468 L 113 468.5 L 85.5 469 L 85.5 468 Z " /><path fill="rgb(136,136,136)" stroke="rgb(136,136,136)" stroke-width="0" opacity="1" d="M 132.5 468 L 159 468.5 L 132.5 469 L 132.5 468 Z " /><path fill="rgb(136,136,136)" stroke="rgb(136,136,136)" stroke-width="0" opacity="1" d="M 181.5 468 L 209 468.5 L 181.5 469 L 181.5 468 Z " /><path fill="rgb(136,136,136)" stroke="rgb(136,136,136)" stroke-width="0" opacity="1" d="M 390.5 468 L 417 468.5 L 390.5 469 L 390.5 468 Z " /><path fill="rgb(136,136,136)" stroke="rgb(136,136,136)" stroke-width="0" opacity="1" d="M 440.5 468 L 467 468.5 L 440.5 469 L 440.5 468 Z " /><path fill="rgb(136,136,136)" stroke="rgb(136,136,136)" stroke-width="0" opacity="1" d="M 519.5 468 L 522 468.5 L 519.5 469 L 519.5 468 Z " /><path fill="rgb(136,136,136)" stroke="rgb(136,136,136)" stroke-width="0" opacity="1" d="M 572.5 468 L 599 468.5 L 572.5 469 L 572.5 468 Z " /><path fill="rgb(136,136,136)" stroke="rgb(136,136,136)" stroke-width="0" opacity="1" d="M 621.5 468 L 648 468.5 L 621.5 469 L 621.5 468 Z " /><path fill="rgb(136,136,136)" stroke="rgb(136,136,136)" stroke-width="0" opacity="1" d="M 665.5 468 L 678 468.5 L 665.5 469 L 665.5 468 Z " /><path fill="rgb(136,136,136)" stroke="rgb(136,136,136)" stroke-width="0" opacity="1" d="M 682.5 468 L 697 468.5 L 682.5 469 L 682.5 468 Z " /><path fill="rgb(136,136,136)" stroke="rgb(136,136,136)" stroke-width="0" opacity="1" d="M 48.5 470 L 57 470.5 L 48.5 471 L 48.5 470 Z " /><path fill="rgb(136,136,136)" stroke="rgb(136,136,136)" stroke-width="0" opacity="1" d="M 251.5 470 L 255 470.5 L 251.5 471 L 251.5 470 Z " /><path fill="rgb(136,136,136)" stroke="rgb(136,136,136)" stroke-width="0" opacity="1" d="M 262.5 470 L 266 470.5 L 262.5 471 L 262.5 470 Z " /><path fill="rgb(136,136,136)" stroke="rgb(136,136,136)" stroke-width="0" opacity="1" d="M 512.5 470 L 515 470.5 L 512.5 471 L 512.5 470 Z " /><path fill="rgb(136,136,136)" stroke="rgb(136,136,136)" stroke-width="0" opacity="1" d="M 525.5 470 L 528 470.5 L 525.5 471 L 525.5 470 Z " /><path fill="rgb(136,136,136)" stroke="rgb(136,136,136)" stroke-width="0" opacity="1" d="M 742.5 470 L 746 470.5 L 742.5 471 L 742.5 470 Z " /><path fill="rgb(136,136,136)" stroke="rgb(136,136,136)" stroke-width="0" opacity="1" d="M 751.5 470 L 754 470.5 L 751.5 471 L 751.5 470 Z " /></svg>