<svg viewBox="0 0 450 99" version="1.1" xmlns="http://www.w3.org/2000/svg" desc="Created with imagetracer.js version 1.2.6" ><path fill="rgb(0,0,0)" stroke="rgb(0,0,0)" stroke-width="0" opacity="1" d="M 398.5 1 L 400.5 1 L 414.5 15 L 428.5 1 L 431.5 1 L 446 15.5 L 446 17.5 L 415.5 48 L 413.5 48 L 383 16.5 L 398.5 1 Z M 400 3 L 386 17 L 415 46 L 443 18 L 443 16 L 430 3 L 417 17 L 424 25 L 423 28 L 417 34 L 414 34 L 406 27 L 406 24 L 413 17 L 400 3 Z M 415 19 L 408 26 L 415 32 L 421 25 L 415 19 Z " /><path fill="rgb(0,0,0)" stroke="rgb(0,0,0)" stroke-width="0" opacity="1" d="M 312.5 25 Q 315.8 23.9 315 26.5 L 337 74 Q 339.7 75.1 339 72.5 L 361 25 Q 364.8 24.3 366 27.5 L 374 78.5 L 377 90.5 L 377 97 L 366.5 97 L 365 95.5 L 360 60.5 L 358.5 57 L 340 98 Q 336.2 98.8 335 95.5 L 317.5 57 Q 314.8 56.4 316 62.5 L 313 76.5 L 311 95.5 L 309.5 97 L 299 97 L 299 90.5 L 303 73.5 L 310 28.5 L 312.5 25 Z " /><path fill="rgb(0,0,0)" stroke="rgb(0,0,0)" stroke-width="0" opacity="1" d="M 3.5 26 L 16.5 26 L 18 27.5 L 39 71 L 42 69.5 L 62 28.5 L 64.5 26 L 76.5 26 L 78 27.5 L 43 95.5 L 40.5 98 L 37 95.5 L 2 27.5 L 3.5 26 Z " /><path fill="rgb(0,0,0)" stroke="rgb(0,0,0)" stroke-width="0" opacity="1" d="M 92.5 26 L 134.5 26 L 136 27.5 L 136 36.5 L 135.5 37 L 105.5 37 L 104 38.5 L 104 55 L 129.5 55 L 131 56.5 L 131 65.5 L 129.5 66 L 128.5 67 L 104 67 L 104 85 L 134.5 85 L 136 86.5 L 136 95.5 L 134.5 97 L 92.5 97 L 91 95.5 L 91 27.5 L 92.5 26 Z " /><path fill="rgb(0,0,0)" stroke="rgb(0,0,0)" stroke-width="0" opacity="1" d="M 155 26 L 183.5 26 L 188.5 27 Q 201.1 30.4 208 39.5 Q 213.1 45.9 215 55.5 L 215 67.5 Q 212 81.5 202.5 89 L 188.5 96 Q 183.8 94.7 182.5 97 L 155 97 L 155 26 Z M 167 38 L 167 85 L 183 85 L 193 81 Q 200 76 202 67 L 202 57 L 198 48 Q 194 40 185 38 L 167 38 Z " /><path fill="rgb(0,0,0)" stroke="rgb(0,0,0)" stroke-width="0" opacity="1" d="M 230 26 L 241.5 26 L 242 26.5 L 242 71.5 Q 243.4 79.6 249.5 83 Q 253.2 86.3 261.5 85 L 271 77.5 L 273 70.5 L 273 26 L 284.5 26 L 285 26.5 L 285 76.5 Q 281.9 87.4 273.5 93 Q 267 98.5 254.5 98 Q 240.2 95.8 234 85.5 L 230 76.5 L 230 26 Z " /><path fill="rgb(253,253,253)" stroke="rgb(253,253,253)" stroke-width="0" opacity="1" d="M 0 0 L 398 0.5 L 383 15.5 L 383 18.5 L 413.5 49 L 415.5 49 L 446 18.5 L 446 14.5 L 431 0.5 L 450 0 L 450 98.5 L 449.5 99 L 0 99 L 0 0 Z M 310 25 L 298 92 L 298 97 L 311 97 L 312 96 L 318 59 L 335 97 Q 334 100 340 98 L 342 96 L 359 58 L 364 96 L 366 97 L 378 97 L 369 41 L 366 29 Q 368 23 362 25 L 359 28 L 345 60 L 338 73 L 316 27 L 316 25 L 310 25 Z M 2 26 L 2 29 L 36 96 Q 37 99 42 98 L 44 96 L 78 30 L 78 26 L 62 26 L 41 69 Q 42 71 39 70 L 18 28 L 18 26 L 2 26 Z M 91 26 L 91 97 L 136 97 L 137 96 L 137 87 L 134 84 L 107 84 L 106 85 Q 103 84 105 83 L 105 70 L 104 69 L 106 67 L 131 67 L 132 66 L 132 57 L 130 54 L 105 54 L 105 53 L 105 41 L 104 40 L 106 38 L 136 38 L 137 37 L 137 28 L 136 26 L 91 26 Z M 154 26 L 154 97 L 187 97 Q 198 95 205 88 Q 213 81 216 68 Q 217 48 208 39 Q 201 29 188 26 L 154 26 Z M 229 26 L 229 77 L 233 86 Q 239 95 252 98 Q 267 100 275 93 Q 283 87 286 76 L 286 27 L 286 26 L 272 26 L 272 73 L 268 81 L 263 84 Q 252 86 248 81 L 243 73 L 243 27 L 243 26 L 229 26 Z " /><path fill="rgb(253,253,253)" stroke="rgb(253,253,253)" stroke-width="0" opacity="1" d="M 400.5 0 L 429 0.5 L 414.5 14 L 400.5 0 Z " /><path fill="rgb(253,253,253)" stroke="rgb(253,253,253)" stroke-width="0" opacity="1" d="M 399.5 4 L 412 16.5 L 405 23.5 L 405 26.5 L 413.5 35 L 416.5 35 L 424 27.5 L 424 23.5 L 418 17.5 L 418 15.5 L 430.5 4 L 443 16.5 L 414.5 45 L 387 16.5 L 399.5 4 Z " /><path fill="rgb(253,253,253)" stroke="rgb(253,253,253)" stroke-width="0" opacity="1" d="M 414.5 20 L 420 24.5 L 414.5 31 L 409 25.5 L 414.5 20 Z " /><path fill="rgb(253,253,253)" stroke="rgb(253,253,253)" stroke-width="0" opacity="1" d="M 167 39 L 184.5 39 Q 193.5 41.4 198 48.5 Q 202.8 54.7 201 67.5 Q 198.5 76.5 191.5 81 L 184.5 84 L 167 84 L 167 39 Z " /><path fill="rgb(70,70,70)" stroke="rgb(70,70,70)" stroke-width="0" opacity="1" d="M 397.5 1 L 383.5 16 L 397.5 1 Z " /><path fill="rgb(70,70,70)" stroke="rgb(70,70,70)" stroke-width="0" opacity="1" d="M 399.5 3 L 412.5 17 L 399.5 3 Z " /><path fill="rgb(70,70,70)" stroke="rgb(70,70,70)" stroke-width="0" opacity="1" d="M 431.5 4 L 442.5 16 L 431.5 4 Z " /><path fill="rgb(70,70,70)" stroke="rgb(70,70,70)" stroke-width="0" opacity="1" d="M 386.5 17 L 414.5 46 L 386.5 17 Z " /><path fill="rgb(70,70,70)" stroke="rgb(70,70,70)" stroke-width="0" opacity="1" d="M 445.5 18 L 416.5 48 L 445.5 18 Z " /><path fill="rgb(70,70,70)" stroke="rgb(70,70,70)" stroke-width="0" opacity="1" d="M 415.5 19 L 420.5 25 L 415.5 19 Z " /><path fill="rgb(70,70,70)" stroke="rgb(70,70,70)" stroke-width="0" opacity="1" d="M 311.5 25 L 311 26.5 L 310.5 28 L 310 26.5 L 311.5 25 Z " /><path fill="rgb(70,70,70)" stroke="rgb(70,70,70)" stroke-width="0" opacity="1" d="M 364.5 25 L 365.5 27 L 364.5 25 Z " /><path fill="rgb(70,70,70)" stroke="rgb(70,70,70)" stroke-width="0" opacity="1" d="M 63.5 26 L 62.5 28 L 63.5 26 Z " /><path fill="rgb(70,70,70)" stroke="rgb(70,70,70)" stroke-width="0" opacity="1" d="M 154.5 27 L 155 95.5 L 154 95.5 L 154.5 27 Z " /><path fill="rgb(70,70,70)" stroke="rgb(70,70,70)" stroke-width="0" opacity="1" d="M 229.5 27 L 230 73.5 L 229 73.5 L 229.5 27 Z " /><path fill="rgb(70,70,70)" stroke="rgb(70,70,70)" stroke-width="0" opacity="1" d="M 272.5 27 L 273 70.5 L 272 70.5 L 272.5 27 Z " /><path fill="rgb(70,70,70)" stroke="rgb(70,70,70)" stroke-width="0" opacity="1" d="M 285.5 27 L 286 73.5 L 285 73.5 L 285.5 27 Z " /><path fill="rgb(70,70,70)" stroke="rgb(70,70,70)" stroke-width="0" opacity="1" d="M 406.5 27 L 412.5 34 L 406.5 27 Z " /><path fill="rgb(70,70,70)" stroke="rgb(70,70,70)" stroke-width="0" opacity="1" d="M 242.5 28 L 243 71.5 L 242 71.5 L 242.5 28 Z " /><path fill="rgb(70,70,70)" stroke="rgb(70,70,70)" stroke-width="0" opacity="1" d="M 105.5 37 L 135 37.5 L 105.5 38 L 105.5 37 Z " /><path fill="rgb(70,70,70)" stroke="rgb(70,70,70)" stroke-width="0" opacity="1" d="M 191.5 41 L 192.5 43 L 191.5 41 Z " /><path fill="rgb(70,70,70)" stroke="rgb(70,70,70)" stroke-width="0" opacity="1" d="M 316 57 L 319 58.5 L 317 58.5 L 316.5 60 L 316 57 Z " /><path fill="rgb(70,70,70)" stroke="rgb(70,70,70)" stroke-width="0" opacity="1" d="M 215.5 59 L 216 63.5 L 215 63.5 L 215.5 59 Z " /><path fill="rgb(70,70,70)" stroke="rgb(70,70,70)" stroke-width="0" opacity="1" d="M 315.5 63 L 316 65.5 L 315 65.5 L 315.5 63 Z " /><path fill="rgb(70,70,70)" stroke="rgb(70,70,70)" stroke-width="0" opacity="1" d="M 314.5 70 L 315 72.5 L 314 72.5 L 314.5 70 Z " /><path fill="rgb(70,70,70)" stroke="rgb(70,70,70)" stroke-width="0" opacity="1" d="M 197.5 75 L 196.5 77 L 197.5 75 Z " /><path fill="rgb(70,70,70)" stroke="rgb(70,70,70)" stroke-width="0" opacity="1" d="M 313.5 76 L 314 78.5 L 313 78.5 L 313.5 76 Z " /><path fill="rgb(70,70,70)" stroke="rgb(70,70,70)" stroke-width="0" opacity="1" d="M 193.5 79 L 192.5 81 L 193.5 79 Z " /><path fill="rgb(70,70,70)" stroke="rgb(70,70,70)" stroke-width="0" opacity="1" d="M 208.5 82 L 207.5 84 L 208.5 82 Z " /><path fill="rgb(70,70,70)" stroke="rgb(70,70,70)" stroke-width="0" opacity="1" d="M 312.5 83 L 313 85.5 L 312 85.5 L 312.5 83 Z " /><path fill="rgb(70,70,70)" stroke="rgb(70,70,70)" stroke-width="0" opacity="1" d="M 235.5 87 L 239.5 92 L 235.5 87 Z " /><path fill="rgb(70,70,70)" stroke="rgb(70,70,70)" stroke-width="0" opacity="1" d="M 278.5 88 L 276.5 91 L 278.5 88 Z " /><path fill="rgb(70,70,70)" stroke="rgb(70,70,70)" stroke-width="0" opacity="1" d="M 37.5 96 L 38.5 98 L 37.5 96 Z " /><path fill="rgb(70,70,70)" stroke="rgb(70,70,70)" stroke-width="0" opacity="1" d="M 42.5 96 L 41.5 98 L 42.5 96 Z " /><path fill="rgb(70,70,70)" stroke="rgb(70,70,70)" stroke-width="0" opacity="1" d="M 335.5 96 L 336.5 98 L 335.5 96 Z " /><path fill="rgb(144,144,144)" stroke="rgb(144,144,144)" stroke-width="0" opacity="1" d="M 401.5 1 L 413.5 14 L 401.5 1 Z " /><path fill="rgb(144,144,144)" stroke="rgb(144,144,144)" stroke-width="0" opacity="1" d="M 427.5 1 L 415.5 14 L 427.5 1 Z " /><path fill="rgb(144,144,144)" stroke="rgb(144,144,144)" stroke-width="0" opacity="1" d="M 432.5 1 L 445.5 15 L 432.5 1 Z " /><path fill="rgb(144,144,144)" stroke="rgb(144,144,144)" stroke-width="0" opacity="1" d="M 398.5 4 L 386.5 17 L 398.5 4 Z " /><path fill="rgb(144,144,144)" stroke="rgb(144,144,144)" stroke-width="0" opacity="1" d="M 417.5 16 L 424 23.5 L 417 17.5 L 417.5 16 Z " /><path fill="rgb(144,144,144)" stroke="rgb(144,144,144)" stroke-width="0" opacity="1" d="M 411.5 17 L 405.5 24 L 411.5 17 Z " /><path fill="rgb(144,144,144)" stroke="rgb(144,144,144)" stroke-width="0" opacity="1" d="M 442.5 17 L 415.5 45 L 442.5 17 Z " /><path fill="rgb(144,144,144)" stroke="rgb(144,144,144)" stroke-width="0" opacity="1" d="M 383.5 18 L 413.5 48 L 416 48.5 L 413.5 49 L 383.5 18 Z " /><path fill="rgb(144,144,144)" stroke="rgb(144,144,144)" stroke-width="0" opacity="1" d="M 414.5 19 L 409 25.5 L 413.5 31 L 408 25.5 L 414.5 19 Z " /><path fill="rgb(144,144,144)" stroke="rgb(144,144,144)" stroke-width="0" opacity="1" d="M 420.5 25 L 415.5 31 L 420.5 25 Z " /><path fill="rgb(144,144,144)" stroke="rgb(144,144,144)" stroke-width="0" opacity="1" d="M 135.5 26 L 137 27.5 L 137 36.5 L 135 37.5 L 136 36.5 L 136 27.5 L 135.5 26 Z " /><path fill="rgb(144,144,144)" stroke="rgb(144,144,144)" stroke-width="0" opacity="1" d="M 423.5 27 L 416.5 35 L 423.5 27 Z " /><path fill="rgb(144,144,144)" stroke="rgb(144,144,144)" stroke-width="0" opacity="1" d="M 309.5 28 L 310 31.5 L 309 31.5 L 309.5 28 Z " /><path fill="rgb(144,144,144)" stroke="rgb(144,144,144)" stroke-width="0" opacity="1" d="M 199.5 31 L 200.5 33 L 199.5 31 Z " /><path fill="rgb(144,144,144)" stroke="rgb(144,144,144)" stroke-width="0" opacity="1" d="M 318.5 31 L 320 34.5 L 319 34.5 L 318.5 31 Z " /><path fill="rgb(144,144,144)" stroke="rgb(144,144,144)" stroke-width="0" opacity="1" d="M 202.5 33 L 207.5 39 L 202.5 33 Z " /><path fill="rgb(144,144,144)" stroke="rgb(144,144,144)" stroke-width="0" opacity="1" d="M 308.5 34 L 309 37.5 L 308 37.5 L 308.5 34 Z " /><path fill="rgb(144,144,144)" stroke="rgb(144,144,144)" stroke-width="0" opacity="1" d="M 167.5 38 L 183 38.5 L 167.5 39 L 167.5 38 Z " /><path fill="rgb(144,144,144)" stroke="rgb(144,144,144)" stroke-width="0" opacity="1" d="M 104.5 40 L 105 52.5 L 104 52.5 L 104.5 40 Z " /><path fill="rgb(144,144,144)" stroke="rgb(144,144,144)" stroke-width="0" opacity="1" d="M 307.5 40 L 308 42.5 L 307 42.5 L 307.5 40 Z " /><path fill="rgb(144,144,144)" stroke="rgb(144,144,144)" stroke-width="0" opacity="1" d="M 368.5 40 L 369 42.5 L 368 42.5 L 368.5 40 Z " /><path fill="rgb(144,144,144)" stroke="rgb(144,144,144)" stroke-width="0" opacity="1" d="M 209.5 41 L 210.5 43 L 209.5 41 Z " /><path fill="rgb(144,144,144)" stroke="rgb(144,144,144)" stroke-width="0" opacity="1" d="M 193.5 43 L 196.5 47 L 193.5 43 Z " /><path fill="rgb(144,144,144)" stroke="rgb(144,144,144)" stroke-width="0" opacity="1" d="M 306.5 45 L 307 48.5 L 306 48.5 L 306.5 45 Z " /><path fill="rgb(144,144,144)" stroke="rgb(144,144,144)" stroke-width="0" opacity="1" d="M 305.5 51 L 306 54.5 L 305 54.5 L 305.5 51 Z " /><path fill="rgb(144,144,144)" stroke="rgb(144,144,144)" stroke-width="0" opacity="1" d="M 104.5 54 L 130 54.5 L 104.5 55 L 104.5 54 Z " /><path fill="rgb(144,144,144)" stroke="rgb(144,144,144)" stroke-width="0" opacity="1" d="M 215.5 55 L 216 58.5 L 215 58.5 L 215.5 55 Z " /><path fill="rgb(144,144,144)" stroke="rgb(144,144,144)" stroke-width="0" opacity="1" d="M 131.5 56 L 132 65.5 L 130 66.5 L 131 65.5 L 131.5 56 Z " /><path fill="rgb(144,144,144)" stroke="rgb(144,144,144)" stroke-width="0" opacity="1" d="M 304.5 57 L 305 59.5 L 304 59.5 L 304.5 57 Z " /><path fill="rgb(144,144,144)" stroke="rgb(144,144,144)" stroke-width="0" opacity="1" d="M 371.5 57 L 372 59.5 L 371 59.5 L 371.5 57 Z " /><path fill="rgb(144,144,144)" stroke="rgb(144,144,144)" stroke-width="0" opacity="1" d="M 201.5 58 L 202 64.5 L 201 64.5 L 201.5 58 Z " /><path fill="rgb(144,144,144)" stroke="rgb(144,144,144)" stroke-width="0" opacity="1" d="M 317.5 58 L 318.5 60 L 317.5 58 Z " /><path fill="rgb(144,144,144)" stroke="rgb(144,144,144)" stroke-width="0" opacity="1" d="M 316.5 60 L 317 63.5 L 316 63.5 L 316.5 60 Z " /><path fill="rgb(144,144,144)" stroke="rgb(144,144,144)" stroke-width="0" opacity="1" d="M 303.5 62 L 304 65.5 L 303 65.5 L 303.5 62 Z " /><path fill="rgb(144,144,144)" stroke="rgb(144,144,144)" stroke-width="0" opacity="1" d="M 215.5 64 L 216 67.5 L 215 67.5 L 215.5 64 Z " /><path fill="rgb(144,144,144)" stroke="rgb(144,144,144)" stroke-width="0" opacity="1" d="M 315.5 66 L 316 69.5 L 315 69.5 L 315.5 66 Z " /><path fill="rgb(144,144,144)" stroke="rgb(144,144,144)" stroke-width="0" opacity="1" d="M 302.5 68 L 303 71.5 L 302 71.5 L 302.5 68 Z " /><path fill="rgb(144,144,144)" stroke="rgb(144,144,144)" stroke-width="0" opacity="1" d="M 104.5 69 L 105 82.5 L 104 82.5 L 104.5 69 Z " /><path fill="rgb(144,144,144)" stroke="rgb(144,144,144)" stroke-width="0" opacity="1" d="M 55.5 72 L 55 73.5 L 52.5 78 L 53 76.5 L 55.5 72 Z " /><path fill="rgb(144,144,144)" stroke="rgb(144,144,144)" stroke-width="0" opacity="1" d="M 314.5 73 L 315 76.5 L 314 76.5 L 314.5 73 Z " /><path fill="rgb(144,144,144)" stroke="rgb(144,144,144)" stroke-width="0" opacity="1" d="M 229.5 74 L 230 76.5 L 229 76.5 L 229.5 74 Z " /><path fill="rgb(144,144,144)" stroke="rgb(144,144,144)" stroke-width="0" opacity="1" d="M 301.5 74 L 302 76.5 L 301 76.5 L 301.5 74 Z " /><path fill="rgb(144,144,144)" stroke="rgb(144,144,144)" stroke-width="0" opacity="1" d="M 361.5 74 L 362 76.5 L 361 76.5 L 361.5 74 Z " /><path fill="rgb(144,144,144)" stroke="rgb(144,144,144)" stroke-width="0" opacity="1" d="M 195.5 77 L 194.5 79 L 195.5 77 Z " /><path fill="rgb(144,144,144)" stroke="rgb(144,144,144)" stroke-width="0" opacity="1" d="M 269.5 78 L 268.5 80 L 269.5 78 Z " /><path fill="rgb(144,144,144)" stroke="rgb(144,144,144)" stroke-width="0" opacity="1" d="M 313.5 79 L 314 82.5 L 313 82.5 L 313.5 79 Z " /><path fill="rgb(144,144,144)" stroke="rgb(144,144,144)" stroke-width="0" opacity="1" d="M 300.5 80 L 301 82.5 L 300 82.5 L 300.5 80 Z " /><path fill="rgb(144,144,144)" stroke="rgb(144,144,144)" stroke-width="0" opacity="1" d="M 248.5 81 L 249.5 83 L 248.5 81 Z " /><path fill="rgb(144,144,144)" stroke="rgb(144,144,144)" stroke-width="0" opacity="1" d="M 106.5 84 L 134 84.5 L 106.5 85 L 106.5 84 Z " /><path fill="rgb(144,144,144)" stroke="rgb(144,144,144)" stroke-width="0" opacity="1" d="M 167.5 84 L 181 84.5 L 167.5 85 L 167.5 84 Z " /><path fill="rgb(144,144,144)" stroke="rgb(144,144,144)" stroke-width="0" opacity="1" d="M 207.5 84 L 204.5 88 L 207.5 84 Z " /><path fill="rgb(144,144,144)" stroke="rgb(144,144,144)" stroke-width="0" opacity="1" d="M 254.5 84 L 261 84.5 L 254.5 85 L 254.5 84 Z " /><path fill="rgb(144,144,144)" stroke="rgb(144,144,144)" stroke-width="0" opacity="1" d="M 233.5 85 L 234.5 87 L 233.5 85 Z " /><path fill="rgb(144,144,144)" stroke="rgb(144,144,144)" stroke-width="0" opacity="1" d="M 299.5 85 L 300 88.5 L 299 88.5 L 299.5 85 Z " /><path fill="rgb(144,144,144)" stroke="rgb(144,144,144)" stroke-width="0" opacity="1" d="M 136.5 86 L 137 95.5 L 135 96.5 L 136 95.5 L 136.5 86 Z " /><path fill="rgb(144,144,144)" stroke="rgb(144,144,144)" stroke-width="0" opacity="1" d="M 280.5 86 L 279.5 88 L 280.5 86 Z " /><path fill="rgb(144,144,144)" stroke="rgb(144,144,144)" stroke-width="0" opacity="1" d="M 312.5 86 L 313 89.5 L 312 89.5 L 312.5 86 Z " /><path fill="rgb(144,144,144)" stroke="rgb(144,144,144)" stroke-width="0" opacity="1" d="M 363.5 87 L 364 89.5 L 363 89.5 L 363.5 87 Z " /><path fill="rgb(144,144,144)" stroke="rgb(144,144,144)" stroke-width="0" opacity="1" d="M 275.5 91 L 274.5 93 L 275.5 91 Z " /><path fill="rgb(144,144,144)" stroke="rgb(144,144,144)" stroke-width="0" opacity="1" d="M 298.5 91 L 299 93.5 L 298 93.5 L 298.5 91 Z " /><path fill="rgb(144,144,144)" stroke="rgb(144,144,144)" stroke-width="0" opacity="1" d="M 240.5 92 L 241.5 94 L 240.5 92 Z " /><path fill="rgb(144,144,144)" stroke="rgb(144,144,144)" stroke-width="0" opacity="1" d="M 311.5 92 L 312 95.5 L 310 96.5 L 311.5 92 Z " /><path fill="rgb(144,144,144)" stroke="rgb(144,144,144)" stroke-width="0" opacity="1" d="M 364.5 94 L 366 96.5 L 364 95.5 L 364.5 94 Z " /></svg>